<svg width="10" height="10" viewBox="0 0 10 10" fill="none" xmlns="http://www.w3.org/2000/svg">
<path d="M3.07066 9.3043L8.07078 4.30418L5.69582 1.92922L0.695701 6.92934C0.626865 6.99826 0.577967 7.08453 0.554193 7.17899L0 10L2.82047 9.44581C2.91516 9.42213 3.00179 9.37317 3.07066 9.3043ZM9.68493 2.69003C9.88667 2.48823 10 2.21457 10 1.92922C10 1.64388 9.88667 1.37022 9.68493 1.16842L8.83158 0.315069C8.62978 0.11333 8.35612 0 8.07078 0C7.78543 0 7.51177 0.11333 7.30997 0.315069L6.45662 1.16842L8.83158 3.54338L9.68493 2.69003Z" fill="#00419D"/>
</svg>
