<svg width="200" height="141" viewBox="0 0 200 141" fill="none" xmlns="http://www.w3.org/2000/svg">
<path d="M162 0H42C36.4772 0 32 4.47715 32 10V130C32 135.523 36.4772 140 42 140H162C167.523 140 172 135.523 172 130V10C172 4.47715 167.523 0 162 0Z" fill="url(#paint0_linear_289_5710)"/>
<g filter="url(#filter0_d_289_5710)">
<path d="M54 54H189C190.326 54 191.598 54.5268 192.536 55.4645C193.473 56.4021 194 57.6739 194 59V84C194 85.3261 193.473 86.5979 192.536 87.5355C191.598 88.4732 190.326 89 189 89H54C52.6739 89 51.4021 88.4732 50.4645 87.5355C49.5268 86.5979 49 85.3261 49 84V59C49 57.6739 49.5268 56.4021 50.4645 55.4645C51.4021 54.5268 52.6739 54 54 54V54Z" fill="white"/>
</g>
<path d="M128 62H102C100.343 62 99 63.3431 99 65C99 66.6569 100.343 68 102 68H128C129.657 68 131 66.6569 131 65C131 63.3431 129.657 62 128 62Z" fill="#B4DAFF"/>
<path d="M146 75H102C100.343 75 99 76.3431 99 78C99 79.6569 100.343 81 102 81H146C147.657 81 149 79.6569 149 78C149 76.3431 147.657 75 146 75Z" fill="#DEE9FC"/>
<path d="M79.5 81C84.7467 81 89 76.7467 89 71.5C89 66.2533 84.7467 62 79.5 62C74.2533 62 70 66.2533 70 71.5C70 76.7467 74.2533 81 79.5 81Z" fill="#1485FD"/>
<path d="M76.967 69.988H78.045L79.928 75H78.885L78.472 73.803H76.54L76.127 75H75.084L76.967 69.988ZM78.164 72.935L77.716 71.682L77.534 71.073H77.478L77.296 71.682L76.848 72.935H78.164ZM80.5147 75V69.988H82.2787C82.5167 69.988 82.7384 70.0277 82.9437 70.107C83.1537 70.1817 83.3357 70.289 83.4897 70.429C83.6437 70.569 83.7651 70.737 83.8537 70.933C83.9424 71.1243 83.9867 71.3367 83.9867 71.57C83.9867 71.808 83.9424 72.025 83.8537 72.221C83.7651 72.4123 83.6437 72.578 83.4897 72.718C83.3357 72.858 83.1537 72.9677 82.9437 73.047C82.7384 73.1217 82.5167 73.159 82.2787 73.159H81.4597V75H80.5147ZM82.2927 72.263C82.5401 72.263 82.7267 72.193 82.8527 72.053C82.9787 71.913 83.0417 71.752 83.0417 71.57C83.0417 71.4813 83.0254 71.395 82.9927 71.311C82.9647 71.227 82.9181 71.1547 82.8527 71.094C82.7921 71.0287 82.7151 70.9773 82.6217 70.94C82.5284 70.9027 82.4187 70.884 82.2927 70.884H81.4597V72.263H82.2927Z" fill="white"/>
<g filter="url(#filter1_d_289_5710)">
<path d="M11 97H146C147.326 97 148.598 97.5268 149.536 98.4645C150.473 99.4021 151 100.674 151 102V127C151 128.326 150.473 129.598 149.536 130.536C148.598 131.473 147.326 132 146 132H11C9.67392 132 8.40215 131.473 7.46447 130.536C6.52678 129.598 6 128.326 6 127V102C6 100.674 6.52678 99.4021 7.46447 98.4645C8.40215 97.5268 9.67392 97 11 97V97Z" fill="white"/>
</g>
<path d="M85 105H59C57.3431 105 56 106.343 56 108C56 109.657 57.3431 111 59 111H85C86.6569 111 88 109.657 88 108C88 106.343 86.6569 105 85 105Z" fill="#B4DAFF"/>
<path d="M103 118H59C57.3431 118 56 119.343 56 121C56 122.657 57.3431 124 59 124H103C104.657 124 106 122.657 106 121C106 119.343 104.657 118 103 118Z" fill="#DEE9FC"/>
<path d="M23.5 124C28.7467 124 33 119.747 33 114.5C33 109.253 28.7467 105 23.5 105C18.2533 105 14 109.253 14 114.5C14 119.747 18.2533 124 23.5 124Z" fill="#1485FD"/>
<path d="M21.827 117.112C21.4303 117.112 21.0827 117.005 20.784 116.79C20.49 116.575 20.2847 116.279 20.168 115.901L21.036 115.544C21.0967 115.768 21.1947 115.936 21.33 116.048C21.4653 116.16 21.631 116.216 21.827 116.216C22.0463 116.216 22.2167 116.146 22.338 116.006C22.4593 115.866 22.52 115.67 22.52 115.418V111.988H23.465V115.411C23.465 115.691 23.4207 115.938 23.332 116.153C23.248 116.363 23.1313 116.54 22.982 116.685C22.8373 116.825 22.6647 116.93 22.464 117C22.268 117.075 22.0557 117.112 21.827 117.112ZM25.9198 117.112C25.7051 117.112 25.4998 117.082 25.3038 117.021C25.1078 116.96 24.9281 116.869 24.7648 116.748C24.6015 116.627 24.4591 116.48 24.3378 116.307C24.2165 116.13 24.1208 115.924 24.0508 115.691L24.9398 115.341C25.0051 115.593 25.1195 115.803 25.2828 115.971C25.4461 116.134 25.6608 116.216 25.9268 116.216C26.0248 116.216 26.1181 116.204 26.2068 116.181C26.3001 116.153 26.3818 116.116 26.4518 116.069C26.5265 116.018 26.5848 115.955 26.6268 115.88C26.6688 115.805 26.6898 115.719 26.6898 115.621C26.6898 115.528 26.6735 115.444 26.6408 115.369C26.6081 115.294 26.5521 115.224 26.4728 115.159C26.3981 115.094 26.2978 115.031 26.1718 114.97C26.0505 114.909 25.8988 114.846 25.7168 114.781L25.4088 114.669C25.2735 114.622 25.1358 114.559 24.9958 114.48C24.8605 114.401 24.7368 114.305 24.6248 114.193C24.5128 114.081 24.4195 113.95 24.3448 113.801C24.2748 113.647 24.2398 113.474 24.2398 113.283C24.2398 113.087 24.2771 112.905 24.3518 112.737C24.4311 112.564 24.5408 112.415 24.6808 112.289C24.8255 112.158 24.9958 112.058 25.1918 111.988C25.3925 111.913 25.6141 111.876 25.8568 111.876C26.1088 111.876 26.3258 111.911 26.5078 111.981C26.6945 112.046 26.8508 112.133 26.9768 112.24C27.1075 112.343 27.2125 112.457 27.2918 112.583C27.3711 112.709 27.4295 112.828 27.4668 112.94L26.6338 113.29C26.5871 113.15 26.5008 113.024 26.3748 112.912C26.2535 112.8 26.0855 112.744 25.8708 112.744C25.6655 112.744 25.4951 112.793 25.3598 112.891C25.2245 112.984 25.1568 113.108 25.1568 113.262C25.1568 113.411 25.2221 113.54 25.3528 113.647C25.4835 113.75 25.6911 113.85 25.9758 113.948L26.2908 114.053C26.4915 114.123 26.6735 114.205 26.8368 114.298C27.0048 114.387 27.1471 114.494 27.2638 114.62C27.3851 114.746 27.4761 114.891 27.5368 115.054C27.6021 115.213 27.6348 115.397 27.6348 115.607C27.6348 115.868 27.5811 116.095 27.4738 116.286C27.3711 116.473 27.2381 116.627 27.0748 116.748C26.9115 116.869 26.7271 116.96 26.5218 117.021C26.3165 117.082 26.1158 117.112 25.9198 117.112Z" fill="white"/>
<g filter="url(#filter2_d_289_5710)">
<path d="M146 11H11C8.23858 11 6 13.2386 6 16V41C6 43.7614 8.23858 46 11 46H146C148.761 46 151 43.7614 151 41V16C151 13.2386 148.761 11 146 11Z" fill="white"/>
</g>
<path d="M83 19H57C55.3431 19 54 20.3431 54 22C54 23.6569 55.3431 25 57 25H83C84.6569 25 86 23.6569 86 22C86 20.3431 84.6569 19 83 19Z" fill="#B4DAFF"/>
<path d="M101 32H57C55.3431 32 54 33.3431 54 35C54 36.6569 55.3431 38 57 38H101C102.657 38 104 36.6569 104 35C104 33.3431 102.657 32 101 32Z" fill="#DEE9FC"/>
<path d="M36.5 38C41.7467 38 46 33.7467 46 28.5C46 23.2533 41.7467 19 36.5 19C31.2533 19 27 23.2533 27 28.5C27 33.7467 31.2533 38 36.5 38Z" fill="#1485FD"/>
<path d="M33.5082 30.112C33.2935 30.112 33.0882 30.0817 32.8922 30.021C32.6962 29.9603 32.5165 29.8693 32.3532 29.748C32.1899 29.6267 32.0475 29.4797 31.9262 29.307C31.8049 29.1297 31.7092 28.9243 31.6392 28.691L32.5282 28.341C32.5935 28.593 32.7079 28.803 32.8712 28.971C33.0345 29.1343 33.2492 29.216 33.5152 29.216C33.6132 29.216 33.7065 29.2043 33.7952 29.181C33.8885 29.153 33.9702 29.1157 34.0402 29.069C34.1149 29.0177 34.1732 28.9547 34.2152 28.88C34.2572 28.8053 34.2782 28.719 34.2782 28.621C34.2782 28.5277 34.2619 28.4437 34.2292 28.369C34.1965 28.2943 34.1405 28.2243 34.0612 28.159C33.9865 28.0937 33.8862 28.0307 33.7602 27.97C33.6389 27.9093 33.4872 27.8463 33.3052 27.781L32.9972 27.669C32.8619 27.6223 32.7242 27.5593 32.5842 27.48C32.4489 27.4007 32.3252 27.305 32.2132 27.193C32.1012 27.081 32.0079 26.9503 31.9332 26.801C31.8632 26.647 31.8282 26.4743 31.8282 26.283C31.8282 26.087 31.8655 25.905 31.9402 25.737C32.0195 25.5643 32.1292 25.415 32.2692 25.289C32.4139 25.1583 32.5842 25.058 32.7802 24.988C32.9809 24.9133 33.2025 24.876 33.4452 24.876C33.6972 24.876 33.9142 24.911 34.0962 24.981C34.2829 25.0463 34.4392 25.1327 34.5652 25.24C34.6959 25.3427 34.8009 25.457 34.8802 25.583C34.9595 25.709 35.0179 25.828 35.0552 25.94L34.2222 26.29C34.1755 26.15 34.0892 26.024 33.9632 25.912C33.8419 25.8 33.6739 25.744 33.4592 25.744C33.2539 25.744 33.0835 25.793 32.9482 25.891C32.8129 25.9843 32.7452 26.108 32.7452 26.262C32.7452 26.4113 32.8105 26.5397 32.9412 26.647C33.0719 26.7497 33.2795 26.85 33.5642 26.948L33.8792 27.053C34.0799 27.123 34.2619 27.2047 34.4252 27.298C34.5932 27.3867 34.7355 27.494 34.8522 27.62C34.9735 27.746 35.0645 27.8907 35.1252 28.054C35.1905 28.2127 35.2232 28.397 35.2232 28.607C35.2232 28.8683 35.1695 29.0947 35.0622 29.286C34.9595 29.4727 34.8265 29.6267 34.6632 29.748C34.4999 29.8693 34.3155 29.9603 34.1102 30.021C33.9049 30.0817 33.7042 30.112 33.5082 30.112ZM36.0016 24.988H37.6956C38.0922 24.988 38.4492 25.0487 38.7666 25.17C39.0839 25.2913 39.3546 25.464 39.5786 25.688C39.8026 25.9073 39.9729 26.171 40.0896 26.479C40.2109 26.787 40.2716 27.1253 40.2716 27.494C40.2716 27.8673 40.2109 28.208 40.0896 28.516C39.9729 28.824 39.8026 29.0877 39.5786 29.307C39.3546 29.5263 39.0839 29.6967 38.7666 29.818C38.4492 29.9393 38.0922 30 37.6956 30H36.0016V24.988ZM37.6536 29.104C37.9289 29.104 38.1716 29.0667 38.3816 28.992C38.5916 28.9127 38.7666 28.803 38.9066 28.663C39.0466 28.523 39.1516 28.355 39.2216 28.159C39.2916 27.9583 39.3266 27.7367 39.3266 27.494C39.3266 27.2513 39.2916 27.032 39.2216 26.836C39.1516 26.6353 39.0466 26.465 38.9066 26.325C38.7666 26.185 38.5916 26.0777 38.3816 26.003C38.1716 25.9237 37.9289 25.884 37.6536 25.884H36.9466V29.104H37.6536Z" fill="white"/>
<defs>
<filter id="filter0_d_289_5710" x="43" y="51" width="157" height="47" filterUnits="userSpaceOnUse" color-interpolation-filters="sRGB">
<feFlood flood-opacity="0" result="BackgroundImageFix"/>
<feColorMatrix in="SourceAlpha" type="matrix" values="0 0 0 0 0 0 0 0 0 0 0 0 0 0 0 0 0 0 127 0" result="hardAlpha"/>
<feOffset dy="3"/>
<feGaussianBlur stdDeviation="3"/>
<feColorMatrix type="matrix" values="0 0 0 0 0 0 0 0 0 0 0 0 0 0 0 0 0 0 0.161 0"/>
<feBlend mode="normal" in2="BackgroundImageFix" result="effect1_dropShadow_289_5710"/>
<feBlend mode="normal" in="SourceGraphic" in2="effect1_dropShadow_289_5710" result="shape"/>
</filter>
<filter id="filter1_d_289_5710" x="0" y="94" width="157" height="47" filterUnits="userSpaceOnUse" color-interpolation-filters="sRGB">
<feFlood flood-opacity="0" result="BackgroundImageFix"/>
<feColorMatrix in="SourceAlpha" type="matrix" values="0 0 0 0 0 0 0 0 0 0 0 0 0 0 0 0 0 0 127 0" result="hardAlpha"/>
<feOffset dy="3"/>
<feGaussianBlur stdDeviation="3"/>
<feColorMatrix type="matrix" values="0 0 0 0 0 0 0 0 0 0 0 0 0 0 0 0 0 0 0.161 0"/>
<feBlend mode="normal" in2="BackgroundImageFix" result="effect1_dropShadow_289_5710"/>
<feBlend mode="normal" in="SourceGraphic" in2="effect1_dropShadow_289_5710" result="shape"/>
</filter>
<filter id="filter2_d_289_5710" x="0" y="8" width="157" height="47" filterUnits="userSpaceOnUse" color-interpolation-filters="sRGB">
<feFlood flood-opacity="0" result="BackgroundImageFix"/>
<feColorMatrix in="SourceAlpha" type="matrix" values="0 0 0 0 0 0 0 0 0 0 0 0 0 0 0 0 0 0 127 0" result="hardAlpha"/>
<feOffset dy="3"/>
<feGaussianBlur stdDeviation="3"/>
<feColorMatrix type="matrix" values="0 0 0 0 0 0 0 0 0 0 0 0 0 0 0 0 0 0 0.161 0"/>
<feBlend mode="normal" in2="BackgroundImageFix" result="effect1_dropShadow_289_5710"/>
<feBlend mode="normal" in="SourceGraphic" in2="effect1_dropShadow_289_5710" result="shape"/>
</filter>
<linearGradient id="paint0_linear_289_5710" x1="102" y1="0" x2="102" y2="140" gradientUnits="userSpaceOnUse">
<stop stop-color="#E3ECFA"/>
<stop offset="1" stop-color="#DAE7FF"/>
</linearGradient>
</defs>
</svg>
