<svg width="15" height="15" viewBox="0 0 15 15" fill="none" xmlns="http://www.w3.org/2000/svg">
<path d="M9.61914 7.9875C9.70378 7.9875 10.0212 8.125 10.5713 8.4C11.1214 8.675 11.4128 8.84063 11.4453 8.89688C11.4583 8.92813 11.4648 8.975 11.4648 9.0375C11.4648 9.24375 11.4095 9.48125 11.2988 9.75C11.1947 9.99375 10.9635 10.1984 10.6055 10.3641C10.2474 10.5297 9.91536 10.6125 9.60938 10.6125C9.23828 10.6125 8.61979 10.4188 7.75391 10.0312C7.11589 9.75 6.5625 9.38125 6.09375 8.925C5.625 8.46875 5.14323 7.89063 4.64844 7.19063C4.17969 6.52188 3.94857 5.91563 3.95508 5.37188V5.29688C3.97461 4.72813 4.21549 4.23438 4.67773 3.81563C4.83398 3.67813 5.00326 3.60938 5.18555 3.60938C5.22461 3.60938 5.2832 3.61406 5.36133 3.62344C5.43945 3.63281 5.5013 3.6375 5.54688 3.6375C5.67057 3.6375 5.75684 3.65781 5.80566 3.69844C5.85449 3.73906 5.90495 3.825 5.95703 3.95625C6.00911 4.08125 6.11654 4.35625 6.2793 4.78125C6.44206 5.20625 6.52344 5.44063 6.52344 5.48438C6.52344 5.61563 6.41113 5.79531 6.18652 6.02344C5.96191 6.25156 5.84961 6.39688 5.84961 6.45938C5.84961 6.50313 5.86589 6.55 5.89844 6.6C6.11979 7.05625 6.45182 7.48438 6.89453 7.88438C7.25911 8.21563 7.75065 8.53125 8.36914 8.83125C8.44727 8.875 8.51888 8.89688 8.58398 8.89688C8.68164 8.89688 8.85742 8.74531 9.11133 8.44219C9.36523 8.13906 9.5345 7.9875 9.61914 7.9875ZM7.63672 12.9563C8.46354 12.9563 9.25618 12.8 10.0146 12.4875C10.7731 12.175 11.4258 11.7563 11.9727 11.2313C12.5195 10.7063 12.9557 10.0797 13.2812 9.35156C13.6068 8.62344 13.7695 7.8625 13.7695 7.06875C13.7695 6.275 13.6068 5.51406 13.2812 4.78594C12.9557 4.05781 12.5195 3.43125 11.9727 2.90625C11.4258 2.38125 10.7731 1.9625 10.0146 1.65C9.25618 1.3375 8.46354 1.18125 7.63672 1.18125C6.8099 1.18125 6.01725 1.3375 5.25879 1.65C4.50033 1.9625 3.84766 2.38125 3.30078 2.90625C2.75391 3.43125 2.31771 4.05781 1.99219 4.78594C1.66667 5.51406 1.50391 6.275 1.50391 7.06875C1.50391 8.3375 1.89453 9.4875 2.67578 10.5188L1.9043 12.7031L4.26758 11.9813C5.29622 12.6313 6.41927 12.9563 7.63672 12.9563ZM7.63672 0C8.63281 0 9.58496 0.1875 10.4932 0.5625C11.4014 0.9375 12.1842 1.44063 12.8418 2.07188C13.4993 2.70313 14.0234 3.45469 14.4141 4.32656C14.8047 5.19844 15 6.1125 15 7.06875C15 8.025 14.8047 8.93906 14.4141 9.81094C14.0234 10.6828 13.4993 11.4344 12.8418 12.0656C12.1842 12.6969 11.4014 13.2 10.4932 13.575C9.58496 13.95 8.63281 14.1375 7.63672 14.1375C6.36719 14.1375 5.17904 13.8438 4.07227 13.2563L0 14.5125L1.32812 10.7156C0.625 9.60313 0.273438 8.3875 0.273438 7.06875C0.273438 6.1125 0.46875 5.19844 0.859375 4.32656C1.25 3.45469 1.77409 2.70313 2.43164 2.07188C3.08919 1.44063 3.87207 0.9375 4.78027 0.5625C5.68848 0.1875 6.64062 0 7.63672 0Z" fill="#00419D"/>
</svg>
