<svg width="26" height="31" viewBox="0 0 26 31" fill="none" xmlns="http://www.w3.org/2000/svg">
<path d="M16.2237 30.1328L19.5318 29.9094C22.1479 29.3498 22.1486 29.2267 23.3163 28.1213C24.4826 27.0173 24.915 26.0822 25.2029 24.5454C25.38 23.6001 25.2029 22.087 25.2029 22.087C25.2029 22.087 24.7303 18.0641 24.494 17.1701C24.3365 16.4251 22.7617 12.5456 21.1859 9.79473C19.8203 7.41086 17.1689 3.98396 17.1689 3.98396C17.1689 3.98396 14.5734 1.5254 13.6245 1.30191C12.6756 1.07841 11.8084 1.3044 10.7889 1.74889C9.30627 2.39531 7.95339 4.65434 7.95339 4.65434C7.95339 4.65434 4.64526 9.79473 3.70008 11.5827C2.7549 13.3706 0.394668 18.3926 0.628251 22.9809C0.695412 24.3002 0.556881 25.1169 1.10084 26.3334C1.71299 27.7023 3.06996 29.0154 3.70008 29.2389C4.3302 29.4624 5.97381 29.9318 7.48079 30.1328C9.49104 30.4009 10.6491 30.1328 12.6793 30.1328L16.2237 30.1328Z" fill="#FFF1F6" stroke="#E84393" stroke-width="1.2"/>
</svg>
