<svg width="35" height="30" viewBox="0 0 35 30" fill="none" xmlns="http://www.w3.org/2000/svg">
<path d="M11.9754 4.4276L7.01326 5.99207C7.01326 5.99207 4.73011 6.92173 3.70513 8.00352C2.32117 9.46419 1.81477 12.6969 1.81477 12.6969L1.10589 18.2843C0.829052 20.4663 1.10589 22.0838 1.81477 23.4247C2.52366 24.7656 3.4501 26.1326 5.1229 27.2241C6.73242 28.2743 8.19473 28.5652 9.84879 28.7886C11.5029 29.012 16.7013 28.3417 17.6465 28.1181C18.5917 27.8945 21.6635 27.2241 21.6635 27.2241C21.6635 27.2241 28.0435 25.8833 29.4613 25.2127C30.879 24.5421 31.5879 23.4247 31.5879 23.4247C31.5879 23.4247 32.745 22.2904 33.242 21.4132C34.6367 18.9515 34.0738 16.9413 33.242 14.2614C32.962 13.3595 32.2968 12.0265 32.2968 12.0265C33.0244 11.2287 31.8242 7.33315 31.5879 6.88616C31.3516 6.43917 30.6972 4.72251 29.4613 3.08663C28.2323 1.45998 27.8188 1.37367 26.4134 1.0803L26.3894 1.07528C25.5784 0.905962 24.2628 1.07517 24.2628 1.07517C24.2628 1.07517 21.6515 1.39248 20.0095 1.74566C16.7651 2.44348 11.9754 4.4276 11.9754 4.4276Z" fill="#FFF1F6" stroke="#E84393" stroke-width="1.2" stroke-linejoin="round"/>
</svg>
