<svg width="27" height="25" viewBox="0 0 27 25" fill="none" xmlns="http://www.w3.org/2000/svg">
<path d="M17.3989 23.949C16.2824 24.2455 15.6094 24.3057 14.4646 24.1945C12.9928 24.0516 12.1516 23.7338 10.8531 22.9668C9.1541 21.9632 8.52643 20.8549 7.24155 19.2835C5.72963 17.4344 4.9766 16.2804 3.85575 14.1269C2.62962 11.7711 1.81692 10.4063 1.37284 7.74259C1.01104 5.57244 -0.12439 3.58206 1.37284 2.09492C2.01397 1.45811 2.54198 1.22198 3.40431 1.11272C4.29723 0.999579 5.4363 1.11272 5.4363 1.11272C5.4363 1.11272 9.41299 1.60101 11.7559 2.09492C12.8264 2.32057 13.4217 2.48555 14.4646 2.83157C16.9558 3.65813 18.3705 4.24217 20.559 5.77819C21.8778 6.70378 22.6523 7.227 23.7191 8.47925C24.7993 9.7472 25.5753 10.4897 25.9763 12.1625C26.3551 13.7427 26.1883 14.7748 25.7506 16.3369C24.95 19.1937 23.2808 20.3054 21.0105 21.9845C19.7064 22.949 18.9308 23.542 17.3989 23.949Z" fill="#FFF1F6" stroke="#E84393" stroke-width="1.2"/>
</svg>
