<svg width="36" height="30" viewBox="0 0 36 30" fill="none" xmlns="http://www.w3.org/2000/svg">
<path d="M23.555 4.61705L28.5171 6.18152C28.5171 6.18152 30.8002 7.11118 31.8251 8.19298C33.2091 9.65365 33.7155 12.8864 33.7155 12.8864L34.4243 18.4738C34.7012 20.6558 34.4243 22.2733 33.7155 23.6142C33.0066 24.955 32.0802 26.3221 30.4074 27.4136C28.7979 28.4638 27.3357 28.7547 25.6816 28.978C24.0276 29.2014 18.8293 28.5312 17.8841 28.3076C16.9389 28.084 13.8672 27.4136 13.8672 27.4136C13.8672 27.4136 7.48738 26.0727 6.06965 25.4021C4.65192 24.7315 3.94305 23.6142 3.94305 23.6142C3.94305 23.6142 2.78598 22.4798 2.28902 21.6027C0.894279 19.1409 1.4572 17.1307 2.28902 14.4508C2.56899 13.5489 3.23418 12.216 3.23418 12.216C2.50658 11.4181 3.70676 7.5226 3.94305 7.07561C4.17934 6.62862 4.83375 4.91196 6.06965 3.27608C7.29858 1.64944 7.71204 1.56312 9.11739 1.26975L9.14141 1.26473C9.95238 1.09542 11.268 1.26463 11.268 1.26463C11.268 1.26463 13.8792 1.58193 15.5212 1.93511C18.7655 2.63293 23.555 4.61705 23.555 4.61705Z" fill="#FFF1F6" stroke="#E84393" stroke-width="1.2" stroke-linejoin="round"/>
</svg>
