<svg width="35" height="30" viewBox="0 0 35 30" fill="none" xmlns="http://www.w3.org/2000/svg">
<path d="M11.7266 25.6349L6.76458 24.0704C6.76458 24.0704 4.48149 23.1408 3.45653 22.059C2.07261 20.5983 1.56622 17.3656 1.56622 17.3656L0.857352 11.7782C0.580523 9.59618 0.857353 7.97866 1.56622 6.6378C2.27509 5.29694 3.2015 3.92986 4.87427 2.83838C6.48375 1.78819 7.94602 1.4973 9.60005 1.27392C11.2541 1.05053 16.4524 1.7208 17.3976 1.9444C18.3427 2.168 21.4145 2.83838 21.4145 2.83838C21.4145 2.83838 27.7943 4.17925 29.212 4.84984C30.6298 5.52044 31.3386 6.6378 31.3386 6.6378C31.3386 6.6378 32.4957 7.77212 32.9927 8.64926C34.3874 11.111 33.8245 13.1213 32.9927 15.8011C32.7127 16.703 32.0475 18.036 32.0475 18.036C32.7751 18.8338 31.5749 22.7294 31.3386 23.1763C31.1023 23.6233 30.4479 25.34 29.212 26.9759C27.9831 28.6025 27.5696 28.6888 26.1643 28.9822L26.1403 28.9872C25.3293 29.1565 24.0137 28.9873 24.0137 28.9873C24.0137 28.9873 21.4024 28.67 19.7605 28.3168C16.5162 27.619 11.7266 25.6349 11.7266 25.6349Z" fill="#FFF1F6" stroke="#E84393" stroke-width="1.2" stroke-linejoin="round"/>
</svg>
