<svg width="27" height="31" viewBox="0 0 27 31" fill="none" xmlns="http://www.w3.org/2000/svg">
<path d="M10.1769 30.1328L6.86887 29.9094C4.25282 29.3498 4.25219 29.2267 3.08452 28.1213C1.91824 27.0173 1.48577 26.0822 1.19793 24.5454C1.02086 23.6001 1.19793 22.087 1.19793 22.087C1.19793 22.087 1.67051 18.0641 1.9068 17.1701C2.06432 16.4251 3.63907 12.5456 5.21484 9.79473C6.58037 7.41086 9.23176 3.98396 9.23176 3.98396C9.23176 3.98396 11.8272 1.52541 12.7761 1.30191C13.725 1.07841 14.5921 1.3044 15.6116 1.7489C17.0942 2.39531 18.447 4.65434 18.447 4.65434C18.447 4.65434 21.7551 9.79473 22.7002 11.5827C23.6454 13.3707 26.0056 18.3926 25.772 22.9809C25.7048 24.3002 25.8433 25.1169 25.2994 26.3334C24.6873 27.7023 23.3303 29.0154 22.7002 29.2389C22.0701 29.4624 20.4265 29.9318 18.9196 30.1328C16.9094 30.4009 15.7513 30.1328 13.7212 30.1328L10.1769 30.1328Z" fill="#FFF1F6" stroke="#E84393" stroke-width="1.2"/>
</svg>
