<svg width="36" height="28" viewBox="0 0 36 28" fill="none" xmlns="http://www.w3.org/2000/svg">
<path d="M8.60156 2.75738C8.60156 2.75738 6.11689 3.57923 4.81956 4.54534C2.88901 5.98299 1.96174 7.23079 1.27514 9.46223C0.656281 11.4735 1.27514 14.8261 1.27514 14.8261C1.27514 14.8261 0.837677 18.8782 1.98402 21.084C2.84949 22.7493 4.19488 23.7086 5.29215 24.6599C6.38941 25.6112 7.33371 26.0224 8.83657 26.4479C11.4946 27.2004 15.9263 26.4479 15.9263 26.4479C15.9263 26.4479 18.6526 25.8286 19.9434 25.7774C22.7343 25.6668 23.9927 25.9799 26.3237 25.1069C28.1794 24.4119 30.5757 22.425 30.5757 22.425C30.5757 22.425 33.516 21.1338 34.3564 19.5195C35.0137 18.2569 34.8303 15.9436 34.8303 15.9436C34.8303 15.9436 35.0244 14.1755 35.0666 13.0382C35.1669 10.3285 35.6968 8.61198 34.5927 6.1098C33.8531 4.43373 32.2365 3.04216 31.7571 2.31039C31.2778 1.57861 28.9498 1.58567 26.795 1.19291C24.6402 0.800147 23.481 1.11613 21.3602 1.19291C16.3396 1.37467 8.60156 2.75738 8.60156 2.75738Z" fill="#FFF1F6" stroke="#E84393" stroke-width="1.2"/>
</svg>
