<svg width="36" height="28" viewBox="0 0 36 28" fill="none" xmlns="http://www.w3.org/2000/svg">
<path d="M27.6793 3.2271C27.6793 3.2271 30.1639 4.04896 31.4612 5.01506C33.3917 6.45272 34.319 7.70052 35.0056 9.93196C35.6244 11.9432 35.0056 15.2958 35.0056 15.2958C35.0056 15.2958 35.443 19.348 34.2967 21.5537C33.4313 23.219 32.0859 24.1783 30.9887 25.1296C29.8914 26.081 28.9471 26.4921 27.4443 26.9176C24.7864 27.6701 20.3547 26.9176 20.3547 26.9176C20.3547 26.9176 17.6285 26.2983 16.3378 26.2471C13.547 26.1365 12.2885 26.4496 9.95765 25.5766C8.102 24.8816 5.70574 22.8947 5.70574 22.8947C5.70574 22.8947 2.76546 21.6035 1.92512 19.9892C1.26781 18.7266 1.45125 16.4133 1.45125 16.4133C1.45125 16.4133 1.25708 14.6452 1.21496 13.5079C1.1146 10.7982 0.584789 9.08171 1.68883 6.57953C2.42837 4.90345 4.04494 3.51189 4.5243 2.78011C5.00366 2.04834 7.33161 2.0554 9.48636 1.66264C11.6411 1.26987 12.8002 1.58585 14.921 1.66264C19.9415 1.84439 27.6793 3.2271 27.6793 3.2271Z" fill="#FFF1F6" stroke="#E84393" stroke-width="1.2"/>
</svg>
