<svg width="25" height="26" viewBox="0 0 25 26" fill="none" xmlns="http://www.w3.org/2000/svg">
<path d="M12.327 1.2193C11.1621 1 8.02656 1 8.02656 1C8.02656 1 6.2783 1.12282 5.60639 1.6579C5.00073 2.14021 4.91692 2.57843 4.5311 3.19299C2.05275 7.14057 2.77566 9.97521 2.11169 14.3772C1.67409 17.2785 1.30523 21.8334 1.30523 21.8334C1.30482 22.2716 1.13469 22.6545 1.30523 23.1491C1.47096 23.6299 1.68553 23.8872 2.11169 24.2456C2.50697 24.5781 3.18794 24.9035 3.3214 24.9035C3.45486 24.9035 5.06951 24.6842 5.87616 24.2456C6.68281 23.807 10.3314 21.7618 12.8656 19.8597C16.0413 17.476 18.6652 15.7225 19.9647 14.3772C21.2642 13.0319 22.704 11.1827 23.3487 9.55264C23.3487 9.55264 23.6183 9.02862 23.6183 8.67545C23.6183 8.32228 23.475 8.136 23.3487 7.79825C23.0471 6.99147 23.0994 6.97408 22.543 6.26316C22.0221 5.59768 22.543 6.26316 21.7365 5.16667C20.9301 4.07018 18.4828 2.91412 16.8969 2.31579C15.2085 1.67876 13.4919 1.4386 12.327 1.2193Z" fill="#FFF1F6" stroke="#E84393" stroke-width="1.2"/>
</svg>
