<svg width="27" height="25" viewBox="0 0 27 25" fill="none" xmlns="http://www.w3.org/2000/svg">
<path d="M9.50172 23.9543C10.6183 24.2509 11.2913 24.3111 12.4361 24.1999C13.908 24.0569 14.7491 23.7392 16.0477 22.9721C17.7468 21.9686 18.3744 20.8603 19.6594 19.2889C21.1713 17.4398 21.9244 16.2858 23.0452 14.1323C24.2714 11.7765 25.0841 10.4117 25.5282 7.74796C25.89 5.57781 27.0255 3.58743 25.5282 2.10029C24.8871 1.46348 24.359 1.22735 23.4967 1.11809C22.6038 1.00495 21.4646 1.11809 21.4646 1.11809C21.4646 1.11809 17.4879 1.60638 15.1449 2.10029C14.0744 2.32595 13.4791 2.49092 12.4361 2.83695C9.94488 3.66349 8.53018 4.24754 6.34157 5.78356C5.02273 6.70914 4.24826 7.23236 3.18141 8.48461C2.10119 9.75257 1.32514 10.4951 0.924159 12.1679C0.545384 13.748 0.712163 14.7802 1.14989 16.3422C1.95043 19.199 3.61968 20.3108 5.89011 21.9899C7.19418 22.9544 7.96983 23.5474 9.50172 23.9543Z" fill="#FFF1F6" stroke="#E84393" stroke-width="1.2"/>
</svg>
