<svg width="24" height="26" viewBox="0 0 24 26" fill="none" xmlns="http://www.w3.org/2000/svg">
<path d="M11.9547 25.0327C13.1196 25.252 16.2551 25.252 16.2551 25.252C16.2551 25.252 18.0034 25.1291 18.6753 24.5941C19.2809 24.1117 19.3648 23.6735 19.7506 23.059C22.2289 19.1114 21.506 16.2767 22.17 11.8747C22.6076 8.9735 22.9765 4.41859 22.9765 4.41859C22.9769 3.98039 23.147 3.59746 22.9765 3.1028C22.8107 2.62208 22.5961 2.36479 22.17 2.00631C21.7747 1.67381 21.0937 1.34842 20.9603 1.34842C20.8268 1.34842 19.2122 1.56771 18.4055 2.00631C17.5989 2.44491 13.9503 4.49014 11.4161 6.39228C8.24037 8.77599 5.61652 10.5294 4.31699 11.8747C3.01746 13.2201 1.57771 15.0692 0.932988 16.6993C0.932988 16.6993 0.663399 17.2233 0.663399 17.5765C0.663399 17.9297 0.806714 18.1159 0.932988 18.4537C1.23462 19.2605 1.18226 19.2779 1.73869 19.9888C2.25956 20.6543 1.73869 19.9888 2.54516 21.0853C3.35163 22.1818 5.79888 23.3378 7.38473 23.9362C9.07318 24.5732 10.7898 24.8134 11.9547 25.0327Z" fill="#FFF1F6" stroke="#E84393" stroke-width="1.2"/>
</svg>
