<svg width="27" height="31" viewBox="0 0 27 31" fill="none" xmlns="http://www.w3.org/2000/svg">
<path d="M17.1048 1.11916L20.4128 1.34255C23.0289 1.90213 23.0295 2.02526 24.1972 3.13062C25.3634 4.23465 25.7959 5.16977 26.0837 6.70654C26.2608 7.6519 26.0837 9.16499 26.0837 9.16499C26.0837 9.16499 25.6112 13.1879 25.3749 14.0819C25.2174 14.8269 23.6426 18.7063 22.0668 21.4572C20.7013 23.8411 18.0499 27.268 18.0499 27.268C18.0499 27.268 15.4545 29.7265 14.5056 29.95C13.5567 30.1735 12.6896 29.9476 11.6701 29.5031C10.1875 28.8566 8.83466 26.5976 8.83466 26.5976C8.83466 26.5976 5.52662 21.4572 4.58146 19.6693C3.6363 17.8813 1.27613 12.8593 1.5097 8.27101C1.57686 6.95174 1.43834 6.13504 1.98228 4.91858C2.59441 3.54962 3.95135 2.23653 4.58146 2.01303C5.21156 1.78954 6.85514 1.32015 8.36208 1.11916C10.3723 0.851051 11.5304 1.11916 13.5604 1.11916H17.1048Z" fill="#FFF1F6" stroke="#E84393" stroke-width="1.2"/>
</svg>
