<svg width="36" height="28" viewBox="0 0 36 28" fill="none" xmlns="http://www.w3.org/2000/svg">
<path d="M27.6801 25.4946C27.6801 25.4946 30.1648 24.6727 31.4621 23.7066C33.3927 22.269 34.3199 21.0212 35.0065 18.7897C35.6254 16.7784 35.0065 13.4258 35.0065 13.4258C35.0065 13.4258 35.444 9.37372 34.2977 7.16797C33.4322 5.50268 32.0868 4.54339 30.9895 3.59204C29.8923 2.6407 28.948 2.22956 27.4451 1.80408C24.7871 1.05158 20.3553 1.80408 20.3553 1.80408C20.3553 1.80408 17.6291 2.42338 16.3383 2.47454C13.5474 2.58515 12.2889 2.27209 9.95802 3.14505C8.10232 3.84003 5.706 5.827 5.706 5.827C5.706 5.827 2.76566 7.11818 1.92529 8.73243C1.26797 9.99508 1.45141 12.3084 1.45141 12.3084C1.45141 12.3084 1.25724 14.0765 1.21512 15.2138C1.11475 17.9235 0.584927 19.64 1.689 22.1421C2.42855 23.8182 4.04516 25.2098 4.52453 25.9416C5.00391 26.6733 7.33191 26.6663 9.48671 27.059C11.6415 27.4518 12.8006 27.1358 14.9215 27.059C19.9421 26.8773 27.6801 25.4946 27.6801 25.4946Z" fill="#FFF1F6" stroke="#E84393" stroke-width="1.2"/>
</svg>
