<svg width="28" height="25" viewBox="0 0 28 25" fill="none" xmlns="http://www.w3.org/2000/svg">
<path d="M17.78 1.29763C16.6634 1.00104 15.9903 0.940888 14.8455 1.05208C13.3737 1.19503 12.5325 1.51279 11.2339 2.27983C9.53492 3.28338 8.90724 4.39169 7.62232 5.96309C6.11037 7.81216 5.35732 8.96617 4.23645 11.1197C3.01028 13.4754 2.19756 14.8403 1.75347 17.504C1.39166 19.6741 0.256205 21.6645 1.75347 23.1517C2.39461 23.7885 2.92264 24.0246 3.78499 24.1339C4.67793 24.247 5.81703 24.1339 5.81703 24.1339C5.81703 24.1339 9.79381 23.6456 12.1368 23.1517C13.2073 22.926 13.8026 22.761 14.8455 22.415C17.3368 21.5885 18.7515 21.0044 20.9401 19.4684C22.259 18.5428 23.0334 18.0196 24.1003 16.7673C25.1805 15.4994 25.9565 14.7569 26.3575 13.0841C26.7363 11.5039 26.5695 10.4718 26.1318 8.90971C25.3312 6.0529 23.662 4.94118 21.3916 3.26203C20.0875 2.29759 19.3118 1.70455 17.78 1.29763Z" fill="#FFF1F6" stroke="#E84393" stroke-width="1.2"/>
</svg>
