<svg width="27" height="31" viewBox="0 0 27 31" fill="none" xmlns="http://www.w3.org/2000/svg">
<path d="M10.058 1.11916L6.74986 1.34255C4.13376 1.90213 4.13313 2.02526 2.96542 3.13062C1.79912 4.23465 1.36664 5.16977 1.07879 6.70654C0.901718 7.6519 1.07879 9.16499 1.07879 9.16499C1.07879 9.16499 1.55138 13.1879 1.78767 14.0819C1.9452 14.8269 3.51999 18.7063 5.0958 21.4572C6.46136 23.8411 9.11281 27.268 9.11281 27.268C9.11281 27.268 11.7083 29.7265 12.6572 29.95C13.6061 30.1735 14.4732 29.9476 15.4928 29.5031C16.9754 28.8566 18.3283 26.5976 18.3283 26.5976C18.3283 26.5976 21.6364 21.4572 22.5816 19.6693C23.5268 17.8813 25.887 12.8593 25.6534 8.27101C25.5863 6.95174 25.7248 6.13504 25.1808 4.91858C24.5687 3.54962 23.2117 2.23653 22.5816 2.01303C21.9515 1.78954 20.3079 1.32015 18.8009 1.11916C16.7906 0.851051 15.6325 1.11916 13.6024 1.11916H10.058Z" fill="#FFF1F6" stroke="#E84393" stroke-width="1.2"/>
</svg>
