<svg width="35" height="30" viewBox="0 0 35 30" fill="none" xmlns="http://www.w3.org/2000/svg">
<path d="M23.3062 25.8244L28.2684 24.2599C28.2684 24.2599 30.5516 23.3302 31.5765 22.2484C32.9605 20.7878 33.4669 17.555 33.4669 17.555L34.1758 11.9676C34.4526 9.78564 34.1758 8.16812 33.4669 6.82726C32.758 5.48639 31.8316 4.11932 30.1588 3.02784C28.5493 1.97764 27.087 1.68676 25.4329 1.46337C23.7788 1.23998 18.5803 1.91025 17.6352 2.13385C16.69 2.35745 13.6182 3.02783 13.6182 3.02783C13.6182 3.02783 7.2382 4.3687 5.82043 5.03929C4.40266 5.70988 3.69378 6.82725 3.69378 6.82725C3.69378 6.82725 2.53668 7.96157 2.03971 8.83871C0.644933 11.3005 1.20786 13.3107 2.03971 15.9906C2.31968 16.8925 2.98489 18.2254 2.98489 18.2254C2.25727 19.0233 3.45748 22.9188 3.69377 23.3658C3.93007 23.8128 4.5845 25.5294 5.82043 27.1653C7.04938 28.792 7.46286 28.8783 8.86824 29.1717L8.89226 29.1767C9.70324 29.346 11.0189 29.1768 11.0189 29.1768C11.0189 29.1768 13.6302 28.8595 15.2722 28.5063C18.5165 27.8085 23.3062 25.8244 23.3062 25.8244Z" fill="#FFF1F6" stroke="#E84393" stroke-width="1.2" stroke-linejoin="round"/>
</svg>
