<svg width="25" height="26" viewBox="0 0 25 26" fill="none" xmlns="http://www.w3.org/2000/svg">
<path d="M12.3905 1.2193C13.5554 1 16.6908 1 16.6908 1C16.6908 1 18.439 1.12282 19.1109 1.6579C19.7166 2.14021 19.8004 2.57843 20.1862 3.19299C22.6645 7.14057 21.9416 9.97521 22.6056 14.3772C23.0431 17.2785 23.412 21.8334 23.412 21.8334C23.4124 22.2716 23.5825 22.6545 23.412 23.1491C23.2463 23.6299 23.0317 23.8872 22.6056 24.2456C22.2103 24.5781 21.5293 24.9035 21.3959 24.9035C21.2624 24.9035 19.6478 24.6842 18.8412 24.2456C18.0345 23.807 14.3861 21.7618 11.852 19.8597C8.67627 17.476 6.05249 15.7225 4.75299 14.3772C3.45349 13.0319 2.01377 11.1827 1.36907 9.55264C1.36907 9.55264 1.09949 9.02862 1.09949 8.67545C1.09949 8.32228 1.2428 8.136 1.36907 7.79825C1.67069 6.99147 1.61833 6.97408 2.17475 6.26316C2.69561 5.59768 2.17475 6.26316 2.9812 5.16667C3.78765 4.07018 6.23485 2.91412 7.82066 2.31579C9.50907 1.67876 11.2257 1.4386 12.3905 1.2193Z" fill="#FFF1F6" stroke="#E84393" stroke-width="1.2"/>
</svg>
