<svg width="24" height="26" viewBox="0 0 24 26" fill="none" xmlns="http://www.w3.org/2000/svg">
<path d="M11.8911 25.0327C10.7263 25.252 7.59085 25.252 7.59085 25.252C7.59085 25.252 5.84263 25.1291 5.17074 24.5941C4.5651 24.1117 4.48129 23.6735 4.09547 23.059C1.61718 19.1114 2.34008 16.2767 1.67613 11.8747C1.23854 8.9735 0.869679 4.41859 0.869679 4.41859C0.86927 3.98039 0.699144 3.59746 0.86968 3.1028C1.03541 2.62208 1.24998 2.36479 1.67613 2.00631C2.07139 1.67381 2.75234 1.34842 2.8858 1.34842C3.01926 1.34842 4.63388 1.56772 5.44051 2.00631C6.24714 2.44491 9.89562 4.49015 12.4297 6.39228C15.6054 8.776 18.2292 10.5294 19.5287 11.8747C20.8282 13.2201 22.2679 15.0692 22.9126 16.6993C22.9126 16.6993 23.1822 17.2233 23.1822 17.5765C23.1822 17.9297 23.0389 18.116 22.9126 18.4537C22.611 19.2605 22.6633 19.2779 22.1069 19.9888C21.5861 20.6543 22.1069 19.9888 21.3005 21.0853C20.494 22.1818 18.0468 23.3378 16.461 23.9362C14.7726 24.5732 13.056 24.8134 11.8911 25.0327Z" fill="#FFF1F6" stroke="#E84393" stroke-width="1.2"/>
</svg>
