<svg width="36" height="28" viewBox="0 0 36 28" fill="none" xmlns="http://www.w3.org/2000/svg">
<path d="M8.60236 25.0249C8.60236 25.0249 6.11775 24.203 4.82044 23.2369C2.88994 21.7992 1.96269 20.5514 1.27611 18.32C0.657267 16.3087 1.27611 12.9561 1.27611 12.9561C1.27611 12.9561 0.838659 8.904 1.98498 6.69824C2.85042 5.03295 4.19579 4.07366 5.29302 3.12232C6.39026 2.17098 7.33454 1.75983 8.83736 1.33436C11.4953 0.581851 15.927 1.33436 15.927 1.33436C15.927 1.33436 18.6531 1.95366 19.9439 2.00482C22.7347 2.11543 23.9932 1.80237 26.324 2.67533C28.1797 3.37031 30.5759 5.35727 30.5759 5.35727C30.5759 5.35727 33.5162 6.64846 34.3566 8.26271C35.0139 9.52536 34.8304 11.8386 34.8304 11.8386C34.8304 11.8386 35.0246 13.6068 35.0667 14.7441C35.1671 17.4538 35.6969 19.1702 34.5928 21.6724C33.8533 23.3485 32.2367 24.7401 31.7574 25.4718C31.278 26.2036 28.9501 26.1966 26.7953 26.5893C24.6406 26.9821 23.4815 26.6661 21.3607 26.5893C16.3402 26.4076 8.60236 25.0249 8.60236 25.0249Z" fill="#FFF1F6" stroke="#E84393" stroke-width="1.2"/>
</svg>
