<svg width="28" height="25" viewBox="0 0 28 25" fill="none" xmlns="http://www.w3.org/2000/svg">
<path d="M9.88274 1.303C10.9993 1.00641 11.6723 0.946259 12.8171 1.05745C14.2889 1.2004 15.13 1.51816 16.4286 2.2852C18.1276 3.28875 18.7552 4.39706 20.0401 5.96847C21.552 7.81753 22.3051 8.97154 23.4259 11.125C24.6521 13.4808 25.4648 14.8456 25.9088 17.5094C26.2706 19.6795 27.4061 21.6699 25.9088 23.157C25.2677 23.7938 24.7397 24.03 23.8774 24.1392C22.9845 24.2524 21.8454 24.1392 21.8454 24.1392C21.8454 24.1392 17.8687 23.6509 15.5257 23.157C14.4553 22.9314 13.86 22.7664 12.8171 22.4204C10.3259 21.5938 8.91122 21.0098 6.72266 19.4738C5.40385 18.5482 4.6294 18.025 3.56258 16.7727C2.48239 15.5048 1.70636 14.7623 1.30539 13.0894C0.926619 11.5093 1.0934 10.4771 1.53111 8.91508C2.33163 6.05827 4.00084 4.94655 6.27122 3.26741C7.57525 2.30296 8.35089 1.70992 9.88274 1.303Z" fill="#FFF1F6" stroke="#E84393" stroke-width="1.2"/>
</svg>
