<svg width="36" height="27" viewBox="0 0 36 27" fill="none" xmlns="http://www.w3.org/2000/svg">
<path d="M14.382 21.013C12.8049 20.0901 11.8304 19.7177 10.2428 18.8109C8.80352 17.9887 8.0085 17.5071 6.62106 16.6087C5.07042 15.6046 3.81307 15.3768 2.74058 13.9172C1.60779 12.3756 1.68336 11.1323 1.44709 9.26826C1.24265 7.65538 0.668029 6.55635 1.44709 5.10866C2.06363 3.96297 2.89476 3.60755 4.03407 2.90652C6.15119 1.60383 7.72481 1.37979 10.2428 1.19374C12.992 0.99062 14.5366 1.60357 17.2277 2.17247C20.2215 2.80536 24.73 4.37461 24.73 4.37461C24.73 4.37461 29.1152 5.71942 31.1974 7.55548C32.8986 9.05557 34.0335 10.0618 34.5605 12.2044C35.1175 14.4689 34.5891 15.9807 33.5257 18.0768C32.4732 20.1516 29.3865 22.4811 29.3865 22.4811C29.3865 22.4811 26.362 25.0254 23.9539 25.4173C22.7591 25.6117 22.0441 25.6127 20.8495 25.4173C17.7828 24.9157 17.0287 22.5618 14.382 21.013Z" fill="#D0DCFA" stroke="#1E4BE8" stroke-width="1.2"/>
</svg>
