<svg width="42" height="31" viewBox="0 0 42 31" fill="none" xmlns="http://www.w3.org/2000/svg">
<path d="M19.309 1.94829L7.40887 4.15046L3.26969 5.37389C3.26969 5.37389 0.941406 7.33138 0.941406 8.5547V12.959C0.941406 13.6932 1.7175 17.1187 1.7175 17.1187L3.52839 22.9913C4.00823 24.4386 4.51647 25.9137 4.56319 26.1722C4.56319 26.1722 5.33928 27.8849 6.11538 28.619C6.89148 29.3532 7.40887 29.3531 8.96106 29.5978C10.5133 29.8425 8.96106 29.8424 14.6524 29.8424C20.3438 29.8424 21.1199 29.353 21.1199 29.353C21.1199 29.353 26.0352 28.1296 28.3635 27.1509C30.6917 26.1723 31.4678 25.6827 33.5374 24.4594C35.607 23.236 36.1244 22.7465 37.4179 21.0338C38.7114 19.3211 38.9701 17.8528 39.4875 16.6294C40.0049 15.4061 40.5223 13.2038 40.5223 11.0017C40.5223 8.79949 40.0049 7.08669 39.4875 6.10795C38.9701 5.12921 36.3831 2.92704 36.3831 2.92704C36.3831 2.92704 36.3831 2.43766 33.02 1.45892C29.657 0.48018 26.8113 1.45892 25.5178 1.45892C24.2243 1.45892 19.309 1.94829 19.309 1.94829Z" fill="#D0DCFA" stroke="#1E4BE8" stroke-width="1.2"/>
</svg>
