<svg width="29" height="34" viewBox="0 0 29 34" fill="none" xmlns="http://www.w3.org/2000/svg">
<path d="M10.9167 32.7094L7.29493 32.4648C4.43078 31.8522 4.43009 31.7174 3.15167 30.5072C1.87478 29.2986 1.4013 28.2748 1.08616 26.5923C0.8923 25.5573 1.08616 23.9008 1.08616 23.9008C1.08616 23.9008 1.60356 19.4965 1.86226 18.5178C2.03472 17.7022 3.75882 13.455 5.48404 10.4433C6.97907 7.83344 9.88191 4.08168 9.88191 4.08168C9.88191 4.08168 12.7235 1.39005 13.7624 1.14537C14.8013 0.900684 15.7506 1.1481 16.8668 1.63473C18.49 2.34242 19.9712 4.81561 19.9712 4.81561C19.9712 4.81561 23.5929 10.4433 24.6277 12.4008C25.6625 14.3582 28.2465 19.8563 27.9908 24.8796C27.9173 26.3239 28.0689 27.218 27.4734 28.5498C26.8032 30.0485 25.3176 31.4861 24.6277 31.7308C23.9379 31.9755 22.1384 32.4893 20.4886 32.7094C18.2877 33.0029 17.0198 32.7094 14.7972 32.7094H10.9167Z" fill="#D0DCFA" stroke="#1E4BE8" stroke-width="1.2"/>
</svg>
