<svg width="36" height="27" viewBox="0 0 36 27" fill="none" xmlns="http://www.w3.org/2000/svg">
<path d="M14.6398 5.82787C13.0627 6.75081 12.0882 7.12319 10.5007 8.03004C9.06133 8.85221 8.26631 9.33378 6.87887 10.2322C5.32823 11.2363 4.07089 11.4642 2.99839 12.9238C1.8656 14.4654 1.94117 15.7088 1.7049 17.5728C1.50046 19.1857 0.925841 20.2847 1.7049 21.7324C2.32144 22.8781 3.15257 23.2336 4.29189 23.9346C6.40901 25.2373 7.98262 25.4614 10.5007 25.6474C13.2498 25.8505 14.7944 25.2376 17.4855 24.6687C20.4793 24.0358 24.9878 22.4665 24.9878 22.4665C24.9878 22.4665 29.373 21.1217 31.4552 19.2856C33.1564 17.7855 34.2913 16.7792 34.8183 14.6366C35.3753 12.3721 34.8469 10.8603 33.7835 8.7641C32.731 6.68929 29.6444 4.35976 29.6444 4.35976C29.6444 4.35976 26.6198 1.81539 24.2117 1.42353C23.0169 1.22911 22.3019 1.22812 21.1073 1.42353C18.0406 1.92516 17.2865 4.27907 14.6398 5.82787Z" fill="#D0DCFA" stroke="#1E4BE8" stroke-width="1.2"/>
</svg>
