<svg width="27" height="28" viewBox="0 0 27 28" fill="none" xmlns="http://www.w3.org/2000/svg">
<path d="M13.6381 26.7702C12.3628 27.0103 8.92998 27.0103 8.92998 27.0103C8.92998 27.0103 7.01595 26.8758 6.28033 26.29C5.61725 25.762 5.5255 25.2822 5.10309 24.6094C2.38976 20.2876 3.18121 17.1842 2.4543 12.3649C1.9752 9.18863 1.57136 4.20192 1.57136 4.20192C1.57091 3.72217 1.38465 3.30294 1.57136 2.76139C1.75281 2.2351 1.98773 1.95342 2.4543 1.56095C2.88705 1.19693 3.63258 0.840687 3.77869 0.840687C3.92481 0.840687 5.69256 1.08078 6.57569 1.56095C7.45882 2.04113 11.4533 4.28025 14.2278 6.3627C17.7046 8.97239 20.5773 10.892 22 12.3649C23.4227 13.8378 24.999 15.8622 25.7049 17.6468C25.7049 17.6468 26 18.2205 26 18.6072C26 18.9938 25.8431 19.1978 25.7049 19.5675C25.3746 20.4508 25.4319 20.4698 24.8228 21.2481C24.2525 21.9767 24.8228 21.2481 23.9398 22.4486C23.0569 23.649 20.3776 24.9147 18.6414 25.5697C16.7929 26.2672 14.9135 26.5301 13.6381 26.7702Z" fill="#D0DCFA" stroke="#1E4BE8" stroke-width="1.2"/>
</svg>
