<svg width="39" height="30" viewBox="0 0 39 30" fill="none" xmlns="http://www.w3.org/2000/svg">
<path d="M8.93548 27.2137C8.93548 27.2137 6.21523 26.314 4.79489 25.2563C2.68129 23.6823 1.66611 22.3162 0.914408 19.8733C0.236873 17.6713 0.914408 14.0009 0.914408 14.0009C0.914408 14.0009 0.435468 9.56463 1.6905 7.14977C2.63803 5.32661 4.11098 4.27638 5.31228 3.23485C6.51358 2.19333 7.54742 1.74321 9.19277 1.2774C12.1028 0.453552 16.9547 1.2774 16.9547 1.2774C16.9547 1.2774 19.9395 1.9554 21.3526 2.01141C24.4082 2.13251 25.7859 1.78978 28.3379 2.74549C30.3695 3.50636 32.993 5.68168 32.993 5.68168C32.993 5.68168 36.2122 7.09527 37.1322 8.86255C37.8519 10.2449 37.651 12.7775 37.651 12.7775C37.651 12.7775 37.8636 14.7132 37.9097 15.9583C38.0196 18.9249 38.5997 20.8041 37.3909 23.5435C36.5812 25.3785 34.8114 26.9019 34.2865 27.7031C33.7617 28.5042 31.213 28.4965 28.8539 28.9265C26.4948 29.3565 25.2257 29.0106 22.9038 28.9265C17.4072 28.7275 8.93548 27.2137 8.93548 27.2137Z" fill="#D0DCFA" stroke="#1E4BE8" stroke-width="1.2"/>
</svg>
