<svg width="31" height="27" viewBox="0 0 31 27" fill="none" xmlns="http://www.w3.org/2000/svg">
<path d="M11.1431 25.8968C12.3655 26.2215 13.1024 26.2874 14.3557 26.1656C15.9671 26.0091 16.888 25.6613 18.3097 24.8215C20.1697 23.7228 20.8569 22.5094 22.2636 20.7891C23.9189 18.7647 24.7433 17.5013 25.9704 15.1437C27.3128 12.5646 28.2026 11.0704 28.6887 8.15411C29.0848 5.77823 30.3279 3.59916 28.6887 1.97104C27.9868 1.27387 27.4088 1.01535 26.4647 0.895729C25.4871 0.771866 24.24 0.895729 24.24 0.895729C24.24 0.895729 19.8863 1.43031 17.3212 1.97104C16.1493 2.21809 15.4975 2.3987 14.3557 2.77753C11.6283 3.68244 10.0795 4.32185 7.68345 6.00348C6.23961 7.01681 5.39173 7.58963 4.22376 8.96059C3.04114 10.3487 2.19154 11.1616 1.75255 12.993C1.33787 14.723 1.52045 15.853 1.99967 17.5631C2.87609 20.6907 4.70356 21.9079 7.18921 23.7462C8.61688 24.8021 9.46606 25.4513 11.1431 25.8968Z" fill="#D0DCFA" stroke="#1E4BE8" stroke-width="1.2"/>
</svg>
