<svg width="30" height="27" viewBox="0 0 30 27" fill="none" xmlns="http://www.w3.org/2000/svg">
<path d="M10.8853 0.943522C12.1077 0.618809 12.8446 0.552959 14.0979 0.674689C15.7093 0.831194 16.6302 1.17908 18.0518 2.01885C19.9119 3.11755 20.5991 4.33094 22.0058 6.05134C23.6611 8.07573 24.4855 9.33915 25.7126 11.6968C27.055 14.276 27.9447 15.7702 28.4309 18.6865C28.827 21.0624 30.0701 23.2415 28.4309 24.8696C27.729 25.5668 27.1509 25.8253 26.2068 25.9449C25.2293 26.0688 23.9822 25.9449 23.9822 25.9449C23.9822 25.9449 19.6285 25.4104 17.0634 24.8696C15.8914 24.6226 15.2397 24.442 14.0979 24.0631C11.3705 23.1582 9.8217 22.5188 7.42564 20.8371C5.98179 19.8238 5.13391 19.251 3.96594 17.88C2.78333 16.4918 1.93372 15.6789 1.49473 13.8475C1.08005 12.1175 1.26264 10.9875 1.74185 9.27733C2.61828 6.14966 4.44575 4.93253 6.9314 3.09418C8.35907 2.03829 9.20825 1.38902 10.8853 0.943522Z" fill="#D0DCFA" stroke="#1E4BE8" stroke-width="1.2"/>
</svg>
