<svg width="29" height="34" viewBox="0 0 29 34" fill="none" xmlns="http://www.w3.org/2000/svg">
<path d="M11.1745 1.13046L7.55274 1.37502C4.68859 1.98767 4.6879 2.12247 3.40949 3.33263C2.13259 4.54134 1.65911 5.56512 1.34397 7.2476C1.15011 8.28259 1.34397 9.93914 1.34397 9.93914C1.34397 9.93914 1.86137 14.3435 2.12007 15.3222C2.29253 16.1378 4.01663 20.3851 5.74185 23.3969C7.23688 26.0067 10.1397 29.7586 10.1397 29.7586C10.1397 29.7586 12.9813 32.4502 14.0202 32.6949C15.0591 32.9396 16.0084 32.6922 17.1246 32.2055C18.7478 31.4978 20.229 29.0246 20.229 29.0246C20.229 29.0246 23.8507 23.3969 24.8855 21.4394C25.9203 19.4819 28.5044 13.9837 28.2486 8.9604C28.1751 7.51605 28.3268 6.62191 27.7312 5.29011C27.061 3.79136 25.5754 2.35377 24.8855 2.10908C24.1957 1.86439 22.3962 1.3505 20.7464 1.13046C18.5455 0.836928 17.2776 1.13046 15.055 1.13046H11.1745Z" fill="#D0DCFA" stroke="#1E4BE8" stroke-width="1.2"/>
</svg>
