<svg width="38" height="33" viewBox="0 0 38 33" fill="none" xmlns="http://www.w3.org/2000/svg">
<path d="M12.973 27.7255L7.54033 26.0127C7.54033 26.0127 5.04071 24.9949 3.91854 23.8106C2.40337 22.2114 1.84896 18.6722 1.84896 18.6722L1.07286 12.5552C0.769775 10.1663 1.07286 8.39547 1.84896 6.92749C2.62505 5.45951 3.63933 3.96284 5.47074 2.76789C7.23286 1.61814 8.83382 1.29968 10.6447 1.05511C12.4556 0.810549 18.147 1.54436 19.1818 1.78916C20.2166 2.03396 23.5796 2.76789 23.5796 2.76789C23.5796 2.76789 30.5645 4.23587 32.1167 4.97003C33.6689 5.7042 34.445 6.92749 34.445 6.92749C34.445 6.92749 35.7118 8.16934 36.2559 9.12963C37.7829 11.8248 37.1666 14.0256 36.2559 16.9595C35.9494 17.9469 35.2211 19.4062 35.2211 19.4062C36.0177 20.2797 34.7037 24.5445 34.445 25.0339C34.1863 25.5232 33.4698 27.4026 32.1167 29.1936C30.7712 30.9744 30.3185 31.0689 28.7799 31.3901L28.7536 31.3956C27.8657 31.581 26.4253 31.3957 26.4253 31.3957C26.4253 31.3957 23.5664 31.0483 21.7688 30.6617C18.2168 29.8977 12.973 27.7255 12.973 27.7255Z" fill="#D0DCFA" stroke="#1E4BE8" stroke-width="1.2" stroke-linejoin="round"/>
</svg>
