<svg width="39" height="25" viewBox="0 0 39 25" fill="none" xmlns="http://www.w3.org/2000/svg">
<path d="M20.5491 20.1481C22.7843 19.3181 24.0614 18.9007 26.2403 17.9459C29.4812 16.5258 34.2598 13.7863 34.2598 13.7863C34.2598 13.7863 35.6799 12.7187 36.3289 11.8288C37.0746 10.8062 37.6228 8.8927 37.6228 8.8927C37.6228 8.8927 38.5107 5.85331 37.6228 4.24373C36.6764 2.52839 34.2598 1.79685 33.225 1.55223C32.1902 1.3076 27.0164 1.30748 25.2055 1.55223C23.3947 1.79697 20.0317 2.28621 18.7382 2.53095C17.4448 2.7757 10.7188 4.24373 10.7188 4.24373C10.7188 4.24373 6.32098 5.2224 5.02752 6.20119C3.73405 7.17998 1.92321 9.382 1.40583 10.8502C0.888439 12.3183 1.14713 13.5416 1.40583 15.2544C1.66452 16.9673 5.02752 20.8821 5.02752 20.8821C5.02752 20.8821 6.81658 22.8382 8.39007 23.3288C10.6301 24.0273 14.3404 22.3502 14.3404 22.3502C14.3404 22.3502 18.1387 21.0431 20.5491 20.1481Z" fill="#D0DCFA" stroke="#1E4BE8" stroke-width="1.2"/>
</svg>
