<svg width="39" height="33" viewBox="0 0 39 33" fill="none" xmlns="http://www.w3.org/2000/svg">
<path d="M13.2308 5.11587L7.79814 6.82867C7.79814 6.82867 5.29852 7.84647 4.17636 9.03084C2.66118 10.63 2.10677 14.1692 2.10677 14.1692L1.33067 20.2864C1.02759 22.6753 1.33067 24.4462 2.10677 25.9142C2.88286 27.3821 3.89714 28.8788 5.72855 30.0738C7.49068 31.2236 9.09163 31.542 10.9025 31.7866C12.7134 32.0312 18.4048 31.2974 19.4396 31.0525C20.4744 30.8077 23.8375 30.0738 23.8375 30.0738C23.8375 30.0738 30.8223 28.6058 32.3745 27.8716C33.9267 27.1375 34.7028 25.9142 34.7028 25.9142C34.7028 25.9142 35.9696 24.6723 36.5137 23.712C38.0407 21.0168 37.4244 18.816 36.5137 15.882C36.2072 14.8946 35.4789 13.4353 35.4789 13.4353C36.2755 12.5618 34.9615 8.2969 34.7028 7.80753C34.4441 7.31816 33.7276 5.43873 32.3745 3.64775C31.029 1.86688 30.5764 1.77238 29.0377 1.45119L29.0114 1.4457C28.1236 1.26033 26.6831 1.44558 26.6831 1.44558C26.6831 1.44558 23.8243 1.79297 22.0266 2.17964C18.4746 2.94362 13.2308 5.11587 13.2308 5.11587Z" fill="#D0DCFA" stroke="#1E4BE8" stroke-width="1.2" stroke-linejoin="round"/>
</svg>
