<svg width="39" height="33" viewBox="0 0 39 33" fill="none" xmlns="http://www.w3.org/2000/svg">
<path d="M25.5447 27.725L30.9773 26.0122C30.9773 26.0122 33.4768 24.9944 34.599 23.8101C36.1141 22.2109 36.6685 18.6718 36.6685 18.6718L37.4446 12.5547C37.7476 10.1658 37.4446 8.39498 36.6685 6.927C35.8924 5.45903 34.8782 3.96236 33.0468 2.7674C31.2847 1.61766 29.6838 1.29919 27.8729 1.05463C26.0621 0.810062 20.3709 1.54387 19.3361 1.78868C18.3013 2.03348 14.9383 2.7674 14.9383 2.7674C14.9383 2.7674 7.95363 4.23538 6.40148 4.96955C4.84933 5.70371 4.07325 6.927 4.07325 6.927C4.07325 6.927 2.80647 8.16885 2.2624 9.12914C0.735413 11.8243 1.3517 14.0251 2.2624 16.959C2.5689 17.9464 3.29717 19.4057 3.29717 19.4057C2.50058 20.2792 3.81455 24.544 4.07325 25.0334C4.33194 25.5227 5.0484 27.4021 6.40148 29.1931C7.74693 30.9739 8.19959 31.0684 9.73819 31.3896L9.76448 31.3951C10.6523 31.5805 12.0927 31.3952 12.0927 31.3952C12.0927 31.3952 14.9515 31.0479 16.7492 30.6612C20.301 29.8972 25.5447 27.725 25.5447 27.725Z" fill="#D0DCFA" stroke="#1E4BE8" stroke-width="1.2" stroke-linejoin="round"/>
</svg>
