<svg width="42" height="31" viewBox="0 0 42 31" fill="none" xmlns="http://www.w3.org/2000/svg">
<path d="M22.2128 1.94829L34.1126 4.15046L38.2517 5.37389C38.2517 5.37389 40.5799 7.33138 40.5799 8.5547V12.959C40.5799 13.6932 39.8039 17.1187 39.8039 17.1187L37.993 22.9913C37.5132 24.4386 37.005 25.9137 36.9582 26.1722C36.9582 26.1722 36.1822 27.8849 35.4061 28.619C34.63 29.3532 34.1126 29.3531 32.5605 29.5978C31.0083 29.8425 32.5605 29.8424 26.8692 29.8424C21.178 29.8424 20.4019 29.353 20.4019 29.353C20.4019 29.353 15.4868 28.1296 13.1585 27.1509C10.8303 26.1723 10.0542 25.6827 7.9847 24.4594C5.91516 23.236 5.39778 22.7465 4.10431 21.0338C2.81085 19.3211 2.55216 17.8528 2.03477 16.6294C1.51739 15.4061 1.00001 13.2038 1.00001 11.0017C1.00001 8.79949 1.51739 7.08669 2.03477 6.10795C2.55216 5.12921 5.13908 2.92704 5.13908 2.92704C5.13908 2.92704 5.13908 2.43766 8.50209 1.45892C11.8651 0.48018 14.7107 1.45892 16.0042 1.45892C17.2976 1.45892 22.2128 1.94829 22.2128 1.94829Z" fill="#D0DCFA" stroke="#1E4BE8" stroke-width="1.2"/>
</svg>
