<svg width="40" height="30" viewBox="0 0 40 30" fill="none" xmlns="http://www.w3.org/2000/svg">
<path d="M9.19329 2.6281C9.19329 2.6281 6.47304 3.52788 5.0527 4.58559C2.93911 6.15955 1.92392 7.52566 1.17222 9.96867C0.494685 12.1707 1.17222 15.8411 1.17222 15.8411C1.17222 15.8411 0.69328 20.2774 1.94832 22.6923C2.89584 24.5155 4.3688 25.5658 5.5701 26.6073C6.7714 27.6488 7.80523 28.099 9.45058 28.5648C12.3606 29.3886 17.2126 28.5648 17.2126 28.5648C17.2126 28.5648 20.1973 27.8868 21.6104 27.8308C24.666 27.7097 26.0438 28.0524 28.5957 27.0967C30.6273 26.3358 33.2509 24.1604 33.2509 24.1604C33.2509 24.1604 36.47 22.7468 37.39 20.9795C38.1097 19.5972 37.9088 17.0646 37.9088 17.0646C37.9088 17.0646 38.1214 15.1288 38.1675 13.8836C38.2774 10.917 38.8575 9.03781 37.6487 6.29839C36.839 4.46339 35.0692 2.93989 34.5443 2.13873C34.0195 1.33757 31.4708 1.3453 29.1117 0.915301C26.7526 0.485299 25.4835 0.83124 23.1616 0.915301C17.665 1.11429 9.19329 2.6281 9.19329 2.6281Z" fill="#D0DCFA" stroke="#1E4BE8" stroke-width="1.2"/>
</svg>
