<svg width="30" height="36" viewBox="0 0 30 36" fill="none" xmlns="http://www.w3.org/2000/svg">
<path d="M19.6358 5.08168C20.0484 4.64608 20.0483 4.64604 20.0483 4.64599L20.0481 4.64584L20.0476 4.64536L20.0458 4.64368L20.0392 4.63744L20.0142 4.61392C19.9925 4.59349 19.9607 4.56376 19.92 4.52599C19.8387 4.45046 19.7219 4.34267 19.5785 4.21272C19.2921 3.95316 18.8983 3.60354 18.4703 3.24523C18.0439 2.88822 17.5759 2.51606 17.1424 2.21474C16.7343 1.93101 16.2769 1.65178 15.8929 1.56135C14.6642 1.27194 13.5675 1.58064 12.4113 2.08473C11.4592 2.49984 10.6069 3.39414 10.0242 4.11262C9.72407 4.48271 9.47781 4.82862 9.30647 5.08208C9.22062 5.20908 9.15311 5.31355 9.10656 5.38711C9.08328 5.4239 9.06521 5.45301 9.05268 5.47338L9.03807 5.49728L9.03756 5.49813L9.03164 5.50733L9.00098 5.55505L8.88393 5.73754C8.78264 5.89561 8.63686 6.12351 8.45871 6.40307C8.10245 6.96212 7.61654 7.72811 7.09811 8.55558C6.06668 10.2019 4.88962 12.1182 4.35985 13.1203C3.32125 15.085 0.663359 20.7102 0.92807 25.9101C0.942669 26.1968 0.947035 26.4716 0.951311 26.7408C0.967016 27.7292 0.98152 28.642 1.49695 29.7947C1.86646 30.6211 2.44926 31.4098 3.02245 32.021C3.31083 32.3285 3.60481 32.5997 3.87971 32.8143C4.14492 33.0213 4.42707 33.2031 4.68972 33.2963C5.41133 33.5522 7.25167 34.0776 8.95005 34.3041C10.0964 34.457 11.0008 34.4565 11.8921 34.4189C12.164 34.4075 12.4299 34.3929 12.699 34.3782C13.3195 34.3442 13.9565 34.3094 14.7206 34.3094H18.601H18.6212L18.6414 34.308L22.2631 34.0635L22.3061 34.0606L22.3482 34.0516C23.7632 33.7489 24.5595 33.5486 25.1593 33.2457C25.7 32.9727 26.0708 32.6183 26.5637 32.1474C26.6326 32.0816 26.7039 32.0135 26.7783 31.943C27.4531 31.3042 27.9373 30.6933 28.2928 30.0018C28.6467 29.3134 28.8577 28.5746 29.021 27.7028C29.1313 27.1139 29.128 26.3833 29.1034 25.8317C29.0908 25.5494 29.072 25.301 29.0562 25.123C29.0484 25.0339 29.0412 24.962 29.036 24.9119L29.0298 24.8536L29.028 24.8377L29.0275 24.8332L29.0273 24.8318L29.0273 24.8314L29.0272 24.8312C29.0272 24.8311 29.0272 24.8311 28.4315 24.9008L29.0272 24.8311L29.0272 24.8308L28.4313 24.9008L29.0272 24.8308L29.0272 24.8306L29.0271 24.8299L29.0268 24.8275L29.0257 24.8179L29.0213 24.7805L29.0043 24.6383C28.9896 24.5155 28.9683 24.339 28.9419 24.1243C28.8893 23.6949 28.8163 23.1118 28.7351 22.4977C28.5773 21.3037 28.3803 19.924 28.2389 19.3784C28.1818 19.1191 28.0265 18.6657 27.82 18.1224C27.6034 17.5524 27.3142 16.8423 26.9771 16.0653C26.3039 14.5136 25.4317 12.6771 24.5542 11.1451C23.7902 9.81137 22.6753 8.19981 21.7605 6.93261C21.3014 6.29656 20.8893 5.74273 20.592 5.3478C20.4433 5.15028 20.3232 4.99238 20.2401 4.88367L20.1443 4.75864L20.1192 4.72602L20.1127 4.71757L20.111 4.71536L20.1105 4.71477L20.1104 4.7146C20.1103 4.71455 20.1103 4.71452 19.6358 5.08168ZM19.6358 5.08168L20.0484 4.64608L20.082 4.67791L20.1103 4.71452L19.6358 5.08168Z" fill="#D0DCFA" stroke="#1E4BE8" stroke-width="1.2"/>
</svg>
