<svg width="40" height="30" viewBox="0 0 40 30" fill="none" xmlns="http://www.w3.org/2000/svg">
<path d="M30.5861 27.2137C30.5861 27.2137 33.3062 26.314 34.7265 25.2563C36.8401 23.6823 37.8553 22.3162 38.6069 19.8733C39.2845 17.6713 38.6069 14.0009 38.6069 14.0009C38.6069 14.0009 39.0859 9.56463 37.8309 7.14977C36.8834 5.32661 35.4104 4.27638 34.2092 3.23485C33.0079 2.19333 31.9741 1.74321 30.3288 1.2774C27.4188 0.453552 22.567 1.2774 22.567 1.2774C22.567 1.2774 19.5823 1.9554 18.1692 2.01141C15.1138 2.13251 13.736 1.78978 11.1841 2.74549C9.15253 3.50636 6.52908 5.68168 6.52908 5.68168C6.52908 5.68168 3.31002 7.09527 2.39001 8.86255C1.67038 10.2449 1.8712 12.7775 1.8712 12.7775C1.8712 12.7775 1.65863 14.7132 1.61251 15.9583C1.50264 18.9249 0.922592 20.8041 2.13131 23.5435C2.94097 25.3785 4.71081 26.9019 5.23562 27.7031C5.76044 28.5042 8.30911 28.4965 10.6682 28.9265C13.0272 29.3565 14.2962 29.0106 16.6181 28.9265C22.1145 28.7275 30.5861 27.2137 30.5861 27.2137Z" fill="#D0DCFA" stroke="#1E4BE8" stroke-width="1.2"/>
</svg>
