<svg width="41" height="31" viewBox="0 0 41 31" fill="none" xmlns="http://www.w3.org/2000/svg">
<path d="M19.0512 28.8935L7.15106 26.6914L3.01188 25.468C3.01188 25.468 0.683594 23.5105 0.683594 22.2872V17.8829C0.683594 17.1488 1.45969 13.7233 1.45969 13.7233L3.27058 7.85084C3.75042 6.40351 4.25866 4.92845 4.30537 4.66997C4.30537 4.66997 5.08147 2.9573 5.85757 2.22314C6.63366 1.48899 7.15106 1.4891 8.70325 1.24442C10.2554 0.999733 8.70325 0.999838 14.3946 0.999838C20.086 0.999838 20.8621 1.4892 20.8621 1.4892C20.8621 1.4892 25.7774 2.71261 28.1056 3.69124C30.4339 4.66986 31.21 5.15944 33.2796 6.38274C35.3492 7.60605 35.8666 8.09562 37.1601 9.8083C38.4536 11.521 38.7123 12.9893 39.2297 14.2126C39.7471 15.4359 40.2645 17.6381 40.2645 19.8403C40.2645 22.0424 39.7471 23.7552 39.2297 24.7339C38.7123 25.7126 36.1253 27.9148 36.1253 27.9148C36.1253 27.9148 36.1253 28.4042 32.7622 29.3829C29.3991 30.3616 26.5535 29.3829 25.26 29.3829C23.9665 29.3829 19.0512 28.8935 19.0512 28.8935Z" fill="#D0DCFA" stroke="#1E4BE8" stroke-width="1.2"/>
</svg>
