<svg width="39" height="25" viewBox="0 0 39 25" fill="none" xmlns="http://www.w3.org/2000/svg">
<path d="M20.2913 4.69278C22.5265 5.52281 23.8036 5.94016 25.9825 6.89495C29.2234 8.31512 34.002 11.0546 34.002 11.0546C34.002 11.0546 35.4221 12.1223 36.0711 13.0122C36.8168 14.0348 37.365 15.9483 37.365 15.9483C37.365 15.9483 38.253 18.9877 37.365 20.5974C36.4186 22.3127 34.002 23.0443 32.9672 23.2889C31.9324 23.5335 26.7586 23.5336 24.9477 23.2889C23.1369 23.0441 19.7739 22.5549 18.4804 22.3102C17.187 22.0654 10.461 20.5974 10.461 20.5974C10.461 20.5974 6.06318 19.6187 4.76972 18.6399C3.47626 17.6611 1.66541 15.459 1.14803 13.9908C0.630642 12.5227 0.889336 11.2994 1.14803 9.58649C1.40672 7.87363 4.76972 3.95872 4.76972 3.95872C4.76972 3.95872 6.55878 2.0026 8.13227 1.51199C10.3723 0.813536 14.0826 2.49061 14.0826 2.49061C14.0826 2.49061 17.8809 3.79772 20.2913 4.69278Z" fill="#D0DCFA" stroke="#1E4BE8" stroke-width="1.2"/>
</svg>
