<svg width="27" height="28" viewBox="0 0 27 28" fill="none" xmlns="http://www.w3.org/2000/svg">
<path d="M13.6218 1.07017C14.8971 0.830078 18.3298 0.830078 18.3298 0.830078C18.3298 0.830078 20.2438 0.964539 20.9794 1.55035C21.6425 2.07839 21.7342 2.55817 22.1566 3.23099C24.8699 7.55286 24.0785 10.6563 24.8054 15.4756C25.2844 18.6519 25.6883 23.6387 25.6883 23.6387C25.6887 24.1185 25.875 24.5377 25.6883 25.0793C25.5068 25.6056 25.2719 25.8873 24.8054 26.2797C24.3726 26.6438 23.6271 27 23.481 27C23.3349 27 21.5672 26.7599 20.6841 26.2797C19.801 25.7995 15.8065 23.5604 13.0322 21.4779C9.55539 18.8682 6.68283 16.9485 5.26012 15.4756C3.83742 14.0027 2.26119 11.9783 1.55536 10.1936C1.55536 10.1936 1.26022 9.61992 1.26022 9.23326C1.26022 8.84661 1.41712 8.64267 1.55536 8.2729C1.88558 7.38963 1.82826 7.37058 2.43744 6.59226C3.00768 5.86368 2.43744 6.59226 3.32035 5.39181C4.20326 4.19135 6.88248 2.92568 8.61865 2.27062C10.4671 1.57319 12.3465 1.31026 13.6218 1.07017Z" fill="#D0DCFA" stroke="#1E4BE8" stroke-width="1.2"/>
</svg>
