<svg width="36" height="27" viewBox="0 0 36 27" fill="none" xmlns="http://www.w3.org/2000/svg">
<path d="M21.8818 5.82787C23.459 6.75081 24.4334 7.12319 26.0209 8.03004C27.4602 8.85221 28.2552 9.33378 29.6426 10.2322C31.1932 11.2363 32.4505 11.4642 33.523 12.9238C34.6558 14.4654 34.5802 15.7088 34.8165 17.5728C35.0209 19.1857 35.5955 20.2847 34.8165 21.7324C34.1999 22.8781 33.3688 23.2336 32.2295 23.9346C30.1125 25.2373 28.5389 25.4614 26.0209 25.6474C23.2718 25.8505 21.7273 25.2376 19.0362 24.6687C16.0425 24.0358 11.5341 22.4665 11.5341 22.4665C11.5341 22.4665 7.14901 21.1217 5.06683 19.2856C3.36567 17.7855 2.23083 16.7792 1.70383 14.6366C1.14685 12.3721 1.67525 10.8603 2.7386 8.7641C3.79112 6.68929 6.87768 4.35976 6.87768 4.35976C6.87768 4.35976 9.90211 1.81539 12.3102 1.42353C13.505 1.22911 14.2199 1.22812 15.4145 1.42353C18.4812 1.92516 19.2353 4.27907 21.8818 5.82787Z" fill="#D0DCFA" stroke="#1E4BE8" stroke-width="1.2"/>
</svg>
