<svg width="30" height="27" viewBox="0 0 30 27" fill="none" xmlns="http://www.w3.org/2000/svg">
<path d="M19.6365 0.943522C18.414 0.618809 17.6771 0.552959 16.4238 0.674689C14.8124 0.831194 13.8915 1.17908 12.4698 2.01885C10.6097 3.11755 9.92248 4.33094 8.51574 6.05134C6.86043 8.07573 6.03597 9.33915 4.80883 11.6968C3.46641 14.276 2.57663 15.7702 2.09043 18.6865C1.69432 21.0624 0.451208 23.2415 2.09043 24.8696C2.79237 25.5668 3.37045 25.8253 4.31458 25.9449C5.29217 26.0688 6.53928 25.9449 6.53928 25.9449C6.53928 25.9449 10.8931 25.4104 13.4583 24.8696C14.6302 24.6226 15.282 24.442 16.4238 24.0631C19.1513 23.1582 20.7001 22.5188 23.0962 20.8371C24.5401 19.8238 25.388 19.251 26.556 17.88C27.7387 16.4918 28.5883 15.6789 29.0273 13.8475C29.442 12.1175 29.2594 10.9875 28.7802 9.27733C27.9037 6.14966 26.0762 4.93253 23.5905 3.09418C22.1628 2.03829 21.3136 1.38902 19.6365 0.943522Z" fill="#D0DCFA" stroke="#1E4BE8" stroke-width="1.2"/>
</svg>
