<svg width="27" height="28" viewBox="0 0 27 28" fill="none" xmlns="http://www.w3.org/2000/svg">
<path d="M13.8796 26.7697C15.1549 27.0098 18.5876 27.0098 18.5876 27.0098C18.5876 27.0098 20.5016 26.8753 21.2372 26.2895C21.9003 25.7615 21.992 25.2817 22.4144 24.6089C25.1277 20.2871 24.3363 17.1837 25.0632 12.3644C25.5422 9.18814 25.9461 4.20143 25.9461 4.20143C25.9465 3.72169 26.1328 3.30245 25.9461 2.7609C25.7646 2.23461 25.5297 1.95293 25.0632 1.56046C24.6304 1.19645 23.8849 0.8402 23.7388 0.8402C23.5927 0.8402 21.825 1.08029 20.9419 1.56046C20.0588 2.04064 16.0644 4.27976 13.29 6.36222C9.8132 8.97191 6.94065 10.8915 5.51794 12.3644C4.09523 13.8373 2.519 15.8617 1.81318 17.6463C1.81318 17.6463 1.51803 18.22 1.51803 18.6067C1.51803 18.9933 1.67493 19.1973 1.81318 19.567C2.14339 20.4503 2.08607 20.4694 2.69525 21.2477C3.2655 21.9762 2.69525 21.2477 3.57816 22.4481C4.46107 23.6485 7.1403 24.9142 8.87647 25.5692C10.725 26.2667 12.6043 26.5296 13.8796 26.7697Z" fill="#D0DCFA" stroke="#1E4BE8" stroke-width="1.2"/>
</svg>
