<svg width="30" height="27" viewBox="0 0 30 27" fill="none" xmlns="http://www.w3.org/2000/svg">
<path d="M19.3786 25.8968C18.1562 26.2215 17.4193 26.2874 16.166 26.1656C14.5546 26.0091 13.6337 25.6613 12.212 24.8215C10.3519 23.7228 9.66467 22.5094 8.25792 20.7891C6.60262 18.7647 5.77816 17.5013 4.55102 15.1437C3.2086 12.5646 2.31882 11.0704 1.83262 8.15411C1.43651 5.77823 0.193395 3.59916 1.83262 1.97104C2.53455 1.27387 3.11264 1.01535 4.05676 0.895729C5.03436 0.771866 6.28147 0.895729 6.28147 0.895729C6.28147 0.895729 10.6353 1.43031 13.2005 1.97104C14.3724 2.21809 15.0242 2.3987 16.166 2.77753C18.8935 3.68244 20.4423 4.32185 22.8384 6.00348C24.2823 7.01681 25.1302 7.58963 26.2982 8.96059C27.4808 10.3487 28.3305 11.1616 28.7695 12.993C29.1842 14.723 29.0016 15.853 28.5223 17.5631C27.6459 20.6907 25.8184 21.9079 23.3327 23.7462C21.905 24.8021 21.0558 25.4513 19.3786 25.8968Z" fill="#D0DCFA" stroke="#1E4BE8" stroke-width="1.2"/>
</svg>
