<svg width="40" height="30" viewBox="0 0 40 30" fill="none" xmlns="http://www.w3.org/2000/svg">
<path d="M30.3283 2.6281C30.3283 2.6281 33.0484 3.52788 34.4687 4.58559C36.5823 6.15955 37.5975 7.52566 38.3491 9.96867C39.0267 12.1707 38.3491 15.8411 38.3491 15.8411C38.3491 15.8411 38.8281 20.2774 37.5731 22.6923C36.6256 24.5155 35.1526 25.5658 33.9514 26.6073C32.7501 27.6488 31.7163 28.099 30.071 28.5648C27.161 29.3886 22.3092 28.5648 22.3092 28.5648C22.3092 28.5648 19.3245 27.8868 17.9114 27.8308C14.856 27.7097 13.4782 28.0524 10.9263 27.0967C8.89474 26.3358 6.27128 24.1604 6.27128 24.1604C6.27128 24.1604 3.05223 22.7468 2.13221 20.9795C1.41258 19.5972 1.61341 17.0646 1.61341 17.0646C1.61341 17.0646 1.40083 15.1288 1.35471 13.8836C1.24484 10.917 0.664795 9.03781 1.87352 6.29839C2.68317 4.46339 4.45301 2.93989 4.97783 2.13873C5.50264 1.33757 8.05131 1.3453 10.4104 0.915301C12.7694 0.485299 14.0384 0.83124 16.3603 0.915301C21.8567 1.11429 30.3283 2.6281 30.3283 2.6281Z" fill="#D0DCFA" stroke="#1E4BE8" stroke-width="1.2"/>
</svg>
