<svg width="38" height="33" viewBox="0 0 38 33" fill="none" xmlns="http://www.w3.org/2000/svg">
<path d="M25.2869 5.11587L30.7195 6.82867C30.7195 6.82867 33.219 7.84647 34.3412 9.03084C35.8563 10.63 36.4107 14.1692 36.4107 14.1692L37.1868 20.2864C37.4898 22.6753 37.1868 24.4462 36.4107 25.9142C35.6346 27.3821 34.6204 28.8788 32.789 30.0738C31.0269 31.2236 29.426 31.542 27.6152 31.7866C25.8043 32.0312 20.1131 31.2974 19.0783 31.0525C18.0435 30.8077 14.6805 30.0738 14.6805 30.0738C14.6805 30.0738 7.69584 28.6058 6.14368 27.8716C4.59153 27.1375 3.81545 25.9142 3.81545 25.9142C3.81545 25.9142 2.54868 24.6723 2.0046 23.712C0.477615 21.0168 1.0939 18.816 2.0046 15.882C2.31111 14.8946 3.03937 13.4353 3.03937 13.4353C2.24279 12.5618 3.55676 8.2969 3.81545 7.80753C4.07414 7.31816 4.7906 5.43873 6.14368 3.64775C7.48913 1.86688 7.9418 1.77238 9.48039 1.45119L9.50668 1.4457C10.3945 1.26033 11.8349 1.44558 11.8349 1.44558C11.8349 1.44558 14.6937 1.79297 16.4914 2.17964C20.0432 2.94362 25.2869 5.11587 25.2869 5.11587Z" fill="#D0DCFA" stroke="#1E4BE8" stroke-width="1.2" stroke-linejoin="round"/>
</svg>
