<svg width="42" height="31" viewBox="0 0 42 31" fill="none" xmlns="http://www.w3.org/2000/svg">
<path d="M22.4706 28.8935L34.3704 26.6914L38.5095 25.468C38.5095 25.468 40.8377 23.5105 40.8377 22.2872V17.8829C40.8377 17.1488 40.0617 13.7233 40.0617 13.7233L38.2508 7.85084C37.771 6.40351 37.2628 4.92845 37.216 4.66997C37.216 4.66997 36.44 2.9573 35.6639 2.22314C34.8878 1.48899 34.3704 1.4891 32.8183 1.24442C31.2661 0.999733 32.8183 0.999838 27.127 0.999838C21.4358 0.999838 20.6597 1.4892 20.6597 1.4892C20.6597 1.4892 15.7446 2.71261 13.4163 3.69124C11.0881 4.66986 10.312 5.15944 8.2425 6.38274C6.17296 7.60605 5.65557 8.09562 4.36211 9.8083C3.06865 11.521 2.80996 12.9893 2.29257 14.2126C1.77519 15.4359 1.2578 17.6381 1.2578 19.8403C1.2578 22.0424 1.77519 23.7552 2.29257 24.7339C2.80996 25.7126 5.39688 27.9148 5.39688 27.9148C5.39688 27.9148 5.39688 28.4042 8.75988 29.3829C12.1229 30.3616 14.9685 29.3829 16.262 29.3829C17.5554 29.3829 22.4706 28.8935 22.4706 28.8935Z" fill="#D0DCFA" stroke="#1E4BE8" stroke-width="1.2"/>
</svg>
