<svg width="39" height="25" viewBox="0 0 39 25" fill="none" xmlns="http://www.w3.org/2000/svg">
<path d="M18.2305 4.69278C15.9952 5.52281 14.7181 5.94016 12.5391 6.89495C9.29817 8.31512 4.51947 11.0546 4.51947 11.0546C4.51947 11.0546 3.09926 12.1223 2.45033 13.0122C1.70459 14.0348 1.15639 15.9483 1.15639 15.9483C1.15639 15.9483 0.268382 18.9877 1.15639 20.5974C2.10274 22.3127 4.51947 23.0443 5.55427 23.2889C6.58906 23.5335 11.763 23.5336 13.5739 23.2889C15.3848 23.0441 18.7479 22.5549 20.0414 22.3102C21.3349 22.0654 28.0611 20.5974 28.0611 20.5974C28.0611 20.5974 32.4589 19.6187 33.7524 18.6399C35.0459 17.6611 36.8568 15.459 37.3742 13.9908C37.8916 12.5227 37.6329 11.2994 37.3742 9.58649C37.1155 7.87363 33.7524 3.95872 33.7524 3.95872C33.7524 3.95872 31.9633 2.0026 30.3898 1.51199C28.1497 0.813536 24.4393 2.49061 24.4393 2.49061C24.4393 2.49061 20.641 3.79772 18.2305 4.69278Z" fill="#D0DCFA" stroke="#1E4BE8" stroke-width="1.2"/>
</svg>
