<svg width="26" height="28" viewBox="0 0 26 28" fill="none" xmlns="http://www.w3.org/2000/svg">
<path d="M12.8959 1.07017C11.6206 0.830078 8.18779 0.830078 8.18779 0.830078C8.18779 0.830078 6.27377 0.964539 5.53815 1.55035C4.87507 2.07839 4.78331 2.55817 4.3609 3.23099C1.64757 7.55286 2.43903 10.6563 1.71211 15.4756C1.23302 18.6519 0.829176 23.6387 0.829176 23.6387C0.828727 24.1185 0.642466 24.5377 0.829176 25.0793C1.01062 25.6056 1.24554 25.8873 1.71211 26.2797C2.14486 26.6438 2.89039 27 3.03651 27C3.18262 27 4.95037 26.7599 5.8335 26.2797C6.71663 25.7995 10.7111 23.5604 13.4856 21.4779C16.9624 18.8682 19.8351 16.9485 21.2578 15.4756C22.6806 14.0027 24.2568 11.9783 24.9627 10.1936C24.9627 10.1936 25.2578 9.61992 25.2578 9.23326C25.2578 8.84661 25.1009 8.64267 24.9627 8.2729C24.6324 7.38963 24.6898 7.37058 24.0806 6.59226C23.5103 5.86368 24.0806 6.59226 23.1976 5.39181C22.3147 4.19135 19.6354 2.92568 17.8992 2.27062C16.0507 1.57319 14.1713 1.31026 12.8959 1.07017Z" fill="#D0DCFA" stroke="#1E4BE8" stroke-width="1.2"/>
</svg>
