<svg width="36" height="27" viewBox="0 0 36 27" fill="none" xmlns="http://www.w3.org/2000/svg">
<path d="M21.1396 21.0125C22.7168 20.0896 23.6912 19.7172 25.2787 18.8104C26.718 17.9882 27.513 17.5067 28.9004 16.6082C30.451 15.6041 31.7083 15.3763 32.7808 13.9167C33.9136 12.3751 33.838 11.1318 34.0743 9.26777C34.2787 7.65489 34.8533 6.55586 34.0743 5.10817C33.4577 3.96248 32.6266 3.60706 31.4873 2.90603C29.3703 1.60334 27.7967 1.3793 25.2787 1.19325C22.5296 0.990128 20.9851 1.60308 18.294 2.17198C15.3003 2.80487 10.792 4.37412 10.792 4.37412C10.792 4.37412 6.40682 5.71893 4.32464 7.55499C2.62348 9.05508 1.48865 10.0613 0.961639 12.204C0.404663 14.4684 0.93306 15.9802 1.99641 18.0763C3.04893 20.1511 6.13549 22.4806 6.13549 22.4806C6.13549 22.4806 9.15992 25.0249 11.568 25.4168C12.7628 25.6112 13.4778 25.6122 14.6723 25.4168C17.739 24.9152 18.4931 22.5613 21.1396 21.0125Z" fill="#D0DCFA" stroke="#1E4BE8" stroke-width="1.2"/>
</svg>
