<svg width="40" height="25" viewBox="0 0 40 25" fill="none" xmlns="http://www.w3.org/2000/svg">
<path d="M18.9727 20.1486C16.7374 19.3186 15.4602 18.9012 13.2813 17.9464C10.0404 16.5263 5.26166 13.7868 5.26166 13.7868C5.26166 13.7868 3.84145 12.7191 3.19252 11.8293C2.44678 10.8067 1.89858 8.89319 1.89858 8.89319C1.89858 8.89319 1.01057 5.8538 1.89858 4.24422C2.84493 2.52888 5.26166 1.79734 6.29645 1.55272C7.33125 1.30809 12.5052 1.30797 14.3161 1.55272C16.127 1.79746 19.4901 2.2867 20.7836 2.53144C22.0771 2.77619 28.8032 4.24422 28.8032 4.24422C28.8032 4.24422 33.2011 5.22289 34.4946 6.20168C35.7881 7.18047 37.599 9.38249 38.1164 10.8506C38.6338 12.3188 38.3751 13.5421 38.1164 15.2549C37.8577 16.9678 34.4946 20.8826 34.4946 20.8826C34.4946 20.8826 32.7055 22.8387 31.132 23.3293C28.8919 24.0278 25.1815 22.3507 25.1815 22.3507C25.1815 22.3507 21.3831 21.0436 18.9727 20.1486Z" fill="#D0DCFA" stroke="#1E4BE8" stroke-width="1.2"/>
</svg>
