<svg width="219" height="160" viewBox="0 0 219 160" fill="none" xmlns="http://www.w3.org/2000/svg">
<path d="M133.655 46.5439H123.488V50.8399H133.655V46.5439Z" fill="#EBEBEB"/>
<path d="M127.983 51.9619H117.816V56.2579H127.983V51.9619Z" fill="#EBEBEB"/>
<path d="M139.326 51.9619H129.159V56.2579H139.326V51.9619Z" fill="#EBEBEB"/>
<path d="M175.827 87.2451H165.66V91.5411H175.827V87.2451Z" fill="#EBEBEB"/>
<path d="M175.827 5.83203H165.66V10.128H175.827V5.83203Z" fill="#EBEBEB"/>
<path d="M181.499 11.249H171.332V15.545H181.499V11.249Z" fill="#EBEBEB"/>
<path d="M165.185 31.6689H97.0239V34.6579H165.185V31.6689Z" fill="#EBEBEB"/>
<path d="M103.835 34.6589H100.845V44.5449H103.835V34.6589Z" fill="#EBEBEB"/>
<path d="M103.835 34.6589H100.845V37.7149H103.835V34.6589Z" fill="#DBDBDB"/>
<path d="M161.366 34.6589H158.376V44.5449H161.366V34.6589Z" fill="#EBEBEB"/>
<path d="M161.366 34.6589H158.376V37.7149H161.366V34.6589Z" fill="#DBDBDB"/>
<path d="M114.544 31.6701V12.6201H109.747V31.6701H114.544Z" fill="#C7C7C7"/>
<path d="M114.544 13.6941V11.6011H109.747V13.6941H114.544Z" fill="#DBDBDB"/>
<path d="M114.544 17.154V16.377H109.747V17.154H114.544Z" fill="#DBDBDB"/>
<path d="M115.142 29.1709V27.0779H109.747V29.1709H115.142Z" fill="#DBDBDB"/>
<path d="M117.897 31.67V9.448H114.544V31.67H117.897Z" fill="#DBDBDB"/>
<path d="M117.212 20.0841V11.5371H115.2V20.0841H117.212Z" fill="#EBEBEB"/>
<path d="M141.749 29.2894L125.945 13.668L123.588 16.0527L139.392 31.6741L141.749 29.2894Z" fill="#C7C7C7"/>
<path d="M137.575 26.0925L131.498 20.084L130.083 21.5145L136.16 27.5231L137.575 26.0925Z" fill="#DBDBDB"/>
<path d="M123.589 31.6729V14.7939H117.895V31.6729H123.589Z" fill="#A6A6A6"/>
<path d="M123.589 29.884V28.311H117.895V29.884H123.589Z" fill="#C7C7C7"/>
<path d="M123.589 27.278V26.668H117.895V27.278H123.589Z" fill="#C7C7C7"/>
<path d="M109.747 31.674V15.811H105.814V31.674H109.747Z" fill="#A6A6A6"/>
<path d="M109.747 29.9919V28.5139H105.814V29.9919H109.747Z" fill="#C7C7C7"/>
<path d="M109.747 20.5591V19.0811H105.814V20.5591H109.747Z" fill="#C7C7C7"/>
<path d="M109.747 22.145V21.572H105.814V22.145H109.747Z" fill="#C7C7C7"/>
<path d="M158.019 24.2779L157.59 25.4099L157.329 26.0999L156.9 27.2359L155.225 31.6719H146.168L144.489 27.2359L144.06 26.0999L143.799 25.4099L143.37 24.2779L146.712 19.4119L144.98 16.2009H156.418L154.678 19.4119L158.019 24.2779Z" fill="#DBDBDB"/>
<path d="M158.019 24.2778L157.59 25.4098H143.799L143.37 24.2778H158.019Z" fill="#A6A6A6"/>
<path d="M157.324 26.0989L156.895 27.2349H144.489L144.06 26.0989H157.324Z" fill="#A6A6A6"/>
<path d="M78.3999 0H27.3279V78.31H78.3999V0Z" fill="#EBEBEB"/>
<path d="M51.6768 3.13696H30.1108V37.969H51.6768V3.13696Z" fill="white"/>
<path d="M75.6158 3.13696H54.0498V37.969H75.6158V3.13696Z" fill="white"/>
<path d="M51.6768 40.342H30.1108V75.174H51.6768V40.342Z" fill="white"/>
<path d="M75.6158 40.342H54.0498V75.174H75.6158V40.342Z" fill="white"/>
<path d="M39.4239 0H27.3279V112.036H39.4239V0Z" fill="#DBDBDB"/>
<path d="M37.1308 5.3269L37.2238 17.4409L37.2578 29.5539L37.3218 53.7809L37.2578 78.0079L37.2238 90.1219L37.1298 102.236L37.0358 90.1219L37.0008 78.0089L36.9368 53.7819L37.0008 29.5539L37.0348 17.4399L37.1308 5.3269Z" fill="#EBEBEB"/>
<path d="M31.5758 8.13599L31.6688 18.952L31.7228 29.768L31.7678 51.401L31.7238 73.034L31.6698 83.847L31.5758 94.663L31.4818 83.847L31.4278 73.031L31.3838 51.398L31.4288 29.765L31.4828 18.949L31.5758 8.13599Z" fill="#EBEBEB"/>
<path d="M34.3569 10.689L34.4499 23.354L34.4839 36.019L34.5479 61.349L34.4839 86.68L34.4479 99.349L34.3569 112.011L34.2569 99.349L34.2229 86.684L34.1619 61.349L34.2259 36.019L34.2569 23.354L34.3569 10.689Z" fill="#EBEBEB"/>
<path d="M29.5109 5.96509L29.6039 19.2211L29.6379 32.4771L29.7019 58.9891L29.6379 85.5011L29.6039 98.7571L29.5099 112.013L29.4159 98.7571L29.3819 85.5011L29.3179 58.9891L29.3819 32.4771L29.4159 19.2211L29.5109 5.96509Z" fill="#EBEBEB"/>
<path d="M66.3029 112.036H78.3989L78.3989 -0.000114441H66.3029L66.3029 112.036Z" fill="#DBDBDB"/>
<path d="M68.597 5.3269L68.69 17.4409L68.724 29.5539L68.788 53.7809L68.724 78.0079L68.69 90.1219L68.5961 102.236L68.502 90.1219L68.468 78.0079L68.4041 53.7809L68.468 29.5539L68.502 17.4399L68.597 5.3269Z" fill="#EBEBEB"/>
<path d="M74.151 8.13599L74.244 18.952L74.298 29.768L74.343 51.401L74.299 73.034L74.245 83.85L74.151 94.666L74.057 83.85L74.002 73.035L73.958 51.402L74.002 29.769L74.056 18.953L74.151 8.13599Z" fill="#EBEBEB"/>
<path d="M71.3739 10.689L71.4669 23.354L71.5009 36.019L71.5649 61.349L71.5009 86.68L71.4679 99.349L71.3739 112.014L71.2799 99.349L71.2459 86.684L71.1819 61.353L71.2459 36.023L71.2799 23.358L71.3739 10.689Z" fill="#EBEBEB"/>
<path d="M76.2169 5.96509L76.3099 19.2211L76.3439 32.4771L76.4079 58.9891L76.3439 85.5011L76.3099 98.7571L76.2159 112.013L76.1219 98.7571L76.0879 85.5011L76.0239 58.9891L76.0879 32.4771L76.1219 19.2211L76.2169 5.96509Z" fill="#EBEBEB"/>
<path d="M1 112.122H217.739" stroke="#263238" stroke-linecap="round" stroke-linejoin="round"/>
<path d="M107.266 152.355C158.467 152.355 199.974 147.187 199.974 140.813C199.974 134.439 158.467 129.271 107.266 129.271C56.0649 129.271 14.5581 134.439 14.5581 140.813C14.5581 147.187 56.0649 152.355 107.266 152.355Z" fill="#EBEBEB"/>
<path d="M154.684 119.461H63.6841L92.2571 52.772H183.257L154.684 119.461Z" fill="#263238"/>
<path d="M92.9301 54.1938H182.647L154.684 119.461H65.3071L92.9301 54.1938Z" fill="#EBEBEB"/>
<path d="M92.9301 54.1939C93.2943 60.4818 92.5734 66.7855 90.7991 72.8289C87.8711 82.4059 73.3641 101.583 70.5421 114.518L65.3071 119.46H154.684L182.647 54.1929L92.9301 54.1939Z" fill="#DBDBDB"/>
<path d="M92.9301 54.1938C92.8471 55.1608 91.9041 67.9688 88.1531 76.2428C83.9711 85.4678 73.8811 100.228 70.1431 113.757" stroke="#DBDBDB" stroke-miterlimit="10"/>
<path d="M92.0162 58.0669C91.0247 64.7543 89.0398 71.256 86.1272 77.3569C81.3272 87.3439 73.0602 99.9149 69.2122 115.779" stroke="#DBDBDB" stroke-miterlimit="10"/>
<path d="M121.32 123.161H208.71L179.13 54.1938H92.9301C92.9301 54.1938 92.5911 64.6348 98.3101 79.7428C103.697 93.9758 113.662 102.532 121.32 123.161Z" fill="white"/>
<path d="M120.807 123.161C113.5 104.986 102.849 95.4388 97.3712 82.3028C93.1212 72.1108 92.9302 54.1938 92.9302 54.1938" stroke="white" stroke-width="2" stroke-miterlimit="10"/>
<path d="M93.7861 56.1848C93.7861 56.1848 95.8561 72.9138 103.612 86.8268C111.368 100.74 115.184 105.946 119.212 115.464" stroke="#EBEBEB" stroke-miterlimit="10"/>
<path d="M123.12 124.583H214.12L183.32 52.771H92.3201L123.12 124.583Z" fill="#00419D"/>
<path d="M181.855 124.583H201.876L171.076 52.771H151.055L181.855 124.583Z" fill="#00419D"/>
<path d="M132.583 124.583H139.833L109.033 52.771H101.783L132.583 124.583Z" fill="#00419D"/>
<path d="M92.93 54.194H183.93L184.896 51.918H91.311L92.93 54.194Z" fill="#00419D"/>
<path d="M52.782 148.23L17.975 139.065L1.78198 147.745L35.829 159.091L52.782 148.23Z" fill="#8DA8DF"/>
<path d="M50.6229 148.073L35.1009 158.051L3.19189 147.443L18.8479 139.128C18.8479 139.128 28.3969 140.385 28.8419 140.528C29.2869 140.671 33.4979 142.415 33.4979 142.415C33.4979 142.415 39.4059 143.443 39.8069 143.577C40.2079 143.711 50.6229 148.073 50.6229 148.073Z" fill="white"/>
<path d="M33.4981 142.41C32.2755 143.289 31.0458 144.158 29.8091 145.016L26.0861 147.573L22.3341 150.086C21.0795 150.919 19.8171 151.739 18.5471 152.548C19.7691 151.669 20.9988 150.8 22.2361 149.942L25.9591 147.386L29.7121 144.874C30.9661 144.041 32.2281 143.219 33.4981 142.41Z" fill="#DBDBDB"/>
<path d="M47.2051 147.981C46.0718 147.537 44.9424 147.082 43.8171 146.617L40.4471 145.217L39.6061 144.864C39.4661 144.808 39.3231 144.747 39.1891 144.701C39.0551 144.655 38.8951 144.63 38.7481 144.594L36.9731 144.177C35.7911 143.895 34.6111 143.599 33.4331 143.289C34.6298 143.516 35.8244 143.756 37.0171 144.008L38.8041 144.395C38.9531 144.43 39.1041 144.455 39.2511 144.495C39.3981 144.535 39.5431 144.604 39.6871 144.66L40.5331 145.004C41.6531 145.484 42.7721 145.961 43.8841 146.458C44.9961 146.955 46.1041 147.46 47.2051 147.981Z" fill="#DBDBDB"/>
<path d="M46.124 148.619C44.9907 148.175 43.8614 147.72 42.736 147.255L39.366 145.855L38.525 145.502C38.385 145.446 38.242 145.385 38.109 145.339C37.976 145.293 37.814 145.268 37.668 145.232L35.893 144.815C34.711 144.533 33.531 144.237 32.353 143.927C33.5497 144.154 34.7444 144.394 35.937 144.646L37.724 145.033C37.873 145.068 38.024 145.093 38.171 145.133C38.318 145.173 38.463 145.242 38.607 145.298L39.453 145.643C40.573 146.122 41.692 146.6 42.804 147.096C43.916 147.592 45.023 148.098 46.124 148.619Z" fill="#DBDBDB"/>
<path d="M45.042 149.257C43.934 148.823 42.83 148.378 41.73 147.924L38.436 146.552L37.615 146.207C37.3496 146.084 37.0743 145.984 36.792 145.907L35.059 145.492C33.9017 145.216 32.7467 144.93 31.594 144.632C32.7647 144.846 33.9313 145.076 35.094 145.32C35.678 145.438 36.257 145.571 36.839 145.706C37.1321 145.782 37.4185 145.883 37.695 146.006L38.521 146.345C39.614 146.815 40.709 147.281 41.795 147.767C42.881 148.253 43.964 148.747 45.042 149.257Z" fill="#DBDBDB"/>
<path d="M43.9611 149.893C42.8691 149.465 41.7811 149.027 40.6971 148.58L37.4511 147.227C36.9121 147.01 36.3681 146.752 35.8341 146.574L34.1281 146.163C32.9881 145.889 31.8501 145.606 30.7141 145.312C31.8688 145.522 33.0198 145.747 34.1671 145.988C34.7421 146.107 35.3121 146.235 35.8871 146.372C36.4671 146.56 36.9871 146.797 37.5371 147.02C38.6141 147.484 39.6941 147.942 40.7631 148.42C41.8321 148.898 42.9001 149.392 43.9611 149.893Z" fill="#DBDBDB"/>
<path d="M42.8792 150.532C41.7912 150.105 40.7068 149.669 39.6262 149.223L36.3912 147.875C35.8542 147.657 35.3112 147.405 34.7812 147.221C34.2232 147.075 33.6482 146.951 33.0812 146.81C31.9478 146.538 30.8145 146.255 29.6812 145.961C30.8318 146.169 31.9792 146.393 33.1232 146.634C33.6962 146.754 34.2632 146.88 34.8382 147.018C35.4131 147.213 35.9381 147.444 36.4801 147.668C37.5531 148.13 38.6292 148.587 39.6952 149.068C40.7612 149.549 41.8222 150.032 42.8792 150.532Z" fill="#DBDBDB"/>
<path d="M41.798 151.168C40.7133 150.742 39.6326 150.309 38.556 149.868L35.331 148.524C34.796 148.306 34.254 148.058 33.731 147.868C33.176 147.722 32.602 147.597 32.038 147.458C30.9046 147.186 29.7743 146.903 28.647 146.611C29.7936 146.818 30.9373 147.041 32.078 147.281C32.649 147.401 33.214 147.525 33.788 147.665C34.358 147.865 34.881 148.092 35.422 148.317C36.492 148.779 37.565 149.233 38.627 149.711C39.689 150.189 40.745 150.669 41.798 151.168Z" fill="#DBDBDB"/>
<path d="M40.716 151.806C39.645 151.385 38.577 150.959 37.516 150.519L34.334 149.193C33.804 148.978 33.273 148.738 32.748 148.538C32.216 148.377 31.639 148.263 31.086 148.124C29.969 147.853 28.853 147.577 27.741 147.285C28.8743 147.485 30.003 147.705 31.127 147.944C31.692 148.069 32.246 148.175 32.816 148.338C33.366 148.544 33.89 148.762 34.421 148.988C35.477 149.444 36.536 149.888 37.583 150.365C38.63 150.842 39.676 151.314 40.716 151.806Z" fill="#DBDBDB"/>
<path d="M39.635 152.443C38.564 152.022 37.496 151.596 36.435 151.156L33.252 149.833C32.722 149.618 32.191 149.378 31.666 149.178C31.133 149.017 30.557 148.903 30.004 148.764C28.887 148.493 27.771 148.217 26.658 147.925C27.7913 148.125 28.92 148.345 30.044 148.584C30.609 148.709 31.163 148.815 31.733 148.977C32.284 149.183 32.807 149.401 33.339 149.627C34.395 150.083 35.453 150.527 36.501 151.004C37.549 151.481 38.595 151.951 39.635 152.443Z" fill="#DBDBDB"/>
<path d="M38.736 153.175C37.651 152.745 36.568 152.31 35.491 151.861L32.264 150.509L30.653 149.836C30.124 149.66 29.532 149.552 28.972 149.409C27.838 149.134 26.705 148.854 25.572 148.558C26.7214 148.764 27.867 148.987 29.009 149.227C29.582 149.359 30.144 149.455 30.724 149.638C31.273 149.852 31.811 150.072 32.347 150.304C33.417 150.769 34.491 151.225 35.554 151.704C36.617 152.183 37.682 152.675 38.736 153.175Z" fill="#DBDBDB"/>
<path d="M37.653 153.836C36.571 153.404 35.492 152.968 34.419 152.517L31.202 151.16L29.596 150.484C29.072 150.302 28.479 150.198 27.921 150.054C26.79 149.779 25.66 149.5 24.533 149.204C25.6796 149.408 26.8226 149.631 27.962 149.872C28.533 150.006 29.094 150.096 29.673 150.286C30.217 150.502 30.755 150.721 31.289 150.955C32.356 151.422 33.427 151.879 34.489 152.363C35.551 152.847 36.602 153.334 37.653 153.836Z" fill="#DBDBDB"/>
<path d="M36.566 154.549C35.519 154.12 34.472 153.688 33.433 153.241C32.394 152.794 31.357 152.341 30.316 151.896L28.76 151.224C28.5079 151.107 28.2436 151.019 27.972 150.961L27.148 150.761C26.048 150.492 24.948 150.22 23.856 149.928C24.9713 150.124 26.083 150.339 27.191 150.573L28.02 150.759C28.158 150.793 28.296 150.82 28.438 150.865C28.58 150.91 28.71 150.965 28.838 151.022C29.3633 151.238 29.884 151.461 30.4 151.691C31.433 152.154 32.471 152.606 33.5 153.091C34.529 153.576 35.548 154.053 36.566 154.549Z" fill="#DBDBDB"/>
<path d="M35.4881 155.139C34.4221 154.751 33.3581 154.36 32.3001 153.953C31.2421 153.546 30.1861 153.132 29.1281 152.728C28.6001 152.528 28.0681 152.308 27.5471 152.128L25.9161 151.648C24.8321 151.317 23.7491 150.978 22.6731 150.619C23.7731 150.885 24.8731 151.171 25.9731 151.465L27.6111 151.922C28.1651 152.104 28.6831 152.314 29.2111 152.522C30.2631 152.945 31.3191 153.357 32.3631 153.8C33.4071 154.243 34.4491 154.685 35.4881 155.139Z" fill="#DBDBDB"/>
<path d="M19.856 149.974C18.842 149.621 17.841 149.237 16.846 148.842L16.097 148.556C15.8514 148.458 15.5991 148.378 15.342 148.316L13.791 147.891L10.691 147.022C9.65803 146.733 8.63203 146.422 7.60303 146.122C8.64403 146.38 9.68803 146.622 10.725 146.895L13.838 147.695L15.392 148.107C15.6565 148.17 15.917 148.248 16.172 148.342C16.425 148.435 16.672 148.542 16.921 148.642C17.9177 149.05 18.896 149.494 19.856 149.974Z" fill="#DBDBDB"/>
<path d="M20.9061 149.152C19.9061 148.86 18.9171 148.546 17.9391 148.208C17.4471 148.048 16.9561 147.868 16.4681 147.726L14.9681 147.303L11.9771 146.439C10.9771 146.154 9.98912 145.839 8.99512 145.539C10.0001 145.795 11.0101 146.039 12.0121 146.306L15.0201 147.106C16.0305 147.354 17.0272 147.654 18.0061 148.006C18.9861 148.356 19.9511 148.741 20.9061 149.152Z" fill="#DBDBDB"/>
<path d="M21.9181 148.421C20.9281 148.132 19.9441 147.821 18.9701 147.491L17.5091 147.005L16.0141 146.627L13.0221 145.858C12.0221 145.603 11.0321 145.322 10.0371 145.058C11.0431 145.282 12.0521 145.492 13.0551 145.729L16.0651 146.435L17.5651 146.801C18.0651 146.948 18.5451 147.13 19.0331 147.301C20.0061 147.639 20.9681 148.02 21.9181 148.421Z" fill="#DBDBDB"/>
<path d="M22.7841 147.88C21.8041 147.536 20.8531 147.123 19.8951 146.741C19.6636 146.638 19.4233 146.555 19.1771 146.495L18.4201 146.324L16.9041 145.988C14.8828 145.536 12.8645 145.069 10.8491 144.588C12.8858 144.97 14.9191 145.372 16.9491 145.794L18.4691 146.118L19.2291 146.283C19.4878 146.34 19.7401 146.423 19.9821 146.53C20.9394 146.93 21.8748 147.381 22.7841 147.88Z" fill="#DBDBDB"/>
<path d="M23.7331 147.221C22.7531 146.876 21.8021 146.463 20.8441 146.082C20.6126 145.979 20.3723 145.897 20.1261 145.837L19.3691 145.665L17.8531 145.333C15.8318 144.881 13.8134 144.415 11.7981 143.933C13.8348 144.315 15.8681 144.717 17.8981 145.139L19.4181 145.463L20.1781 145.629C20.4367 145.686 20.689 145.769 20.9311 145.876C21.8882 146.275 22.8235 146.724 23.7331 147.221Z" fill="#DBDBDB"/>
<path d="M24.6811 146.561C23.7011 146.217 22.7501 145.803 21.7921 145.422C21.5606 145.319 21.3203 145.237 21.0741 145.176L20.3171 145.005L18.8011 144.67C16.7798 144.218 14.7611 143.751 12.7451 143.27C14.7818 143.652 16.8151 144.054 18.8451 144.476L20.3651 144.8L21.1251 144.965C21.3838 145.022 21.6361 145.105 21.8781 145.212C22.8358 145.612 23.7715 146.062 24.6811 146.561Z" fill="#DBDBDB"/>
<path d="M25.6301 145.901C24.6501 145.556 23.6991 145.143 22.7411 144.762C22.5095 144.66 22.2692 144.578 22.0231 144.517L21.2661 144.346L19.7491 144.01C17.7284 143.558 15.7101 143.092 13.6941 142.61C15.7308 142.992 17.7641 143.394 19.7941 143.816L21.3141 144.139L22.0741 144.305C22.3327 144.362 22.585 144.445 22.8271 144.552C23.7847 144.952 24.7204 145.402 25.6301 145.901Z" fill="#DBDBDB"/>
<path d="M26.8539 145.371C25.8739 145.027 24.9239 144.613 23.9649 144.232C23.7337 144.13 23.4937 144.048 23.2479 143.987L22.4909 143.816L20.9749 143.48C18.9543 143.028 16.9359 142.562 14.9199 142.08C16.9566 142.462 18.9899 142.864 21.0199 143.286L22.5389 143.609L23.2989 143.775C23.5576 143.832 23.8098 143.915 24.0519 144.022C25.0093 144.422 25.9446 144.872 26.8539 145.371Z" fill="#DBDBDB"/>
<path d="M28.0451 144.847C27.0651 144.503 26.1141 144.09 25.1561 143.708C24.9246 143.605 24.6843 143.523 24.4381 143.462L23.6811 143.291L22.1651 142.956C20.1438 142.503 18.1251 142.037 16.1091 141.556C18.1458 141.938 20.1791 142.34 22.2091 142.762L23.7291 143.086L24.4891 143.251C24.7478 143.308 25.0001 143.391 25.2421 143.498C26.1998 143.898 27.1354 144.348 28.0451 144.847Z" fill="#DBDBDB"/>
<path d="M28.9941 144.187C28.0161 143.843 27.0671 143.43 26.1091 143.05C25.8788 142.947 25.6395 142.866 25.3941 142.807L24.6371 142.648L23.1181 142.339C21.0928 141.924 19.0694 141.496 17.0481 141.055C19.0874 141.399 21.1231 141.763 23.1551 142.147L24.6781 142.447L25.4401 142.6C25.6991 142.655 25.9515 142.738 26.1931 142.846C27.1499 143.243 28.0849 143.691 28.9941 144.187Z" fill="#DBDBDB"/>
<path d="M29.9441 143.527C28.9671 143.183 28.0191 142.772 27.0641 142.392C26.8348 142.289 26.596 142.208 26.3511 142.15L25.5931 142.004L24.0701 141.725C22.0401 141.351 20.0115 140.966 17.9841 140.57C20.0281 140.869 22.0681 141.19 24.1041 141.533L25.6301 141.799L26.3931 141.939C26.6527 141.993 26.9056 142.075 27.1471 142.184C28.1026 142.582 29.0362 143.031 29.9441 143.527Z" fill="#DBDBDB"/>
<path d="M30.8921 142.868C29.9171 142.525 28.9711 142.115 28.0171 141.735C27.7896 141.631 27.552 141.551 27.3081 141.496L26.5481 141.372L25.0201 141.143C22.9831 140.837 20.9461 140.527 18.9111 140.198C20.9598 140.425 23.0055 140.676 25.0481 140.95L26.5791 141.166L27.3461 141.285C27.6065 141.336 27.8599 141.418 28.1011 141.528C29.0545 141.925 29.9861 142.373 30.8921 142.868Z" fill="#DBDBDB"/>
<path d="M34.386 156.057C33.298 155.696 32.212 155.33 31.131 154.948L27.894 153.794C27.355 153.607 26.815 153.394 26.282 153.217L24.643 152.698C23.552 152.343 22.465 151.979 21.384 151.598C22.493 151.891 23.596 152.198 24.695 152.52L26.341 153.013C26.895 153.197 27.43 153.385 27.969 153.585C29.043 153.985 30.121 154.374 31.189 154.79C32.257 155.206 33.325 155.625 34.386 156.057Z" fill="#DBDBDB"/>
<path d="M19.075 150.778C17.975 150.439 16.875 150.095 15.786 149.736L12.513 148.649L10.884 148.105L9.22903 147.62C8.12903 147.288 7.02904 146.946 5.93604 146.586C7.05504 146.856 8.16803 147.144 9.27703 147.441L10.939 147.901C11.499 148.073 12.039 148.25 12.584 148.439C13.67 148.817 14.759 149.184 15.839 149.578C16.919 149.972 18.001 150.367 19.075 150.778Z" fill="#DBDBDB"/>
<path d="M187.842 88.257C186.908 87.585 157.1 78.336 155.742 78.702C155.594 78.744 155.28 80.084 153.934 83.411C153.869 83.569 139.686 100.763 139.686 100.763L159.097 111.008L170.175 95.389C170.175 95.389 184.032 92.761 185.483 92.202C186.934 91.643 188.776 88.928 187.842 88.257Z" fill="#FFC3BD"/>
<path d="M187.842 88.257C186.908 87.585 157.1 78.336 155.742 78.702C155.594 78.744 155.28 80.084 153.934 83.411C153.869 83.569 151.928 85.821 150.976 87.048C152.211 88.109 164.121 96.517 167.393 99.311L170.176 95.388C170.176 95.388 184.033 92.76 185.484 92.201C186.935 91.642 188.776 88.928 187.842 88.257Z" fill="#FFC727"/>
<path d="M161.42 81.5991C161.268 81.9375 161.076 82.2562 160.847 82.5481C160.395 83.1375 159.81 83.6114 159.14 83.9311C158.459 84.2483 157.709 84.386 156.96 84.3311C156.219 84.2576 155.501 84.0286 154.854 83.6591C154.818 83.6401 154.854 83.5841 154.888 83.6041C155.532 83.9161 156.241 84.072 156.957 84.0592C157.673 84.0463 158.375 83.865 159.008 83.5301C159.61 83.2152 160.133 82.7672 160.536 82.2201C160.732 81.9527 160.899 81.6658 161.036 81.3641C161.104 81.2137 161.162 81.0594 161.212 80.9021C161.263 80.7421 161.276 80.6081 161.43 80.5181C161.467 80.4989 161.51 80.4946 161.55 80.5061C161.589 80.5177 161.623 80.5442 161.644 80.5801C161.809 80.8351 161.53 81.3511 161.42 81.5991Z" fill="white"/>
<path d="M181.567 93.0981C180.912 92.8521 180.349 92.4091 179.956 91.83C179.519 91.244 179.157 90.6057 178.877 89.9301C178.596 89.2672 178.4 88.5718 178.292 87.86C178.241 87.5135 178.209 87.1642 178.197 86.8141C178.164 86.4576 178.185 86.0983 178.259 85.748C178.263 85.7349 178.271 85.7234 178.282 85.7152C178.293 85.707 178.306 85.7026 178.32 85.7026C178.333 85.7026 178.347 85.707 178.357 85.7152C178.368 85.7234 178.376 85.7349 178.38 85.748C178.425 86.06 178.454 86.3741 178.466 86.6891C178.503 87.038 178.558 87.3848 178.631 87.7281C178.771 88.3967 178.972 89.0511 179.231 89.683C179.704 90.9612 180.56 92.0621 181.682 92.8351C181.71 92.8542 181.731 92.8826 181.74 92.9153C181.75 92.9481 181.747 92.9831 181.734 93.0143C181.72 93.0455 181.696 93.071 181.666 93.0863C181.635 93.1016 181.6 93.1057 181.567 93.0981Z" fill="white"/>
<path d="M167.404 95.7C163.78 93.084 160.173 90.443 156.523 87.864C155.489 87.133 154.461 86.39 153.415 85.676C153.38 85.652 153.42 85.604 153.455 85.626C157.292 87.9319 161.001 90.4436 164.566 93.15C165.571 93.926 166.548 94.739 167.52 95.556C167.539 95.5714 167.551 95.5937 167.554 95.6181C167.557 95.6425 167.55 95.6669 167.534 95.686C167.519 95.7051 167.496 95.7173 167.472 95.7199C167.448 95.7225 167.423 95.7154 167.404 95.7Z" fill="white"/>
<path d="M153.753 86.261C153.74 86.2884 153.722 86.3129 153.699 86.333C153.673 86.353 153.644 86.371 153.617 86.39L153.461 86.49C153.35 86.564 153.238 86.634 153.122 86.7C152.897 86.828 152.667 86.945 152.434 87.058C152.401 87.074 152.371 87.022 152.403 87.003C152.621 86.868 152.835 86.726 153.046 86.58C153.146 86.509 153.252 86.439 153.356 86.369L153.52 86.256C153.568 86.2145 153.625 86.185 153.687 86.17C153.699 86.1681 153.71 86.1695 153.721 86.174C153.732 86.1784 153.741 86.1858 153.748 86.1952C153.755 86.2046 153.759 86.2157 153.76 86.2274C153.761 86.239 153.758 86.2506 153.753 86.261Z" fill="white"/>
<path d="M155.445 87.508C155.432 87.5354 155.414 87.5599 155.391 87.58C155.365 87.6 155.337 87.618 155.309 87.637L155.153 87.737C155.042 87.811 154.93 87.881 154.814 87.947C154.589 88.075 154.359 88.192 154.126 88.305C154.094 88.321 154.063 88.269 154.095 88.25C154.313 88.115 154.527 87.972 154.738 87.827C154.838 87.756 154.945 87.686 155.048 87.616L155.211 87.503C155.259 87.4615 155.316 87.432 155.378 87.417C155.39 87.4149 155.401 87.4161 155.412 87.4205C155.423 87.4249 155.433 87.4322 155.44 87.4417C155.447 87.4512 155.451 87.4624 155.452 87.4741C155.453 87.4858 155.45 87.4976 155.445 87.508Z" fill="white"/>
<path d="M157.135 88.755C157.122 88.7824 157.104 88.8069 157.081 88.827C157.055 88.847 157.027 88.865 156.999 88.884L156.843 88.984C156.732 89.058 156.62 89.128 156.504 89.194C156.279 89.322 156.049 89.439 155.816 89.552C155.783 89.568 155.753 89.516 155.785 89.497C156.003 89.362 156.217 89.219 156.427 89.073L156.737 88.862L156.901 88.7489C156.949 88.7074 157.006 88.678 157.068 88.663C157.08 88.6607 157.092 88.6619 157.103 88.6663C157.114 88.6707 157.124 88.6782 157.131 88.6878C157.138 88.6974 157.142 88.7088 157.143 88.7207C157.143 88.7326 157.141 88.7445 157.135 88.755Z" fill="white"/>
<path d="M158.825 90.0011C158.812 90.0285 158.794 90.053 158.771 90.0731C158.745 90.0931 158.717 90.1111 158.689 90.1301L158.533 90.2301C158.422 90.3041 158.311 90.3741 158.195 90.4401C157.969 90.5681 157.739 90.6851 157.507 90.7981C157.474 90.8141 157.444 90.7621 157.476 90.7421C157.694 90.6081 157.908 90.4651 158.119 90.3191C158.219 90.2481 158.326 90.1791 158.429 90.1081L158.592 89.9951C158.64 89.9538 158.697 89.9243 158.759 89.9091C158.771 89.9071 158.783 89.9084 158.794 89.9129C158.804 89.9174 158.814 89.9249 158.821 89.9345C158.828 89.9441 158.832 89.9554 158.832 89.9672C158.833 89.9789 158.831 89.9907 158.825 90.0011Z" fill="white"/>
<path d="M160.517 91.2481C160.504 91.2755 160.486 91.3 160.463 91.3201C160.437 91.3401 160.409 91.3581 160.381 91.3771L160.225 91.4771C160.114 91.5511 160.002 91.6211 159.886 91.6871C159.661 91.8151 159.431 91.9321 159.197 92.0451C159.165 92.0611 159.135 92.0091 159.166 91.9891C159.385 91.8551 159.598 91.7121 159.809 91.5661C159.909 91.4951 160.016 91.4261 160.119 91.3551L160.282 91.2421C160.33 91.2009 160.388 91.1715 160.449 91.1561C160.461 91.1537 160.473 91.1546 160.484 91.1589C160.496 91.1632 160.505 91.1706 160.513 91.1803C160.52 91.19 160.524 91.2015 160.525 91.2135C160.526 91.2255 160.523 91.2375 160.517 91.2481Z" fill="white"/>
<path d="M162.207 92.4952C162.194 92.5226 162.176 92.547 162.153 92.5672C162.127 92.5872 162.098 92.6052 162.071 92.6242L161.915 92.7242C161.804 92.7972 161.692 92.8682 161.576 92.9342C161.351 93.0622 161.121 93.1792 160.888 93.2922C160.855 93.3072 160.825 93.2562 160.857 93.2362C161.075 93.1022 161.289 92.9592 161.499 92.8132C161.599 92.7422 161.706 92.6732 161.809 92.6022L161.973 92.4892C162.021 92.448 162.079 92.4185 162.14 92.4032C162.152 92.401 162.164 92.4021 162.175 92.4065C162.186 92.4109 162.196 92.4184 162.203 92.428C162.21 92.4377 162.214 92.4491 162.215 92.461C162.215 92.4728 162.213 92.4847 162.207 92.4952Z" fill="white"/>
<path d="M163.898 93.7402C163.885 93.7676 163.867 93.792 163.844 93.8122C163.818 93.8322 163.79 93.8502 163.762 93.8682L163.606 93.9682C163.495 94.0422 163.383 94.1122 163.267 94.1782C163.042 94.3062 162.812 94.4232 162.578 94.5362C162.546 94.5512 162.515 94.5002 162.547 94.4802C162.765 94.3462 162.979 94.2032 163.19 94.0572C163.29 93.9862 163.397 93.9172 163.5 93.8462L163.663 93.7332C163.712 93.6919 163.769 93.6625 163.831 93.6472C163.843 93.6449 163.855 93.646 163.867 93.6504C163.878 93.6548 163.887 93.6624 163.895 93.6722C163.902 93.682 163.906 93.6936 163.906 93.7056C163.907 93.7177 163.904 93.7297 163.898 93.7402Z" fill="white"/>
<path d="M165.589 94.9871C165.576 95.015 165.558 95.0398 165.535 95.0601C165.509 95.0801 165.481 95.0981 165.453 95.1161L165.297 95.2211C165.186 95.2941 165.074 95.3651 164.958 95.4301C164.733 95.5581 164.503 95.6751 164.27 95.7881C164.237 95.8031 164.207 95.7521 164.239 95.7321C164.457 95.5981 164.671 95.4551 164.881 95.3091C164.981 95.2381 165.088 95.1691 165.191 95.0981L165.354 94.9851C165.402 94.9436 165.459 94.9141 165.521 94.8991C165.532 94.8972 165.544 94.8983 165.554 94.9025C165.565 94.9067 165.574 94.9136 165.581 94.9227C165.588 94.9317 165.593 94.9425 165.594 94.9538C165.595 94.9652 165.594 94.9767 165.589 94.9871Z" fill="white"/>
<path d="M167.279 96.2392C167.266 96.2665 167.248 96.2909 167.226 96.3112C167.2 96.3312 167.171 96.3492 167.144 96.3672L166.988 96.4672C166.877 96.5412 166.765 96.6112 166.649 96.6772C166.424 96.8052 166.194 96.9222 165.961 97.0352C165.928 97.0512 165.898 96.9992 165.93 96.9802C166.148 96.8462 166.362 96.7032 166.573 96.5572C166.673 96.4862 166.78 96.4172 166.883 96.3462L167.047 96.2332C167.095 96.1917 167.152 96.1622 167.214 96.1472C167.226 96.1454 167.238 96.1469 167.248 96.1515C167.259 96.1561 167.268 96.1636 167.275 96.1731C167.282 96.1827 167.286 96.1939 167.286 96.2056C167.287 96.2172 167.285 96.2289 167.279 96.2392Z" fill="white"/>
<path d="M164.813 103.387L147.691 89.9131C147.691 89.9131 130.112 112.379 129.813 112.531C121.987 112.698 114.186 113.489 106.486 114.896C104.496 115.296 93.8919 110.116 82.0339 120.096L83.8179 138.672C102.467 141.34 128.483 137.325 139.57 133.696C150.039 130.267 164.813 103.387 164.813 103.387Z" fill="#A0BDFF"/>
<path d="M162.416 105.145C158.565 101.962 154.678 98.828 150.631 95.896C149.479 95.061 148.292 94.275 147.159 93.415C147.121 93.386 147.081 93.448 147.118 93.477C148.106 94.247 149.041 95.077 150.011 95.871C150.981 96.665 151.95 97.449 152.93 98.225C154.885 99.772 156.904 101.234 158.913 102.71C160.059 103.553 161.213 104.381 162.374 105.21C162.415 105.236 162.452 105.175 162.416 105.145Z" fill="#455A64"/>
<path d="M149.273 97.405C146.191 101.505 143.094 105.591 140.028 109.705C138.495 111.761 136.958 113.814 135.417 115.865C134.848 116.815 133.972 117.542 132.933 117.924C132.371 118.062 131.8 118.156 131.224 118.207L129.318 118.442C124.257 119.066 119.197 119.699 114.134 120.311C112.872 120.488 111.6 120.582 110.326 120.592C109.054 120.537 107.788 120.382 106.54 120.127C104.273 119.739 101.969 119.617 99.6739 119.763C95.1239 120.113 90.6811 121.321 86.5799 123.322C86.0589 123.569 85.5419 123.822 85.0289 124.087C84.9859 124.109 85.0289 124.171 85.0679 124.151C89.2964 122.081 93.8577 120.776 98.5409 120.296C100.846 120.069 103.17 120.115 105.464 120.433C106.691 120.611 107.903 120.884 109.138 121.001C110.404 121.098 111.677 121.068 112.938 120.912C115.481 120.643 118.018 120.293 120.557 119.98L128.181 119.04C129.445 118.884 130.716 118.753 131.976 118.567C133.006 118.482 133.977 118.052 134.732 117.347C135.497 116.483 136.199 115.565 136.832 114.6C137.606 113.542 138.384 112.487 139.165 111.435C142.207 107.315 145.224 103.177 148.251 99.046L149.388 97.495C149.433 97.424 149.322 97.341 149.273 97.405Z" fill="#455A64"/>
<path d="M139.429 55.816C138.473 56.455 119.366 81.133 119.229 82.531C119.216 82.685 120.362 83.448 123.006 85.875C123.248 86.6943 123.374 87.543 123.383 88.397C123.836 93.819 124.209 106.072 124.209 106.072L144.224 101.149L140.803 80.287L139.915 74.861C139.915 74.861 142.31 60.961 142.295 59.407C142.28 57.853 140.384 55.177 139.429 55.816Z" fill="#FFC3BD"/>
<path d="M139.429 55.8161C138.473 56.4551 119.366 81.1331 119.229 82.5311C119.216 82.6851 120.362 83.4481 123.006 85.8751C123.248 86.6943 123.374 87.5431 123.383 88.3971C126.658 86.8171 136.718 82.1691 140.803 80.2851L139.915 74.8591C139.915 74.8591 142.31 60.9591 142.295 59.4051C142.28 57.8511 140.384 55.1771 139.429 55.8161Z" fill="#FFC727"/>
<path d="M123.936 78.2311C124.2 78.492 124.432 78.7842 124.625 79.1011C125.02 79.7307 125.26 80.4449 125.325 81.1851C125.382 81.9337 125.247 82.6845 124.932 83.3661C124.604 84.0348 124.138 84.6266 123.565 85.1031C123.534 85.1301 123.494 85.0791 123.526 85.0521C124.044 84.5579 124.438 83.9487 124.677 83.2737C124.916 82.5988 124.992 81.8771 124.9 81.1671C124.816 80.4927 124.58 79.8463 124.208 79.2771C124.026 79.0006 123.816 78.7436 123.581 78.5101C123.464 78.3938 123.339 78.2846 123.209 78.1831C123.077 78.0831 122.956 78.0211 122.926 77.8441C122.921 77.8029 122.932 77.7612 122.957 77.7278C122.981 77.6945 123.018 77.672 123.059 77.6651C123.356 77.5991 123.743 78.0411 123.936 78.2311Z" fill="white"/>
<path d="M141.764 63.3902C141.304 63.9178 140.692 64.2898 140.012 64.4552C139.309 64.659 138.583 64.7746 137.851 64.7992C137.132 64.8299 136.412 64.7704 135.707 64.6222C135.365 64.5486 135.026 64.4558 134.694 64.3442C134.349 64.2499 134.019 64.1043 133.717 63.9122C133.706 63.9039 133.698 63.8923 133.695 63.8791C133.691 63.8659 133.691 63.8518 133.696 63.839C133.701 63.8262 133.71 63.8154 133.722 63.8082C133.734 63.801 133.748 63.7979 133.761 63.7992C134.069 63.866 134.374 63.9491 134.673 64.0482C135.013 64.1353 135.357 64.205 135.704 64.2572C136.379 64.3607 137.063 64.4018 137.745 64.3802C139.108 64.3864 140.44 63.9703 141.557 63.1892C141.687 63.0942 141.867 63.2582 141.764 63.3902Z" fill="white"/>
<path d="M139.48 78.2151C135.456 80.1601 131.418 82.0772 127.413 84.0632C126.278 84.6252 125.136 85.1762 124.013 85.7572C123.976 85.7772 123.953 85.7182 123.988 85.6982C127.84 83.4186 131.813 81.3489 135.888 79.4982C137.048 78.9822 138.228 78.5092 139.409 78.0432C139.42 78.0385 139.432 78.0361 139.445 78.0361C139.457 78.0361 139.469 78.0386 139.48 78.0432C139.491 78.0479 139.502 78.0548 139.51 78.0634C139.519 78.0721 139.526 78.0824 139.531 78.0937C139.535 78.105 139.538 78.1171 139.538 78.1293C139.538 78.1415 139.535 78.1536 139.53 78.1649C139.526 78.1761 139.519 78.1864 139.51 78.195C139.502 78.2037 139.491 78.2105 139.48 78.2151Z" fill="white"/>
<path d="M124.682 85.7341C124.7 85.7585 124.713 85.7864 124.72 85.8161C124.725 85.8481 124.727 85.8821 124.731 85.9161C124.737 85.9791 124.744 86.0411 124.749 86.1031C124.761 86.2361 124.77 86.3681 124.773 86.5031C124.773 86.7621 124.773 87.0201 124.76 87.2791C124.76 87.3151 124.698 87.3171 124.696 87.2791C124.681 87.0231 124.657 86.7671 124.629 86.5121C124.615 86.3881 124.604 86.2631 124.591 86.1391C124.584 86.0724 124.577 86.0057 124.569 85.9391C124.554 85.8773 124.554 85.8129 124.569 85.7511C124.573 85.7395 124.579 85.7292 124.588 85.7213C124.597 85.7134 124.608 85.7083 124.62 85.7065C124.632 85.7047 124.644 85.7064 124.655 85.7113C124.666 85.7162 124.676 85.724 124.682 85.7341Z" fill="white"/>
<path d="M126.582 84.8402C126.6 84.8643 126.613 84.8918 126.62 84.9211C126.625 84.9541 126.627 84.9872 126.631 85.0212C126.637 85.0832 126.643 85.1451 126.649 85.2081C126.661 85.3411 126.67 85.4721 126.673 85.6081C126.678 85.8671 126.673 86.1252 126.66 86.3832C126.66 86.4192 126.598 86.4212 126.596 86.3832C126.581 86.1272 126.557 85.8712 126.529 85.6162C126.515 85.4922 126.504 85.3671 126.491 85.2431C126.485 85.1771 126.477 85.1111 126.47 85.0431C126.455 84.9814 126.455 84.9169 126.47 84.8551C126.474 84.844 126.481 84.8341 126.49 84.8267C126.499 84.8192 126.51 84.8144 126.522 84.8128C126.533 84.8113 126.545 84.813 126.556 84.8178C126.566 84.8226 126.576 84.8304 126.582 84.8402Z" fill="white"/>
<path d="M128.483 83.9452C128.501 83.9696 128.514 83.9975 128.521 84.0272C128.527 84.0592 128.529 84.0932 128.532 84.1272C128.538 84.1902 128.544 84.2522 128.55 84.3142C128.562 84.4472 128.57 84.5792 128.573 84.7142C128.578 84.9732 128.573 85.2312 128.561 85.4902C128.561 85.5262 128.499 85.5282 128.497 85.4902C128.482 85.2342 128.458 84.9792 128.43 84.7232C128.416 84.5992 128.405 84.4742 128.392 84.3502C128.385 84.2842 128.378 84.2182 128.371 84.1502C128.356 84.0884 128.356 84.024 128.371 83.9622C128.375 83.9509 128.381 83.9409 128.39 83.9332C128.399 83.9255 128.41 83.9205 128.422 83.9187C128.433 83.9169 128.445 83.9185 128.456 83.9231C128.467 83.9278 128.476 83.9355 128.483 83.9452Z" fill="white"/>
<path d="M130.383 83.0502C130.401 83.0743 130.414 83.1019 130.421 83.1313C130.427 83.1643 130.429 83.1972 130.432 83.2312C130.439 83.2932 130.445 83.3552 130.45 83.4182C130.462 83.5512 130.471 83.6832 130.474 83.8182C130.479 84.0772 130.474 84.3352 130.462 84.5942C130.462 84.6302 130.4 84.6322 130.398 84.5942C130.383 84.3382 130.359 84.0832 130.331 83.8272C130.317 83.7032 130.306 83.5783 130.293 83.4543C130.286 83.3883 130.279 83.3222 130.272 83.2542C130.257 83.1925 130.257 83.128 130.272 83.0663C130.276 83.0553 130.283 83.0456 130.292 83.0382C130.301 83.0308 130.311 83.026 130.323 83.0243C130.334 83.0227 130.346 83.0242 130.357 83.0288C130.367 83.0334 130.377 83.0408 130.383 83.0502Z" fill="white"/>
<path d="M132.284 82.1552C132.302 82.1797 132.315 82.2076 132.322 82.2372C132.327 82.2692 132.329 82.3032 132.333 82.3372C132.339 82.3992 132.346 82.4612 132.351 82.5242C132.363 82.6562 132.372 82.7882 132.375 82.9242C132.38 83.1832 132.375 83.4412 132.362 83.7002C132.362 83.7362 132.3 83.7382 132.298 83.7002C132.283 83.4442 132.259 83.1882 132.231 82.9332C132.217 82.8092 132.206 82.6852 132.193 82.5602C132.186 82.4935 132.179 82.4269 132.171 82.3602C132.156 82.2984 132.156 82.234 132.171 82.1722C132.174 82.1607 132.181 82.1504 132.19 82.1425C132.199 82.1346 132.21 82.1294 132.222 82.1277C132.234 82.1259 132.246 82.1275 132.257 82.1324C132.268 82.1373 132.277 82.1452 132.284 82.1552Z" fill="white"/>
<path d="M134.185 81.2602C134.203 81.2844 134.216 81.3119 134.223 81.3412C134.228 81.3742 134.23 81.4072 134.234 81.4412C134.24 81.5032 134.247 81.5662 134.252 81.6282C134.264 81.7612 134.273 81.8932 134.276 82.0282C134.281 82.2872 134.276 82.5452 134.263 82.8042C134.263 82.8402 134.201 82.8422 134.199 82.8042C134.184 82.5482 134.16 82.2922 134.132 82.0372C134.118 81.9132 134.107 81.7882 134.094 81.6642C134.088 81.5982 134.08 81.5322 134.073 81.4642C134.058 81.4024 134.058 81.338 134.073 81.2762C134.077 81.265 134.083 81.255 134.092 81.2475C134.101 81.2399 134.112 81.235 134.124 81.2333C134.136 81.2316 134.148 81.2333 134.158 81.238C134.169 81.2428 134.178 81.2505 134.185 81.2602Z" fill="white"/>
<path d="M136.086 80.3652C136.104 80.3895 136.117 80.4175 136.124 80.4472C136.13 80.4802 136.132 80.5132 136.135 80.5472C136.141 80.6092 136.147 80.6712 136.153 80.7342C136.165 80.8672 136.174 80.9982 136.177 81.1342C136.182 81.3932 136.177 81.6512 136.164 81.9102C136.164 81.9462 136.102 81.9482 136.1 81.9102C136.085 81.6542 136.061 81.3982 136.033 81.1432C136.019 81.0192 136.008 80.8942 135.995 80.7692C135.989 80.7032 135.981 80.6372 135.974 80.5692C135.959 80.5074 135.959 80.443 135.974 80.3812C135.978 80.37 135.984 80.36 135.993 80.3524C136.002 80.3449 136.013 80.3399 136.025 80.3383C136.037 80.3366 136.049 80.3383 136.059 80.343C136.07 80.3478 136.079 80.3555 136.086 80.3652Z" fill="white"/>
<path d="M137.981 79.4711C137.999 79.4955 138.012 79.5234 138.019 79.5531C138.025 79.5851 138.027 79.6191 138.03 79.6531C138.037 79.7161 138.043 79.7781 138.048 79.8401C138.06 79.9731 138.069 80.1051 138.072 80.2401C138.077 80.4991 138.072 80.7571 138.06 81.0161C138.06 81.0521 137.998 81.0541 137.996 81.0161C137.981 80.7601 137.957 80.5051 137.929 80.2491C137.915 80.1251 137.904 80.0001 137.891 79.8761C137.884 79.8101 137.877 79.7441 137.87 79.6761C137.855 79.6143 137.855 79.5499 137.87 79.4881C137.874 79.4771 137.88 79.4672 137.889 79.4597C137.898 79.4522 137.909 79.4473 137.92 79.4455C137.932 79.4438 137.944 79.4453 137.954 79.4498C137.965 79.4543 137.974 79.4616 137.981 79.4711Z" fill="white"/>
<path d="M139.886 78.5763C139.904 78.6004 139.917 78.6279 139.924 78.6573C139.929 78.6903 139.932 78.7233 139.935 78.7573C139.941 78.8193 139.948 78.8813 139.953 78.9443C139.965 79.0773 139.974 79.2093 139.977 79.3443C139.982 79.6033 139.977 79.8613 139.964 80.1193C139.964 80.1553 139.902 80.1573 139.9 80.1193C139.885 79.8633 139.861 79.6073 139.833 79.3523C139.819 79.2283 139.808 79.1033 139.795 78.9793C139.788 78.9133 139.781 78.8473 139.773 78.7793C139.759 78.7174 139.759 78.6531 139.773 78.5913C139.777 78.5799 139.784 78.5697 139.793 78.5621C139.802 78.5544 139.813 78.5495 139.825 78.5479C139.837 78.5463 139.849 78.5482 139.86 78.5532C139.87 78.5582 139.88 78.5662 139.886 78.5763Z" fill="white"/>
<path d="M141.826 86.1331L121.633 90.4221C121.633 90.4221 124.055 118.702 123.967 119.022C117.81 119.799 111.602 120.099 105.398 119.922C105.398 119.922 91.513 113.887 82.034 124.301L80.686 142.572C107.097 145.772 142.457 144.29 147.145 135.296C152.238 125.528 141.826 86.1331 141.826 86.1331Z" fill="#A0BDFF"/>
<path d="M123.919 118.896C121.679 118.896 117.919 119.319 115.682 119.406C113.46 119.492 111.239 119.623 109.018 119.738C107.74 119.804 106.671 119.725 105.397 119.847C105.387 119.847 105.378 119.851 105.371 119.858C105.364 119.865 105.36 119.874 105.36 119.884C105.36 119.894 105.364 119.903 105.371 119.91C105.378 119.917 105.387 119.921 105.397 119.921C109.791 120.157 114.197 120.07 118.578 119.661C119.857 119.546 122.703 119.243 123.972 119.053C124.034 119.046 124.139 118.896 123.919 118.896Z" fill="#455A64"/>
<path d="M104.138 117.993C103.309 117.075 102.377 116.256 101.361 115.551C101.326 115.526 101.286 115.583 101.317 115.61C102.202 116.444 103.035 117.332 103.809 118.269C104.648 119.173 105.419 120.139 106.115 121.157C106.118 121.161 106.123 121.163 106.128 121.164C106.133 121.164 106.138 121.163 106.142 121.161C106.146 121.158 106.149 121.154 106.151 121.149C106.152 121.145 106.152 121.14 106.15 121.135C105.592 120.02 104.917 118.967 104.138 117.993Z" fill="#455A64"/>
<path d="M148.551 121.691C148.527 120.691 148.439 119.691 148.362 118.699C148.21 116.724 148.014 114.754 147.751 112.791C147.22 108.837 146.534 104.91 145.651 101.019C145.404 99.932 145.151 98.846 144.872 97.765C144.621 96.658 144.307 95.5662 143.931 94.495C143.899 94.412 143.748 94.42 143.764 94.522C143.907 95.479 144.164 96.429 144.375 97.373C144.586 98.317 144.805 99.29 145.008 100.25C145.423 102.209 145.802 104.176 146.147 106.15C146.835 110.071 147.392 114.009 147.857 117.962C147.988 119.072 148.098 120.185 148.218 121.296C148.278 121.852 148.502 126.296 148.513 126.871C148.513 126.92 148.592 126.917 148.587 126.871C148.541 126.376 148.586 123.178 148.551 121.691Z" fill="#455A64"/>
<path d="M123.918 115.826C123.862 114.792 123.714 113.766 123.475 112.759C123.472 112.754 123.468 112.75 123.463 112.748C123.458 112.746 123.452 112.745 123.447 112.746C123.441 112.747 123.436 112.749 123.432 112.753C123.428 112.757 123.425 112.762 123.424 112.767C123.359 113.83 123.395 114.897 123.532 115.953C123.629 116.983 123.779 118.008 123.98 119.024C123.984 119.03 123.99 119.035 123.997 119.037C124.003 119.04 124.01 119.041 124.018 119.04C124.025 119.039 124.031 119.036 124.037 119.031C124.042 119.026 124.046 119.02 124.048 119.013C124.061 117.949 124.018 116.885 123.918 115.826Z" fill="#455A64"/>
<path d="M142.531 124.849C142.455 121.291 142.211 117.738 141.852 114.198C141.144 107.214 139.99 100.279 138.752 93.3711C138.601 92.5231 138.449 91.6758 138.296 90.8291C138.287 90.7811 138.217 90.8041 138.225 90.8501C139.379 97.7601 140.563 104.671 141.347 111.636C141.736 115.094 142.034 118.564 142.182 122.041C142.254 123.728 142.296 125.418 142.282 127.107C142.306 128.524 142.175 129.939 141.892 131.328C141.617 132.705 140.975 133.981 140.033 135.022C139.023 136.011 137.794 136.748 136.445 137.173C134.984 137.652 133.491 138.027 131.977 138.293C130.31 138.623 128.631 138.893 126.939 139.102C120.169 139.833 113.355 140.074 106.55 139.821C99.5801 139.681 92.6111 139.421 85.6401 139.345C84.7661 139.335 83.8931 139.324 83.0201 139.303C82.9721 139.303 82.9741 139.376 83.0201 139.377C86.6151 139.488 90.2081 139.646 93.8031 139.756C97.3645 139.865 100.926 139.971 104.488 140.072C111.37 140.382 118.266 140.233 125.128 139.627C128.45 139.31 131.743 138.741 134.979 137.927C136.343 137.608 137.649 137.078 138.849 136.356C139.992 135.632 140.908 134.599 141.489 133.377C142.74 130.76 142.591 127.67 142.531 124.849Z" fill="#455A64"/>
<path d="M141.856 89.294C136.919 90.059 131.994 90.883 127.115 91.961C125.726 92.268 124.35 92.633 122.954 92.909C122.907 92.919 122.927 92.99 122.974 92.981C124.206 92.754 125.449 92.607 126.685 92.408C127.921 92.209 129.152 92.008 130.385 91.789C132.84 91.355 135.274 90.816 137.712 90.295C139.104 89.995 140.491 89.682 141.878 89.365C141.926 89.356 141.905 89.285 141.856 89.294Z" fill="#455A64"/>
<path d="M38.634 115.073C39.3668 111.882 40.5857 108.822 42.248 106.001C43.203 104.559 46.383 100.707 47.548 101.355C48.713 102.003 47.881 103.211 47.881 103.211C47.881 103.211 49.468 101.785 50.581 102.543C51.694 103.301 50.34 105.143 50.34 105.143C50.34 105.143 52.076 103.797 53.131 104.634C54.186 105.471 52.516 107.089 52.516 107.089C52.516 107.089 54.047 105.789 54.625 106.839C55.325 108.107 52.225 110.194 51.252 111.839C51.031 112.213 47.302 119.744 47.302 119.744L38.634 115.073Z" fill="#FFC3BD"/>
<path d="M52.5079 107.126C50.5992 108.295 49.1567 110.091 48.4279 112.207C48.4069 112.255 48.3279 112.235 48.3479 112.182C49.1859 109.661 49.9059 108.192 52.4389 107.011C52.5629 106.954 52.6159 107.052 52.5079 107.126Z" fill="#263238"/>
<path d="M50.4079 105.049C48.5363 106.489 47.0456 108.365 46.0659 110.513C46.0469 110.549 45.9849 110.521 46.0009 110.483C47.0929 107.913 47.8449 106.463 50.3009 104.951C50.4099 104.883 50.5089 104.966 50.4079 105.049Z" fill="#263238"/>
<path d="M47.7049 103.37C45.9009 104.887 44.544 106.866 43.7799 109.096C43.776 109.109 43.7669 109.121 43.7547 109.127C43.7425 109.134 43.7282 109.135 43.7149 109.131C43.7017 109.127 43.6905 109.118 43.684 109.106C43.6774 109.094 43.676 109.079 43.6799 109.066C44.1932 106.704 45.6148 104.638 47.6379 103.314C47.7819 103.214 47.8319 103.25 47.7049 103.37Z" fill="#263238"/>
<path d="M47.084 121.689C48.3902 120.672 49.6196 119.559 50.762 118.361C51.741 117.161 53.747 111.361 52.518 110.854C50.931 110.203 49.112 113.326 48.418 114.972C48.418 114.972 44.748 113.462 42.958 115.421C41.168 117.38 47.084 121.689 47.084 121.689Z" fill="#FFC3BD"/>
<path d="M52.0211 110.818C50.1451 111.268 49.3781 113.487 48.5891 115.034C48.5785 115.057 48.5623 115.078 48.5421 115.094C48.5219 115.109 48.4981 115.12 48.4729 115.125C48.4476 115.129 48.4216 115.128 48.3971 115.12C48.3726 115.113 48.3502 115.099 48.3321 115.081C46.7521 114.551 44.3681 114.263 42.9551 115.312C42.9471 115.319 42.9366 115.323 42.9259 115.322C42.9152 115.322 42.9052 115.317 42.8981 115.309C42.8909 115.301 42.8872 115.291 42.8878 115.28C42.8883 115.269 42.8931 115.259 42.9011 115.252C44.2631 113.921 46.6281 114.013 48.3231 114.704C49.1081 113.104 49.9751 110.913 52.0171 110.804C52.0184 110.804 52.0196 110.805 52.0206 110.806C52.0215 110.807 52.0222 110.809 52.0226 110.81C52.023 110.811 52.0231 110.813 52.0228 110.814C52.0225 110.816 52.0219 110.817 52.0211 110.818Z" fill="#263238"/>
<path d="M60.0051 121.916C55.6594 128.448 49.7837 133.819 42.8891 137.562C38.4671 139.986 33.8311 137.162 33.0681 135.371C31.4361 131.543 37.1261 116.685 39.1801 113.69C39.7891 112.801 40.7051 114.583 43.5641 117.076C44.9181 118.257 50.1101 117.953 49.7431 119.417C49.4811 120.46 47.7831 123.423 48.0211 123.404C48.6081 123.355 52.9041 120.232 57.4521 117.304C63.7111 113.276 61.4661 119.772 60.0051 121.916Z" fill="#FFC3BD"/>
<path d="M48.0292 123.284C47.7572 123.647 43.8292 131.666 42.8952 133.318C42.8712 133.36 42.9352 133.395 42.9602 133.354C43.9602 131.741 44.9952 130.147 45.8772 128.466C46.3132 127.636 46.7622 126.804 47.1202 125.938C47.2912 125.524 47.4492 125.106 47.6112 124.688C47.8165 124.249 47.9796 123.792 48.0982 123.323C48.1052 123.285 48.0552 123.248 48.0292 123.284Z" fill="#263238"/>
<path d="M48.3972 122.644L58.4022 126.473C59.9998 124.182 61.4768 121.808 62.8272 119.363C64.6192 115.807 63.7182 114.308 59.1952 116.144C56.1682 117.371 48.3972 122.644 48.3972 122.644Z" fill="#00419D"/>
<path d="M49.7751 122.083C51.2701 122.54 52.7541 123.017 54.2201 123.56C54.9535 123.831 55.6801 124.113 56.4001 124.406C57.1221 124.699 57.8151 125.067 58.5391 125.349C58.5791 125.365 58.5511 125.428 58.5121 125.41C57.8041 125.09 57.0451 124.864 56.3211 124.584C55.5971 124.304 54.8651 124.025 54.1351 123.752C52.6771 123.206 51.2191 122.652 49.7491 122.144C49.7071 122.133 49.7351 122.071 49.7751 122.083Z" fill="#263238"/>
<path d="M68.0961 122.891H66.2051C66.0911 121.777 65.8036 120.688 65.3531 119.663C65.5778 120.723 65.6622 121.809 65.6041 122.891H63.9431C63.784 121.048 63.2566 119.256 62.3921 117.621C62.8667 119.337 63.097 121.111 63.0761 122.891H48.4421C47.7931 119.804 48.2961 116.444 48.0421 117.177C47.469 119.029 47.1599 120.953 47.1241 122.891H45.4951C45.4495 122.112 45.4938 121.329 45.6271 120.56C45.8411 119.535 45.0001 121.56 44.8931 122.891H43.8561C43.7609 120.307 44.239 117.734 45.2561 115.357C47.3931 111.185 46.1421 109.641 47.0191 105.073C48.0191 99.8731 54.8471 93.5911 61.6721 100.161C62.8395 101.175 63.7781 102.426 64.4258 103.83C65.0735 105.234 65.4154 106.76 65.4291 108.306C65.4611 112.022 64.6161 113.985 65.8911 115.894C67.3162 117.95 68.0849 120.39 68.0961 122.891Z" fill="#263238"/>
<path d="M43.188 122.27C43.0135 120.687 43.1622 119.086 43.625 117.562C43.8458 116.796 44.1284 116.049 44.47 115.329C44.634 114.969 44.837 114.614 45.012 114.271C45.19 113.932 45.3434 113.581 45.471 113.22C45.9291 111.732 46.2238 110.198 46.35 108.645C46.45 107.863 46.55 107.079 46.713 106.303C46.8675 105.526 47.1083 104.769 47.431 104.045C47.0089 105.557 46.7649 107.113 46.704 108.682C46.645 109.467 46.569 110.254 46.458 111.041C46.345 111.834 46.1582 112.616 45.9 113.374C45.7617 113.755 45.5963 114.124 45.405 114.481C45.217 114.836 45.031 115.166 44.857 115.517C44.5091 116.212 44.2103 116.931 43.963 117.668C43.7134 118.407 43.5212 119.163 43.388 119.931C43.315 120.315 43.268 120.703 43.231 121.094C43.194 121.485 43.183 121.876 43.188 122.27Z" fill="#263238"/>
<path d="M65.4329 108.307C65.4649 108.939 65.4199 109.57 65.4329 110.197C65.4459 110.824 65.4469 111.449 65.5019 112.067C65.5546 112.683 65.6587 113.293 65.8129 113.891C65.8469 114.041 65.8999 114.185 65.9409 114.332L65.9739 114.442L66.0099 114.533C66.0379 114.596 66.0709 114.661 66.1099 114.727C66.2569 114.991 66.4259 115.257 66.5909 115.527C66.9159 116.068 67.2349 116.621 67.5119 117.197C67.7911 117.773 68.0252 118.369 68.2119 118.981C68.3965 119.593 68.5234 120.22 68.5909 120.855C68.6526 121.487 68.6499 122.124 68.5829 122.755C68.5382 121.505 68.299 120.27 67.8739 119.093C67.4366 117.928 66.8779 116.813 66.2069 115.765C66.0459 115.495 65.8799 115.229 65.7239 114.94C65.6849 114.866 65.6479 114.791 65.6129 114.71C65.5959 114.669 65.5789 114.622 65.5639 114.581L65.5299 114.464C65.4879 114.308 65.4299 114.155 65.4039 113.997C65.2592 113.372 65.1762 112.734 65.1559 112.092C65.1352 111.458 65.1562 110.823 65.2189 110.192C65.2729 109.556 65.3629 108.933 65.4329 108.307Z" fill="#263238"/>
<path d="M80.3941 143.251C83.5602 140.073 85.6055 135.95 86.2207 131.507C86.8359 127.063 85.9876 122.54 83.8041 118.621C83.8041 118.621 79.0491 119.377 77.8041 119.133C74.0191 118.396 71.1821 116.3 66.8241 114.676C62.4661 113.052 59.4551 114.327 57.7241 117.287C57.2921 118.026 55.1671 128.818 56.7241 132.646C57.9451 135.657 62.8911 136.53 62.8911 136.53C62.8911 136.53 72.0711 144.17 80.3941 143.251Z" fill="#00419D"/>
<path d="M63.3279 116.79C63.2959 117.282 61.5448 120.733 59.3628 120.99C58.6518 121.073 58.0268 117.213 58.0268 117.213L57.9148 116.938L56.3608 113.096L60.5488 109.31L61.1598 108.799C61.1598 108.799 61.5158 109.878 61.9458 111.227C61.9658 111.289 61.9858 111.352 62.0068 111.419C62.0278 111.486 62.0588 111.566 62.0798 111.637C62.1468 111.837 62.2138 112.043 62.2798 112.248C62.3288 112.405 62.3798 112.557 62.4218 112.722C62.4638 112.887 62.5148 113.049 62.5648 113.214C62.9007 114.387 63.1556 115.582 63.3279 116.79Z" fill="#FFC3BD"/>
<path d="M61.9458 111.229C61.7288 112.417 61.2558 113.543 60.5597 114.529C59.8636 115.515 58.9611 116.338 57.9148 116.94L56.3608 113.098L60.5488 109.312L61.1598 108.801C61.1598 108.801 61.5158 109.88 61.9458 111.229Z" fill="#263238"/>
<path d="M49.4658 108.828C51.0918 115.918 55.5228 115.745 57.0508 115.393C58.4378 115.073 63.1228 113.808 62.2378 106.587C61.3528 99.3661 57.5378 97.8821 54.3308 98.4451C51.1238 99.0081 47.8398 101.737 49.4658 108.828Z" fill="#FFC3BD"/>
<path d="M50.5269 107.448C50.6778 107.375 50.8247 107.295 50.9669 107.206C51.1331 107.142 51.2736 107.025 51.3669 106.873C51.3866 106.82 51.3881 106.762 51.3713 106.707C51.3545 106.653 51.3203 106.606 51.2739 106.573C51.172 106.521 51.0581 106.498 50.944 106.505C50.8299 106.512 50.7197 106.549 50.6249 106.613C50.4129 106.713 50.2457 106.889 50.1559 107.105C50.1385 107.156 50.1361 107.21 50.1492 107.262C50.1623 107.314 50.1902 107.361 50.2295 107.398C50.2688 107.434 50.3179 107.458 50.3707 107.467C50.4235 107.476 50.4778 107.469 50.5269 107.448Z" fill="#263238"/>
<path d="M55.3909 106.131C55.2251 106.154 55.0582 106.169 54.8909 106.175C54.7168 106.215 54.5344 106.196 54.3719 106.122C54.3259 106.089 54.2919 106.042 54.2753 105.988C54.2587 105.933 54.2603 105.875 54.2799 105.822C54.3357 105.722 54.4171 105.639 54.5158 105.582C54.6144 105.524 54.7266 105.494 54.8409 105.494C55.0728 105.459 55.3095 105.511 55.5049 105.641C55.5471 105.673 55.5791 105.717 55.597 105.767C55.615 105.817 55.6181 105.871 55.6061 105.923C55.5941 105.975 55.5674 106.022 55.5292 106.059C55.491 106.096 55.443 106.121 55.3909 106.131Z" fill="#263238"/>
<path d="M54.9951 108.168C54.9951 108.149 55.0391 108.18 55.0441 108.2C55.1621 108.681 55.3781 109.213 55.8541 109.251C55.8691 109.251 55.8741 109.276 55.8541 109.279C55.3051 109.351 55.0291 108.643 54.9951 108.168Z" fill="#263238"/>
<path d="M55.282 107.553C56.033 107.28 56.522 108.803 55.827 109.053C55.132 109.303 54.652 107.78 55.282 107.553Z" fill="#263238"/>
<path d="M55.6071 107.532C55.7681 107.576 55.9461 107.685 56.1121 107.65C56.3031 107.609 56.3921 107.404 56.4641 107.212C56.4721 107.192 56.4891 107.201 56.4961 107.221C56.5648 107.353 56.5807 107.506 56.5406 107.649C56.5005 107.792 56.4073 107.914 56.2801 107.991C56.0081 108.122 55.7201 107.93 55.5521 107.66C55.5201 107.615 55.5421 107.519 55.6071 107.532Z" fill="#263238"/>
<path d="M51.9731 108.903C51.9631 108.886 51.9441 108.937 51.9501 108.957C52.1201 109.423 52.2371 109.984 51.8631 110.281C51.8511 110.29 51.8631 110.313 51.8751 110.306C52.3711 110.061 52.2091 109.317 51.9731 108.903Z" fill="#263238"/>
<path d="M51.3901 108.551C50.6141 108.743 51.0561 110.28 51.7741 110.102C52.4921 109.924 52.0361 108.39 51.3901 108.551Z" fill="#263238"/>
<path d="M51.099 108.744C50.999 108.86 50.923 109.044 50.781 109.094C50.616 109.153 50.444 109.023 50.291 108.894C50.275 108.881 50.267 108.894 50.272 108.918C50.348 109.218 50.533 109.492 50.832 109.468C51.104 109.445 51.22 109.139 51.206 108.826C51.203 108.768 51.138 108.697 51.099 108.744Z" fill="#263238"/>
<path d="M55.9259 111.861C55.8559 112.011 55.7999 112.202 55.6369 112.279C55.4627 112.34 55.2777 112.363 55.0939 112.348C55.0901 112.348 55.0864 112.349 55.0832 112.351C55.0801 112.353 55.0777 112.356 55.0764 112.359C55.0752 112.363 55.0751 112.367 55.0763 112.37C55.0775 112.374 55.0798 112.377 55.0829 112.379C55.1831 112.446 55.2996 112.484 55.4198 112.49C55.5401 112.496 55.6597 112.469 55.7659 112.412C55.8513 112.352 55.917 112.268 55.9547 112.171C55.9925 112.074 56.0005 111.968 55.9779 111.866C55.9759 111.836 55.9369 111.839 55.9259 111.861Z" fill="#263238"/>
<path d="M53.4199 110.76C53.4199 110.76 53.5399 111.497 53.6429 111.831C53.6529 111.862 53.7429 111.852 53.8539 111.824C53.8599 111.824 53.8639 111.824 53.8669 111.824C54.1699 111.788 54.4569 111.669 54.6965 111.48C54.9361 111.291 55.1189 111.039 55.2249 110.753C55.2379 110.713 55.1849 110.692 55.1609 110.722C54.8255 111.144 54.3629 111.446 53.8419 111.583C53.7899 111.498 53.6779 110.314 53.6239 110.326C53.3738 110.428 53.1383 110.562 52.9239 110.726C52.6239 109.198 52.5799 107.635 52.2639 106.118C52.2612 106.107 52.2548 106.098 52.2458 106.091C52.2369 106.085 52.226 106.082 52.2149 106.082C52.2038 106.083 52.1933 106.087 52.1851 106.095C52.1769 106.102 52.1715 106.112 52.1699 106.123C52.1703 107.8 52.3378 109.473 52.6699 111.116C52.6949 111.32 53.3039 110.858 53.4199 110.76Z" fill="#263238"/>
<path d="M62.2729 107.052C60.4669 107.558 58.1979 102.235 57.9259 101.578C58.2887 102.483 58.5532 103.424 58.7149 104.385C58.522 104.442 58.3209 104.467 58.1199 104.458C58.0324 104.188 57.9244 103.925 57.7969 103.671C57.7429 103.55 57.8359 103.958 57.9239 104.471C57.8139 104.471 57.6939 104.477 57.5649 104.484C57.4006 103.9 57.1591 103.34 56.8469 102.82C56.8729 103.386 56.9371 103.949 57.0389 104.506C55.3734 104.546 53.7174 104.77 52.1009 105.173C51.6499 105.298 51.2679 105.426 50.9329 105.551C50.7179 104.885 50.5679 104.151 50.5679 104.318C50.5632 104.764 50.6024 105.209 50.6849 105.647C50.5039 105.716 50.3369 105.783 50.1849 105.847C49.8389 104.919 49.8069 103.272 49.7299 103.547C49.509 104.399 49.4513 105.285 49.5599 106.158C48.9599 106.487 48.8189 106.67 48.7489 106.509C48.3502 104.591 48.6469 102.594 49.5859 100.875C51.1479 98.0622 55.4319 96.1142 58.9739 98.5512C60.4534 98.9924 61.7101 99.9788 62.4899 101.311C63.5079 103.378 63.3159 106.758 62.2729 107.052Z" fill="#263238"/>
<path d="M61.2358 107.389C61.2358 107.389 62.0498 104.741 63.2038 104.963C64.3578 105.185 64.2318 108.685 63.2188 109.484C63.096 109.596 62.9519 109.681 62.7951 109.736C62.6383 109.79 62.4721 109.812 62.3066 109.801C62.141 109.789 61.9795 109.744 61.8318 109.669C61.684 109.593 61.5531 109.489 61.4468 109.361L61.2358 107.389Z" fill="#FFC3BD"/>
<path d="M63.1429 105.965C63.1609 105.957 63.1729 105.982 63.1589 105.994C62.848 106.298 62.6044 106.664 62.4437 107.068C62.2829 107.472 62.2088 107.905 62.2259 108.339C62.2467 108.243 62.288 108.153 62.3471 108.074C62.4062 107.996 62.4816 107.931 62.5681 107.885C62.6546 107.838 62.7502 107.811 62.8482 107.805C62.9462 107.799 63.0444 107.815 63.1359 107.85C63.1619 107.858 63.1519 107.898 63.1279 107.9C62.9715 107.901 62.8192 107.95 62.6919 108.041C62.5646 108.132 62.4685 108.26 62.4169 108.407C62.3322 108.655 62.2742 108.91 62.2439 109.17C62.2289 109.254 62.0869 109.258 62.0869 109.17V109.149C61.7309 108.124 62.0709 106.424 63.1429 105.965Z" fill="#263238"/>
<path d="M69.55 118.067C75.492 125.444 83.608 137.978 80.215 140.902C74.637 145.709 58.079 148.802 54.276 149.355C52.634 149.593 49.076 138.915 50.141 137.496C51.206 136.077 68.759 134.667 68.856 133.585C68.911 132.972 67.356 127.759 65.479 121.272C63.316 113.792 67.85 115.956 69.55 118.067Z" fill="#FFC3BD"/>
<path d="M52.9992 136.539C52.9992 136.539 47.9542 136.623 44.6582 136.834C42.507 136.93 40.385 137.369 38.3722 138.134C36.4102 139.187 28.8722 144.846 30.2092 146.701C31.4152 148.381 37.2702 142.701 37.2702 142.701C37.2702 142.701 30.8552 147.913 32.6802 149.669C34.5052 151.425 40.2652 144.124 40.2652 144.124C40.2652 144.124 33.7942 149.624 35.9652 151.14C37.6032 152.284 43.1932 145.966 43.1932 145.966C43.1932 145.966 37.6642 150.735 39.2982 151.983C41.1042 153.363 46.6302 147.854 46.6302 147.854C51.3182 150.329 54.5622 149.589 56.8072 148.789C57.3482 148.596 52.9992 136.539 52.9992 136.539Z" fill="#FFC3BD"/>
<path d="M39.373 140.757C38.597 141.342 37.808 141.929 37.087 142.581C36.366 143.233 35.667 143.911 35.01 144.626C34.1328 145.545 33.3641 146.562 32.719 147.656C34.0813 145.89 35.606 144.255 37.273 142.772C37.992 142.122 38.679 141.435 39.399 140.783C39.415 140.762 39.392 140.743 39.373 140.757Z" fill="#263238"/>
<path d="M41.7741 143.318C40.8161 144.108 39.8361 144.857 38.9121 145.689C37.9881 146.521 37.1941 147.384 36.3341 148.273C36.2681 148.342 36.3261 148.355 36.3961 148.288C37.2911 147.433 38.1831 146.713 39.0871 145.869C39.9911 145.025 40.8631 144.146 41.7941 143.339C41.8091 143.326 41.7881 143.305 41.7741 143.318Z" fill="#263238"/>
<path d="M44.2301 145.145C42.7312 146.321 41.3573 147.648 40.1301 149.105C40.0671 149.176 40.1451 149.184 40.2131 149.115C41.5501 147.773 42.5901 146.715 44.2681 145.197C44.2961 145.174 44.2621 145.121 44.2301 145.145Z" fill="#263238"/>
<path d="M56.7521 135.896C56.0441 135.908 54.5591 136.236 52.9041 136.345C49.1791 136.589 43.9041 136.699 42.0271 136.845C36.9571 137.226 33.958 141.045 32.565 142.385C31.732 143.199 30.9811 144.093 30.3231 145.053C29.9811 145.574 29.66 146.313 30.146 146.87C30.737 147.548 32.875 146.761 35.064 144.682C35.143 144.607 35.091 144.563 35.01 144.632C31.931 147.254 30.6721 146.991 30.3341 146.563C30.1151 146.286 30.3081 145.794 30.4891 145.416C30.7822 144.87 31.1441 144.364 31.566 143.909C32.9674 142.328 34.5261 140.893 36.218 139.627C38.035 138.201 40.2198 137.319 42.5181 137.086C44.1501 136.912 49.1761 136.836 52.9301 136.559C54.5741 136.437 56.0501 136.075 56.7631 135.989C56.8121 135.977 56.8061 135.895 56.7521 135.896Z" fill="#263238"/>
<path d="M77.1371 127.425L66.4261 127.631C65.7011 124.933 65.1173 122.2 64.677 119.441C64.198 115.488 65.554 114.383 69.186 117.641C71.616 119.828 77.1371 127.425 77.1371 127.425Z" fill="#00419D"/>
<path d="M67.7332 127.609C67.6182 127.59 66.5172 127.575 66.4332 127.597C66.2852 126.981 65.5572 124.109 65.4712 123.812C65.4703 123.808 65.4685 123.804 65.466 123.8C65.4635 123.797 65.4604 123.794 65.4567 123.791C65.453 123.789 65.4489 123.787 65.4446 123.786C65.4404 123.786 65.4359 123.786 65.4317 123.787C65.4274 123.788 65.4234 123.789 65.4198 123.792C65.4162 123.794 65.4131 123.797 65.4107 123.801C65.4084 123.805 65.4067 123.809 65.406 123.813C65.4052 123.817 65.4053 123.822 65.4062 123.826C65.4382 124 65.5572 124.663 65.6962 125.405L65.6792 125.376C65.6052 125.246 65.5212 125.12 65.4392 124.994C65.3572 124.868 65.2882 124.721 65.2152 124.585C65.1932 124.543 65.1272 124.585 65.1512 124.624C65.2262 124.753 65.3092 124.881 65.3732 125.017C65.4372 125.153 65.4902 125.274 65.5562 125.399C65.6222 125.524 65.6892 125.646 65.7562 125.77L65.7662 125.788C65.9252 126.625 66.0952 127.475 66.1832 127.788C66.7004 127.775 67.2164 127.731 67.7282 127.654C67.7552 127.643 67.7512 127.612 67.7332 127.609Z" fill="#263238"/>
<path d="M76.0321 126.43C74.4711 126.352 72.9131 126.297 71.3501 126.311C70.5701 126.318 69.7907 126.336 69.0121 126.367C68.2341 126.398 67.4571 126.509 66.6801 126.528C66.6371 126.528 66.6421 126.598 66.6801 126.595C67.4541 126.535 68.2441 126.58 69.0211 126.562C69.7981 126.544 70.5801 126.53 71.3601 126.521C72.9171 126.502 74.4751 126.48 76.0321 126.497C76.0811 126.497 76.0731 126.432 76.0321 126.43Z" fill="#263238"/>
<path d="M73.1381 122.074C73.1351 122.072 73.1313 122.07 73.1273 122.07C73.1234 122.07 73.1195 122.071 73.1164 122.074C73.1133 122.076 73.1112 122.08 73.1104 122.084C73.1097 122.088 73.1103 122.092 73.1121 122.095C73.3451 122.56 76.1321 126.368 77.0211 127.355C76.7431 127.369 76.4662 127.4 76.1922 127.449C76.556 127.482 76.9218 127.485 77.2861 127.458C77.3061 127.45 73.5401 122.419 73.1381 122.074Z" fill="#263238"/>
<path d="M61.146 85.1789C60.1272 87.1801 58.5684 88.8561 56.646 90.0169C54.5966 89.0991 52.8456 87.625 51.592 85.7619C50.269 83.4539 50.859 80.8369 52.683 80.1619C55.299 79.1929 56.267 83.7939 56.267 83.7939C56.267 83.7939 56.667 79.1099 59.385 79.7539C61.276 80.2009 62.179 82.7279 61.146 85.1789Z" fill="#FFC727"/>
<path d="M48.0869 77.1591C48.1618 78.9928 47.7215 80.8108 46.8159 82.4071C44.9898 82.5734 43.1537 82.2245 41.5159 81.4001C39.6499 80.2861 39.0219 78.1851 40.0519 76.9741C41.5279 75.2371 44.0589 78.1261 44.0589 78.1261C44.0589 78.1261 42.4689 74.6261 44.6589 74.0001C46.1869 73.5611 47.8419 74.9991 48.0869 77.1591Z" fill="#FFC727"/>
<path d="M64.812 52.909C64.887 54.7431 64.4467 56.5615 63.541 58.158C61.715 58.3242 59.8789 57.9753 58.241 57.151C56.374 56.037 55.747 53.936 56.776 52.725C58.252 50.987 60.783 53.877 60.783 53.877C60.783 53.877 59.194 50.377 61.383 49.75C62.911 49.312 64.566 50.75 64.812 52.909Z" fill="#FFC727"/>
<path d="M57.8269 66.3329C57.0383 67.407 55.9643 68.2385 54.7269 68.7329C53.6152 68.0008 52.7314 66.9714 52.1759 65.7619C51.6219 64.2859 52.2158 62.8109 53.3478 62.5899C54.9708 62.2729 55.0978 65.0559 55.0978 65.0559C55.0978 65.0559 55.7788 62.3559 57.3068 62.9899C58.3778 63.4329 58.6649 64.9969 57.8269 66.3329Z" fill="#FFC727"/>
<path d="M50.447 45.156C50.2938 45.9421 49.9235 46.6696 49.378 47.256C48.5857 47.1422 47.8412 46.8086 47.229 46.293C47.0737 46.1791 46.9445 46.0334 46.8501 45.8655C46.7557 45.6977 46.6983 45.5116 46.6818 45.3197C46.6652 45.1278 46.6898 44.9346 46.754 44.7531C46.8182 44.5715 46.9205 44.4058 47.054 44.267C47.854 43.679 48.638 45.161 48.638 45.161C48.638 45.161 48.316 43.517 49.311 43.471C50.004 43.438 50.56 44.215 50.447 45.156Z" fill="#FFC727"/>
</svg>
