<svg width="248" height="185" viewBox="0 0 248 185" fill="none" xmlns="http://www.w3.org/2000/svg">
<path d="M247.798 162.281H-6.10352e-05V162.405H247.798V162.281Z" fill="#EBEBEB"/>
<path d="M222.969 170.258H215.584V170.382H222.969V170.258Z" fill="#EBEBEB"/>
<path d="M164.151 171.603H159.843V171.727H164.151V171.603Z" fill="#EBEBEB"/>
<path d="M213.491 165.656H196.546V165.78H213.491V165.656Z" fill="#EBEBEB"/>
<path d="M54.3319 168.213H32.9259V168.337H54.3319V168.213Z" fill="#EBEBEB"/>
<path d="M66.4649 168.213H58.7449V168.337H66.4649V168.213Z" fill="#EBEBEB"/>
<path d="M126.255 166.55H79.8299V166.674H126.255V166.55Z" fill="#EBEBEB"/>
<path d="M117.463 140.178H21.7629C21.0129 140.177 20.2938 139.879 19.7634 139.349C19.233 138.818 18.9347 138.099 18.9339 137.349V2.828C18.935 2.07812 19.2334 1.35927 19.7638 0.829121C20.2941 0.298968 21.013 0.000793618 21.7629 0H117.463C118.213 0.00105816 118.931 0.299348 119.461 0.829472C119.992 1.3596 120.29 2.07829 120.291 2.828V137.347C120.291 138.097 119.993 138.817 119.463 139.347C118.932 139.878 118.213 140.177 117.463 140.178ZM21.7639 0.124001C21.0485 0.126111 20.363 0.411253 19.8571 0.917145C19.3512 1.42304 19.066 2.10857 19.0639 2.824V137.347C19.066 138.062 19.3512 138.748 19.8571 139.254C20.363 139.76 21.0485 140.045 21.7639 140.047H117.464C118.179 140.045 118.865 139.76 119.371 139.254C119.877 138.748 120.162 138.062 120.164 137.347V2.828C120.162 2.11256 119.877 1.42703 119.371 0.921143C118.865 0.415251 118.179 0.130113 117.464 0.128002L21.7639 0.124001Z" fill="#EBEBEB"/>
<path d="M224.659 140.178H128.959C128.209 140.177 127.49 139.879 126.96 139.348C126.43 138.818 126.132 138.099 126.131 137.349V2.828C126.132 2.07821 126.43 1.35936 126.96 0.829182C127.49 0.299001 128.209 0.000794128 128.959 0H224.659C225.409 0.000793618 226.128 0.298968 226.658 0.829121C227.188 1.35927 227.487 2.07812 227.488 2.828V137.347C227.488 138.097 227.19 138.817 226.659 139.348C226.129 139.879 225.409 140.177 224.659 140.178ZM128.959 0.124001C128.244 0.126111 127.558 0.411253 127.052 0.917145C126.546 1.42304 126.261 2.10857 126.259 2.824V137.347C126.261 138.062 126.546 138.748 127.052 139.254C127.558 139.76 128.244 140.045 128.959 140.047H224.659C225.375 140.046 226.062 139.762 226.569 139.256C227.076 138.75 227.362 138.063 227.364 137.347V2.828C227.362 2.1117 227.076 1.42542 226.569 0.919384C226.062 0.41335 225.375 0.128793 224.659 0.128002L128.959 0.124001Z" fill="#EBEBEB"/>
<path d="M106.293 162.28H115.522L115.522 98.908H106.293V162.28Z" fill="#E6E6E6"/>
<path d="M109.542 162.28H106.293V150.24H112.948L109.542 162.28Z" fill="#F0F0F0"/>
<path d="M203.887 162.28H213.116V98.908H203.887V162.28Z" fill="#E6E6E6"/>
<path d="M106.293 158.993H206.722V98.9079L106.293 98.9079L106.293 158.993Z" fill="#F0F0F0"/>
<path d="M203.477 162.28H206.726V150.24H200.067L203.477 162.28Z" fill="#F0F0F0"/>
<path d="M173.612 103.883V153.587H203.383V103.883H173.612Z" fill="#E6E6E6"/>
<path d="M185.553 105.631H191.443C193.936 105.656 196.348 104.75 198.207 103.089H178.79C180.649 104.749 183.061 105.656 185.553 105.631Z" fill="#F0F0F0"/>
<path d="M141.622 103.883V153.587H171.393V103.883H141.622Z" fill="#E6E6E6"/>
<path d="M153.262 105.631H159.152C161.644 105.656 164.056 104.749 165.915 103.089H146.498C148.357 104.75 150.769 105.656 153.262 105.631Z" fill="#F0F0F0"/>
<path d="M109.632 103.883V153.587H139.403V103.883H109.632Z" fill="#E6E6E6"/>
<path d="M121.272 105.631H127.162C129.655 105.656 132.067 104.75 133.926 103.089H114.508C116.367 104.75 118.779 105.656 121.272 105.631Z" fill="#F0F0F0"/>
<path d="M34.6819 162.28H97.6519L97.6519 20.728H34.6819L34.6819 162.28Z" fill="#F0F0F0"/>
<path d="M34.6819 162.28H96.3229L96.3229 20.728H34.6819L34.6819 162.28Z" fill="#F5F5F5"/>
<path d="M92.5669 159.068L92.5669 23.9399L38.4379 23.9399L38.4379 159.068H92.5669Z" fill="#F0F0F0"/>
<path d="M87.2479 49.071C87.2479 47.133 86.8662 45.2141 86.1246 43.4237C85.383 41.6333 84.296 40.0065 82.9257 38.6362C81.5554 37.2659 79.9286 36.1789 78.1382 35.4373C76.3478 34.6957 74.4289 34.314 72.4909 34.314H58.5149C54.6011 34.314 50.8476 35.8687 48.0802 38.6362C45.3127 41.4037 43.7579 45.1572 43.7579 49.071H87.2479Z" fill="#FAFAFA"/>
<path d="M87.248 150.669V118.387H43.758V150.669H87.248Z" fill="#F5F5F5"/>
<path d="M87.2479 58.1731H68.0649V114.222H87.2479V58.1731Z" fill="#F5F5F5"/>
<path d="M62.9409 58.1731H43.7579V114.222H62.9409V58.1731Z" fill="#F5F5F5"/>
<path d="M50.715 85.9451H42.8579C42.5349 85.9443 42.2253 85.8156 41.9969 85.5872C41.7684 85.3587 41.6397 85.0491 41.6389 84.7261C41.64 84.4031 41.7688 84.0937 41.9972 83.8653C42.2255 83.6369 42.535 83.5081 42.8579 83.5071H50.715C51.0379 83.5081 51.3474 83.6369 51.5757 83.8653C51.8041 84.0937 51.9329 84.4031 51.934 84.7261C51.9332 85.0491 51.8045 85.3587 51.576 85.5872C51.3476 85.8156 51.038 85.9443 50.715 85.9451Z" fill="#E0E0E0"/>
<path d="M39.4129 159.068L39.4129 23.9399H38.4389L38.4389 159.068H39.4129Z" fill="#F0F0F0"/>
<path d="M137.482 83.3721L204.261 83.3721V20.7281L137.482 20.7281V83.3721Z" fill="#E6E6E6"/>
<path d="M135.799 83.3721L202.578 83.3721V20.7281L135.799 20.7281V83.3721Z" fill="#F5F5F5"/>
<path d="M131.9 86.998L204.261 86.998V83.372L131.9 83.372V86.998Z" fill="#E6E6E6"/>
<path d="M130.005 86.998L198.639 86.998V83.372L130.005 83.372V86.998Z" fill="#F5F5F5"/>
<path d="M199.556 80.1141V23.9871L138.82 23.9871V80.1141H199.556Z" fill="white"/>
<path d="M170.871 80.1141V23.9871H167.504V80.1141H170.871Z" fill="#F5F5F5"/>
<path d="M140.093 80.1141V23.9871H138.82V80.1141H140.093Z" fill="#E6E6E6"/>
<path d="M172.144 80.1141V23.9871H170.871V80.1141H172.144Z" fill="#E6E6E6"/>
<path d="M146.459 85.0329C145.231 72.3079 144.376 51.6589 145.04 44.7529C145.051 44.6342 145.088 44.5194 145.147 44.4159C145.207 44.3125 145.287 44.2228 145.384 44.1529C145.512 44.0589 145.665 44.0029 145.823 43.9913C145.982 43.9796 146.141 44.0128 146.281 44.0871C146.422 44.1613 146.539 44.2736 146.619 44.4111C146.699 44.5486 146.739 44.7059 146.734 44.8649C146.617 48.2869 146.482 56.8399 147.211 71.5949C147.574 78.9399 148.097 83.9699 147.738 85.0309L146.459 85.0329Z" fill="#E6E6E6"/>
<path d="M141.881 55.704C138.381 51.821 131.242 49.06 123.964 49.074C121.107 49.08 132.657 53.591 137.464 58.574C141.305 62.712 144.468 67.4321 146.833 72.559C145.905 64.954 145.378 59.585 141.881 55.704Z" fill="#E6E6E6"/>
<path d="M148.813 56.8859C151.713 52.8419 158.42 49.7319 165.673 49.3799C168.52 49.2419 157.687 54.317 153.644 59.519C150.419 63.8668 147.967 68.7381 146.397 73.919C146.185 66.306 145.909 60.9309 148.813 56.8859Z" fill="#E6E6E6"/>
<path d="M141.725 41.522C138.764 38.234 132.716 35.896 126.553 35.908C124.134 35.908 133.914 39.734 137.981 43.949C141.234 47.4528 143.912 51.4497 145.915 55.791C145.133 49.357 144.684 44.81 141.725 41.522Z" fill="#E6E6E6"/>
<path d="M147.594 46.385C150.053 42.96 155.73 40.3269 161.871 40.0289C164.282 39.9119 155.109 44.209 151.685 48.614C148.953 52.2975 146.877 56.4247 145.548 60.814C145.37 54.362 145.135 49.808 147.594 46.385Z" fill="#E6E6E6"/>
<path d="M146.953 98.908C145.108 98.908 143.332 98.2022 141.99 96.9353C140.648 95.6684 139.842 93.9364 139.736 92.094L139.098 81.031H154.808L154.17 92.094C154.064 93.9364 153.257 95.6684 151.916 96.9353C150.574 98.2022 148.798 98.908 146.953 98.908Z" fill="#E6E6E6"/>
<path d="M155.825 83.546H138.084L137.576 78.946H156.337L155.825 83.546Z" fill="#E6E6E6"/>
<path d="M123.899 184.664C176.969 184.664 219.99 182.151 219.99 179.052C219.99 175.953 176.969 173.44 123.899 173.44C70.8294 173.44 27.808 175.953 27.808 179.052C27.808 182.151 70.8294 184.664 123.899 184.664Z" fill="#F5F5F5"/>
<path d="M125.838 173.689L121.7 174.155L120.174 164.771L124.312 164.305L125.838 173.689Z" fill="#FFC3BD"/>
<path d="M144.364 174.593H140.232L139.203 165.024H143.335L144.364 174.593Z" fill="#FFC3BD"/>
<path d="M139.892 174.112H144.929C145.011 174.112 145.09 174.14 145.154 174.191C145.218 174.243 145.263 174.314 145.281 174.394L146.097 178.067C146.116 178.157 146.115 178.249 146.093 178.338C146.071 178.427 146.03 178.51 145.972 178.581C145.914 178.651 145.84 178.708 145.757 178.746C145.674 178.785 145.583 178.804 145.492 178.802C143.871 178.774 142.692 178.679 140.648 178.679C139.392 178.679 135.604 178.809 133.87 178.809C132.17 178.809 131.909 177.094 132.619 176.939C135.803 176.239 138.202 175.282 139.219 174.366C139.404 174.201 139.644 174.11 139.892 174.112Z" fill="#263238"/>
<path d="M121.632 173.446L126.116 172.938C126.197 172.928 126.28 172.947 126.349 172.991C126.419 173.034 126.471 173.1 126.498 173.178L127.723 176.735C127.754 176.821 127.765 176.913 127.755 177.004C127.744 177.095 127.714 177.182 127.665 177.259C127.616 177.336 127.55 177.401 127.472 177.449C127.394 177.497 127.306 177.526 127.215 177.535C125.595 177.691 123.247 177.861 121.215 178.092C118.838 178.362 118.442 178.998 115.638 178.933C113.938 178.893 113.512 177.168 114.225 177.033C117.473 176.402 118.101 175.911 120.682 173.885C120.952 173.653 121.281 173.501 121.632 173.446Z" fill="#263238"/>
<path d="M125.282 53.177C123.894 54.323 122.528 55.319 121.115 56.339C119.702 57.359 118.259 58.306 116.774 59.225C115.289 60.144 113.765 61.025 112.167 61.825C110.533 62.6714 108.833 63.3811 107.082 63.947C106.619 64.095 106.168 64.217 105.648 64.347C105.139 64.4573 104.625 64.5397 104.108 64.594C103.177 64.694 102.301 64.739 101.428 64.779C99.6879 64.859 97.9809 64.857 96.2759 64.845C92.8659 64.804 89.4849 64.64 86.0889 64.34L86.0379 61.24C89.3729 60.811 92.7229 60.44 96.0379 60.067C97.6949 59.887 99.3479 59.685 100.963 59.474C101.763 59.365 102.563 59.237 103.301 59.1C103.618 59.044 103.932 58.9703 104.241 58.879C104.532 58.779 104.889 58.665 105.219 58.532C106.636 57.9567 108.012 57.2837 109.336 56.518C110.707 55.731 112.079 54.886 113.427 53.988C114.775 53.09 116.117 52.16 117.447 51.211C118.777 50.262 120.106 49.257 121.354 48.311L125.282 53.177Z" fill="#FFC3BD"/>
<path d="M129.321 49.6451C128.727 53.5511 120.503 59.5261 120.503 59.5261L114.603 52.2031C117.188 49.4448 119.928 46.8369 122.811 44.3921C125.466 42.2221 129.967 45.3951 129.321 49.6451Z" fill="#407BFF"/>
<path d="M87.1759 61.567L84.8299 59.897L84.5729 65.173C84.9276 65.1739 85.277 65.088 85.5908 64.9227C85.9046 64.7575 86.1731 64.5179 86.3729 64.225L87.1759 61.567Z" fill="#FFC3BD"/>
<path d="M82.7109 58.3611L82.2309 63.5321L84.575 65.1731L84.8319 59.8971L82.7109 58.3611Z" fill="#FFC3BD"/>
<path opacity="0.2" d="M120.176 164.774L120.962 169.611L125.101 169.145L124.315 164.308L120.176 164.774Z" fill="black"/>
<path opacity="0.2" d="M143.337 165.025H139.203L139.735 169.957H143.869L143.337 165.025Z" fill="black"/>
<path d="M143.396 44.5172C143.704 44.5862 143.995 44.716 144.251 44.8991C144.508 45.0822 144.726 45.3148 144.891 45.5833C145.057 45.8517 145.167 46.1506 145.216 46.4623C145.264 46.7739 145.249 47.0921 145.173 47.3981C144.276 51.1196 143.6 54.8909 143.149 58.6921C142.758 61.8921 142.524 64.9491 142.378 67.7201C142.035 74.2151 142.178 79.1661 141.984 80.8441C138.753 80.6201 126.577 79.7731 119.938 79.3091C117.697 61.7651 120.323 50.5691 121.798 46.0201C122.024 45.3113 122.446 44.6812 123.016 44.2032C123.586 43.7252 124.281 43.419 125.018 43.3201C125.864 43.2091 126.876 43.1021 127.944 43.0391C128.318 43.0151 128.697 43.0021 129.083 42.9941C132.217 43.0312 135.347 43.2489 138.456 43.6461C139.046 43.7161 139.642 43.8031 140.222 43.8961C141.381 44.0901 142.483 44.3132 143.396 44.5172Z" fill="#00419D"/>
<path d="M138.265 33.033C137.465 36.007 136.487 41.491 138.457 43.651C133.347 47.088 130.085 51.927 129.144 50.876C128.651 50.326 128.437 43.961 129.085 42.997C132.504 42.429 132.591 39.928 132.169 37.544L138.265 33.033Z" fill="#FFC3BD"/>
<path d="M138.061 42.418C138.061 42.418 129.734 46.103 128.63 54.343C130.924 51.687 135.991 48.797 135.991 48.797L133.756 48.155C135.177 47.6155 136.649 47.2196 138.149 46.973C137.901 45.835 139.223 43.565 139.223 43.565L138.061 42.418Z" fill="#407BFF"/>
<path d="M130.548 42.2852C130.548 42.2852 131.658 46.9912 128.631 54.3432C128.034 51.7771 127.216 49.2677 126.185 46.8432L128.224 47.3982C128.224 47.3982 128.124 46.4492 126.473 45.1872C127.161 44.1879 128.019 43.317 129.008 42.6142L130.548 42.2852Z" fill="#407BFF"/>
<path opacity="0.2" d="M135.78 34.874L132.172 37.542C132.279 38.0972 132.337 38.6607 132.345 39.226C133.645 39.126 135.505 37.843 135.736 36.508C135.849 35.9705 135.864 35.4169 135.78 34.874Z" fill="black"/>
<path d="M127.684 24.421C125.669 24.508 124.557 27.982 126.602 30.843C128.647 33.704 130.399 24.304 127.684 24.421Z" fill="#263238"/>
<path d="M137.621 27.4781C137.86 31.5721 138.208 33.9551 136.406 36.2881C133.696 39.7971 128.456 38.5391 126.999 34.5991C125.688 31.0531 125.517 24.9541 129.299 22.8591C130.131 22.3927 131.068 22.1468 132.022 22.1448C132.976 22.1428 133.914 22.3847 134.748 22.8475C135.582 23.3104 136.284 23.9788 136.787 24.7893C137.289 25.5998 137.577 26.5254 137.621 27.4781Z" fill="#FFC3BD"/>
<path d="M138.222 30.6241C137.127 29.9823 136.171 29.1292 135.409 28.1144C134.648 27.0996 134.096 25.9434 133.785 24.7131C132.585 24.9971 126.604 27.7491 124.765 24.7131C122.926 21.6771 125.24 19.8961 128.681 21.7651C127.159 19.0791 128.543 17.765 133.325 17.649C138.107 17.533 137.464 20.3051 137.464 20.3051C137.464 20.3051 141.084 18.7291 142.364 21.5051C143.847 24.6951 141.111 30.1421 138.222 30.6241Z" fill="#263238"/>
<path d="M136.646 19.572C136.69 19.572 138.457 19.997 140.493 17.948C140.128 19.696 136.966 20.86 136.966 20.86L136.646 19.572Z" fill="#263238"/>
<path d="M139.022 25.5609C137.115 24.9019 134.806 27.7269 135.659 31.1379C136.512 34.5489 141.591 26.4489 139.022 25.5609Z" fill="#263238"/>
<path d="M140.101 30.8831C139.926 31.8998 139.356 32.8059 138.515 33.4031C137.394 34.1851 136.384 33.2911 136.315 31.9971C136.257 30.8331 136.769 29.0231 138.076 28.7561C138.363 28.7025 138.658 28.7214 138.936 28.8112C139.214 28.9009 139.465 29.0586 139.666 29.27C139.867 29.4813 140.012 29.7396 140.088 30.0213C140.164 30.303 140.169 30.5993 140.101 30.8831Z" fill="#FFC3BD"/>
<path d="M126.152 125.863C127.145 113.777 134.429 80.3201 134.429 80.3201L119.935 79.3091C119.935 79.3091 114.346 112.52 113.918 125.124C113.472 138.229 118.743 167.355 118.743 167.355L125.694 166.564C125.694 166.564 125.155 137.999 126.152 125.863Z" fill="#407BFF"/>
<path opacity="0.5" d="M126.152 125.863C127.145 113.777 134.429 80.3201 134.429 80.3201L119.935 79.3091C119.935 79.3091 114.346 112.52 113.918 125.124C113.472 138.229 118.743 167.355 118.743 167.355L125.694 166.564C125.694 166.564 125.155 137.999 126.152 125.863Z" fill="white"/>
<path opacity="0.2" d="M128.969 91.6501C126.047 95.3861 125.995 108.507 127.125 118.201C128.202 111.208 129.899 102.327 131.386 94.9241L128.969 91.6501Z" fill="black"/>
<path d="M127.756 79.854C127.756 79.854 129.32 115.229 131.065 127.209C132.975 140.328 137.826 169.001 137.826 169.001H145.394C145.394 169.001 144.149 141.995 143.15 129.106C142.013 114.425 141.982 80.846 141.982 80.846L127.756 79.854Z" fill="#407BFF"/>
<path opacity="0.5" d="M127.756 79.854C127.756 79.854 129.32 115.229 131.065 127.209C132.975 140.328 137.826 169.001 137.826 169.001H145.394C145.394 169.001 144.149 141.995 143.15 129.106C142.013 114.425 141.982 80.846 141.982 80.846L127.756 79.854Z" fill="white"/>
<path d="M136.916 169.162H145.827V166.5L135.866 166.327L136.916 169.162Z" fill="#00419D"/>
<path d="M118.44 168.138L126.724 167.199L126.424 164.522L117.147 165.431L118.44 168.138Z" fill="#00419D"/>
<path d="M131.593 29.3551C131.633 29.6861 131.493 29.9751 131.273 30.0011C131.053 30.0271 130.849 29.7801 130.81 29.4491C130.771 29.1181 130.91 28.8291 131.13 28.8031C131.35 28.7771 131.554 29.0241 131.593 29.3551Z" fill="#263238"/>
<path d="M127.854 29.8041C127.894 30.1351 127.754 30.4241 127.534 30.4501C127.314 30.4761 127.11 30.2291 127.07 29.8981C127.03 29.5671 127.17 29.2781 127.39 29.2521C127.61 29.2261 127.814 29.4771 127.854 29.8041Z" fill="#263238"/>
<path d="M129.062 29.8262C128.789 30.8849 128.372 31.9011 127.822 32.8462C128.067 32.9806 128.339 33.0598 128.618 33.0783C128.897 33.0968 129.177 33.0541 129.438 32.9532L129.062 29.8262Z" fill="#ED847E"/>
<path d="M132.61 28.006C132.575 28.0165 132.538 28.0173 132.503 28.0083C132.468 27.9994 132.435 27.9809 132.41 27.955C132.245 27.7732 132.038 27.6331 131.808 27.5462C131.579 27.4593 131.331 27.428 131.087 27.455C131.036 27.4636 130.984 27.4522 130.941 27.4231C130.898 27.394 130.869 27.3496 130.858 27.299C130.853 27.2737 130.853 27.2476 130.858 27.2223C130.863 27.197 130.873 27.1729 130.887 27.1515C130.902 27.1302 130.921 27.112 130.942 27.098C130.964 27.084 130.988 27.0745 131.014 27.07C131.322 27.0301 131.636 27.0648 131.928 27.1713C132.22 27.2778 132.483 27.453 132.693 27.682C132.729 27.7193 132.749 27.7689 132.749 27.8205C132.749 27.8722 132.729 27.9218 132.693 27.959C132.67 27.9814 132.641 27.9976 132.61 28.006Z" fill="#263238"/>
<path d="M131.173 34.2732C131.645 34.1739 132.086 33.9625 132.459 33.6569C132.832 33.3512 133.126 32.9603 133.316 32.5172C133.325 32.4906 133.324 32.4615 133.311 32.4362C133.299 32.4109 133.277 32.3915 133.251 32.3822C133.224 32.3729 133.195 32.3745 133.17 32.3867C133.145 32.3989 133.125 32.4206 133.116 32.4472C132.934 32.8548 132.659 33.214 132.312 33.4957C131.966 33.7775 131.558 33.9739 131.122 34.0692C131.108 34.0723 131.096 34.078 131.084 34.086C131.073 34.094 131.064 34.1041 131.056 34.1158C131.049 34.1275 131.044 34.1405 131.042 34.1541C131.039 34.1678 131.04 34.1817 131.043 34.1952C131.046 34.2086 131.052 34.2213 131.06 34.2326C131.068 34.2439 131.078 34.2534 131.09 34.2608C131.101 34.2681 131.114 34.2731 131.128 34.2754C131.142 34.2777 131.155 34.2773 131.169 34.2742L131.173 34.2732Z" fill="#263238"/>
<path d="M126.095 28.71C126.056 28.7231 126.013 28.7231 125.974 28.71C125.926 28.6921 125.886 28.6563 125.863 28.6098C125.841 28.5634 125.837 28.5101 125.853 28.461C125.947 28.1644 126.111 27.8948 126.331 27.6751C126.551 27.4554 126.821 27.2921 127.118 27.199C127.168 27.1877 127.221 27.1961 127.265 27.2225C127.309 27.249 127.341 27.2914 127.355 27.341C127.366 27.3911 127.358 27.4436 127.332 27.4877C127.306 27.5318 127.263 27.5642 127.214 27.578C126.981 27.6559 126.769 27.788 126.597 27.9636C126.424 28.1392 126.296 28.3532 126.223 28.588C126.212 28.6168 126.195 28.6428 126.173 28.6639C126.151 28.6851 126.124 28.7009 126.095 28.71Z" fill="#263238"/>
<path d="M138.531 174.834C138.248 174.857 137.966 174.782 137.731 174.623C137.658 174.56 137.601 174.48 137.566 174.39C137.531 174.299 137.519 174.202 137.531 174.106C137.531 174.049 137.546 173.993 137.576 173.944C137.606 173.895 137.648 173.855 137.699 173.829C138.158 173.593 139.489 174.413 139.639 174.507C139.655 174.518 139.668 174.533 139.676 174.55C139.684 174.568 139.687 174.588 139.684 174.607C139.681 174.626 139.672 174.644 139.659 174.658C139.646 174.672 139.629 174.682 139.61 174.687C139.257 174.776 138.895 174.825 138.531 174.834ZM137.917 173.979C137.873 173.977 137.83 173.985 137.79 174.003C137.77 174.014 137.753 174.031 137.742 174.052C137.731 174.072 137.726 174.095 137.728 174.118C137.719 174.184 137.727 174.25 137.75 174.312C137.773 174.374 137.811 174.43 137.861 174.473C138.323 174.684 138.847 174.71 139.328 174.547C138.897 174.268 138.416 174.075 137.912 173.979H137.917Z" fill="#407BFF"/>
<path d="M139.584 174.689C139.568 174.689 139.551 174.685 139.537 174.677C139.11 174.445 138.283 173.539 138.37 173.077C138.384 173.005 138.423 172.94 138.48 172.893C138.536 172.846 138.607 172.821 138.681 172.82C138.755 172.811 138.831 172.818 138.903 172.839C138.974 172.861 139.041 172.897 139.098 172.946C139.578 173.339 139.677 174.531 139.68 174.581C139.681 174.599 139.678 174.616 139.67 174.632C139.662 174.648 139.651 174.661 139.636 174.671C139.621 174.682 139.603 174.688 139.584 174.689ZM138.75 173.014H138.705C138.578 173.03 138.567 173.088 138.562 173.114C138.51 173.386 139.037 174.07 139.462 174.393C139.434 173.921 139.264 173.467 138.974 173.093C138.911 173.041 138.832 173.013 138.75 173.014Z" fill="#407BFF"/>
<path d="M121.296 174.057L121.28 174.064C120.633 174.271 119.475 174.564 118.98 174.218C118.907 174.168 118.847 174.1 118.806 174.021C118.765 173.942 118.744 173.855 118.744 173.766C118.74 173.713 118.75 173.659 118.773 173.61C118.796 173.562 118.831 173.52 118.875 173.489C119.34 173.162 121.087 173.805 121.285 173.88C121.302 173.887 121.316 173.899 121.327 173.914C121.338 173.929 121.344 173.947 121.345 173.966C121.346 173.984 121.342 174.002 121.334 174.019C121.325 174.035 121.312 174.049 121.296 174.058V174.057ZM119.013 173.633L118.99 173.647C118.972 173.659 118.958 173.676 118.949 173.695C118.94 173.715 118.937 173.737 118.94 173.758C118.939 173.817 118.952 173.875 118.978 173.927C119.005 173.979 119.044 174.024 119.092 174.058C119.7 174.248 120.356 174.212 120.94 173.958C120.335 173.69 119.672 173.578 119.012 173.633H119.013Z" fill="#407BFF"/>
<path d="M121.296 174.057C121.272 174.069 121.245 174.071 121.22 174.063C120.7 173.897 119.62 173.12 119.64 172.648C119.645 172.537 119.708 172.392 119.972 172.335C120.067 172.314 120.166 172.312 120.262 172.33C120.358 172.349 120.449 172.386 120.53 172.441C120.954 172.846 121.239 173.375 121.346 173.951C121.349 173.968 121.348 173.985 121.343 174.001C121.338 174.018 121.328 174.032 121.316 174.044C121.31 174.049 121.303 174.053 121.296 174.057ZM119.905 172.567C119.838 172.603 119.836 172.645 119.835 172.661C119.821 172.945 120.567 173.567 121.108 173.813C121.008 173.352 120.769 172.933 120.423 172.613C120.364 172.572 120.297 172.544 120.226 172.53C120.156 172.517 120.083 172.518 120.013 172.534C119.976 172.54 119.939 172.551 119.905 172.567Z" fill="#407BFF"/>
<path d="M146.882 50.4771C146.777 52.0911 146.587 53.5941 146.39 55.1461C146.193 56.6981 145.928 58.2191 145.637 59.7541C145.061 62.8893 144.211 65.9678 143.096 68.9541L142.605 70.1111L142.481 70.4001L142.45 70.4721L142.399 70.5821L142.255 70.8671C142.065 71.2134 141.836 71.5374 141.574 71.8331C141.143 72.3183 140.639 72.7332 140.08 73.0631C139.627 73.3325 139.153 73.563 138.661 73.7521C137.023 74.3429 135.31 74.7004 133.573 74.8141C130.418 75.0498 127.247 74.9314 124.119 74.4611L124.232 71.3611L126.418 71.1141C127.151 71.0271 127.88 70.9141 128.605 70.8141C130.052 70.6011 131.484 70.3631 132.849 70.0461C134.111 69.7891 135.339 69.3822 136.505 68.8341C136.819 68.702 137.095 68.4917 137.305 68.2231C137.318 68.1521 137.16 68.4631 137.346 67.9661L137.673 67.0101C138.474 64.2695 139.087 61.4773 139.507 58.6531C139.742 57.2151 139.943 55.7641 140.137 54.3091C140.331 52.8541 140.491 51.3691 140.644 49.9741L146.882 50.4771Z" fill="#FFC3BD"/>
<path d="M147.242 47.4811C149.265 50.8741 147.542 61.5381 147.542 61.5381L136.942 59.5791C136.942 59.5791 136.368 53.4791 138.386 48.7851C140.577 43.6761 144.791 43.3701 147.242 47.4811Z" fill="#407BFF"/>
<path d="M121.264 80.952L115.639 54.788C115.369 53.6708 114.743 52.6715 113.856 51.941C112.968 51.2105 111.867 50.7883 110.719 50.738H89.1659C90.3145 50.7881 91.4156 51.2102 92.3032 51.9407C93.1909 52.6713 93.8169 53.6706 94.0869 54.788L99.7119 80.952C99.9819 82.0693 100.608 83.0685 101.495 83.7991C102.383 84.5296 103.484 84.9518 104.632 85.002H126.184C125.036 84.9518 123.935 84.5296 123.047 83.7991C122.16 83.0685 121.534 82.0693 121.264 80.952Z" fill="#263238"/>
<path opacity="0.7" d="M121.264 80.952L115.639 54.788C115.369 53.6708 114.743 52.6715 113.856 51.941C112.968 51.2105 111.867 50.7883 110.719 50.738H89.1659C90.3145 50.7881 91.4156 51.2102 92.3032 51.9407C93.1909 52.6713 93.8169 53.6706 94.0869 54.788L99.7119 80.952C99.9819 82.0693 100.608 83.0685 101.495 83.7991C102.383 84.5296 103.484 84.9518 104.632 85.002H126.184C125.036 84.9518 123.935 84.5296 123.047 83.7991C122.16 83.0685 121.534 82.0693 121.264 80.952Z" fill="#407BFF"/>
<path d="M89.1659 50.738H110.718C109.614 50.7587 108.557 51.1817 107.743 51.9275C106.929 52.6733 106.416 53.6905 106.3 54.788L100.709 115.588C100.592 116.685 100.079 117.703 99.2657 118.448C98.4522 119.194 97.3944 119.617 96.2909 119.638H82.839C82.3208 119.648 81.8065 119.546 81.3307 119.341C80.8548 119.136 80.4283 118.831 80.0796 118.448C79.731 118.064 79.4683 117.611 79.3092 117.118C79.1501 116.624 79.0982 116.103 79.1569 115.588L84.749 54.788C84.8652 53.6907 85.3783 52.6736 86.1916 51.9278C87.005 51.182 88.0626 50.7589 89.1659 50.738Z" fill="#407BFF"/>
<path d="M92.6089 115.587C92.5501 116.102 92.6021 116.624 92.7612 117.117C92.9203 117.61 93.183 118.064 93.5316 118.447C93.8802 118.83 94.3068 119.135 94.7826 119.34C95.2585 119.546 95.7728 119.647 96.2909 119.637H74.7389C74.2207 119.647 73.7064 119.546 73.2304 119.341C72.7545 119.135 72.3279 118.831 71.9792 118.447C71.6306 118.064 71.3679 117.61 71.2088 117.117C71.0498 116.624 70.998 116.102 71.0569 115.587H92.6089Z" fill="#263238"/>
<path opacity="0.7" d="M92.6089 115.587C92.5501 116.102 92.6021 116.624 92.7612 117.117C92.9203 117.61 93.183 118.064 93.5316 118.447C93.8802 118.83 94.3068 119.135 94.7826 119.34C95.2585 119.546 95.7728 119.647 96.2909 119.637H74.7389C74.2207 119.647 73.7064 119.546 73.2304 119.341C72.7545 119.135 72.3279 118.831 71.9792 118.447C71.6306 118.064 71.3679 117.61 71.2088 117.117C71.0498 116.624 70.998 116.102 71.0569 115.587H92.6089Z" fill="#407BFF"/>
<g opacity="0.5">
<path opacity="0.5" d="M102.565 57.55H87.9809C87.8683 57.5515 87.7567 57.5291 87.6534 57.4842C87.5501 57.4393 87.4576 57.3729 87.3819 57.2895C87.3063 57.2061 87.2492 57.1075 87.2146 57.0003C87.1799 56.8932 87.1685 56.7799 87.181 56.668C87.2069 56.4292 87.3188 56.2081 87.4958 56.0458C87.6728 55.8835 87.9028 55.7911 88.1429 55.786H102.725C102.838 55.7844 102.949 55.8068 103.052 55.8518C103.156 55.8967 103.248 55.963 103.324 56.0464C103.4 56.1299 103.457 56.2284 103.491 56.3356C103.526 56.4427 103.537 56.556 103.525 56.668C103.499 56.9064 103.387 57.1273 103.211 57.2895C103.034 57.4518 102.805 57.5443 102.565 57.55Z" fill="white"/>
<path opacity="0.5" d="M102.131 62.321H87.547C87.4343 62.3225 87.3227 62.3001 87.2194 62.2552C87.1161 62.2102 87.0236 62.1439 86.9479 62.0605C86.8723 61.9771 86.8152 61.8785 86.7806 61.7713C86.7459 61.6642 86.7345 61.5509 86.747 61.4389C86.7729 61.2002 86.8848 60.979 87.0618 60.8167C87.2388 60.6544 87.4689 60.5621 87.709 60.557H102.293C102.406 60.5554 102.517 60.5778 102.62 60.6227C102.724 60.6677 102.816 60.734 102.892 60.8174C102.968 60.9009 103.025 60.9994 103.059 61.1066C103.094 61.2137 103.105 61.327 103.093 61.4389C103.067 61.6778 102.955 61.8991 102.778 62.0614C102.601 62.2238 102.371 62.316 102.131 62.321Z" fill="white"/>
<path opacity="0.5" d="M98.122 67.0919H87.1129C87.0003 67.0935 86.8887 67.0711 86.7854 67.0262C86.6821 66.9812 86.5896 66.9149 86.5139 66.8315C86.4383 66.748 86.3812 66.6495 86.3466 66.5423C86.3119 66.4352 86.3005 66.3219 86.3129 66.2099C86.3389 65.9712 86.4508 65.75 86.6278 65.5877C86.8048 65.4254 87.0349 65.3331 87.275 65.328H98.284C98.3966 65.3264 98.5082 65.3488 98.6115 65.3937C98.7148 65.4386 98.8073 65.505 98.883 65.5884C98.9586 65.6719 99.0157 65.7704 99.0503 65.8776C99.085 65.9847 99.0964 66.098 99.0839 66.2099C99.058 66.4487 98.9461 66.6699 98.7691 66.8322C98.5921 66.9945 98.3621 67.0868 98.122 67.0919Z" fill="white"/>
<path opacity="0.5" d="M90.413 71.862H86.6799C86.5673 71.8635 86.4557 71.8411 86.3524 71.7962C86.2491 71.7513 86.1566 71.6849 86.0809 71.6015C86.0053 71.5181 85.9482 71.4195 85.9136 71.3124C85.8789 71.2052 85.8675 71.0919 85.8799 70.98C85.9056 70.7413 86.0173 70.5202 86.1942 70.3578C86.3711 70.1955 86.601 70.1032 86.8409 70.098H90.575C90.6876 70.0964 90.7992 70.1189 90.9025 70.1638C91.0058 70.2087 91.0983 70.2751 91.174 70.3585C91.2496 70.4419 91.3067 70.5404 91.3413 70.6476C91.376 70.7548 91.3874 70.8681 91.3749 70.98C91.349 71.2187 91.2371 71.4399 91.0601 71.6022C90.8831 71.7645 90.6531 71.8568 90.413 71.862Z" fill="white"/>
<path opacity="0.5" d="M100.829 76.633H86.2409C86.1283 76.6345 86.0167 76.6121 85.9134 76.5672C85.8101 76.5223 85.7176 76.4559 85.6419 76.3725C85.5663 76.2891 85.5092 76.1905 85.4746 76.0834C85.4399 75.9762 85.4284 75.8629 85.4409 75.751C85.4669 75.5122 85.5788 75.291 85.7558 75.1288C85.9328 74.9665 86.1628 74.8741 86.4029 74.869H100.987C101.1 74.8674 101.211 74.8899 101.314 74.9348C101.418 74.9797 101.51 75.046 101.586 75.1295C101.662 75.2129 101.719 75.3114 101.753 75.4186C101.788 75.5257 101.799 75.6391 101.787 75.751C101.761 75.9891 101.65 76.2097 101.474 76.3719C101.297 76.5341 101.068 76.6269 100.829 76.633Z" fill="white"/>
<path opacity="0.5" d="M94.6519 81.404H85.8119C85.6993 81.4055 85.5877 81.3831 85.4844 81.3382C85.3811 81.2933 85.2886 81.2269 85.2129 81.1435C85.1373 81.0601 85.0802 80.9615 85.0456 80.8544C85.0109 80.7472 84.9995 80.6339 85.012 80.522C85.0376 80.2833 85.1494 80.0622 85.3262 79.8998C85.5031 79.7375 85.733 79.6451 85.9729 79.64H94.8129C94.9256 79.6384 95.0372 79.6609 95.1405 79.7058C95.2438 79.7507 95.3363 79.817 95.412 79.9005C95.4876 79.9839 95.5447 80.0824 95.5793 80.1896C95.614 80.2967 95.6254 80.41 95.6129 80.522C95.587 80.7606 95.4753 80.9816 95.2985 81.1439C95.1217 81.3061 94.8919 81.3986 94.6519 81.404Z" fill="white"/>
<path opacity="0.5" d="M99.9619 86.174H85.3779C85.2653 86.1755 85.1537 86.1531 85.0504 86.1082C84.9471 86.0633 84.8546 85.9969 84.7789 85.9135C84.7033 85.8301 84.6462 85.7315 84.6116 85.6244C84.5769 85.5172 84.5655 85.4039 84.5779 85.292C84.6039 85.0532 84.7158 84.8321 84.8928 84.6698C85.0698 84.5075 85.2998 84.4151 85.54 84.41H100.125C100.238 84.4084 100.349 84.4309 100.452 84.4758C100.556 84.5207 100.648 84.5871 100.724 84.6705C100.8 84.7539 100.857 84.8525 100.891 84.9596C100.926 85.0668 100.937 85.1801 100.925 85.292C100.899 85.5309 100.787 85.7522 100.61 85.9145C100.432 86.0768 100.202 86.1691 99.9619 86.174Z" fill="white"/>
<path opacity="0.5" d="M95.9529 90.945H84.9439C84.8313 90.9465 84.7197 90.9241 84.6164 90.8792C84.5131 90.8343 84.4206 90.7679 84.3449 90.6845C84.2693 90.6011 84.2122 90.5025 84.1776 90.3954C84.1429 90.2882 84.1314 90.1749 84.1439 90.063C84.1699 89.8242 84.2818 89.6031 84.4588 89.4408C84.6358 89.2785 84.8658 89.1861 85.1059 89.181H96.1149C96.2275 89.1794 96.3392 89.2019 96.4425 89.2468C96.5458 89.2917 96.6383 89.3581 96.714 89.4415C96.7896 89.5249 96.8467 89.6234 96.8813 89.7306C96.916 89.8378 96.9274 89.9511 96.9149 90.063C96.889 90.3017 96.7771 90.5229 96.6001 90.6852C96.4231 90.8475 96.193 90.9398 95.9529 90.945Z" fill="white"/>
<path opacity="0.5" d="M88.2439 95.715H84.5079C84.3953 95.7165 84.2837 95.6941 84.1804 95.6492C84.0771 95.6043 83.9846 95.5379 83.9089 95.4545C83.8333 95.3711 83.7762 95.2725 83.7416 95.1654C83.7069 95.0582 83.6954 94.9449 83.7079 94.833C83.7339 94.5943 83.8458 94.3731 84.0228 94.2108C84.1998 94.0485 84.4298 93.9562 84.6699 93.951H88.4079C88.5206 93.9495 88.6322 93.9719 88.7355 94.0168C88.8388 94.0617 88.9313 94.1281 89.007 94.2115C89.0826 94.2949 89.1397 94.3935 89.1743 94.5006C89.209 94.6078 89.2204 94.7211 89.2079 94.833C89.182 95.0721 89.0698 95.2935 88.8923 95.4559C88.7149 95.6182 88.4844 95.7103 88.2439 95.715Z" fill="white"/>
<path opacity="0.5" d="M98.6599 100.487H84.0759C83.9633 100.489 83.8517 100.466 83.7484 100.421C83.6451 100.376 83.5526 100.31 83.4769 100.226C83.4013 100.143 83.3442 100.045 83.3096 99.9374C83.2749 99.8302 83.2634 99.7169 83.2759 99.605C83.3019 99.3662 83.4138 99.1451 83.5908 98.9828C83.7678 98.8205 83.9978 98.7281 84.2379 98.723H98.8219C98.9346 98.7214 99.0462 98.7439 99.1495 98.7888C99.2528 98.8337 99.3453 98.9 99.421 98.9835C99.4966 99.0669 99.5537 99.1654 99.5883 99.2726C99.623 99.3798 99.6344 99.4931 99.6219 99.605C99.596 99.8437 99.4841 100.065 99.3071 100.227C99.1301 100.389 98.9 100.482 98.6599 100.487Z" fill="white"/>
<path opacity="0.5" d="M92.483 105.257H83.6429C83.5303 105.259 83.4187 105.236 83.3154 105.191C83.2121 105.146 83.1196 105.08 83.0439 104.997C82.9683 104.913 82.9112 104.815 82.8766 104.707C82.8419 104.6 82.8304 104.487 82.8429 104.375C82.8687 104.136 82.9805 103.915 83.1576 103.753C83.3346 103.59 83.5648 103.498 83.8049 103.493H92.644C92.7566 103.491 92.8682 103.514 92.9715 103.559C93.0748 103.604 93.1673 103.67 93.243 103.753C93.3186 103.837 93.3757 103.935 93.4103 104.043C93.445 104.15 93.4564 104.263 93.444 104.375C93.4181 104.614 93.3063 104.835 93.1295 104.997C92.9527 105.159 92.7229 105.252 92.483 105.257Z" fill="white"/>
<path opacity="0.5" d="M97.7919 110.028H83.2079C83.0953 110.03 82.9837 110.007 82.8804 109.962C82.7771 109.917 82.6846 109.851 82.6089 109.768C82.5333 109.684 82.4762 109.586 82.4416 109.478C82.4069 109.371 82.3955 109.258 82.4079 109.146C82.4339 108.907 82.5458 108.686 82.7228 108.524C82.8998 108.361 83.1299 108.269 83.37 108.264H97.952C98.0646 108.262 98.1762 108.285 98.2795 108.33C98.3828 108.375 98.4753 108.441 98.551 108.524C98.6266 108.608 98.6837 108.706 98.7183 108.814C98.753 108.921 98.7644 109.034 98.7519 109.146C98.7261 109.384 98.6144 109.605 98.4378 109.768C98.2612 109.93 98.0317 110.022 97.7919 110.028Z" fill="white"/>
</g>
<path d="M125.503 71.699L122.337 68.948L120.853 74.012C120.853 74.012 124.069 75.756 125.183 74.155L125.503 71.699Z" fill="#FFC3BD"/>
<path d="M118.888 68.75L117.858 72.994L120.85 74.014L122.334 68.949L118.888 68.75Z" fill="#FFC3BD"/>
</svg>
