<svg width="157" height="140" viewBox="0 0 157 140" fill="none" xmlns="http://www.w3.org/2000/svg">
<path d="M139 0H19C13.4772 0 9 4.47715 9 10V130C9 135.523 13.4772 140 19 140H139C144.523 140 149 135.523 149 130V10C149 4.47715 144.523 0 139 0Z" fill="url(#paint0_linear_1_878)"/>
<g filter="url(#filter0_d_1_878)">
<path d="M146 10H11C8.23858 10 6 12.2386 6 15V40C6 42.7614 8.23858 45 11 45H146C148.761 45 151 42.7614 151 40V15C151 12.2386 148.761 10 146 10Z" fill="white"/>
</g>
<path d="M75 18H49C47.3431 18 46 19.3431 46 21C46 22.6569 47.3431 24 49 24H75C76.6569 24 78 22.6569 78 21C78 19.3431 76.6569 18 75 18Z" fill="#B4DAFF"/>
<path d="M93 31H49C47.3431 31 46 32.3431 46 34C46 35.6569 47.3431 37 49 37H93C94.6569 37 96 35.6569 96 34C96 32.3431 94.6569 31 93 31Z" fill="#DEE9FC"/>
<path d="M88 13H69C66.2386 13 64 15.2386 64 18V37C64 39.7614 66.2386 42 69 42H88C90.7614 42 93 39.7614 93 37V18C93 15.2386 90.7614 13 88 13Z" fill="#00419D"/>
<path d="M76.222 30.78H78.222L78.244 30.01C78.244 28.998 78.882 28.734 79.784 28.448C80.6888 28.1906 81.4852 27.6456 82.0528 26.8955C82.6204 26.1453 82.9283 25.2307 82.93 24.29C82.9498 23.7157 82.8502 23.1435 82.6374 22.6096C82.4246 22.0758 82.1033 21.5919 81.6939 21.1886C81.2844 20.7854 80.7957 20.4715 80.2586 20.2669C79.7216 20.0623 79.148 19.9714 78.574 20C77.9674 19.9868 77.3644 20.0969 76.8017 20.3237C76.2389 20.5505 75.7281 20.8893 75.3002 21.3194C74.8723 21.7495 74.5363 22.2621 74.3124 22.8261C74.0886 23.39 73.9816 23.9935 73.998 24.6H76.066C76.0581 24.2651 76.1172 23.9321 76.2397 23.6203C76.3623 23.3085 76.5458 23.0244 76.7796 22.7845C77.0133 22.5445 77.2926 22.3537 77.6011 22.2231C77.9096 22.0925 78.241 22.0248 78.576 22.024C78.8781 22.0065 79.1804 22.0542 79.4623 22.1639C79.7443 22.2737 79.9994 22.4428 80.2102 22.6599C80.421 22.8769 80.5826 23.1368 80.684 23.4219C80.7855 23.707 80.8243 24.0106 80.798 24.312C80.7847 24.7999 80.615 25.2706 80.314 25.6548C80.013 26.039 79.5965 26.3164 79.126 26.446L78.4 26.734C77.6892 26.9053 77.0686 27.3372 76.6612 27.9443C76.2538 28.5514 76.0891 29.2893 76.2 30.012L76.222 30.78ZM77.212 35.534C77.4078 35.541 77.6031 35.5086 77.7862 35.4388C77.9693 35.369 78.1366 35.2632 78.2781 35.1276C78.4196 34.9921 78.5325 34.8295 78.6101 34.6496C78.6877 34.4696 78.7285 34.276 78.73 34.08C78.7282 33.8842 78.6873 33.6908 78.6095 33.5111C78.5318 33.3313 78.4189 33.169 78.2774 33.0337C78.1359 32.8984 77.9687 32.7927 77.7857 32.723C77.6027 32.6534 77.4076 32.6211 77.212 32.628C77.0163 32.6211 76.8212 32.6534 76.6382 32.723C76.4552 32.7927 76.2881 32.8984 76.1466 33.0337C76.0051 33.169 75.8921 33.3313 75.8144 33.5111C75.7367 33.6908 75.6957 33.8842 75.694 34.08C75.6955 34.276 75.7362 34.4696 75.8138 34.6496C75.8914 34.8295 76.0044 34.9921 76.1459 35.1276C76.2874 35.2632 76.4547 35.369 76.6378 35.4388C76.8209 35.5086 77.0161 35.541 77.212 35.534Z" fill="white"/>
<g filter="url(#filter1_d_1_878)">
<path d="M11 53H146C147.326 53 148.598 53.5268 149.536 54.4645C150.473 55.4021 151 56.6739 151 58V83C151 84.3261 150.473 85.5979 149.536 86.5355C148.598 87.4732 147.326 88 146 88H11C9.67392 88 8.40215 87.4732 7.46447 86.5355C6.52678 85.5979 6 84.3261 6 83V58C6 56.6739 6.52678 55.4021 7.46447 54.4645C8.40215 53.5268 9.67392 53 11 53V53Z" fill="white"/>
</g>
<path d="M75 61H49C47.3431 61 46 62.3431 46 64C46 65.6569 47.3431 67 49 67H75C76.6569 67 78 65.6569 78 64C78 62.3431 76.6569 61 75 61Z" fill="#B4DAFF"/>
<path d="M93 74H49C47.3431 74 46 75.3431 46 77C46 78.6569 47.3431 80 49 80H93C94.6569 80 96 78.6569 96 77C96 75.3431 94.6569 74 93 74Z" fill="#DEE9FC"/>
<path d="M33 56H14C11.2386 56 9 58.2386 9 61V80C9 82.7614 11.2386 85 14 85H33C35.7614 85 38 82.7614 38 80V61C38 58.2386 35.7614 56 33 56Z" fill="#00419D"/>
<path d="M21.222 73.78H23.222L23.244 73.01C23.244 71.998 23.882 71.734 24.784 71.448C25.6888 71.1906 26.4852 70.6456 27.0528 69.8955C27.6204 69.1453 27.9283 68.2307 27.93 67.29C27.9498 66.7157 27.8502 66.1435 27.6374 65.6096C27.4246 65.0758 27.1033 64.5919 26.6939 64.1886C26.2844 63.7854 25.7957 63.4715 25.2586 63.2669C24.7216 63.0623 24.148 62.9714 23.574 63C22.9674 62.9868 22.3644 63.0969 21.8017 63.3237C21.2389 63.5505 20.7281 63.8893 20.3002 64.3194C19.8723 64.7495 19.5363 65.2621 19.3124 65.8261C19.0886 66.39 18.9816 66.9935 18.998 67.6H21.066C21.0581 67.2651 21.1172 66.9321 21.2397 66.6203C21.3623 66.3085 21.5458 66.0244 21.7796 65.7845C22.0133 65.5445 22.2926 65.3537 22.6011 65.2231C22.9096 65.0925 23.241 65.0248 23.576 65.024C23.8781 65.0065 24.1804 65.0542 24.4623 65.1639C24.7443 65.2737 24.9994 65.4428 25.2102 65.6599C25.421 65.8769 25.5826 66.1368 25.684 66.4219C25.7855 66.707 25.8243 67.0106 25.798 67.312C25.7847 67.7999 25.615 68.2706 25.314 68.6548C25.013 69.039 24.5965 69.3164 24.126 69.446L23.4 69.734C22.6892 69.9053 22.0686 70.3372 21.6612 70.9443C21.2538 71.5514 21.0891 72.2893 21.2 73.012L21.222 73.78ZM22.212 78.534C22.4078 78.541 22.6031 78.5086 22.7862 78.4388C22.9693 78.369 23.1366 78.2632 23.2781 78.1276C23.4196 77.9921 23.5325 77.8295 23.6101 77.6496C23.6877 77.4696 23.7285 77.276 23.73 77.08C23.7282 76.8842 23.6873 76.6908 23.6095 76.5111C23.5318 76.3313 23.4189 76.169 23.2774 76.0337C23.1359 75.8984 22.9687 75.7927 22.7857 75.723C22.6027 75.6534 22.4076 75.6211 22.212 75.628C22.0163 75.6211 21.8212 75.6534 21.6382 75.723C21.4552 75.7927 21.2881 75.8984 21.1466 76.0337C21.0051 76.169 20.8921 76.3313 20.8144 76.5111C20.7367 76.6908 20.6957 76.8842 20.694 77.08C20.6955 77.276 20.7362 77.4696 20.8138 77.6496C20.8914 77.8295 21.0044 77.9921 21.1459 78.1276C21.2874 78.2632 21.4547 78.369 21.6378 78.4388C21.8209 78.5086 22.0161 78.541 22.212 78.534Z" fill="white"/>
<g filter="url(#filter2_d_1_878)">
<path d="M11 96H146C147.326 96 148.598 96.5268 149.536 97.4645C150.473 98.4021 151 99.6739 151 101V126C151 127.326 150.473 128.598 149.536 129.536C148.598 130.473 147.326 131 146 131H11C9.67392 131 8.40215 130.473 7.46447 129.536C6.52678 128.598 6 127.326 6 126V101C6 99.6739 6.52678 98.4021 7.46447 97.4645C8.40215 96.5268 9.67392 96 11 96V96Z" fill="white"/>
</g>
<path d="M75 104H49C47.3431 104 46 105.343 46 107C46 108.657 47.3431 110 49 110H75C76.6569 110 78 108.657 78 107C78 105.343 76.6569 104 75 104Z" fill="#B4DAFF"/>
<path d="M93 117H49C47.3431 117 46 118.343 46 120C46 121.657 47.3431 123 49 123H93C94.6569 123 96 121.657 96 120C96 118.343 94.6569 117 93 117Z" fill="#DEE9FC"/>
<path d="M33 99H14C11.2386 99 9 101.239 9 104V123C9 125.761 11.2386 128 14 128H33C35.7614 128 38 125.761 38 123V104C38 101.239 35.7614 99 33 99Z" fill="#00419D"/>
<path d="M21.222 116.78H23.222L23.244 116.01C23.244 114.998 23.882 114.734 24.784 114.448C25.6888 114.191 26.4852 113.646 27.0528 112.895C27.6204 112.145 27.9283 111.231 27.93 110.29C27.9498 109.716 27.8502 109.143 27.6374 108.61C27.4246 108.076 27.1033 107.592 26.6939 107.189C26.2844 106.785 25.7957 106.472 25.2586 106.267C24.7216 106.062 24.148 105.971 23.574 106C22.9674 105.987 22.3644 106.097 21.8017 106.324C21.2389 106.551 20.7281 106.889 20.3002 107.319C19.8723 107.75 19.5363 108.262 19.3124 108.826C19.0886 109.39 18.9816 109.993 18.998 110.6H21.066C21.0581 110.265 21.1172 109.932 21.2397 109.62C21.3623 109.309 21.5458 109.024 21.7796 108.784C22.0133 108.545 22.2926 108.354 22.6011 108.223C22.9096 108.093 23.241 108.025 23.576 108.024C23.8781 108.006 24.1804 108.054 24.4623 108.164C24.7443 108.274 24.9994 108.443 25.2102 108.66C25.421 108.877 25.5826 109.137 25.684 109.422C25.7855 109.707 25.8243 110.011 25.798 110.312C25.7847 110.8 25.615 111.271 25.314 111.655C25.013 112.039 24.5965 112.316 24.126 112.446L23.4 112.734C22.6892 112.905 22.0686 113.337 21.6612 113.944C21.2538 114.551 21.0891 115.289 21.2 116.012L21.222 116.78ZM22.212 121.534C22.4078 121.541 22.6031 121.509 22.7862 121.439C22.9693 121.369 23.1366 121.263 23.2781 121.128C23.4196 120.992 23.5325 120.83 23.6101 120.65C23.6877 120.47 23.7285 120.276 23.73 120.08C23.7282 119.884 23.6873 119.691 23.6095 119.511C23.5318 119.331 23.4189 119.169 23.2774 119.034C23.1359 118.898 22.9687 118.793 22.7857 118.723C22.6027 118.653 22.4076 118.621 22.212 118.628C22.0163 118.621 21.8212 118.653 21.6382 118.723C21.4552 118.793 21.2881 118.898 21.1466 119.034C21.0051 119.169 20.8921 119.331 20.8144 119.511C20.7367 119.691 20.6957 119.884 20.694 120.08C20.6955 120.276 20.7362 120.47 20.8138 120.65C20.8914 120.83 21.0044 120.992 21.1459 121.128C21.2874 121.263 21.4547 121.369 21.6378 121.439C21.8209 121.509 22.0161 121.541 22.212 121.534Z" fill="white"/>
<defs>
<filter id="filter0_d_1_878" x="0" y="7" width="157" height="47" filterUnits="userSpaceOnUse" color-interpolation-filters="sRGB">
<feFlood flood-opacity="0" result="BackgroundImageFix"/>
<feColorMatrix in="SourceAlpha" type="matrix" values="0 0 0 0 0 0 0 0 0 0 0 0 0 0 0 0 0 0 127 0" result="hardAlpha"/>
<feOffset dy="3"/>
<feGaussianBlur stdDeviation="3"/>
<feColorMatrix type="matrix" values="0 0 0 0 0 0 0 0 0 0 0 0 0 0 0 0 0 0 0.161 0"/>
<feBlend mode="normal" in2="BackgroundImageFix" result="effect1_dropShadow_1_878"/>
<feBlend mode="normal" in="SourceGraphic" in2="effect1_dropShadow_1_878" result="shape"/>
</filter>
<filter id="filter1_d_1_878" x="0" y="50" width="157" height="47" filterUnits="userSpaceOnUse" color-interpolation-filters="sRGB">
<feFlood flood-opacity="0" result="BackgroundImageFix"/>
<feColorMatrix in="SourceAlpha" type="matrix" values="0 0 0 0 0 0 0 0 0 0 0 0 0 0 0 0 0 0 127 0" result="hardAlpha"/>
<feOffset dy="3"/>
<feGaussianBlur stdDeviation="3"/>
<feColorMatrix type="matrix" values="0 0 0 0 0 0 0 0 0 0 0 0 0 0 0 0 0 0 0.161 0"/>
<feBlend mode="normal" in2="BackgroundImageFix" result="effect1_dropShadow_1_878"/>
<feBlend mode="normal" in="SourceGraphic" in2="effect1_dropShadow_1_878" result="shape"/>
</filter>
<filter id="filter2_d_1_878" x="0" y="93" width="157" height="47" filterUnits="userSpaceOnUse" color-interpolation-filters="sRGB">
<feFlood flood-opacity="0" result="BackgroundImageFix"/>
<feColorMatrix in="SourceAlpha" type="matrix" values="0 0 0 0 0 0 0 0 0 0 0 0 0 0 0 0 0 0 127 0" result="hardAlpha"/>
<feOffset dy="3"/>
<feGaussianBlur stdDeviation="3"/>
<feColorMatrix type="matrix" values="0 0 0 0 0 0 0 0 0 0 0 0 0 0 0 0 0 0 0.161 0"/>
<feBlend mode="normal" in2="BackgroundImageFix" result="effect1_dropShadow_1_878"/>
<feBlend mode="normal" in="SourceGraphic" in2="effect1_dropShadow_1_878" result="shape"/>
</filter>
<linearGradient id="paint0_linear_1_878" x1="79" y1="0" x2="79" y2="140" gradientUnits="userSpaceOnUse">
<stop stop-color="#E3ECFA"/>
<stop offset="1" stop-color="#DAE7FF"/>
</linearGradient>
</defs>
</svg>
