<svg width="63" height="23" viewBox="0 0 63 23" fill="none" xmlns="http://www.w3.org/2000/svg">
<path d="M1 13.5C1 13.5 19.5746 15 31.5 15C43.4254 15 62 13.5 62 13.5" stroke="black"/>
<path d="M13.6757 17.0178C14.0681 17.6201 14.2411 18.2959 14.3317 18.914C14.3967 19.3573 14.4246 19.8242 14.4488 20.2287C14.4574 20.3733 14.4656 20.5098 14.4748 20.6345C14.4843 20.7613 14.4885 20.908 14.4923 21.0399C14.4935 21.0821 14.4947 21.1228 14.4959 21.1609C14.5018 21.3338 14.5104 21.4902 14.5303 21.6339C14.573 21.9435 14.6497 22.0525 14.697 22.0909L13.6757 17.0178ZM13.6757 17.0178C13.563 16.8447 13.3085 16.552 13.0188 16.3316C12.8742 16.2216 12.6672 16.0878 12.4222 16.0209C12.1588 15.949 11.7764 15.9412 11.4445 16.2157L11.4091 16.2449C11.3737 16.2687 11.3305 16.2975 11.2838 16.3286L11.274 16.3351C11.2143 16.3749 11.15 16.4177 11.0984 16.4527C11.0729 16.47 11.0472 16.4877 11.0253 16.5032C11.0145 16.5108 11.0012 16.5204 10.9877 16.5305L10.987 16.5311C10.981 16.5356 10.9493 16.5592 10.9151 16.5913C10.4948 16.9857 10.2703 17.4909 10.1366 17.9368C10.01 18.3586 9.94707 18.7921 9.90002 19.1161C9.89742 19.134 9.89488 19.1515 9.89237 19.1687L13.6757 17.0178ZM9.77922 20.9325L9.77921 20.9319C9.76653 20.3389 9.8078 19.7477 9.89235 19.1689L9.77922 20.9325ZM9.77922 20.9325C9.78818 21.3346 9.77738 21.597 9.69162 21.8193L9.69146 21.8197M9.77922 20.9325L9.69146 21.8197M9.69146 21.8197C9.57824 22.1138 9.27029 22.3324 8.83251 22.2191M9.69146 21.8197L8.83251 22.2191M8.83251 22.2191C8.22903 22.0628 7.8276 21.8032 7.54421 21.4989M8.83251 22.2191L7.54421 21.4989M7.54421 21.4989C7.25543 21.1889 7.05505 20.7954 6.91437 20.3258M7.54421 21.4989L6.91437 20.3258M6.91437 20.3258C6.77256 19.8524 6.6988 19.3273 6.64766 18.7724M6.91437 20.3258L6.64766 18.7724M6.64766 18.7724C6.62872 18.5669 6.61192 18.3403 6.59489 18.1107M6.64766 18.7724L6.59489 18.1107M6.59489 18.1107C6.56966 17.7704 6.54393 17.4235 6.51002 17.1287L6.59489 18.1107ZM15.2077 22.2181C14.9606 22.2274 14.7847 22.1619 14.697 22.0909L6.51001 17.1287C6.40132 16.1837 6.01201 15.3454 5.648 14.6147C5.59581 14.51 5.54431 14.4077 5.4938 14.3073C5.24535 13.8138 5.02098 13.368 4.85812 12.9158C5.21442 12.8309 5.73347 12.7761 6.35455 12.7201C6.42815 12.7135 6.50299 12.7069 6.57872 12.7001C7.13896 12.6504 7.74828 12.5964 8.26915 12.5079C8.56636 12.4574 8.86453 12.3912 9.12719 12.2965C9.37313 12.2079 9.67946 12.063 9.89962 11.801C10.7321 10.8111 10.5319 9.64397 10.4251 9.02086C10.4157 8.96592 10.407 8.91521 10.3998 8.86922C10.3933 8.82816 10.3879 8.79128 10.3833 8.75805C10.4179 8.76144 10.4568 8.7661 10.5005 8.77237L10.5006 8.77239C11.2832 8.88473 11.9449 8.88519 12.416 8.85663C12.6518 8.84233 12.8407 8.82072 12.9742 8.80194C13.0342 8.79352 13.083 8.78565 13.12 8.77926C13.1448 8.7795 13.1657 8.78043 13.1832 8.78172C13.1881 8.84282 13.1912 8.95231 13.1795 9.13742C13.1756 9.19797 13.1701 9.26747 13.164 9.3436C13.1423 9.61532 13.114 9.97146 13.1317 10.3066C13.1558 10.7618 13.2641 11.2945 13.6282 11.7727L13.6285 11.7731C13.8469 12.0595 14.1555 12.244 14.4338 12.37C14.7223 12.5006 15.0507 12.6003 15.3809 12.6813C15.9437 12.8193 16.5965 12.9222 17.1959 13.0166C17.2942 13.0321 17.3912 13.0473 17.4861 13.0625C18.1965 13.176 18.7696 13.2809 19.1349 13.4165C19.1398 13.4183 19.1447 13.4201 19.1494 13.4219C19.0542 13.6113 18.933 13.8073 18.7894 14.0292C18.7638 14.0688 18.7373 14.1095 18.71 14.1513C18.5261 14.4335 18.3105 14.7642 18.142 15.1154L18.1418 15.1157C17.6492 16.1433 17.5731 17.1884 17.5291 18.1062C17.5249 18.1946 17.5209 18.2817 17.517 18.3675C17.4787 19.2092 17.4459 19.93 17.212 20.6341L17.2119 20.6343C16.9517 21.418 16.2671 22.1414 15.2759 22.2147L15.2766 22.2237L15.2743 22.2141C15.2566 22.2155 15.2371 22.2166 15.2077 22.2181ZM10.3661 8.51309C10.3662 8.51314 10.366 8.51448 10.3656 8.51696C10.3659 8.51428 10.3661 8.51304 10.3661 8.51309ZM13.2591 8.79491C13.2587 8.79521 13.2545 8.79413 13.2478 8.7908C13.2562 8.79294 13.2596 8.79461 13.2591 8.79491Z" fill="#DDDDDD" stroke="black" stroke-width="1.5"/>
<path d="M53.6757 17.0178C54.0681 17.6201 54.2411 18.2959 54.3317 18.914C54.3967 19.3573 54.4246 19.8242 54.4488 20.2287C54.4574 20.3733 54.4656 20.5098 54.4748 20.6345C54.4843 20.7613 54.4885 20.908 54.4923 21.0399C54.4935 21.0821 54.4947 21.1228 54.4959 21.1609C54.5018 21.3338 54.5104 21.4902 54.5303 21.6339C54.573 21.9435 54.6497 22.0525 54.697 22.0909L53.6757 17.0178ZM53.6757 17.0178C53.563 16.8447 53.3085 16.552 53.0188 16.3316C52.8742 16.2216 52.6672 16.0878 52.4222 16.0209C52.1588 15.949 51.7764 15.9412 51.4445 16.2157L51.4091 16.2449C51.3737 16.2687 51.3305 16.2975 51.2838 16.3286L51.274 16.3351C51.2143 16.3749 51.15 16.4177 51.0984 16.4527C51.0729 16.47 51.0472 16.4877 51.0253 16.5032C51.0145 16.5108 51.0012 16.5204 50.9877 16.5305L50.987 16.5311C50.981 16.5356 50.9493 16.5592 50.9151 16.5913C50.4948 16.9857 50.2703 17.4909 50.1366 17.9368C50.01 18.3586 49.9471 18.7921 49.9 19.1161C49.8974 19.134 49.8949 19.1515 49.8924 19.1687L53.6757 17.0178ZM49.7792 20.9325L49.7792 20.9319C49.7665 20.3389 49.8078 19.7477 49.8923 19.1689L49.7792 20.9325ZM49.7792 20.9325C49.7882 21.3346 49.7774 21.597 49.6916 21.8193L49.6915 21.8197M49.7792 20.9325L49.6915 21.8197M49.6915 21.8197C49.5782 22.1138 49.2703 22.3324 48.8325 22.2191M49.6915 21.8197L48.8325 22.2191M48.8325 22.2191C48.229 22.0628 47.8276 21.8032 47.5442 21.4989M48.8325 22.2191L47.5442 21.4989M47.5442 21.4989C47.2554 21.1889 47.055 20.7954 46.9144 20.3258M47.5442 21.4989L46.9144 20.3258M46.9144 20.3258C46.7726 19.8524 46.6988 19.3273 46.6477 18.7724M46.9144 20.3258L46.6477 18.7724M46.6477 18.7724C46.6287 18.5669 46.6119 18.3403 46.5949 18.1107M46.6477 18.7724L46.5949 18.1107M46.5949 18.1107C46.5697 17.7704 46.5439 17.4235 46.51 17.1287L46.5949 18.1107ZM55.2077 22.2181C54.9606 22.2274 54.7847 22.1619 54.697 22.0909L46.51 17.1287C46.4013 16.1837 46.012 15.3454 45.648 14.6147C45.5958 14.51 45.5443 14.4077 45.4938 14.3073C45.2454 13.8138 45.021 13.368 44.8581 12.9158C45.2144 12.8309 45.7335 12.7761 46.3546 12.7201C46.4282 12.7135 46.503 12.7069 46.5787 12.7001C47.139 12.6504 47.7483 12.5964 48.2691 12.5079C48.5664 12.4574 48.8645 12.3912 49.1272 12.2965C49.3731 12.2079 49.6795 12.063 49.8996 11.801C50.7321 10.8111 50.5319 9.64397 50.4251 9.02086C50.4157 8.96592 50.407 8.91521 50.3998 8.86922C50.3933 8.82816 50.3879 8.79128 50.3833 8.75805C50.4179 8.76144 50.4568 8.7661 50.5005 8.77237L50.5006 8.77239C51.2832 8.88473 51.9449 8.88519 52.416 8.85663C52.6518 8.84233 52.8407 8.82072 52.9742 8.80194C53.0342 8.79352 53.083 8.78565 53.12 8.77926C53.1448 8.7795 53.1657 8.78043 53.1832 8.78172C53.1881 8.84282 53.1912 8.95231 53.1795 9.13742C53.1756 9.19797 53.1701 9.26747 53.164 9.3436C53.1423 9.61532 53.114 9.97146 53.1317 10.3066C53.1558 10.7618 53.2641 11.2945 53.6282 11.7727L53.6285 11.7731C53.8469 12.0595 54.1555 12.244 54.4338 12.37C54.7223 12.5006 55.0507 12.6003 55.3809 12.6813C55.9437 12.8193 56.5965 12.9222 57.1959 13.0166C57.2942 13.0321 57.3912 13.0473 57.4861 13.0625C58.1965 13.176 58.7696 13.2809 59.1349 13.4165C59.1398 13.4183 59.1447 13.4201 59.1494 13.4219C59.0542 13.6113 58.933 13.8073 58.7894 14.0292C58.7638 14.0688 58.7373 14.1095 58.71 14.1513C58.5261 14.4335 58.3105 14.7642 58.142 15.1154L58.1418 15.1157C57.6492 16.1433 57.5731 17.1884 57.5291 18.1062C57.5249 18.1946 57.5209 18.2817 57.517 18.3675C57.4787 19.2092 57.4459 19.93 57.212 20.6341L57.2119 20.6343C56.9517 21.418 56.2671 22.1414 55.2759 22.2147L55.2766 22.2237L55.2743 22.2141C55.2566 22.2155 55.2371 22.2166 55.2077 22.2181ZM50.3661 8.51309C50.3662 8.51314 50.366 8.51448 50.3656 8.51696C50.3659 8.51428 50.3661 8.51304 50.3661 8.51309ZM53.2591 8.79491C53.2587 8.79521 53.2545 8.79413 53.2478 8.7908C53.2562 8.79294 53.2596 8.79461 53.2591 8.79491Z" fill="#DDDDDD" stroke="black" stroke-width="1.5"/>
<path d="M5.52361 0.421462C7.37183 -0.208692 9.3868 -0.0697181 11.2453 0.427684C11.7084 0.551724 12.329 0.244322 12.7926 0.160937C13.3651 0.058055 13.9521 0.00536929 14.5396 0.00329505C15.647 -0.000853422 16.8287 0.128164 17.822 0.544671C18.9113 1.00183 19.6713 1.81991 19.886 2.79439C20.2025 4.23142 19.8422 5.86634 19.0249 7.16689C18.8742 7.40708 18.6971 7.63649 18.3863 7.75929C18.1514 7.85221 17.8881 7.88789 17.6279 7.91195C16.6862 7.99907 15.3878 8.10403 14.5024 7.77713C14.0265 7.60123 13.7466 7.28553 13.6429 6.87898C13.5644 6.57241 13.7817 5.84767 13.2655 5.84767C12.6124 5.84767 11.9593 5.84725 11.3063 5.84684C10.758 5.84684 10.0776 5.75516 9.54478 5.86717C9.25567 5.92773 9.41519 6.34258 9.41674 6.50935C9.42139 7.05903 9.18081 7.5444 8.5107 7.76676C8.04555 7.92149 7.52619 7.92108 7.02232 7.91859C6.49934 7.9161 5.97585 7.91361 5.45288 7.91071C4.98514 7.90822 4.59382 7.87876 4.31658 7.55269C4.06774 7.26023 3.94074 6.92005 3.77451 6.59564C3.4379 5.93728 3.20455 5.24075 3.08323 4.53551C2.93868 3.6971 2.93868 2.6716 3.44307 1.90454C3.88757 1.23 4.6568 0.717248 5.52361 0.421462Z" fill="black"/>
<path d="M25.5236 0.421462C27.3718 -0.208692 29.3868 -0.0697181 31.2453 0.427684C31.7084 0.551724 32.329 0.244322 32.7926 0.160937C33.3651 0.058055 33.9521 0.00536929 34.5396 0.00329505C35.647 -0.000853422 36.8287 0.128164 37.822 0.544671C38.9113 1.00183 39.6713 1.81991 39.886 2.79439C40.2025 4.23142 39.8422 5.86634 39.0249 7.16689C38.8742 7.40708 38.6971 7.63649 38.3863 7.75929C38.1514 7.85221 37.8881 7.88789 37.6279 7.91195C36.6862 7.99907 35.3878 8.10403 34.5024 7.77713C34.0265 7.60123 33.7466 7.28553 33.6429 6.87898C33.5644 6.57241 33.7817 5.84767 33.2655 5.84767C32.6124 5.84767 31.9593 5.84725 31.3063 5.84684C30.758 5.84684 30.0776 5.75516 29.5448 5.86717C29.2557 5.92773 29.4152 6.34258 29.4167 6.50935C29.4214 7.05903 29.1808 7.5444 28.5107 7.76676C28.0455 7.92149 27.5262 7.92108 27.0223 7.91859C26.4993 7.9161 25.9759 7.91361 25.4529 7.91071C24.9851 7.90822 24.5938 7.87876 24.3166 7.55269C24.0677 7.26023 23.9407 6.92005 23.7745 6.59564C23.4379 5.93728 23.2046 5.24075 23.0832 4.53551C22.9387 3.6971 22.9387 2.6716 23.4431 1.90454C23.8876 1.23 24.6568 0.717248 25.5236 0.421462Z" fill="black"/>
<path d="M45.5236 0.421462C47.3718 -0.208692 49.3868 -0.0697181 51.2453 0.427684C51.7084 0.551724 52.329 0.244322 52.7926 0.160937C53.3651 0.058055 53.9521 0.00536929 54.5396 0.00329505C55.647 -0.000853422 56.8287 0.128164 57.822 0.544671C58.9113 1.00183 59.6713 1.81991 59.886 2.79439C60.2025 4.23142 59.8422 5.86634 59.0249 7.16689C58.8742 7.40708 58.6971 7.63649 58.3863 7.75929C58.1514 7.85221 57.8881 7.88789 57.6279 7.91195C56.6862 7.99907 55.3878 8.10403 54.5024 7.77713C54.0265 7.60123 53.7466 7.28553 53.6429 6.87898C53.5644 6.57241 53.7817 5.84767 53.2655 5.84767C52.6124 5.84767 51.9593 5.84725 51.3063 5.84684C50.758 5.84684 50.0776 5.75516 49.5448 5.86717C49.2557 5.92773 49.4152 6.34258 49.4167 6.50935C49.4214 7.05903 49.1808 7.5444 48.5107 7.76676C48.0455 7.92149 47.5262 7.92108 47.0223 7.91859C46.4993 7.9161 45.9759 7.91361 45.4529 7.91071C44.9851 7.90822 44.5938 7.87876 44.3166 7.55269C44.0677 7.26023 43.9407 6.92005 43.7745 6.59564C43.4379 5.93728 43.2046 5.24075 43.0832 4.53551C42.9387 3.6971 42.9387 2.6716 43.4431 1.90454C43.8876 1.23 44.6568 0.717248 45.5236 0.421462Z" fill="black"/>
</svg>
