<svg width="46" height="27" viewBox="0 0 46 27" fill="none" xmlns="http://www.w3.org/2000/svg">
<rect x="0.75" y="0.75" width="44.5" height="14.5" rx="7.25" fill="#D9D9D9" stroke="black" stroke-width="1.5"/>
<path d="M13.5185 17.2481C11.3837 17.4076 9.45165 17.0971 7.45203 16.4735C7.01482 16.337 6.62239 16.4044 6.15098 16.4122C5.12267 16.4286 4.09193 16.3394 3.097 16.1466C1.93273 15.9209 0.67076 15.4878 0.356488 14.55C0.0161628 13.5334 -0.0416437 12.3906 0.0234903 11.3491C0.101651 10.1074 0.441162 8.66679 2.17943 8.17242C3.55213 7.78239 5.21875 8.08629 6.33742 8.7602C6.62727 8.9349 6.72823 9.10899 7.02459 8.97372C7.15404 8.91488 7.61079 8.58915 7.67674 8.49209C8.09523 7.88308 9.82372 7.99227 10.5695 8.04443C11.5123 8.11055 12.4299 8.35864 13.2115 8.75596C13.4891 8.89729 13.7163 9.19148 14.0338 9.27822C14.4556 9.39287 14.6559 8.981 14.9669 8.77719C17.4241 7.16671 21.1774 8.29738 22.822 10.0728C22.8473 10.1001 22.8758 10.1299 22.9189 10.1402C23.0761 10.1772 23.5369 9.61609 23.6346 9.5342C24.4203 8.87667 25.473 8.40474 26.612 8.17606C28.0043 7.89704 29.587 7.90128 30.7415 8.62493C30.9915 8.78143 31.3782 9.24244 31.6827 9.30673C31.9644 9.36678 32.3764 8.96826 32.5775 8.85726C32.9496 8.65223 33.3567 8.48178 33.7849 8.34955C34.6479 8.08265 35.7202 8.00258 36.6467 8.07052C37.443 8.12875 38.2482 8.36653 38.7449 8.8336C39.1552 9.21878 39.4581 8.8894 39.8863 8.6583C40.006 8.59339 40.1257 8.52909 40.2495 8.46965C40.6867 8.25977 41.1809 8.11662 41.693 8.04868C43.2676 7.8388 44.6713 8.39807 45.3747 9.45838C46.2565 10.7868 46.0326 12.5841 45.7443 14.0029C45.6532 14.4512 45.5123 14.9498 45.0963 15.3016C44.7152 15.6249 44.0321 15.8184 43.4997 15.9749C42.2353 16.3467 40.8487 16.4899 39.4972 16.3764C39.349 16.3637 39.2008 16.3485 39.0526 16.357C38.5967 16.3819 38.1522 16.6324 37.7304 16.7562C37.18 16.9181 36.6117 17.0449 36.0329 17.1359C34.902 17.3136 33.7312 17.3543 32.584 17.2499C31.7902 17.1777 31.4108 17.3458 30.7073 17.5817C30.2253 17.7437 29.6912 17.7959 29.1653 17.8371C27.9383 17.9323 26.704 17.9742 25.4714 17.9614C25.0618 17.9572 24.6377 17.9542 24.2338 17.8978C23.83 17.8413 23.4823 17.7018 23.0866 17.6891C22.7846 17.68 22.4907 17.7516 22.1968 17.8062C20.3673 18.1458 18.292 17.9718 16.4446 17.7916C15.8063 17.7291 15.1435 17.6454 14.6225 17.3634C14.5069 17.3009 14.3945 17.2269 14.2545 17.2038C14.1576 17.1881 14.0574 17.1978 13.9589 17.2081C13.8107 17.2232 13.6634 17.2366 13.5168 17.2475L13.5185 17.2481Z" fill="#010101"/>
<path fill-rule="evenodd" clip-rule="evenodd" d="M14 16.3381C14.2158 16.2647 14.4229 16.2234 14.5617 16.3303C14.6266 16.3801 14.6867 16.4279 14.744 16.4735C15.0945 16.7522 15.3406 16.9478 15.936 17.0297C17.5962 17.2595 19.2945 17.319 20.9782 17.2292C21.3756 17.208 21.7843 17.1758 22.1344 17.0339C22.2293 16.9953 22.3313 16.9089 22.4331 16.8228C22.5583 16.7168 22.683 16.6113 22.793 16.5959C22.9597 16.5725 23.0982 16.7147 23.2235 16.8434C23.2898 16.9114 23.3523 16.9756 23.4134 17.0096C23.716 17.1778 24.1562 17.1923 24.5432 17.205C24.6238 17.2076 24.7021 17.2102 24.7764 17.2141C25.3048 17.2413 25.8356 17.2541 26.3656 17.2517C27.4265 17.2474 28.4866 17.1831 29.5336 17.0594C30.0579 16.9975 30.5603 16.8665 30.9047 16.5492C30.9374 16.5189 30.9677 16.4735 30.9985 16.4274C31.0398 16.3656 31.0819 16.3025 31.1318 16.2726C31.135 16.2707 31.1381 16.2688 31.1412 16.2669C31.1655 16.2519 31.1891 16.2373 31.2165 16.2265C31.3011 16.2561 31.3787 16.2906 31.4559 16.3249C31.5928 16.3858 31.7286 16.4463 31.9004 16.4777C33.6216 16.7937 35.7458 16.622 37.3725 16.0719H37.3692C37.423 16.0543 37.4759 16.0355 37.528 16.0167C37.6232 15.9821 38.6857 15.5108 38.4749 15.3731C39.4853 16.0312 41.4605 15.6679 42.6003 15.4186C42.6211 15.414 42.6421 15.4094 42.6633 15.4048C43.206 15.2864 43.8946 15.1363 44.1993 14.7586C44.3198 14.6082 44.3646 14.4323 44.4021 14.2594C44.6496 13.1257 44.7465 11.9198 44.5405 10.7782C44.4069 10.0406 44.0959 9.31878 43.0424 9.06098C42.549 8.94027 42.006 8.96332 41.5085 9.07432C40.7969 9.23325 40.1252 9.54564 39.6237 9.95326C39.2964 10.2196 39.031 10.5283 38.8461 10.8625C38.8436 10.8671 38.8411 10.8716 38.8385 10.8762C38.8086 10.9301 38.7781 10.985 38.7248 11.0269C38.505 11.2004 38.3869 10.9474 38.3625 10.817C38.2656 10.3045 38.0491 9.67363 37.4718 9.34243C36.3702 8.71037 34.3389 9.05127 33.3049 9.59477C32.4703 10.0333 31.8597 10.7036 31.6203 11.4436L31.6194 11.4464C31.5887 11.5415 31.555 11.6462 31.4477 11.7014C31.1638 11.8477 31.1169 11.3171 31.0902 11.0141C31.0829 10.9314 31.0771 10.8656 31.0683 10.8352C30.9617 10.4634 30.7622 10.1031 30.4365 9.80707C29.0931 8.58542 26.5244 8.89599 25.0385 9.77735C24.0184 10.3821 23.3426 11.278 23.1724 12.2407C23.1713 12.247 23.1703 12.2533 23.1692 12.2597C23.1558 12.3379 23.1422 12.4169 23.1008 12.4888C23.056 12.5664 22.9705 12.6374 22.859 12.655C22.5993 12.6968 22.5301 12.45 22.504 12.3147C22.2939 11.2065 21.4627 10.0958 20.1518 9.5147C18.6855 8.86445 16.379 8.72129 15.2049 9.81253C14.7921 10.1965 14.5617 10.6963 14.5112 11.1834C14.5076 11.2187 14.5049 11.2542 14.5022 11.2897C14.4928 11.4128 14.4834 11.5363 14.4347 11.6535C14.385 11.773 14.2768 11.776 14.1774 11.6838C14.1399 11.6487 14.1227 11.6049 14.1059 11.562L14.105 11.5595C14.0728 11.4774 14.0379 11.3962 14 11.3161V16.3381Z" fill="white"/>
<path fill-rule="evenodd" clip-rule="evenodd" d="M13.9999 23.5192C13.5359 24.4826 12.756 25.2758 11.6155 25.6709C10.9409 25.9044 10.3135 25.9041 9.63003 25.9038H9.63001H9.62974C9.52058 25.9037 9.40998 25.9037 9.29753 25.9046C8.48743 25.9111 7.88575 25.2553 7.65778 24.6308C7.58013 24.4177 7.5261 24.1985 7.47209 23.9793L7.47209 23.9793L7.47209 23.9793L7.47208 23.9793C7.44342 23.863 7.41477 23.7467 7.38259 23.6314C7.26128 23.1946 6.98935 23.667 6.90141 23.8352C6.40721 24.7785 5.2063 25.9075 3.95817 25.9628C3.13178 26 2.33715 25.9628 1.79491 25.3143C1.49447 24.9547 1.36746 24.5041 1.2893 24.0608C1.10996 23.0447 1.11468 22.02 1.20816 21H0.0415898C-0.0111298 21.6678 -0.010047 22.3404 0.0233421 22.9811C0.101503 24.4711 0.441014 26.1999 2.17928 26.7931C3.55198 27.2611 5.2186 26.8965 6.33728 26.0878C6.40371 26.0397 6.46021 25.9917 6.51143 25.9482L6.51143 25.9482C6.68367 25.8019 6.796 25.7064 7.02444 25.8315C7.15389 25.9021 7.61065 26.293 7.67659 26.4095C8.09508 27.1403 9.82358 27.0093 10.5694 26.9467C11.5122 26.8673 12.4298 26.5696 13.2114 26.0929C13.3248 26.0235 13.4298 25.9236 13.5361 25.8225C13.6804 25.6852 13.827 25.5457 13.9999 25.4783V23.5192Z" fill="#010101"/>
<path fill-rule="evenodd" clip-rule="evenodd" d="M14 24.169C13.5622 24.8947 12.7398 25.5036 11.4711 25.7907C10.7965 25.9432 10.1691 25.943 9.48564 25.9428C9.37639 25.9427 9.2657 25.9427 9.15315 25.9433C8.34305 25.9476 7.74137 25.5192 7.5134 25.1113C7.43574 24.9721 7.38171 24.8289 7.3277 24.6857C7.29904 24.6098 7.27039 24.5338 7.23821 24.4585C7.1169 24.1732 6.84496 24.4818 6.75703 24.5916C6.26283 25.2078 5.06192 25.9452 3.81379 25.9813C2.9874 26.0056 2.19276 25.9813 1.65052 25.5577C1.35009 25.3228 1.22308 25.0285 1.14492 24.739C0.894153 23.8109 1.00325 22.8719 1.21168 21.9458C1.27844 21.6505 1.46652 21.3885 1.90455 21.2207C2.15531 21.1247 2.44109 21.0652 2.72686 21.0115C3.78285 20.8123 4.8486 20.6944 5.96402 20.7296C6.39961 20.7434 6.86776 20.7881 7.17226 20.9702C7.04688 20.8941 7.95876 20.5213 8.05564 20.4909C8.42039 20.3758 8.82341 20.3055 9.2248 20.2475C10.5031 20.0635 12.1102 19.9056 13.4137 20.0787C13.528 20.0938 13.6617 20.1338 13.7993 20.1749C13.8659 20.1948 13.9334 20.215 14 20.2328V24.169Z" fill="white"/>
</svg>
