<svg width="63" height="16" viewBox="0 0 63 16" fill="none" xmlns="http://www.w3.org/2000/svg">
<path d="M18.4159 14.7976C15.5077 15.0528 12.8758 14.5559 10.1517 13.5581C9.55613 13.3398 9.02153 13.4475 8.37934 13.4601C6.97851 13.4863 5.57434 13.3436 4.21898 13.035C2.63292 12.6739 0.913762 11.981 0.485636 10.4805C0.0220182 8.85378 -0.0567303 7.02523 0.0320004 5.35876C0.138477 3.37201 0.600986 1.0669 2.96899 0.275889C4.83899 -0.348187 7.10938 0.138068 8.63333 1.21637C9.02818 1.49589 9.16572 1.77445 9.56944 1.55801C9.74579 1.46387 10.368 0.94267 10.4579 0.787379C11.028 -0.187073 13.3826 -0.0123703 14.3986 0.0710986C15.683 0.176891 16.933 0.573854 17.9977 1.20958C18.376 1.43572 18.6854 1.90645 19.118 2.04524C19.6925 2.22867 19.9654 1.56966 20.389 1.24355C23.7364 -1.33332 28.8495 0.475826 31.09 3.31668C31.1243 3.36036 31.1632 3.40792 31.2219 3.42442C31.436 3.48362 32.0638 2.58584 32.1969 2.45482C33.2672 1.40272 34.7013 0.647617 36.253 0.281712C38.1496 -0.16475 40.3057 -0.157956 41.8785 0.999934C42.219 1.25034 42.7458 1.98797 43.1607 2.09085C43.5444 2.18694 44.1056 1.54928 44.3796 1.37166C44.8865 1.04361 45.441 0.770879 46.0244 0.559295C47.2001 0.132245 48.6609 0.00412934 49.923 0.112833C51.0078 0.206008 52.1047 0.586471 52.7813 1.33381C53.3403 1.95012 53.7529 1.4231 54.3363 1.05332C54.4993 0.949464 54.6624 0.846584 54.831 0.751468C55.4266 0.415651 56.0998 0.186596 56.7975 0.0778926C58.9425 -0.257924 60.8547 0.636941 61.813 2.3335C63.0142 4.45904 62.7091 7.33484 62.3165 9.605C62.1923 10.3223 62.0004 11.1201 61.4336 11.683C60.9146 12.2003 59.984 12.5099 59.2586 12.7603C57.5361 13.3553 55.6473 13.5843 53.8061 13.4028C53.6043 13.3825 53.4024 13.3582 53.2005 13.3718C52.5794 13.4116 51.9738 13.8124 51.3993 14.0104C50.6495 14.2696 49.8754 14.4724 49.0868 14.618C47.5462 14.9024 45.9512 14.9674 44.3885 14.8005C43.3071 14.685 42.7902 14.9538 41.8319 15.3314C41.1753 15.5905 40.4477 15.674 39.7312 15.74C38.0598 15.8924 36.3783 15.9593 34.6991 15.9389C34.1412 15.9321 33.5633 15.9273 33.0132 15.837C32.4631 15.7468 31.9895 15.5235 31.4504 15.5032C31.0389 15.4886 30.6385 15.6031 30.2381 15.6905C27.7459 16.234 24.9187 15.9554 22.4021 15.6672C21.5326 15.5672 20.6297 15.4333 19.9199 14.982C19.7624 14.882 19.6093 14.7636 19.4185 14.7267C19.2866 14.7015 19.1501 14.717 19.0159 14.7335C18.8141 14.7578 18.6133 14.7791 18.4137 14.7966L18.4159 14.7976Z" fill="#010101"/>
<path d="M51.109 12.6918C48.8929 13.5721 45.9992 13.8468 43.6545 13.3411C43.2885 13.2625 43.0423 13.0703 42.7228 12.9393C42.6807 12.9587 42.6452 12.9859 42.6075 13.013C42.4888 13.0965 42.4023 13.3421 42.298 13.4556C41.8289 13.9632 41.1445 14.1729 40.4303 14.2719C39.0039 14.4699 37.5598 14.5727 36.1146 14.5795C35.3926 14.5834 34.6694 14.563 33.9496 14.5194C33.3629 14.4835 32.5909 14.5174 32.0929 14.1923C31.8522 14.035 31.5949 13.4731 31.2477 13.5304C30.976 13.575 30.6388 14.0933 30.3505 14.2311C29.8735 14.4582 29.3167 14.5097 28.7755 14.5436C26.4818 14.6873 24.1681 14.5922 21.9066 14.2243C20.9627 14.0719 20.6633 13.673 20.0344 13.1052C19.6662 12.7723 18.9452 13.3382 18.4705 13.4323C16.6948 13.7856 14.5054 13.4634 12.764 13.0878C12.2172 12.9694 11.6682 12.8257 11.1713 12.5908C11.0393 12.5287 9.7971 11.7678 9.96791 11.6125C9.55309 11.9842 8.91534 12.0755 8.32195 12.1036C6.80244 12.1754 5.35058 11.9347 3.91204 11.5281C3.52273 11.4184 3.13343 11.2971 2.79181 11.101C2.1951 10.7584 1.93889 10.2236 1.84794 9.6209C1.564 7.73023 1.41538 5.81335 1.75699 3.9188C1.86347 3.32772 2.03649 2.72694 2.44576 2.24748C3.18445 1.3827 4.26696 1.3332 5.39273 1.3827C7.09303 1.45647 8.729 2.96182 9.40225 4.21968C9.52203 4.44388 9.89249 5.07378 10.0577 4.49144C10.1842 4.04789 10.2707 3.59366 10.4326 3.15885C10.7432 2.3261 11.5628 1.45161 12.6664 1.46035C13.7789 1.46908 14.7583 1.41085 15.8241 1.7719C17.7019 2.4086 18.862 3.82077 19.4122 5.47171C19.4355 5.54159 19.4588 5.61342 19.5109 5.67068C19.6462 5.81821 19.7937 5.81335 19.8614 5.62215C19.9468 5.38048 19.9435 5.12231 19.9656 4.86996C20.0344 4.09059 20.3483 3.29084 20.9106 2.67647C22.51 0.930418 25.6522 1.15947 27.6497 2.19992C29.4354 3.12973 30.5678 4.90684 30.854 6.68007C30.8895 6.89651 30.9838 7.29153 31.3376 7.22456C31.4895 7.19642 31.606 7.08286 31.667 6.95863C31.728 6.83439 31.7446 6.69657 31.7646 6.56166C31.9964 5.02137 32.917 3.58784 34.3067 2.62018C36.3309 1.20994 39.8302 0.71301 41.6603 2.66774C42.1039 3.14138 42.3757 3.71789 42.521 4.31285C42.5764 4.539 42.5454 5.99679 43.0378 5.69883C43.1853 5.60953 43.2308 5.43968 43.273 5.28633C43.5991 4.10224 44.4309 3.02976 45.5678 2.32804C46.9764 1.45841 49.7437 0.912947 51.2443 1.92428C52.0307 2.45421 52.3257 3.4636 52.4577 4.28374C52.491 4.49241 52.6518 4.89714 52.9513 4.61955C53.03 4.54676 53.0722 4.4497 53.1165 4.35653C53.3683 3.82174 53.7299 3.32772 54.1757 2.90164C54.859 2.24942 55.774 1.74958 56.7434 1.49529C57.4211 1.31767 58.1609 1.28079 58.833 1.47394C60.2682 1.88643 60.6919 3.04141 60.8738 4.22162C61.1544 6.04823 61.0224 7.97772 60.6853 9.79172C60.6342 10.0683 60.5732 10.3498 60.4091 10.5905C59.9776 11.2185 58.9816 11.4533 58.2307 11.6465C56.678 12.0454 53.9872 12.6268 52.6108 11.5737C52.898 11.794 51.4506 12.5481 51.3208 12.6035C51.2499 12.6335 51.1778 12.6636 51.1046 12.6918H51.109Z" fill="#DDDDDD"/>
</svg>
