<svg width="46" height="37" viewBox="0 0 46 37" fill="none" xmlns="http://www.w3.org/2000/svg">
<rect x="0.75" y="-0.75" width="44.5" height="11.629" rx="5.81452" transform="matrix(1 0 0 -1 0 34.8228)" fill="#D9D9D9" stroke="black" stroke-width="1.5"/>
<rect x="0.75" y="0.75" width="44.5" height="14.5" rx="7.25" fill="#D9D9D9" stroke="black" stroke-width="1.5"/>
<path d="M13.5185 28.6229C11.3837 28.7372 9.45165 28.5148 7.45203 28.0682C7.01482 27.9705 6.62239 28.0187 6.15098 28.0243C5.12267 28.036 4.09193 27.9722 3.097 27.8341C1.93273 27.6725 0.67076 27.3623 0.356488 26.6907C0.0161628 25.9627 -0.0416437 25.1443 0.0234903 24.3984C0.101651 23.5092 0.441162 22.4775 2.17943 22.1235C3.55213 21.8442 5.21875 22.0618 6.33742 22.5444C6.62727 22.6695 6.72823 22.7942 7.02459 22.6973C7.15404 22.6552 7.61079 22.4219 7.67674 22.3524C8.09523 21.9163 9.82372 21.9945 10.5695 22.0318C11.5123 22.0792 12.4299 22.2568 13.2115 22.5414C13.4891 22.6426 13.7163 22.8533 14.0338 22.9154C14.4556 22.9975 14.6559 22.7025 14.9669 22.5566C17.4241 21.4032 21.1774 22.213 22.822 23.4844C22.8473 23.504 22.8758 23.5253 22.9189 23.5327C23.0761 23.5592 23.5369 23.1573 23.6346 23.0987C24.4203 22.6278 25.473 22.2899 26.612 22.1261C28.0043 21.9263 29.587 21.9293 30.7415 22.4475C30.9915 22.5596 31.3782 22.8898 31.6827 22.9358C31.9644 22.9788 32.3764 22.6934 32.5775 22.6139C32.9496 22.4671 33.3567 22.345 33.7849 22.2503C34.6479 22.0592 35.7202 22.0018 36.6467 22.0505C37.443 22.0922 38.2482 22.2625 38.7449 22.597C39.1552 22.8728 39.4581 22.6369 39.8863 22.4714C40.006 22.425 40.1257 22.3789 40.2495 22.3363C40.6867 22.186 41.1809 22.0835 41.693 22.0349C43.2676 21.8846 44.6713 22.2851 45.3747 23.0444C46.2565 23.9957 46.0326 25.2828 45.7443 26.2989C45.6532 26.6199 45.5123 26.977 45.0963 27.2289C44.7152 27.4605 44.0321 27.599 43.4997 27.7111C42.2353 27.9774 40.8487 28.0799 39.4972 27.9987C39.349 27.9896 39.2008 27.9787 39.0526 27.9848C38.5967 28.0026 38.1522 28.182 37.7304 28.2706C37.18 28.3866 36.6117 28.4774 36.0329 28.5426C34.902 28.6698 33.7312 28.6989 32.584 28.6242C31.7902 28.5725 31.4108 28.6929 30.7073 28.8618C30.2253 28.9778 29.6912 29.0152 29.1653 29.0447C27.9383 29.1129 26.704 29.1429 25.4714 29.1338C25.0618 29.1307 24.6377 29.1286 24.2338 29.0882C23.83 29.0478 23.4823 28.9478 23.0866 28.9387C22.7846 28.9322 22.4907 28.9835 22.1968 29.0226C20.3673 29.2658 18.292 29.1412 16.4446 29.0121C15.8063 28.9674 15.1435 28.9074 14.6225 28.7055C14.5069 28.6607 14.3945 28.6077 14.2545 28.5912C14.1576 28.5799 14.0574 28.5869 13.9589 28.5942C13.8107 28.6051 13.6634 28.6147 13.5168 28.6225L13.5185 28.6229Z" fill="#010101"/>
<path d="M37.517 27.6806C35.8903 28.0746 33.7661 28.1976 32.0449 27.9712C31.7763 27.9361 31.5955 27.8501 31.361 27.7914C31.3301 27.8001 31.304 27.8123 31.2764 27.8244C31.1892 27.8618 31.1257 27.9717 31.0492 28.0225C30.7048 28.2497 30.2025 28.3435 29.6781 28.3878C28.6311 28.4765 27.571 28.5225 26.5102 28.5255C25.9801 28.5273 25.4493 28.5182 24.9209 28.4986C24.4902 28.4825 23.9235 28.4977 23.558 28.3522C23.3813 28.2818 23.1924 28.0303 22.9376 28.056C22.7381 28.0759 22.4906 28.3079 22.2789 28.3696C21.9288 28.4712 21.5201 28.4943 21.1228 28.5095C19.4391 28.5738 17.7407 28.5312 16.0806 28.3665C15.3877 28.2983 15.1679 28.1198 14.7062 27.8657C14.4359 27.7167 13.9067 27.9699 13.5583 28.0121C12.2548 28.1702 10.6476 28.026 9.36933 27.8579C8.96794 27.8049 8.56492 27.7406 8.20017 27.6355C8.10329 27.6077 7.19141 27.2671 7.31679 27.1976C7.01229 27.364 6.54414 27.4048 6.10856 27.4174C4.99314 27.4495 3.92738 27.3418 2.87139 27.1598C2.58562 27.1107 2.29984 27.0564 2.04908 26.9687C1.61105 26.8153 1.42298 26.576 1.35621 26.3062C1.14778 25.46 1.03868 24.6021 1.28945 23.7541C1.36761 23.4896 1.49462 23.2207 1.79505 23.0061C2.33729 22.619 3.13193 22.5969 3.95832 22.619C5.20645 22.6521 6.40736 23.3258 6.90156 23.8888C6.98949 23.9891 7.26143 24.2711 7.38274 24.0104C7.47556 23.8119 7.53906 23.6086 7.65793 23.414C7.8859 23.0413 8.48758 22.6499 9.29768 22.6538C10.1143 22.6577 10.8332 22.6316 11.6156 22.7932C12.994 23.0782 13.8457 23.7103 14.2495 24.4492C14.2666 24.4804 14.2837 24.5126 14.322 24.5382C14.4213 24.6042 14.5296 24.6021 14.5792 24.5165C14.6419 24.4083 14.6395 24.2928 14.6558 24.1798C14.7063 23.831 14.9367 23.4731 15.3494 23.1981C16.5235 22.4166 18.83 22.5191 20.2964 22.9848C21.6072 23.401 22.4385 24.1963 22.6485 24.99C22.6746 25.0869 22.7438 25.2637 23.0035 25.2337C23.1151 25.2211 23.2005 25.1703 23.2453 25.1147C23.2901 25.0591 23.3023 24.9974 23.317 24.937C23.4871 24.2476 24.1629 23.606 25.1831 23.1729C26.6689 22.5417 29.2377 22.3193 30.581 23.1942C30.9067 23.4062 31.1062 23.6642 31.2128 23.9305C31.2536 24.0317 31.2308 24.6842 31.5923 24.5508C31.7005 24.5108 31.7339 24.4348 31.7649 24.3662C32.0042 23.8362 32.6149 23.3562 33.4494 23.0422C34.4834 22.6529 36.5148 22.4088 37.6163 22.8614C38.1936 23.0986 38.4102 23.5504 38.507 23.9175C38.5315 24.0109 38.6495 24.192 38.8694 24.0678C38.9272 24.0352 38.9581 23.9917 38.9907 23.95C39.1755 23.7107 39.4409 23.4896 39.7682 23.2989C40.2697 23.007 40.9414 22.7832 41.653 22.6694C42.1505 22.5899 42.6935 22.5734 43.1869 22.6599C44.2405 22.8445 44.5515 23.3614 44.685 23.8897C44.891 24.7072 44.7941 25.5708 44.5466 26.3827C44.5091 26.5065 44.4644 26.6324 44.3439 26.7402C44.0272 27.0212 43.296 27.1263 42.7448 27.2128C41.605 27.3913 39.6298 27.6515 38.6194 27.1802C38.8303 27.2788 37.7678 27.6163 37.6725 27.6411C37.6204 27.6546 37.5675 27.668 37.5138 27.6806H37.517Z" fill="white"/>
<path d="M13.5185 17.2481C11.3837 17.4076 9.45165 17.0971 7.45203 16.4735C7.01482 16.337 6.62239 16.4044 6.15098 16.4122C5.12267 16.4286 4.09193 16.3394 3.097 16.1466C1.93273 15.9209 0.67076 15.4878 0.356488 14.55C0.0161628 13.5334 -0.0416437 12.3906 0.0234903 11.3491C0.101651 10.1074 0.441162 8.66679 2.17943 8.17242C3.55213 7.78239 5.21875 8.08629 6.33742 8.7602C6.62727 8.9349 6.72823 9.10899 7.02459 8.97372C7.15404 8.91488 7.61079 8.58915 7.67674 8.49209C8.09523 7.88308 9.82372 7.99227 10.5695 8.04443C11.5123 8.11055 12.4299 8.35864 13.2115 8.75596C13.4891 8.89729 13.7163 9.19148 14.0338 9.27822C14.4556 9.39287 14.6559 8.981 14.9669 8.77719C17.4241 7.16671 21.1774 8.29738 22.822 10.0728C22.8473 10.1001 22.8758 10.1299 22.9189 10.1402C23.0761 10.1772 23.5369 9.61609 23.6346 9.5342C24.4203 8.87667 25.473 8.40474 26.612 8.17606C28.0043 7.89704 29.587 7.90128 30.7415 8.62493C30.9915 8.78143 31.3782 9.24244 31.6827 9.30673C31.9644 9.36678 32.3764 8.96826 32.5775 8.85726C32.9496 8.65223 33.3567 8.48178 33.7849 8.34955C34.6479 8.08265 35.7202 8.00258 36.6467 8.07052C37.443 8.12875 38.2482 8.36653 38.7449 8.8336C39.1552 9.21878 39.4581 8.8894 39.8863 8.6583C40.006 8.59339 40.1257 8.52909 40.2495 8.46965C40.6867 8.25977 41.1809 8.11662 41.693 8.04868C43.2676 7.8388 44.6713 8.39807 45.3747 9.45838C46.2565 10.7868 46.0326 12.5841 45.7443 14.0029C45.6532 14.4512 45.5123 14.9498 45.0963 15.3016C44.7152 15.6249 44.0321 15.8184 43.4997 15.9749C42.2353 16.3467 40.8487 16.4899 39.4972 16.3764C39.349 16.3637 39.2008 16.3485 39.0526 16.357C38.5967 16.3819 38.1522 16.6324 37.7304 16.7562C37.18 16.9181 36.6117 17.0449 36.0329 17.1359C34.902 17.3136 33.7312 17.3543 32.584 17.2499C31.7902 17.1777 31.4108 17.3458 30.7073 17.5817C30.2253 17.7437 29.6912 17.7959 29.1653 17.8371C27.9383 17.9323 26.704 17.9742 25.4714 17.9614C25.0618 17.9572 24.6377 17.9542 24.2338 17.8978C23.83 17.8413 23.4823 17.7018 23.0866 17.6891C22.7846 17.68 22.4907 17.7516 22.1968 17.8062C20.3673 18.1458 18.292 17.9718 16.4446 17.7916C15.8063 17.7291 15.1435 17.6454 14.6225 17.3634C14.5069 17.3009 14.3945 17.2269 14.2545 17.2038C14.1576 17.1881 14.0574 17.1978 13.9589 17.2081C13.8107 17.2232 13.6634 17.2366 13.5168 17.2475L13.5185 17.2481Z" fill="#010101"/>
<path d="M37.517 15.9322C35.8903 16.4824 33.7661 16.654 32.0449 16.338C31.7763 16.2889 31.5955 16.1688 31.361 16.0869C31.3301 16.099 31.304 16.116 31.2764 16.133C31.1892 16.1852 31.1257 16.3386 31.0492 16.4096C30.7048 16.7268 30.2025 16.8579 29.6781 16.9197C28.6311 17.0435 27.571 17.1078 26.5102 17.112C25.9801 17.1144 25.4493 17.1017 24.9209 17.0744C24.4902 17.052 23.9235 17.0732 23.558 16.87C23.3813 16.7717 23.1924 16.4205 22.9376 16.4563C22.7381 16.4842 22.4906 16.8081 22.2789 16.8942C21.9288 17.0362 21.5201 17.0683 21.1228 17.0896C19.4391 17.1793 17.7407 17.1199 16.0806 16.89C15.3877 16.7948 15.1679 16.5455 14.7062 16.1906C14.4359 15.9826 13.9067 16.3362 13.5583 16.395C12.2548 16.6158 10.6476 16.4144 9.36933 16.1797C8.96794 16.1057 8.56492 16.0159 8.20017 15.8691C8.10329 15.8303 7.19141 15.3547 7.31679 15.2577C7.01229 15.49 6.54414 15.547 6.10856 15.5646C4.99314 15.6095 3.92738 15.4591 2.87139 15.2049C2.58562 15.1364 2.29984 15.0605 2.04908 14.938C1.61105 14.7239 1.42298 14.3897 1.35621 14.013C1.14778 12.8314 1.03868 11.6334 1.28945 10.4493C1.36761 10.0799 1.49462 9.70443 1.79505 9.40478C2.33729 8.86431 3.13193 8.83337 3.95832 8.86431C5.20645 8.91041 6.40736 9.85122 6.90156 10.6374C6.98949 10.7775 7.26143 11.1711 7.38274 10.8072C7.47556 10.53 7.53906 10.2461 7.65793 9.97436C7.8859 9.45391 8.48758 8.90738 9.29768 8.91284C10.1143 8.9183 10.8332 8.8819 11.6156 9.10755C12.994 9.50547 13.8457 10.388 14.2495 11.4198C14.2666 11.4635 14.2837 11.5084 14.322 11.5442C14.4213 11.6364 14.5296 11.6334 14.5792 11.5139C14.6419 11.3628 14.6395 11.2015 14.6558 11.0438C14.7063 10.5567 14.9367 10.0569 15.3494 9.67288C16.5235 8.58164 18.83 8.7248 20.2964 9.37505C21.6072 9.95616 22.4385 11.0668 22.6485 12.175C22.6746 12.3103 22.7438 12.5572 23.0035 12.5153C23.1151 12.4977 23.2005 12.4268 23.2453 12.3491C23.2901 12.2715 23.3023 12.1853 23.317 12.101C23.4871 11.1384 24.1629 10.2425 25.1831 9.6377C26.6689 8.75634 29.2377 8.44577 30.581 9.66743C30.9067 9.96344 31.1062 10.3237 31.2128 10.6956C31.2536 10.8369 31.2308 11.748 31.5923 11.5618C31.7005 11.506 31.7339 11.3998 31.7649 11.304C32.0042 10.564 32.6149 9.89368 33.4494 9.45512C34.4834 8.91162 36.5148 8.57072 37.6163 9.20278C38.1936 9.53398 38.4102 10.1648 38.507 10.6774C38.5315 10.8078 38.6495 11.0607 38.8694 10.8873C38.9272 10.8418 38.9581 10.7811 38.9907 10.7229C39.1755 10.3887 39.4409 10.0799 39.7682 9.81361C40.2697 9.40599 40.9414 9.0936 41.653 8.93467C42.1505 8.82367 42.6935 8.80062 43.1869 8.92133C44.2405 9.17913 44.5515 9.90096 44.685 10.6386C44.891 11.7802 44.7941 12.986 44.5466 14.1197C44.5091 14.2926 44.4644 14.4685 44.3439 14.619C44.0272 15.0114 43.296 15.1582 42.7448 15.2789C41.605 15.5282 39.6298 15.8916 38.6194 15.2334C38.8303 15.3711 37.7678 15.8424 37.6725 15.877C37.6204 15.8958 37.5675 15.9146 37.5138 15.9322H37.517Z" fill="white"/>
</svg>
