<svg width="53" height="53" viewBox="0 0 53 53" fill="none" xmlns="http://www.w3.org/2000/svg">
<g clip-path="url(#clip0_65_1037)">
<path d="M30.1667 17.6666C30.1667 22.1309 26.5476 25.7499 22.0833 25.7499C17.619 25.7499 14 22.1309 14 17.6666C14 13.2023 17.619 9.58325 22.0833 9.58325C26.5476 9.58325 30.1667 13.2023 30.1667 17.6666Z" fill="#DDDDDD" stroke="black" stroke-width="1.5"/>
<path d="M5.16699 39.7498C5.16699 38.5261 5.7908 37.3957 6.95062 36.3575C8.11472 35.3154 9.76211 34.4218 11.6442 33.701C15.0037 32.4145 18.9537 31.737 21.8318 31.681C21.2719 33.763 20.507 38.6832 23.9187 43.4165H6.62533C5.82496 43.4165 5.16699 42.7586 5.16699 41.9582V39.7498Z" fill="#DDDDDD" stroke="black" stroke-width="1.5"/>
</g>
<circle cx="33.4216" cy="36.0866" r="7.67644" stroke="black" stroke-width="1.5" stroke-linecap="square"/>
<path d="M38.6631 41.7395L43.0115 46.0766" stroke="black" stroke-width="1.5" stroke-linecap="square"/>
<defs>
<clipPath id="clip0_65_1037">
<rect width="53" height="53" fill="white"/>
</clipPath>
</defs>
</svg>
