<svg width="30" height="42" viewBox="0 0 30 42" fill="none" xmlns="http://www.w3.org/2000/svg">
<path d="M20.7773 41.1926C20.8331 41.1898 20.8779 41.1875 20.9208 41.1842L20.921 41.1853C23.0526 41.0322 24.4735 39.5257 25.0024 37.9788L25.0024 37.9786C25.4566 36.6513 25.5198 35.2938 25.5886 33.8144C25.5958 33.6587 25.6031 33.5017 25.6109 33.3433C25.6912 31.7172 25.8293 29.9645 26.6741 28.2536L26.6742 28.2533C26.9642 27.6666 27.3349 27.1142 27.6726 26.6108C27.7228 26.536 27.7724 26.4622 27.8208 26.3895C28.2088 25.807 28.5394 25.2796 28.7519 24.725L28.752 24.7246C29.5454 22.6572 29.4493 20.506 28.0433 18.7158L28.043 18.7154C27.2907 17.7561 26.1291 17.0707 24.7283 16.6357C23.3312 16.2019 21.7458 16.0335 20.2206 16.0721L20.2204 16.0721C19.4065 16.0924 18.623 16.1451 17.8251 16.1987C17.3287 16.2321 16.8268 16.2658 16.3084 16.2924C14.9879 16.36 13.6309 16.3749 12.2376 16.1807L12.2375 16.1807C10.3904 15.9229 8.28813 15.969 6.37808 16.4014C4.45863 16.836 2.81064 17.6422 1.77506 18.8377C0.644148 20.1454 0.546371 21.9067 1.00954 23.5645C1.31924 24.673 1.8595 25.7142 2.44099 26.8349C2.53283 27.0119 2.62571 27.1909 2.71886 27.3725C3.3828 28.6664 4.05088 30.0759 4.23686 31.6459L20.7773 41.1926ZM20.7773 41.1926C20.2154 41.2139 19.7264 41.0752 19.4162 40.8312M20.7773 41.1926L19.4162 40.8312M19.4162 40.8312C19.1468 40.6192 18.9792 40.2413 18.8954 39.6522C18.855 39.3676 18.8384 39.0665 18.8276 38.7553C18.825 38.6811 18.8227 38.6043 18.8204 38.5266C18.8136 38.2956 18.8065 38.0555 18.7903 37.8447C18.7723 37.6082 18.7567 37.3557 18.7405 37.0926C18.6967 36.3809 18.648 35.5916 18.5331 34.8308C18.3732 33.7716 18.0742 32.6639 17.4233 31.6939C17.2548 31.4427 16.8376 30.9733 16.3641 30.6236C16.1271 30.4485 15.8239 30.2639 15.4894 30.1753C15.1395 30.0826 14.6766 30.0805 14.2753 30.4027L14.1872 30.4734C14.1166 30.5196 14.0265 30.5779 13.931 30.6396L13.9122 30.6518C13.8026 30.7227 13.6874 30.7972 13.5959 30.8575C13.5505 30.8874 13.5075 30.9161 13.4725 30.9402C13.4553 30.952 13.4364 30.9652 13.4187 30.9782L13.4174 30.9791C13.4079 30.986 13.3731 31.0114 13.3368 31.0445C12.6779 31.6448 12.3075 32.4321 12.0774 33.1768C11.8589 33.8841 11.7492 34.6162 11.6624 35.1965C11.658 35.2255 11.6537 35.2542 11.6495 35.2825L19.4162 40.8312Z" fill="#DDDDDD" stroke="black" stroke-width="1.5"/>
<path d="M4.45342 0.704031C7.71499 -0.34861 11.2708 -0.116461 14.5506 0.714426C15.3678 0.921628 16.4629 0.408127 17.281 0.268838C18.2914 0.096978 19.3273 0.00896914 20.364 0.00550423C22.3182 -0.0014256 24.4036 0.214092 26.1565 0.909847C28.0788 1.67351 29.4199 3.04008 29.7989 4.66789C30.3574 7.06839 29.7214 9.79943 28.2792 11.9719C28.0132 12.3732 27.7007 12.7564 27.1523 12.9615C26.7377 13.1167 26.2731 13.1763 25.8139 13.2165C24.1522 13.3621 21.8609 13.5374 20.2984 12.9913C19.4584 12.6975 18.9647 12.1701 18.7815 11.491C18.6431 10.9789 19.0266 9.76825 18.1156 9.76825C16.9631 9.76825 15.8106 9.76755 14.6581 9.76686C13.6906 9.76686 12.4898 9.61371 11.5496 9.80082C11.0394 9.90199 11.3209 10.595 11.3237 10.8736C11.3319 11.7918 10.9073 12.6025 9.72477 12.974C8.90391 13.2325 7.98739 13.2318 7.0982 13.2276C6.17531 13.2235 5.2515 13.2193 4.32861 13.2145C3.50319 13.2103 2.81262 13.1611 2.32338 12.6164C1.88425 12.1279 1.66014 11.5596 1.36678 11.0177C0.772771 9.91793 0.360976 8.75441 0.146879 7.57634C-0.108216 6.17582 -0.108216 4.46277 0.781882 3.18144C1.5663 2.05465 2.92376 1.19813 4.45342 0.704031Z" fill="black"/>
</svg>
