<svg width="62" height="33" viewBox="0 0 62 33" fill="none" xmlns="http://www.w3.org/2000/svg">
<path d="M0.519531 14.9268C0.519531 14.9268 19.0941 16.4268 31.0195 16.4268C42.9449 16.4268 61.5195 14.9268 61.5195 14.9268" stroke="black"/>
<path d="M51.1338 25.1299C51.178 25.1277 51.2115 25.1259 51.2431 25.1234L51.244 25.1272L51.2438 25.1243C52.8655 25.0045 53.9645 23.8229 54.3774 22.5802L54.3775 22.5801C54.7354 21.5039 54.7853 20.4029 54.8406 19.1822C54.8463 19.0548 54.8522 18.9261 54.8584 18.7959C54.9227 17.4572 55.0333 15.9931 55.7206 14.5608L55.7208 14.5605C55.9566 14.0695 56.2582 13.6071 56.528 13.1933C56.5681 13.1319 56.6075 13.0714 56.6459 13.0122C56.9561 12.5331 57.2136 12.1092 57.3785 11.6665L57.3786 11.6662C58.0029 9.99227 57.9222 8.26585 56.8299 6.83479L56.8296 6.8344C56.2502 6.07433 55.351 5.52491 54.2519 5.17375C53.1553 4.8234 51.9061 4.68618 50.7004 4.71756L50.7001 4.71756C50.0515 4.73423 49.432 4.7771 48.7972 4.82104C48.3995 4.84856 47.9958 4.8765 47.5751 4.89868C46.5145 4.95459 45.4164 4.96741 44.286 4.8053L44.2859 4.80528C42.8267 4.59576 41.1659 4.6335 39.6597 4.98438C38.1454 5.33714 36.8617 5.98786 36.06 6.94004L51.1338 25.1299ZM51.1338 25.1299C50.7136 25.1462 50.3649 25.0383 50.1534 24.8672C49.9799 24.7267 49.8509 24.4572 49.7848 23.9787C49.7533 23.7506 49.7401 23.5076 49.7315 23.2523C49.7295 23.1927 49.7277 23.1304 49.7259 23.0669C49.7204 22.8762 49.7146 22.6745 49.7015 22.4982M51.1338 25.1299L49.7015 22.4982M49.7015 22.4982C49.6873 22.3066 49.675 22.1008 49.6621 21.8856C49.6269 21.2984 49.5875 20.6407 49.4948 20.0091C49.3658 19.1298 49.1232 18.1983 48.5881 17.3779M49.7015 22.4982L48.5881 17.3779M48.5881 17.3779C48.5881 17.378 48.5882 17.378 48.5882 17.378L47.9622 17.7862L48.5881 17.3779ZM45.7729 16.3377C45.7177 16.3748 45.6483 16.421 45.5743 16.4702L45.5597 16.4799C45.4721 16.5382 45.3794 16.5999 45.3055 16.65C45.2689 16.6748 45.2335 16.6991 45.2043 16.7198C45.1899 16.7299 45.1735 16.7417 45.1577 16.7537L45.1566 16.7545C45.1486 16.7605 45.1153 16.7854 45.0801 16.8184M45.7729 16.3377L43.7009 20.3085C43.7702 19.8321 43.859 19.2218 44.0364 18.631C44.2232 18.0088 44.5279 17.336 45.0801 16.8184M45.7729 16.3377C45.7803 16.3327 45.7874 16.3279 45.7942 16.3233C45.815 16.3092 45.8311 16.2982 45.8427 16.2902C45.8486 16.2861 45.8534 16.2827 45.8571 16.2801C45.8642 16.2751 45.8594 16.2783 45.8495 16.286C45.8489 16.2865 45.8467 16.2882 45.8433 16.2909C45.8351 16.2976 45.8197 16.3104 45.8021 16.3271C45.7932 16.3355 45.7571 16.3696 45.719 16.4205C45.7018 16.4435 45.6584 16.5034 45.6234 16.5907C45.5975 16.6553 45.5082 16.9009 45.6387 17.1836L46.2574 16.898L46.3197 16.8693L45.681 17.2624L45.6783 17.2582L45.6772 17.2563L45.6769 17.2558L45.6768 17.2556L45.6768 17.2556L45.6768 17.2556L45.3345 16.6998L45.7729 16.3377ZM45.0801 16.8184L45.593 17.3656L45.0724 16.8258C45.0749 16.8233 45.0775 16.8208 45.0801 16.8184ZM36.832 13.8338C37.3636 14.8998 37.9069 16.0765 38.0583 17.3911L36.832 13.8338ZM36.832 13.8338C36.757 13.6834 36.6824 13.5355 36.6088 13.3895M36.832 13.8338L36.6088 13.3895M36.6088 13.3895C36.1433 12.4663 35.7174 11.6215 35.4731 10.7218M36.6088 13.3895L35.4731 10.7218M35.4731 10.7218C35.1077 9.37626 35.1925 7.97209 36.0599 6.94017L35.4731 10.7218ZM43.6903 20.3811C43.5692 21.2094 43.5103 22.0536 43.5284 22.8989L43.5284 22.8996C43.5415 23.4833 43.5302 23.9307 43.3773 24.3265L43.3772 24.3269C43.1523 24.9102 42.5318 25.3329 41.7109 25.1206C40.7702 24.8772 40.1237 24.4662 39.6607 23.9696C39.1923 23.4672 38.8777 22.8405 38.6617 22.12C38.4445 21.3956 38.3342 20.602 38.2587 19.784C38.2296 19.4686 38.2047 19.1325 38.1798 18.796C38.1437 18.3077 38.1075 17.8187 38.0583 17.3911L43.6903 20.3811Z" fill="#DDDDDD" stroke="black" stroke-width="1.5"/>
<path d="M9.79421 25.5316C9.82038 25.5673 9.8403 25.5943 9.85972 25.6193L9.85702 25.6221L9.85935 25.6203C10.8505 26.9096 12.4416 27.1786 13.7067 26.8409L13.7069 26.8408C14.8027 26.5486 15.7501 25.9853 16.8003 25.3609C16.91 25.2957 17.0208 25.2298 17.133 25.1635C18.2868 24.4817 19.5708 23.7697 21.1453 23.557L21.1456 23.5569C21.6854 23.4843 22.2374 23.4822 22.7315 23.4803C22.8049 23.48 22.877 23.4798 22.9476 23.4793C23.5183 23.4752 24.014 23.4575 24.4744 23.352L24.4747 23.3519C26.2164 22.9538 27.6146 21.9379 28.2101 20.2389L28.2103 20.2385C28.527 19.3368 28.492 18.2835 28.1815 17.1723C27.8718 16.0635 27.3001 14.9444 26.6114 13.9542L26.6112 13.954C26.2409 13.4212 25.8648 12.9272 25.4792 12.4209C25.2377 12.1037 24.9926 11.7817 24.7429 11.4424C24.1135 10.587 23.4994 9.67651 23.0138 8.64295L23.0137 8.64283C22.3871 7.30849 21.443 5.94157 20.3223 4.87587C19.1956 3.80446 17.9466 3.08942 16.7105 2.94272L9.79421 25.5316ZM9.79421 25.5316C9.54975 25.1894 9.44828 24.8388 9.4751 24.568C9.49711 24.3459 9.65144 24.09 10.0149 23.7719C10.1882 23.6202 10.384 23.4758 10.5925 23.3283C10.6413 23.2938 10.6923 23.2581 10.7444 23.2217C10.9007 23.1124 11.066 22.9967 11.2062 22.8888M9.79421 25.5316L11.2062 22.8888M11.2062 22.8888C11.3584 22.7717 11.5236 22.6484 11.6964 22.5193C12.1676 22.1673 12.6956 21.773 13.1724 21.3486C13.8361 20.7577 14.4811 20.0432 14.8726 19.1454M11.2062 22.8888L14.8726 19.1454M14.8726 19.1454C14.8726 19.1454 14.8726 19.1454 14.8726 19.1454L14.1876 18.8467L14.8726 19.1454ZM14.195 16.2216C14.1337 16.1959 14.057 16.1632 13.9752 16.1285L13.959 16.1216C13.8622 16.0804 13.7597 16.0369 13.6773 16.0027C13.6364 15.9857 13.5967 15.9695 13.5634 15.9564C13.547 15.95 13.5281 15.9428 13.5094 15.9361L13.5082 15.9356C13.4987 15.9322 13.4596 15.9181 13.4127 15.9068M14.195 16.2216L9.73882 16.672C10.1749 16.4682 10.7337 16.207 11.3248 16.0307C11.9473 15.8449 12.6768 15.7299 13.4127 15.9068M14.195 16.2216C14.2032 16.225 14.2111 16.2283 14.2188 16.2315C14.2419 16.2411 14.2599 16.2485 14.2731 16.2538C14.2798 16.2565 14.2852 16.2587 14.2894 16.2603C14.2975 16.2634 14.2922 16.2612 14.2803 16.2572C14.2795 16.257 14.2769 16.2561 14.2728 16.2547C14.2627 16.2515 14.2435 16.2457 14.2198 16.2401C14.208 16.2374 14.1597 16.2259 14.0962 16.2221C14.0676 16.2203 13.9936 16.217 13.9015 16.2357C13.8333 16.2496 13.579 16.3099 13.4145 16.5743L13.993 16.9343L14.0513 16.9705L13.3718 16.6529L13.374 16.6483L13.3749 16.6464L13.3751 16.6458L13.3752 16.6456L13.3752 16.6456L13.3752 16.6456L13.6516 16.0543L14.195 16.2216ZM13.4127 15.9068L13.2374 16.636L13.4023 15.9044C13.4058 15.9052 13.4093 15.906 13.4127 15.9068ZM11.3747 7.37536C10.7761 8.40522 10.0914 9.50577 9.07619 10.3545L11.3747 7.37536ZM11.3747 7.37536C11.4591 7.23007 11.5417 7.08651 11.6232 6.94484M11.3747 7.37536L11.6232 6.94484M11.6232 6.94484C12.1389 6.04865 12.6108 5.22857 13.2283 4.53013M11.6232 6.94484L13.2283 4.53013M13.2283 4.53013C14.1517 3.48559 15.3716 2.78494 16.7103 2.9427L13.2283 4.53013ZM9.67232 16.7031C8.91372 17.057 8.17604 17.4716 7.47968 17.9512L7.47913 17.9516C6.99852 18.2832 6.61857 18.5195 6.20383 18.6093L6.2034 18.6094C5.59246 18.742 4.89838 18.4558 4.62472 17.6532C4.31123 16.7335 4.29946 15.9675 4.46 15.3078C4.6224 14.6404 4.97322 14.0333 5.45655 13.4569C5.94243 12.8774 6.54494 12.3492 7.18691 11.8367C7.43448 11.6391 7.70165 11.4336 7.9691 11.228C8.35725 10.9295 8.74597 10.6306 9.07616 10.3545L9.67232 16.7031Z" fill="#DDDDDD" stroke="black" stroke-width="1.5"/>
</svg>
