<svg width="63" height="48" viewBox="0 0 63 48" fill="none" xmlns="http://www.w3.org/2000/svg">
<path d="M1 37C1 37 19.5746 38.5 31.5 38.5C43.4254 38.5 62 37 62 37" stroke="black"/>
<path d="M35.6143 47.2032C35.6585 47.2009 35.692 47.1991 35.7235 47.1966L35.7244 47.2004L35.7242 47.1975C37.346 47.0778 38.445 45.8961 38.8579 44.6535L38.858 44.6533C39.2159 43.5772 39.2657 42.4761 39.321 41.2555C39.3268 41.128 39.3326 40.9993 39.3389 40.8691C39.4031 39.5305 39.5137 38.0664 40.2011 36.634L40.2012 36.6337C40.4371 36.1428 40.7386 35.6804 41.0085 35.2666C41.0486 35.2051 41.088 35.1447 41.1264 35.0854C41.4366 34.6064 41.6941 34.1824 41.859 33.7398L41.8591 33.7395C42.4834 32.0655 42.4027 30.3391 41.3104 28.908L41.3101 28.9076C40.7307 28.1476 39.8314 27.5982 38.7323 27.247C37.6358 26.8966 36.3866 26.7594 35.1808 26.7908L35.1806 26.7908C34.532 26.8075 33.9125 26.8503 33.2777 26.8943C32.88 26.9218 32.4762 26.9497 32.0555 26.9719C30.9949 27.0278 29.8969 27.0407 28.7665 26.8785L28.7663 26.8785C27.3071 26.669 25.6463 26.7067 24.1401 27.0576C22.6259 27.4104 21.3422 28.0611 20.5405 29.0133L35.6143 47.2032ZM35.6143 47.2032C35.194 47.2194 34.8454 47.1116 34.6339 46.9404C34.4604 46.8 34.3314 46.5304 34.2652 46.052C34.2337 45.8238 34.2206 45.5808 34.212 45.3256C34.21 45.2659 34.2082 45.2037 34.2064 45.1402C34.2009 44.9495 34.1951 44.7478 34.1819 44.5714M35.6143 47.2032L34.1819 44.5714M34.1819 44.5714C34.1678 44.3799 34.1554 44.1741 34.1425 43.9588C34.1074 43.3717 34.068 42.7139 33.9753 42.0823C33.8463 41.2031 33.6037 40.2716 33.0686 39.4512M34.1819 44.5714L33.0686 39.4512M33.0686 39.4512C33.0686 39.4512 33.0686 39.4512 33.0686 39.4513L32.4426 39.8594L33.0686 39.4512ZM30.2534 38.4109C30.1982 38.448 30.1288 38.4942 30.0548 38.5434L30.0401 38.5532C29.9526 38.6114 29.8599 38.6731 29.786 38.7232C29.7494 38.7481 29.714 38.7723 29.6848 38.793C29.6704 38.8032 29.654 38.815 29.6381 38.8269L29.6371 38.8277C29.629 38.8337 29.5958 38.8587 29.5606 38.8916M30.2534 38.4109L28.1813 42.3817C28.2507 41.9054 28.3395 41.295 28.5169 40.7042C28.7037 40.0821 29.0084 39.4093 29.5606 38.8916M30.2534 38.4109C30.2607 38.4059 30.2678 38.4011 30.2747 38.3965C30.2955 38.3824 30.3115 38.3715 30.3232 38.3634C30.3291 38.3593 30.3339 38.3559 30.3376 38.3533C30.3446 38.3483 30.3399 38.3515 30.33 38.3592C30.3294 38.3597 30.3272 38.3614 30.3238 38.3642C30.3156 38.3708 30.3002 38.3836 30.2825 38.4004C30.2737 38.4087 30.2376 38.4428 30.1995 38.4938C30.1823 38.5167 30.1388 38.5767 30.1039 38.6639C30.078 38.7286 29.9887 38.9742 30.1192 39.2569L30.7379 38.9713L30.8001 38.9425L30.1614 39.3357L30.1588 39.3314L30.1577 39.3296L30.1573 39.329L30.1573 39.3289L30.1572 39.3288L30.1572 39.3288L29.815 38.773L30.2534 38.4109ZM29.5606 38.8916L30.0735 39.4388L29.5528 38.899C29.5554 38.8965 29.558 38.8941 29.5606 38.8916ZM21.3124 35.907C21.844 36.973 22.3874 38.1498 22.5387 39.4643L21.3124 35.907ZM21.3124 35.907C21.2374 35.7566 21.1629 35.6087 21.0893 35.4628M21.3124 35.907L21.0893 35.4628M21.0893 35.4628C20.6238 34.5395 20.1979 33.6947 19.9535 32.795M21.0893 35.4628L19.9535 32.795M19.9535 32.795C19.5882 31.4495 19.673 30.0453 20.5404 29.0134L19.9535 32.795ZM28.1708 42.4544C28.0497 43.2826 27.9908 44.1268 28.0089 44.9721L28.0089 44.9728C28.0219 45.5566 28.0107 46.0039 27.8578 46.3997L27.8576 46.4002C27.6328 46.9835 27.0123 47.4062 26.1913 47.1939C25.2507 46.9505 24.6041 46.5394 24.1411 46.0428C23.6728 45.5405 23.3582 44.9137 23.1421 44.1932C22.925 43.4689 22.8146 42.6752 22.7392 41.8573C22.7101 41.5418 22.6852 41.2057 22.6603 40.8692C22.6242 40.3809 22.588 39.8919 22.5387 39.4643L28.1708 42.4544Z" fill="#DDDDDD" stroke="black" stroke-width="1.5"/>
<path d="M12 0H14.5V11.7V21.7L19.5 31L12 23V0Z" fill="black"/>
<path d="M49.5 0H47.1667V11.7V21.7L42.5 31L49.5 23V0Z" fill="black"/>
</svg>
