<svg width="29" height="41" viewBox="0 0 29 41" fill="none" xmlns="http://www.w3.org/2000/svg">
<path d="M19.8731 40.192C19.9263 40.1892 19.9681 40.1869 20.0078 40.1836L20.0081 40.1848C22.0051 40.0316 23.3692 38.5159 23.8835 36.9079L23.8836 36.9077C24.3207 35.5421 24.3814 34.1449 24.4471 32.633C24.4541 32.4736 24.4611 32.3129 24.4685 32.1508C24.5453 30.4894 24.677 28.7075 25.4807 26.9676L25.4808 26.9673C25.7572 26.3695 26.1107 25.8064 26.4339 25.2913C26.482 25.2147 26.5294 25.1392 26.5758 25.0647C26.9467 24.4696 27.2649 23.9274 27.47 23.3552L27.4701 23.3549C28.2351 21.2238 28.1411 19.0005 26.788 17.1587L26.7877 17.1583C25.3351 15.1783 22.3089 14.3876 19.3465 14.4677L19.3463 14.4677C18.5688 14.4885 17.8229 14.5421 17.0613 14.5968C16.5861 14.631 16.1049 14.6656 15.606 14.6929C14.3406 14.7622 13.0364 14.7777 11.6958 14.5779L11.6957 14.5779C9.93765 14.3157 7.93678 14.3626 6.11969 14.8024C4.29622 15.2438 2.72773 16.0624 1.73868 17.2829L19.8731 40.192ZM19.8731 40.192C19.3526 40.213 18.9018 40.0761 18.614 39.8341M19.8731 40.192L18.614 39.8341M18.614 39.8341C18.3566 39.6177 18.1914 39.2229 18.1097 38.6087C18.0705 38.3142 18.0546 38.0035 18.0442 37.6846C18.0418 37.6079 18.0396 37.5288 18.0374 37.4489C18.0308 37.2132 18.0241 36.9699 18.0087 36.756L18.614 39.8341ZM13.5342 29.2407L13.6174 29.1693C14.0154 28.8278 14.4847 28.8273 14.8389 28.9276C15.1706 29.0216 15.4667 29.2155 15.6935 29.3946C16.149 29.7542 16.548 30.2348 16.7077 30.4894C17.327 31.4759 17.611 32.6011 17.7632 33.6785C17.8727 34.4535 17.919 35.2562 17.9609 35.9832C17.9764 36.2528 17.9914 36.512 18.0087 36.7555L13.5342 29.2407ZM13.5342 29.2407C13.467 29.2878 13.3814 29.3469 13.2906 29.4097L13.2725 29.4222C13.1676 29.4947 13.0573 29.571 12.9697 29.6327C12.9261 29.6634 12.8848 29.6929 12.851 29.7177C12.8344 29.7299 12.8161 29.7436 12.7988 29.7571L12.7976 29.7581C12.7883 29.7653 12.7542 29.7919 12.7188 29.8264C12.0885 30.4403 11.737 31.2414 11.519 31.9956C11.3112 32.7146 11.2069 33.4593 11.1237 34.0532C11.1196 34.0826 11.1155 34.1117 11.1115 34.1404L13.5342 29.2407ZM2.63882 26.067C3.27454 27.3915 3.90956 28.8255 4.08618 30.4194L2.63882 26.067ZM2.63882 26.067C2.54987 25.8817 2.46112 25.6989 2.37329 25.5179M2.63882 26.067L2.37329 25.5179M2.37329 25.5179C1.81722 24.3723 1.29808 23.3029 1.00038 22.1638M2.37329 25.5179L1.00038 22.1638M1.00038 22.1638C0.553403 20.4536 0.648576 18.6303 1.7386 17.283L1.00038 22.1638ZM8.56974 40.1766C7.4248 39.8688 6.62672 39.3457 6.05016 38.7032C5.4674 38.0538 5.07932 37.2468 4.81482 36.3303C4.54945 35.4108 4.41605 34.4086 4.32539 33.3877C4.28976 32.9864 4.25986 32.5658 4.2301 32.1473C4.18734 31.546 4.14489 30.9489 4.08619 30.4194L8.56974 40.1766Z" fill="#DDDDDD" stroke="black" stroke-width="1.5"/>
<ellipse cx="14.3497" cy="15.6191" rx="4.78333" ry="3.90476" fill="white"/>
<ellipse cx="14.3497" cy="2.92857" rx="4.78333" ry="2.92857" fill="black"/>
<line x1="14.2998" y1="3.90527" x2="14.2998" y2="11.7148" stroke="black"/>
<path d="M11.8686 11.2262L16.8396 11.2262L14.3541 15.6191L11.8686 11.2262Z" fill="black"/>
</svg>
