<svg width="75" height="22" viewBox="0 0 75 22" fill="none" xmlns="http://www.w3.org/2000/svg">
<path d="M1 11.0732C1 11.0732 11.9621 12.0732 19 12.0732C26.0379 12.0732 37 11.0732 37 11.0732" stroke="black"/>
<path d="M45 2.07324C45 2.07324 44.8306 10.3138 50.5 12.0732C56.1694 13.8327 74 11.0732 74 11.0732" stroke="black"/>
<path d="M32.1338 21.2032C32.178 21.2009 32.2115 21.1991 32.2431 21.1966L32.244 21.2004L32.2438 21.1975C33.8655 21.0778 34.9645 19.8961 35.3774 18.6535L35.3775 18.6533C35.7354 17.5772 35.7853 16.4761 35.8406 15.2555C35.8463 15.128 35.8522 14.9993 35.8584 14.8691C35.9227 13.5305 36.0333 12.0664 36.7206 10.634L36.7208 10.6337C36.9566 10.1428 37.2582 9.68037 37.528 9.26659C37.5681 9.2051 37.6075 9.14469 37.6459 9.08542C37.9561 8.60637 38.2136 8.18244 38.3785 7.73979L38.3786 7.73948C39.0029 6.06552 38.9222 4.33909 37.8299 2.90803L37.8296 2.90764C37.2502 2.14757 36.351 1.59815 35.2519 1.24699C34.1553 0.896639 32.9061 0.759419 31.7004 0.7908L31.7001 0.790807C31.0515 0.807471 30.432 0.850343 29.7972 0.89428C29.3995 0.921804 28.9958 0.949745 28.5751 0.971923C27.5145 1.02783 26.4164 1.04065 25.286 0.878544L25.2859 0.878525C23.8267 0.669003 22.1659 0.706743 20.6597 1.05762C19.1454 1.41038 17.8617 2.0611 17.06 3.01328L32.1338 21.2032ZM32.1338 21.2032C31.7136 21.2194 31.3649 21.1116 31.1534 20.9404C30.9799 20.8 30.8509 20.5304 30.7848 20.052C30.7533 19.8238 30.7401 19.5808 30.7315 19.3256C30.7295 19.2659 30.7277 19.2037 30.7259 19.1402C30.7204 18.9495 30.7146 18.7478 30.7015 18.5714M32.1338 21.2032L30.7015 18.5714M30.7015 18.5714C30.6873 18.3799 30.675 18.1741 30.6621 17.9588C30.6269 17.3717 30.5875 16.7139 30.4948 16.0823C30.3658 15.2031 30.1232 14.2716 29.5881 13.4512M30.7015 18.5714L29.5881 13.4512M29.5881 13.4512C29.5881 13.4512 29.5882 13.4512 29.5882 13.4513L28.9622 13.8594L29.5881 13.4512ZM26.7729 12.4109C26.7177 12.448 26.6483 12.4942 26.5743 12.5434L26.5597 12.5532C26.4721 12.6114 26.3794 12.6731 26.3055 12.7232C26.2689 12.7481 26.2335 12.7723 26.2043 12.793C26.1899 12.8032 26.1735 12.815 26.1577 12.8269L26.1566 12.8277C26.1486 12.8337 26.1153 12.8587 26.0801 12.8916M26.7729 12.4109L24.7009 16.3817C24.7702 15.9054 24.859 15.295 25.0364 14.7042C25.2232 14.0821 25.5279 13.4093 26.0801 12.8916M26.7729 12.4109C26.7803 12.4059 26.7874 12.4011 26.7942 12.3965C26.815 12.3824 26.8311 12.3715 26.8427 12.3634C26.8486 12.3593 26.8534 12.3559 26.8571 12.3533C26.8642 12.3483 26.8594 12.3515 26.8495 12.3592C26.8489 12.3597 26.8467 12.3614 26.8433 12.3642C26.8351 12.3708 26.8197 12.3836 26.8021 12.4004C26.7932 12.4087 26.7571 12.4428 26.719 12.4938C26.7018 12.5167 26.6584 12.5767 26.6234 12.6639C26.5975 12.7286 26.5082 12.9742 26.6387 13.2569L27.2574 12.9713L27.3197 12.9425L26.681 13.3357L26.6783 13.3314L26.6772 13.3296L26.6769 13.329L26.6768 13.3289L26.6768 13.3288L26.6768 13.3288L26.3345 12.773L26.7729 12.4109ZM26.0801 12.8916L26.593 13.4388L26.0724 12.899C26.0749 12.8965 26.0775 12.8941 26.0801 12.8916ZM17.832 9.90701C18.3636 10.973 18.9069 12.1498 19.0583 13.4643L17.832 9.90701ZM17.832 9.90701C17.757 9.75662 17.6824 9.60872 17.6088 9.46278M17.832 9.90701L17.6088 9.46278M17.6088 9.46278C17.1433 8.53953 16.7174 7.69469 16.4731 6.79502M17.6088 9.46278L16.4731 6.79502M16.4731 6.79502C16.1077 5.44951 16.1925 4.04533 17.0599 3.01342L16.4731 6.79502ZM24.6903 16.4544C24.5692 17.2826 24.5103 18.1268 24.5284 18.9721L24.5284 18.9728C24.5415 19.5566 24.5302 20.0039 24.3773 20.3997L24.3772 20.4002C24.1523 20.9835 23.5318 21.4062 22.7109 21.1939C21.7702 20.9505 21.1237 20.5394 20.6607 20.0428C20.1923 19.5405 19.8777 18.9137 19.6617 18.1932C19.4445 17.4689 19.3342 16.6752 19.2587 15.8573C19.2296 15.5418 19.2047 15.2057 19.1798 14.8692C19.1437 14.3809 19.1075 13.8919 19.0583 13.4643L24.6903 16.4544Z" fill="#DDDDDD" stroke="black" stroke-width="1.5"/>
</svg>
