<svg width="31" height="29" viewBox="0 0 31 29" fill="none" xmlns="http://www.w3.org/2000/svg">
<mask id="path-1-inside-1_64_992" fill="white">
<path fill-rule="evenodd" clip-rule="evenodd" d="M27.4645 16.0001H3.22195C2.87483 14.896 2.35091 13.8416 1.8261 12.7853C1.23149 11.5886 0.635737 10.3895 0.29469 9.11343C-0.219935 7.1878 -0.152173 4.98104 1.2397 3.29876C3.65899 0.378581 8.70818 -0.399832 12.6659 0.177554C14.5381 0.45036 16.3678 0.322194 18.2148 0.192817C19.0489 0.134389 19.8865 0.0757139 20.7332 0.0536127C23.9913 -0.0325417 27.5882 0.800285 29.3866 3.19749C31.0331 5.38914 31.1155 8.01005 30.2272 10.4299C29.9427 11.2061 29.4904 11.9114 29.0375 12.6177C28.6887 13.1617 28.3395 13.7062 28.0662 14.2842C27.7989 14.8502 27.606 15.4228 27.4645 16.0001Z"/>
</mask>
<path fill-rule="evenodd" clip-rule="evenodd" d="M27.4645 16.0001H3.22195C2.87483 14.896 2.35091 13.8416 1.8261 12.7853C1.23149 11.5886 0.635737 10.3895 0.29469 9.11343C-0.219935 7.1878 -0.152173 4.98104 1.2397 3.29876C3.65899 0.378581 8.70818 -0.399832 12.6659 0.177554C14.5381 0.45036 16.3678 0.322194 18.2148 0.192817C19.0489 0.134389 19.8865 0.0757139 20.7332 0.0536127C23.9913 -0.0325417 27.5882 0.800285 29.3866 3.19749C31.0331 5.38914 31.1155 8.01005 30.2272 10.4299C29.9427 11.2061 29.4904 11.9114 29.0375 12.6177C28.6887 13.1617 28.3395 13.7062 28.0662 14.2842C27.7989 14.8502 27.606 15.4228 27.4645 16.0001Z" fill="#DDDDDD"/>
<path d="M3.22195 16.0001L1.79101 16.45L2.12117 17.5001H3.22195V16.0001ZM27.4645 16.0001V17.5001H28.6414L28.9214 16.3571L27.4645 16.0001ZM1.8261 12.7853L0.482778 13.4528H0.482778L1.8261 12.7853ZM0.29469 9.11343L-1.15445 9.50072L-1.15445 9.50073L0.29469 9.11343ZM1.2397 3.29876L0.0846089 2.3418L0.0839847 2.34256L1.2397 3.29876ZM12.6659 0.177554L12.4493 1.66184L12.4496 1.66188L12.6659 0.177554ZM18.2148 0.192817L18.3196 1.68915L18.2148 0.192817ZM20.7332 0.0536127L20.7724 1.5531L20.7729 1.55309L20.7332 0.0536127ZM29.3866 3.19749L28.1867 4.09767L28.1873 4.09844L29.3866 3.19749ZM30.2272 10.4299L28.8191 9.91306L28.8189 9.91367L30.2272 10.4299ZM29.0375 12.6177L27.7748 11.808V11.808L29.0375 12.6177ZM28.0662 14.2842L26.7101 13.643L26.7098 13.6436L28.0662 14.2842ZM3.22195 17.5001H27.4645V14.5001H3.22195V17.5001ZM4.65289 15.5502C4.26445 14.3147 3.68467 13.1549 3.16943 12.1179L0.482778 13.4528C1.01716 14.5283 1.48521 15.4774 1.79101 16.45L4.65289 15.5502ZM3.16943 12.1179C2.56269 10.8967 2.03941 9.83209 1.74383 8.72613L-1.15445 9.50073C-0.767935 10.9469 -0.0997127 12.2804 0.482778 13.4528L3.16943 12.1179ZM1.74383 8.72615C1.29813 7.05842 1.42997 5.42184 2.39541 4.25497L0.0839847 2.34256C-1.73432 4.54024 -1.738 7.31719 -1.15445 9.50072L1.74383 8.72615ZM2.39479 4.25572C3.32416 3.13393 4.8479 2.32968 6.72138 1.88624C8.57974 1.44638 10.6397 1.39783 12.4493 1.66184L12.8824 -1.30673C10.7344 -1.62011 8.29087 -1.56814 6.03039 -1.0331C3.78503 -0.501635 1.57452 0.543417 0.0846092 2.3418L2.39479 4.25572ZM12.4496 1.66188C14.5073 1.96171 16.497 1.81682 18.3196 1.68915L18.11 -1.30352C16.2387 -1.17243 14.5689 -1.06099 12.8821 -1.30677L12.4496 1.66188ZM18.3196 1.68915C19.1589 1.63036 19.9639 1.5742 20.7724 1.5531L20.6941 -1.44588C19.8091 -1.42278 18.9389 -1.36158 18.11 -1.30352L18.3196 1.68915ZM20.7729 1.55309C23.8917 1.47062 26.8395 2.3018 28.1867 4.09767L30.5865 2.29732C28.3369 -0.701235 24.0909 -1.5357 20.6936 -1.44586L20.7729 1.55309ZM28.1873 4.09844C29.4596 5.79198 29.5755 7.85226 28.8191 9.91306L31.6354 10.9468C32.6554 8.16784 32.6065 4.9863 30.5859 2.29655L28.1873 4.09844ZM28.8189 9.91367C28.6007 10.5088 28.244 11.0763 27.7748 11.808L30.3001 13.4275C30.7368 12.7465 31.2847 11.9035 31.6356 10.9462L28.8189 9.91367ZM27.7748 11.808C27.4352 12.3375 27.0317 12.9629 26.7101 13.643L29.4222 14.9254C29.6473 14.4495 29.9421 13.9858 30.3001 13.4275L27.7748 11.808ZM26.7098 13.6436C26.3941 14.3121 26.1697 14.9814 26.0076 15.6431L28.9214 16.3571C29.0422 15.8641 29.2036 15.3883 29.4225 14.9248L26.7098 13.6436Z" fill="black" mask="url(#path-1-inside-1_64_992)"/>
<rect x="2.05176" y="14.3384" width="26.6842" height="2.04832" fill="black"/>
<rect x="10.2627" y="16.3862" width="10.2632" height="2.04832" fill="black"/>
<rect x="10.2627" y="20.4839" width="10.2632" height="2.04832" fill="black"/>
<rect x="14.3682" y="24.5796" width="2.05263" height="2.04832" fill="black"/>
<rect x="14.3682" y="26.6279" width="2.05263" height="2.04832" fill="black"/>
<line x1="8.21094" y1="20.2339" x2="22.5794" y2="20.2339" stroke="black" stroke-width="0.5"/>
<line x1="8.21094" y1="24.3291" x2="22.5794" y2="24.3291" stroke="black" stroke-width="0.5"/>
</svg>
