<svg width="55" height="25" viewBox="0 0 55 25" fill="none" xmlns="http://www.w3.org/2000/svg">
<g clip-path="url(#clip0_69_1102)">
<path d="M0.355716 4.70832C0.376129 4.64738 0.397615 4.58644 0.419101 4.5255C1.14427 2.54366 3.03293 1.03294 5.34058 0.367175C6.70175 -0.0248286 8.18646 -0.0930427 9.60027 0.113419C10.3104 0.217104 11.0087 0.391732 11.6673 0.639122C12.155 0.822845 12.8984 1.42586 13.4388 1.32126C13.6709 1.2767 13.875 1.16301 14.0791 1.05932C16.6586 -0.256756 20.0728 -0.356804 22.7242 0.87105C24.224 1.5641 25.3617 2.71192 25.9998 4.0471C26.7196 5.55417 26.5348 6.91027 26.4371 8.46555C26.9055 8.58561 27.419 8.58651 27.9025 8.55104C28.6513 8.49556 28.5922 8.45827 28.547 7.84071C28.4751 6.84842 28.4826 5.85431 28.7393 4.87931C29.9082 0.438118 37.1642 -1.42458 41.3218 1.23122C41.4293 1.29943 41.5421 1.37401 41.6764 1.38402C42.1125 1.41676 42.8527 0.858316 43.2535 0.709155C43.9292 0.456308 44.6404 0.274404 45.3677 0.162533C47.3746 -0.144885 49.5168 0.0497521 51.2905 0.939264C53.9193 2.25807 55.1226 4.75561 54.9904 7.2859C54.8766 9.45693 53.6948 11.1041 52.8644 13.0714C53.3575 13.0532 53.8431 13.0777 54.2964 13.2705C54.6596 13.4252 55.0001 13.7171 54.9657 14.06C54.9281 14.4447 54.4382 14.6894 53.9849 14.7303C53.2984 14.7931 51.7546 14.4074 51.4097 15.0541C49.9777 17.7354 50.6523 21.0415 48.8808 23.6427C48.349 24.4231 47.2768 25.0798 46.167 24.8615C45.5214 24.7351 44.9949 24.3221 44.649 23.8428C43.5317 22.2912 43.1933 20.2111 42.8495 18.4503C42.7227 17.8 42.7603 17.0924 42.3285 16.5285C42.2898 16.4784 42.2468 16.4302 42.2006 16.3911C41.1134 15.457 40.6944 17.5789 40.5913 18.0601C40.1594 20.0801 40.0616 23.4799 37.7572 24.7296C35.8718 25.7528 34.3398 23.6045 33.8725 22.3367C33.5512 21.4635 32.6972 14.6776 31.6196 14.7376C31.5756 14.7403 31.5304 14.7376 31.4853 14.7376C29.8706 14.7376 28.2559 14.7376 26.6401 14.7376C25.395 14.7376 23.2001 14.2383 22.7736 15.5162C21.9776 17.9036 22.0291 20.4994 20.9505 22.8205C20.6132 23.5472 20.0846 24.2621 19.2627 24.6577C15.5875 26.4286 14.6689 19.1906 14.3681 17.6553C14.2832 17.2242 13.9148 15.8318 13.0607 16.241C12.8232 16.3547 12.6696 16.5266 12.5847 16.7449C12.5224 16.7968 12.5042 16.865 12.4881 16.9341C12.1335 18.4494 11.9283 20.0019 11.4127 21.4872C10.9668 22.7723 10.3759 24.9979 8.33257 24.9297C6.38375 24.8642 5.51462 23.0388 5.11175 21.6627C4.76904 20.4921 4.84424 19.2579 4.73036 18.0628C4.65301 17.2506 4.61326 16.3411 4.20932 15.5744C3.56687 14.3565 2.57849 14.7813 1.2893 14.744C0.773628 14.7294 0.195642 14.5339 0.0420138 14.1173C-0.0557496 13.8517 0.059203 13.5398 0.318115 13.3688C0.574878 13.1996 0.921885 13.176 1.24633 13.1596C1.75126 13.1332 2.08645 13.2442 2.10042 12.8422C2.10901 12.6011 1.54714 12.0236 1.41178 11.7889C0.980973 11.0477 0.633966 10.27 0.391169 9.47057C0.148372 8.6711 0.00870981 7.85435 0.000115217 7.02942C-0.00740505 6.24359 0.355716 5.46413 0.355716 4.70832V4.70832Z" fill="black"/>
<path d="M49.2486 15.6756C48.5288 17.8739 48.5514 20.2123 47.5695 22.3697C47.4298 22.6762 47.2644 22.9818 46.9926 23.2156C46.8959 23.2992 46.7691 23.3775 46.6316 23.362C45.8645 23.2747 45.5551 21.5948 45.4058 21.1082C45.12 20.1741 44.8933 19.2264 44.729 18.2714C44.5893 17.4574 44.4443 16.6015 43.9791 15.8675C42.9671 14.2977 40.4446 14.2832 39.4293 15.8712C38.8288 16.8116 38.716 18.0076 38.5108 19.049C38.2379 20.4315 37.9006 21.7949 37.17 23.0628C36.9648 23.4175 36.6081 23.4066 36.346 23.0982C35.2899 21.854 35.1342 19.9877 34.8269 18.5197C34.4874 16.9008 34.1254 15.2591 33.2595 13.7729C32.8985 13.1535 32.4967 12.5523 32.0928 11.953C31.6888 11.3536 31.4116 10.7724 31.0399 10.2085C31.0227 10.1821 31.0206 10.1539 31.0346 10.1257C31.2269 10.0384 31.4417 10.0357 31.6491 10.0275C32.3409 9.99841 33.0349 10.002 33.7279 10.0011C34.2339 10.0011 34.7367 9.95657 35.2405 9.91564C35.9399 9.92201 36.6372 9.89017 37.3333 9.82469C37.415 9.81741 37.5106 9.79013 37.5847 9.8547C37.589 10.4268 37.5976 10.9989 37.5954 11.571C37.5954 11.782 37.6535 11.9684 37.8125 12.1321C37.9274 12.2504 38.0703 12.3304 38.2379 12.3832C38.3485 12.455 38.4775 12.4314 38.5999 12.4314C40.7174 12.4323 42.8349 12.4323 44.9524 12.4314C45.0427 12.4268 45.1393 12.445 45.2124 12.3804C45.3821 12.3022 45.5487 12.2258 45.6561 12.0776C45.7904 11.8948 45.8452 11.6965 45.8463 11.4864C45.8484 10.9971 45.8473 10.5077 45.8484 10.0184C45.8484 9.84015 45.7689 9.49817 45.8527 9.33628C45.9537 9.14073 46.1524 9.1662 46.4017 9.13163C47.6232 8.96337 48.8479 8.81148 50.0619 8.60957C50.3616 8.55955 50.6678 8.50497 50.9267 8.36855C51.1856 8.23212 51.3919 7.99382 51.379 7.73552C51.3629 7.42355 51.032 7.17616 50.6764 7.09613C50.0232 6.94969 49.2454 7.16707 48.5976 7.2562C47.8004 7.36625 47.0044 7.47631 46.2072 7.58636C46.1234 7.59818 46.0332 7.6091 45.9558 7.57908C45.423 7.37353 46.045 6.08565 45.5164 5.67455C45.2393 5.45899 44.8256 5.44807 44.4496 5.44807C42.5674 5.4508 40.6863 5.45444 38.8041 5.45717C38.4334 5.45717 38.0069 5.48082 37.7824 5.73094C37.6288 5.90283 37.618 6.13476 37.6137 6.35032C37.6008 6.98335 37.5879 7.61728 37.575 8.25031C35.3888 8.39401 33.1961 8.47314 31.0034 8.48769C30.8455 8.4886 30.6757 8.48587 30.549 8.40766C30.39 8.30943 30.3491 8.12479 30.3266 7.95926C30.1396 6.61499 30.2857 5.1925 31.0904 4.02286C32.0229 2.66858 33.7923 1.79089 35.6327 1.62263C37.474 1.45437 39.3573 1.95461 40.8635 2.86504C41.1762 3.05422 41.5339 3.27159 41.9067 3.19337C42.084 3.15608 42.2322 3.05603 42.3773 2.96235C43.8695 2.00008 45.7775 1.47074 47.6436 1.629C49.5097 1.78725 51.306 2.66676 52.2739 4.0274C53.5556 5.82825 53.3031 8.17755 52.3932 10.0548C51.7078 11.4682 50.6893 12.7415 49.9201 14.1204C49.6375 14.6279 49.4216 15.1472 49.2486 15.6747V15.6756Z" fill="#DDDDDD"/>
<path d="M20.416 1.7764C23.8248 2.47037 24.9325 5.17165 24.7563 7.87747C24.7434 8.07666 24.7079 8.3004 24.5221 8.42227C24.3685 8.52232 24.1579 8.52232 23.9645 8.51777C21.9469 8.47139 19.9304 8.40317 17.9139 8.31131C17.5529 8.29403 17.4573 8.06665 17.4541 7.79016C17.4466 6.91247 17.77 5.61913 16.3991 5.41722C15.5902 5.29716 14.7704 5.45087 13.9593 5.44723C12.943 5.44268 11.9267 5.44723 10.9115 5.45815C10.2551 5.46633 9.58791 5.36447 9.32255 5.97293C9.10017 6.48227 9.5675 7.74104 8.45127 7.53458C7.24696 7.32448 6.02868 7.03253 4.79535 6.99887C3.73177 6.96977 3.3665 7.89657 4.24637 8.41955C4.62346 8.6442 5.09724 8.71332 5.55597 8.75152C6.54435 8.8352 7.52306 8.97435 8.51036 9.08895C9.68245 9.22447 9.23446 10.6006 9.21834 11.2627C9.20867 11.6438 9.21297 12.144 9.67385 12.3496C10.4592 12.6998 11.9643 12.4669 12.827 12.4669C13.6929 12.4669 14.5599 12.4569 15.4258 12.4396C16.1617 12.4242 16.7526 12.4887 17.2822 12.0122C17.6797 11.4801 16.9889 10.2095 17.5508 9.87751C17.6346 9.82748 17.7463 9.83021 17.8484 9.83476C19.9046 9.9248 21.962 10.0085 24.0171 10.1103C23.3575 11.7193 22.006 13.0617 21.2282 14.6325C19.9422 17.2319 20.3247 20.1878 18.9743 22.77C18.6724 23.3475 18.0138 23.4921 17.7195 22.8282C17.005 21.2156 16.5828 19.5712 16.2423 17.8795C16.0016 16.6816 15.6288 15.3556 14.1946 14.8035C10.8384 13.511 10.4538 17.8003 10.1057 19.4393C9.88013 20.498 9.48692 21.5239 9.09479 22.5471C8.99273 22.8145 8.86704 23.1056 8.57804 23.242C7.20184 23.8914 6.63137 19.2456 6.50568 18.6635C6.09851 16.7808 5.59787 14.8953 4.56115 13.1827C3.54806 11.5083 2.30507 9.90025 1.99029 7.99844C1.65188 5.95384 2.23524 3.48085 4.50421 2.36668C6.8312 1.22433 9.99938 1.3744 12.1749 2.70139C12.4402 2.86328 12.697 3.04337 13.0021 3.1416C13.5135 3.30713 13.8003 3.13159 14.171 2.87056C15.7674 1.74639 18.2674 1.33893 20.416 1.7764Z" fill="#DDDDDD"/>
<path d="M24.8221 12.3395C25.023 12.0321 25.2131 11.7192 25.3689 11.3936C25.4076 11.3481 25.4258 11.2935 25.4656 11.249C25.4699 11.2362 25.4731 11.2226 25.4753 11.2099C25.4978 11.1571 25.5365 11.1134 25.5709 11.0662C25.6901 10.7878 25.8266 10.515 25.9136 10.2276C25.9404 10.1375 26.0146 10.0902 26.1295 10.0921C26.2541 10.0948 26.3788 10.0939 26.5045 10.0939C27.2715 10.0939 28.0386 10.0921 28.8057 10.0939C28.9238 10.0939 29.0646 10.062 29.1161 10.2039C29.1774 10.2867 29.1419 10.3986 29.2257 10.475C29.3127 10.7624 29.4642 11.027 29.6071 11.2972C29.9262 11.8965 30.2968 12.4705 30.7104 13.0262C30.747 13.0753 30.7727 13.1371 30.7169 13.1953C30.6481 13.2499 30.5633 13.2254 30.487 13.2254C28.5134 13.2272 26.5388 13.2281 24.5653 13.2235C24.4514 13.2235 24.2462 13.2927 24.2903 13.0698C24.4332 12.8734 24.576 12.6769 24.72 12.4805C24.7533 12.4332 24.7834 12.385 24.8231 12.3413L24.8221 12.3395Z" fill="white"/>
<path d="M39.4209 9.75075C39.6669 9.72255 39.8947 9.69072 40.1246 9.67162C40.6489 9.62887 41.1731 9.59431 41.6974 9.55247C42.3012 9.50518 42.906 9.46152 43.5076 9.40058C44.0147 9.34965 44.0136 9.33965 44.0136 9.76166C44.0136 10.0563 44.0147 10.351 44.0136 10.6466C44.0126 10.8422 43.9836 10.8686 43.7504 10.8695C43.1434 10.8722 42.5364 10.8695 41.9284 10.8695C41.1785 10.8695 40.4286 10.8695 39.6777 10.8695C39.4241 10.8695 39.423 10.8667 39.422 10.6585C39.4198 10.3565 39.422 10.0554 39.422 9.74984L39.4209 9.75075Z" fill="#FEFEFE"/>
<path d="M13.3307 11.0761C12.6689 11.0761 12.0082 11.0761 11.3464 11.0734C10.9404 11.0734 10.993 10.5331 11.0048 10.3112C11.0166 10.0893 10.9339 9.5472 11.2938 9.58813C12.6152 9.73729 13.9571 9.80005 15.2838 9.90919C15.3859 9.91738 15.4955 9.92829 15.575 9.98377C15.7533 10.1084 15.6255 10.7305 15.6223 10.9097C15.6201 11.0688 15.6147 11.0725 15.4214 11.0734C14.7241 11.0752 14.0269 11.0761 13.3297 11.077L13.3307 11.0761Z" fill="white"/>
<path d="M15.5909 7.01965C14.1975 7.01965 12.8041 7.01965 11.4107 7.02056C11.3484 7.02056 11.285 7.02329 11.2227 7.02056C11.1196 7.01692 11.0798 7.05694 11.082 7.14243C11.0863 7.31615 11.0852 7.48987 11.083 7.6645C11.083 7.76 11.1378 7.80184 11.2463 7.80093C11.704 7.79547 12.1509 7.87824 12.6054 7.90461C13.2016 7.93918 13.7946 8.00466 14.3898 8.05377C14.6208 8.07287 14.8528 8.07833 15.0838 8.09652C15.2525 8.11016 15.4201 8.13472 15.5877 8.15382C15.4416 8.25751 15.2643 8.21567 15.1214 8.18384C14.7476 8.10107 14.3694 8.1229 13.9934 8.10744C13.8484 8.07742 13.6979 8.06651 13.5529 8.03377C12.9287 8.04013 12.3164 7.89097 11.69 7.9228C11.5611 7.89279 11.429 7.87824 11.299 7.85186C11.2549 7.84913 11.2098 7.84458 11.1658 7.84458C11.0336 7.84277 10.9735 7.7891 10.9767 7.6745C10.981 7.49351 10.9821 7.31161 10.9767 7.13061C10.9735 7.0242 11.0358 6.97872 11.1497 6.97144C11.212 6.96781 11.2743 6.96872 11.3366 6.96872C12.6655 6.96872 13.9945 6.96781 15.3234 6.97144C15.4115 6.97144 15.5211 6.92506 15.5898 7.01874L15.5909 7.01965Z" fill="#776565"/>
<path d="M41.7015 7.02967C42.3708 7.02967 43.0401 7.02967 43.7094 7.02967C43.9243 7.02967 43.9253 7.03331 43.9286 7.21885C43.9307 7.36255 43.9264 7.50626 43.9286 7.64905C43.9296 7.74091 43.8888 7.79548 43.7739 7.78912C43.2367 7.76092 42.7103 7.86552 42.1785 7.90281C41.6403 7.94101 41.0945 7.94919 40.5616 8.04287C40.3811 8.07471 40.1888 8.06288 40.0019 8.06925C39.8773 8.0738 39.7527 8.0738 39.6302 8.09927C39.5152 8.12382 39.4658 8.07926 39.4658 7.98103C39.468 7.7018 39.468 7.42167 39.4658 7.14245C39.4658 7.05241 39.5174 7.02512 39.6141 7.02694C39.7473 7.02967 39.8816 7.02694 40.0159 7.02694C40.5777 7.02694 41.1396 7.02694 41.7026 7.02694L41.7015 7.02967Z" fill="white"/>
<path d="M13.276 6.93243C12.756 6.94152 12.2361 6.93334 11.7247 6.8915C11.5399 6.87695 11.1166 6.7678 10.9941 6.95789C10.8792 7.13889 10.9748 7.54363 10.9748 7.74463C10.9748 7.78192 10.9748 7.82103 10.9995 7.85195C11.094 7.97201 11.6527 7.88743 11.7999 7.89106C12.1748 7.90107 12.5487 7.93745 12.9193 7.98383C13.6434 8.07388 14.3589 8.20849 15.0852 8.29034C15.4569 8.33218 15.6309 8.15573 15.6567 7.86014C15.6932 7.44904 15.7083 6.98973 15.1249 6.89241C14.9412 6.86149 14.751 6.87331 14.5641 6.8824C14.1387 6.90423 13.7079 6.92424 13.276 6.93152V6.93243Z" fill="white"/>
</g>
<defs>
<clipPath id="clip0_69_1102">
<rect width="55" height="25" fill="white"/>
</clipPath>
</defs>
</svg>
