<svg width="55" height="25" viewBox="0 0 55 25" fill="none" xmlns="http://www.w3.org/2000/svg">
<path d="M0.355716 4.70881C0.376129 4.64787 0.397615 4.58693 0.419101 4.52599C1.14427 2.54415 3.03293 1.03343 5.34058 0.367663C6.70175 -0.0243403 8.18646 -0.0925544 9.60027 0.113907C10.3104 0.217592 11.0087 0.39222 11.6673 0.63961C12.155 0.823333 12.8984 1.42635 13.4388 1.32175C13.6709 1.27718 13.875 1.16349 14.0791 1.05981C16.6586 -0.256268 20.0728 -0.356315 22.7242 0.871538C24.224 1.56459 25.3617 2.71241 25.9998 4.04758C26.7196 5.55466 26.5348 6.91076 26.4371 8.46604C26.9055 8.58609 27.419 8.587 27.9025 8.55153C28.6513 8.49605 28.5922 8.45876 28.547 7.8412C28.4751 6.84891 28.4826 5.8548 28.7393 4.8798C29.9082 0.438606 37.1642 -1.42409 41.3218 1.23171C41.4293 1.29992 41.5421 1.3745 41.6764 1.38451C42.1125 1.41725 42.8527 0.858804 43.2535 0.709643C43.9292 0.456796 44.6404 0.274892 45.3677 0.163021C47.3746 -0.144397 49.5168 0.0502404 51.2905 0.939752C53.9193 2.25856 55.1226 4.7561 54.9904 7.28639C54.8766 9.45742 53.6948 11.1046 52.8644 13.0719C53.3575 13.0537 53.8431 13.0782 54.2964 13.271C54.6596 13.4257 55.0001 13.7176 54.9657 14.0605C54.9281 14.4452 54.4382 14.6899 53.9849 14.7308C53.2984 14.7936 51.7546 14.4079 51.4097 15.0546C49.9777 17.7359 50.6523 21.042 48.8808 23.6432C48.349 24.4236 47.2768 25.0803 46.167 24.862C45.5214 24.7355 44.9949 24.3226 44.649 23.8433C43.5317 22.2917 43.1933 20.2116 42.8495 18.4508C42.7227 17.8005 42.7603 17.0928 42.3285 16.5289C42.2898 16.4789 42.2468 16.4307 42.2006 16.3916C41.1134 15.4575 40.6944 17.5794 40.5913 18.0606C40.1594 20.0806 40.0616 23.4804 37.7572 24.7301C35.8718 25.7533 34.3398 23.605 33.8725 22.3371C33.5512 21.464 32.6972 14.6781 31.6196 14.7381C31.5756 14.7408 31.5304 14.7381 31.4853 14.7381C29.8706 14.7381 28.2559 14.7381 26.6401 14.7381C25.395 14.7381 23.2001 14.2388 22.7736 15.5166C21.9776 17.9041 22.0291 20.4999 20.9505 22.821C20.6132 23.5477 20.0846 24.2626 19.2627 24.6582C15.5875 26.4291 14.6689 19.1911 14.3681 17.6558C14.2832 17.2247 13.9148 15.8322 13.0607 16.2415C12.8232 16.3552 12.6696 16.5271 12.5847 16.7454C12.5224 16.7972 12.5042 16.8655 12.4881 16.9346C12.1335 18.4498 11.9283 20.0024 11.4127 21.4876C10.9668 22.7728 10.3759 24.9984 8.33257 24.9302C6.38375 24.8647 5.51462 23.0393 5.11175 21.6632C4.76904 20.4926 4.84424 19.2584 4.73036 18.0633C4.65301 17.2511 4.61326 16.3416 4.20932 15.5749C3.56687 14.357 2.57849 14.7818 1.2893 14.7445C0.773628 14.7299 0.195642 14.5344 0.0420138 14.1178C-0.0557496 13.8522 0.059203 13.5403 0.318115 13.3693C0.574878 13.2001 0.921885 13.1764 1.24633 13.1601C1.75126 13.1337 2.08645 13.2447 2.10042 12.8427C2.10901 12.6016 1.54714 12.0241 1.41178 11.7894C0.980973 11.0482 0.633966 10.2705 0.391169 9.47106C0.148372 8.67159 0.00870981 7.85484 0.000115217 7.0299C-0.00740505 6.24408 0.355716 5.46462 0.355716 4.70881V4.70881Z" fill="black"/>
<path d="M49.2486 15.6761C48.5288 17.8744 48.5514 20.2128 47.5695 22.3702C47.4298 22.6767 47.2644 22.9823 46.9926 23.2161C46.8959 23.2997 46.7691 23.3779 46.6316 23.3625C45.8645 23.2752 45.5551 21.5953 45.4058 21.1087C45.12 20.1746 44.8933 19.2269 44.729 18.2719C44.5893 17.4579 44.4443 16.602 43.9791 15.868C42.9671 14.2982 40.4446 14.2836 39.4293 15.8717C38.8288 16.8121 38.716 18.0081 38.5108 19.0495C38.2379 20.432 37.9006 21.7954 37.17 23.0633C36.9648 23.418 36.6081 23.4071 36.346 23.0987C35.2899 21.8545 35.1342 19.9882 34.8269 18.5202C34.4874 16.9012 34.1254 15.2596 33.2595 13.7734C32.8985 13.154 32.4967 12.5528 32.0928 11.9535C31.6888 11.3541 31.4116 10.7729 31.0399 10.209C31.0227 10.1826 31.0206 10.1544 31.0346 10.1262C31.2269 10.0389 31.4417 10.0362 31.6491 10.028C32.3409 9.9989 33.0349 10.0025 33.7279 10.0016C34.2339 10.0016 34.7367 9.95706 35.2405 9.91613C35.9399 9.9225 36.6372 9.89066 37.3333 9.82518C37.415 9.8179 37.5106 9.79061 37.5847 9.85519C37.589 10.4273 37.5976 10.9994 37.5954 11.5715C37.5954 11.7825 37.6535 11.9689 37.8125 12.1326C37.9274 12.2509 38.0703 12.3309 38.2379 12.3837C38.3485 12.4555 38.4775 12.4319 38.5999 12.4319C40.7174 12.4328 42.8349 12.4328 44.9524 12.4319C45.0427 12.4273 45.1393 12.4455 45.2124 12.3809C45.3821 12.3027 45.5487 12.2263 45.6561 12.0781C45.7904 11.8952 45.8452 11.697 45.8463 11.4869C45.8484 10.9975 45.8473 10.5082 45.8484 10.0189C45.8484 9.84064 45.7689 9.49866 45.8527 9.33676C45.9537 9.14122 46.1524 9.16668 46.4017 9.13212C47.6232 8.96386 48.8479 8.81197 50.0619 8.61006C50.3616 8.56003 50.6678 8.50546 50.9267 8.36903C51.1856 8.23261 51.3919 7.99431 51.379 7.73601C51.3629 7.42404 51.032 7.17665 50.6764 7.09661C50.0232 6.95018 49.2454 7.16756 48.5976 7.25669C47.8004 7.36674 47.0044 7.47679 46.2072 7.58685C46.1234 7.59867 46.0332 7.60958 45.9558 7.57957C45.423 7.37402 46.045 6.08614 45.5164 5.67503C45.2393 5.45948 44.8256 5.44856 44.4496 5.44856C42.5674 5.45129 40.6863 5.45493 38.8041 5.45766C38.4334 5.45766 38.0069 5.48131 37.7824 5.73142C37.6288 5.90332 37.618 6.13525 37.6137 6.35081C37.6008 6.98383 37.5879 7.61777 37.575 8.2508C35.3888 8.3945 33.1961 8.47363 31.0034 8.48818C30.8455 8.48909 30.6757 8.48636 30.549 8.40814C30.39 8.30992 30.3491 8.12528 30.3266 7.95975C30.1396 6.61548 30.2857 5.19299 31.0904 4.02334C32.0229 2.66907 33.7923 1.79138 35.6327 1.62312C37.474 1.45486 39.3573 1.95509 40.8635 2.86552C41.1762 3.0547 41.5339 3.27208 41.9067 3.19386C42.084 3.15657 42.2322 3.05652 42.3773 2.96284C43.8695 2.00057 45.7775 1.47123 47.6436 1.62949C49.5097 1.78774 51.306 2.66725 52.2739 4.02789C53.5556 5.82874 53.3031 8.17804 52.3932 10.0553C51.7078 11.4687 50.6893 12.742 49.9201 14.1208C49.6375 14.6284 49.4216 15.1477 49.2486 15.6752V15.6761Z" fill="#DDDDDD"/>
<path d="M20.416 1.77689C23.8248 2.47086 24.9325 5.17214 24.7563 7.87796C24.7434 8.07715 24.7079 8.30089 24.5221 8.42276C24.3685 8.52281 24.1579 8.52281 23.9645 8.51826C21.9469 8.47188 19.9304 8.40366 17.9139 8.3118C17.5529 8.29452 17.4573 8.06714 17.4541 7.79065C17.4466 6.91296 17.77 5.61962 16.3991 5.41771C15.5902 5.29765 14.7704 5.45136 13.9593 5.44772C12.943 5.44317 11.9267 5.44772 10.9115 5.45863C10.2551 5.46682 9.58791 5.36495 9.32255 5.97342C9.10017 6.48275 9.5675 7.74153 8.45127 7.53507C7.24696 7.32497 6.02868 7.03301 4.79535 6.99936C3.73177 6.97026 3.3665 7.89706 4.24637 8.42003C4.62346 8.64469 5.09724 8.71381 5.55597 8.75201C6.54435 8.83569 7.52306 8.97484 8.51036 9.08944C9.68245 9.22496 9.23446 10.6011 9.21834 11.2632C9.20867 11.6443 9.21297 12.1445 9.67385 12.3501C10.4592 12.7002 11.9643 12.4674 12.827 12.4674C13.6929 12.4674 14.5599 12.4574 15.4258 12.4401C16.1617 12.4247 16.7526 12.4892 17.2822 12.0126C17.6797 11.4806 16.9889 10.21 17.5508 9.878C17.6346 9.82797 17.7463 9.8307 17.8484 9.83525C19.9046 9.92529 21.962 10.009 24.0171 10.1108C23.3575 11.7198 22.006 13.0622 21.2282 14.633C19.9422 17.2324 20.3247 20.1883 18.9743 22.7705C18.6724 23.348 18.0138 23.4926 17.7195 22.8287C17.005 21.2161 16.5828 19.5717 16.2423 17.88C16.0016 16.6821 15.6288 15.356 14.1946 14.804C10.8384 13.5115 10.4538 17.8008 10.1057 19.4398C9.88013 20.4985 9.48692 21.5244 9.09479 22.5476C8.99273 22.815 8.86704 23.1061 8.57804 23.2425C7.20184 23.8919 6.63137 19.2461 6.50568 18.664C6.09851 16.7813 5.59787 14.8958 4.56115 13.1832C3.54806 11.5088 2.30507 9.90074 1.99029 7.99893C1.65188 5.95432 2.23524 3.48134 4.50421 2.36717C6.8312 1.22481 9.99938 1.37488 12.1749 2.70188C12.4402 2.86377 12.697 3.04386 13.0021 3.14208C13.5135 3.30762 13.8003 3.13208 14.171 2.87105C15.7674 1.74688 18.2674 1.33941 20.416 1.77689Z" fill="#DDDDDD"/>
<path d="M24.8221 12.34C25.023 12.0326 25.2131 11.7197 25.3689 11.3941C25.4076 11.3486 25.4258 11.294 25.4656 11.2495C25.4699 11.2367 25.4731 11.2231 25.4753 11.2103C25.4978 11.1576 25.5365 11.1139 25.5709 11.0666C25.6901 10.7883 25.8266 10.5155 25.9136 10.2281C25.9404 10.138 26.0146 10.0907 26.1295 10.0925C26.2541 10.0953 26.3788 10.0944 26.5045 10.0944C27.2715 10.0944 28.0386 10.0925 28.8057 10.0944C28.9238 10.0944 29.0646 10.0625 29.1161 10.2044C29.1774 10.2872 29.1419 10.3991 29.2257 10.4755C29.3127 10.7629 29.4642 11.0275 29.6071 11.2977C29.9262 11.897 30.2968 12.4709 30.7104 13.0267C30.747 13.0758 30.7727 13.1376 30.7169 13.1958C30.6481 13.2504 30.5633 13.2258 30.487 13.2258C28.5134 13.2277 26.5388 13.2286 24.5653 13.224C24.4514 13.224 24.2462 13.2931 24.2903 13.0703C24.4332 12.8739 24.576 12.6774 24.72 12.4809C24.7533 12.4337 24.7834 12.3854 24.8231 12.3418L24.8221 12.34Z" fill="white"/>
<path d="M39.4209 9.75124C39.6669 9.72304 39.8947 9.69121 40.1246 9.67211C40.6489 9.62936 41.1731 9.5948 41.6974 9.55296C42.3012 9.50567 42.906 9.46201 43.5076 9.40107C44.0147 9.35014 44.0136 9.34013 44.0136 9.76215C44.0136 10.0568 44.0147 10.3515 44.0136 10.6471C44.0126 10.8427 43.9836 10.869 43.7504 10.8699C43.1434 10.8727 42.5364 10.8699 41.9284 10.8699C41.1785 10.8699 40.4286 10.8699 39.6777 10.8699C39.4241 10.8699 39.423 10.8672 39.422 10.6589C39.4198 10.357 39.422 10.0559 39.422 9.75033L39.4209 9.75124Z" fill="#FEFEFE"/>
<path d="M13.3307 11.0766C12.6689 11.0766 12.0082 11.0766 11.3464 11.0739C10.9404 11.0739 10.993 10.5336 11.0048 10.3117C11.0166 10.0898 10.9339 9.54769 11.2938 9.58862C12.6152 9.73778 13.9571 9.80054 15.2838 9.90968C15.3859 9.91787 15.4955 9.92878 15.575 9.98426C15.7533 10.1089 15.6255 10.731 15.6223 10.9102C15.6201 11.0693 15.6147 11.073 15.4214 11.0739C14.7241 11.0757 14.0269 11.0766 13.3297 11.0775L13.3307 11.0766Z" fill="white"/>
<path d="M15.5909 7.02014C14.1975 7.02014 12.8041 7.02014 11.4107 7.02105C11.3484 7.02105 11.285 7.02378 11.2227 7.02105C11.1196 7.01741 11.0798 7.05743 11.082 7.14292C11.0863 7.31664 11.0852 7.49036 11.083 7.66499C11.083 7.76049 11.1378 7.80233 11.2463 7.80142C11.704 7.79596 12.1509 7.87873 12.6054 7.9051C13.2016 7.93966 13.7946 8.00515 14.3898 8.05426C14.6208 8.07336 14.8528 8.07882 15.0838 8.09701C15.2525 8.11065 15.4201 8.13521 15.5877 8.15431C15.4416 8.258 15.2643 8.21616 15.1214 8.18432C14.7476 8.10156 14.3694 8.12339 13.9934 8.10792C13.8484 8.07791 13.6979 8.067 13.5529 8.03425C12.9287 8.04062 12.3164 7.89146 11.69 7.92329C11.5611 7.89328 11.429 7.87873 11.299 7.85235C11.2549 7.84962 11.2098 7.84507 11.1658 7.84507C11.0336 7.84325 10.9735 7.78959 10.9767 7.67499C10.981 7.494 10.9821 7.31209 10.9767 7.1311C10.9735 7.02469 11.0358 6.97921 11.1497 6.97193C11.212 6.96829 11.2743 6.9692 11.3366 6.9692C12.6655 6.9692 13.9945 6.96829 15.3234 6.97193C15.4115 6.97193 15.5211 6.92555 15.5898 7.01923L15.5909 7.02014Z" fill="#776565"/>
<path d="M41.7015 7.03016C42.3708 7.03016 43.0401 7.03016 43.7094 7.03016C43.9243 7.03016 43.9253 7.03379 43.9286 7.21934C43.9307 7.36304 43.9264 7.50675 43.9286 7.64954C43.9296 7.7414 43.8888 7.79597 43.7739 7.78961C43.2367 7.76141 42.7103 7.86601 42.1785 7.9033C41.6403 7.9415 41.0945 7.94968 40.5616 8.04336C40.3811 8.0752 40.1888 8.06337 40.0019 8.06974C39.8773 8.07429 39.7527 8.07429 39.6302 8.09975C39.5152 8.12431 39.4658 8.07974 39.4658 7.98152C39.468 7.70229 39.468 7.42216 39.4658 7.14294C39.4658 7.05289 39.5174 7.02561 39.6141 7.02743C39.7473 7.03016 39.8816 7.02743 40.0159 7.02743C40.5777 7.02743 41.1396 7.02743 41.7026 7.02743L41.7015 7.03016Z" fill="white"/>
<path d="M13.276 6.93292C12.756 6.94201 12.2361 6.93383 11.7247 6.89199C11.5399 6.87744 11.1166 6.76829 10.9941 6.95838C10.8792 7.13938 10.9748 7.54411 10.9748 7.74512C10.9748 7.78241 10.9748 7.82152 10.9995 7.85244C11.094 7.9725 11.6527 7.88791 11.7999 7.89155C12.1748 7.90156 12.5487 7.93794 12.9193 7.98432C13.6434 8.07436 14.3589 8.20897 15.0852 8.29083C15.4569 8.33267 15.6309 8.15622 15.6567 7.86063C15.6932 7.44952 15.7083 6.99022 15.1249 6.8929C14.9412 6.86197 14.751 6.8738 14.5641 6.88289C14.1387 6.90472 13.7079 6.92473 13.276 6.93201V6.93292Z" fill="white"/>
</svg>
