<svg width="43" height="41" viewBox="0 0 43 41" fill="none" xmlns="http://www.w3.org/2000/svg">
<path d="M18.5469 20.4912L20.8023 22.7252L9.0582 34.5824L6.80274 32.3484L18.5469 20.4912Z" fill="#D9D9D9"/>
<path d="M24.4824 15L26.7379 17.2339L23.2554 20.75L20.9999 18.516L24.4824 15Z" fill="#D9D9D9"/>
<mask id="path-3-inside-1_67_1054" fill="white">
<path d="M42.3087 3.7147L37.3419 3.1587C37.2254 3.14488 37.1073 3.15803 36.9966 3.19716C36.8859 3.23628 36.7856 3.30035 36.7032 3.38447L31.7342 8.39072L31.7304 8.38688C31.594 8.24828 31.4111 8.16607 31.2176 8.15641C31.0241 8.14675 30.834 8.21033 30.6846 8.33466L21.0052 16.3115L19.1017 14.3938C18.7531 14.0713 18.3179 13.8597 17.8504 13.7855C17.383 13.7113 16.9042 13.7778 16.4741 13.9767L11.8182 9.28586C12.3976 8.35275 12.7083 7.27582 12.7156 6.1752C12.6829 4.50792 11.9954 2.92174 10.8037 1.76435C9.61207 0.606971 8.01356 -0.0271792 6.35859 0.000915582C4.70338 -0.0274999 3.10453 0.606496 1.91257 1.7639C0.720613 2.92131 0.032825 4.50768 0 6.1752C0.032825 7.84271 0.720611 9.42908 1.91256 10.5865C3.10452 11.7439 4.70337 12.3779 6.35857 12.3495C8.03326 12.3554 9.64474 11.7057 10.853 10.5374L15.3467 15.0647C15.1335 15.5042 15.0622 15.9999 15.1429 16.4823C15.2236 16.9647 15.4522 17.4095 15.7966 17.7543L17.464 19.429L5.26964 31.7262C5.26193 31.7334 5.25173 31.7356 5.24419 31.7432C5.23666 31.7507 5.23438 31.761 5.22724 31.7689L1.38728 35.6413C1.09604 35.9325 0.865076 36.279 0.707795 36.6607C0.550515 37.0425 0.470049 37.4519 0.471066 37.8652C0.474094 38.6987 0.803322 39.4973 1.38727 40.0877C1.67597 40.3781 2.01879 40.6083 2.39605 40.7648C2.7733 40.9214 3.17755 41.0013 3.58555 41C4.41492 41.0008 5.21123 40.6724 5.80213 40.0861L21.8823 23.8703L37.8846 39.994C38.3249 40.4355 38.9213 40.6828 39.5426 40.6814C40.1638 40.6799 40.7591 40.4299 41.1973 39.9863C41.6356 39.5427 41.881 38.9418 41.8796 38.3159C41.8781 37.69 41.63 37.0903 41.1897 36.6487L24.9708 20.3084L32.8905 10.5571C33.0133 10.4064 33.076 10.215 33.0664 10.0202C33.0568 9.82547 32.9756 9.64127 32.8387 9.50349L37.5417 4.76373L42.1349 5.27826C42.3403 5.30072 42.5462 5.24024 42.7075 5.11006C42.8687 4.97988 42.9722 4.79062 42.9951 4.58374C43.0181 4.37686 42.9588 4.16923 42.8301 4.00634C42.7015 3.84345 42.5139 3.73857 42.3087 3.7147ZM6.35859 10.7767C5.11736 10.8052 3.91551 10.337 3.01629 9.47447C2.11707 8.61199 1.59379 7.42561 1.56106 6.1752C1.59379 4.92478 2.11707 3.7384 3.01629 2.87592C3.91551 2.01344 5.11736 1.54516 6.35859 1.57367C7.59966 1.54522 8.80131 2.01356 9.70027 2.87607C10.5992 3.73858 11.1222 4.92494 11.1546 6.1752C11.1222 7.42546 10.5992 8.61181 9.70027 9.47432C8.80131 10.3368 7.59966 10.8052 6.35859 10.7767ZM4.70148 38.9711C4.48363 39.1918 4.20568 39.3425 3.9028 39.4041C3.59992 39.4657 3.28571 39.4354 2.99994 39.317C2.71417 39.1986 2.46967 38.9975 2.29739 38.7391C2.1251 38.4806 2.03276 38.1766 2.03206 37.8653C2.03183 37.6582 2.07241 37.4531 2.15144 37.262C2.23047 37.0708 2.34638 36.8974 2.49245 36.7517L5.80056 33.4158L8.00654 35.6382L4.70148 38.9711ZM9.10969 34.5256L6.90381 32.3032L18.5695 20.5392L20.2145 22.1915L20.7786 22.7582L9.10969 34.5256ZM21.0514 20.2396L20.7647 20.5264L16.9003 16.6423C16.7568 16.4962 16.6748 16.2998 16.6718 16.0942C16.6687 15.8886 16.7446 15.6898 16.8838 15.5393C16.8906 15.5329 16.8998 15.5309 16.9064 15.5242L16.9091 15.5202C17.0588 15.3813 17.2533 15.3014 17.4568 15.2953C17.6641 15.296 17.8633 15.3768 18.0132 15.5211L21.8762 19.4146L21.3534 19.9377L21.0514 20.2396ZM40.086 37.7608C40.2312 37.9108 40.3124 38.1119 40.3124 38.3214C40.3124 38.5309 40.2312 38.732 40.086 38.882C39.9402 39.0281 39.7429 39.1101 39.5372 39.1101C39.3316 39.1101 39.1343 39.0281 38.9884 38.882L22.4265 22.1945L21.8716 21.6355L22.3899 21.1169L22.9801 20.5268L23.3672 20.9167L40.086 37.7608ZM23.8611 19.1888L23.5348 18.8601L22.1154 17.4301L24.1285 15.7707L25.5084 17.1609L23.8611 19.1888ZM26.502 15.9379L25.3428 14.77L31.1267 10.0026L31.2349 10.1117L26.502 15.9379Z"/>
</mask>
<path d="M42.3087 3.7147L37.3419 3.1587C37.2254 3.14488 37.1073 3.15803 36.9966 3.19716C36.8859 3.23628 36.7856 3.30035 36.7032 3.38447L31.7342 8.39072L31.7304 8.38688C31.594 8.24828 31.4111 8.16607 31.2176 8.15641C31.0241 8.14675 30.834 8.21033 30.6846 8.33466L21.0052 16.3115L19.1017 14.3938C18.7531 14.0713 18.3179 13.8597 17.8504 13.7855C17.383 13.7113 16.9042 13.7778 16.4741 13.9767L11.8182 9.28586C12.3976 8.35275 12.7083 7.27582 12.7156 6.1752C12.6829 4.50792 11.9954 2.92174 10.8037 1.76435C9.61207 0.606971 8.01356 -0.0271792 6.35859 0.000915582C4.70338 -0.0274999 3.10453 0.606496 1.91257 1.7639C0.720613 2.92131 0.032825 4.50768 0 6.1752C0.032825 7.84271 0.720611 9.42908 1.91256 10.5865C3.10452 11.7439 4.70337 12.3779 6.35857 12.3495C8.03326 12.3554 9.64474 11.7057 10.853 10.5374L15.3467 15.0647C15.1335 15.5042 15.0622 15.9999 15.1429 16.4823C15.2236 16.9647 15.4522 17.4095 15.7966 17.7543L17.464 19.429L5.26964 31.7262C5.26193 31.7334 5.25173 31.7356 5.24419 31.7432C5.23666 31.7507 5.23438 31.761 5.22724 31.7689L1.38728 35.6413C1.09604 35.9325 0.865076 36.279 0.707795 36.6607C0.550515 37.0425 0.470049 37.4519 0.471066 37.8652C0.474094 38.6987 0.803322 39.4973 1.38727 40.0877C1.67597 40.3781 2.01879 40.6083 2.39605 40.7648C2.7733 40.9214 3.17755 41.0013 3.58555 41C4.41492 41.0008 5.21123 40.6724 5.80213 40.0861L21.8823 23.8703L37.8846 39.994C38.3249 40.4355 38.9213 40.6828 39.5426 40.6814C40.1638 40.6799 40.7591 40.4299 41.1973 39.9863C41.6356 39.5427 41.881 38.9418 41.8796 38.3159C41.8781 37.69 41.63 37.0903 41.1897 36.6487L24.9708 20.3084L32.8905 10.5571C33.0133 10.4064 33.076 10.215 33.0664 10.0202C33.0568 9.82547 32.9756 9.64127 32.8387 9.50349L37.5417 4.76373L42.1349 5.27826C42.3403 5.30072 42.5462 5.24024 42.7075 5.11006C42.8687 4.97988 42.9722 4.79062 42.9951 4.58374C43.0181 4.37686 42.9588 4.16923 42.8301 4.00634C42.7015 3.84345 42.5139 3.73857 42.3087 3.7147ZM6.35859 10.7767C5.11736 10.8052 3.91551 10.337 3.01629 9.47447C2.11707 8.61199 1.59379 7.42561 1.56106 6.1752C1.59379 4.92478 2.11707 3.7384 3.01629 2.87592C3.91551 2.01344 5.11736 1.54516 6.35859 1.57367C7.59966 1.54522 8.80131 2.01356 9.70027 2.87607C10.5992 3.73858 11.1222 4.92494 11.1546 6.1752C11.1222 7.42546 10.5992 8.61181 9.70027 9.47432C8.80131 10.3368 7.59966 10.8052 6.35859 10.7767ZM4.70148 38.9711C4.48363 39.1918 4.20568 39.3425 3.9028 39.4041C3.59992 39.4657 3.28571 39.4354 2.99994 39.317C2.71417 39.1986 2.46967 38.9975 2.29739 38.7391C2.1251 38.4806 2.03276 38.1766 2.03206 37.8653C2.03183 37.6582 2.07241 37.4531 2.15144 37.262C2.23047 37.0708 2.34638 36.8974 2.49245 36.7517L5.80056 33.4158L8.00654 35.6382L4.70148 38.9711ZM9.10969 34.5256L6.90381 32.3032L18.5695 20.5392L20.2145 22.1915L20.7786 22.7582L9.10969 34.5256ZM21.0514 20.2396L20.7647 20.5264L16.9003 16.6423C16.7568 16.4962 16.6748 16.2998 16.6718 16.0942C16.6687 15.8886 16.7446 15.6898 16.8838 15.5393C16.8906 15.5329 16.8998 15.5309 16.9064 15.5242L16.9091 15.5202C17.0588 15.3813 17.2533 15.3014 17.4568 15.2953C17.6641 15.296 17.8633 15.3768 18.0132 15.5211L21.8762 19.4146L21.3534 19.9377L21.0514 20.2396ZM40.086 37.7608C40.2312 37.9108 40.3124 38.1119 40.3124 38.3214C40.3124 38.5309 40.2312 38.732 40.086 38.882C39.9402 39.0281 39.7429 39.1101 39.5372 39.1101C39.3316 39.1101 39.1343 39.0281 38.9884 38.882L22.4265 22.1945L21.8716 21.6355L22.3899 21.1169L22.9801 20.5268L23.3672 20.9167L40.086 37.7608ZM23.8611 19.1888L23.5348 18.8601L22.1154 17.4301L24.1285 15.7707L25.5084 17.1609L23.8611 19.1888ZM26.502 15.9379L25.3428 14.77L31.1267 10.0026L31.2349 10.1117L26.502 15.9379Z" fill="white" stroke="black" stroke-width="2" mask="url(#path-3-inside-1_67_1054)"/>
<circle cx="6.2998" cy="6.1001" r="5" fill="#D9D9D9"/>
<path d="M21.5498 21.3459L22.7685 20.1357L40.1622 37.651C40.4964 37.9876 40.4945 38.5313 40.158 38.8655V38.8655C39.8215 39.1997 39.2777 39.1978 38.9436 38.8613L21.5498 21.3459Z" fill="#D9D9D9"/>
</svg>
