<svg width="29" height="28" viewBox="0 0 29 28" fill="none" xmlns="http://www.w3.org/2000/svg">
<path d="M19.8731 27.192C19.9263 27.1892 19.9681 27.1869 20.0078 27.1836L20.0081 27.1848C22.0051 27.0316 23.3692 25.5159 23.8835 23.9079L23.8836 23.9077C24.3207 22.5421 24.3814 21.1449 24.4471 19.633C24.4541 19.4736 24.4611 19.3129 24.4685 19.1508C24.5453 17.4894 24.677 15.7075 25.4807 13.9676L25.4808 13.9673C25.7572 13.3695 26.1107 12.8064 26.4339 12.2913C26.482 12.2147 26.5294 12.1392 26.5758 12.0647C26.9467 11.4696 27.2649 10.9274 27.47 10.3552L27.4701 10.3549C28.2351 8.22382 28.1411 6.00049 26.788 4.15867L26.7877 4.15828C25.3351 2.17832 22.3089 1.38762 19.3465 1.46772L19.3463 1.46773C18.5688 1.48848 17.8229 1.54209 17.0613 1.59683C16.5861 1.63098 16.1049 1.66557 15.606 1.69288C14.3406 1.76219 13.0364 1.77768 11.6958 1.57795L11.6957 1.57793C9.93765 1.31566 7.93678 1.36264 6.11969 1.80244C4.29622 2.24378 2.72773 3.06239 1.73868 4.28291L19.8731 27.192ZM19.8731 27.192C19.3526 27.213 18.9018 27.0761 18.614 26.8341M19.8731 27.192L18.614 26.8341M18.614 26.8341C18.3566 26.6177 18.1914 26.2229 18.1097 25.6087C18.0705 25.3142 18.0546 25.0035 18.0442 24.6846C18.0418 24.6079 18.0396 24.5288 18.0374 24.4489C18.0308 24.2132 18.0241 23.9699 18.0087 23.756L18.614 26.8341ZM13.5342 16.2407L13.6174 16.1693C14.0154 15.8278 14.4847 15.8273 14.8389 15.9276C15.1706 16.0216 15.4667 16.2155 15.6935 16.3946C16.149 16.7542 16.548 17.2348 16.7077 17.4894C17.327 18.4759 17.611 19.6011 17.7632 20.6785C17.8727 21.4535 17.919 22.2562 17.9609 22.9832C17.9764 23.2528 17.9914 23.512 18.0087 23.7555L13.5342 16.2407ZM13.5342 16.2407C13.467 16.2878 13.3814 16.3469 13.2906 16.4097L13.2725 16.4222C13.1676 16.4947 13.0573 16.571 12.9697 16.6327C12.9261 16.6634 12.8848 16.6929 12.851 16.7177C12.8344 16.7299 12.8161 16.7436 12.7988 16.7571L12.7976 16.7581C12.7883 16.7653 12.7542 16.7919 12.7188 16.8264C12.0885 17.4403 11.737 18.2414 11.519 18.9956C11.3112 19.7146 11.2069 20.4593 11.1237 21.0532C11.1196 21.0826 11.1155 21.1117 11.1115 21.1404L13.5342 16.2407ZM2.63882 13.067C3.27454 14.3915 3.90956 15.8255 4.08618 17.4194L2.63882 13.067ZM2.63882 13.067C2.54987 12.8817 2.46112 12.6989 2.37329 12.5179M2.63882 13.067L2.37329 12.5179M2.37329 12.5179C1.81722 11.3723 1.29808 10.3029 1.00038 9.16382M2.37329 12.5179L1.00038 9.16382M1.00038 9.16382C0.553403 7.4536 0.648576 5.63026 1.7386 4.28301L1.00038 9.16382ZM8.56974 27.1766C7.4248 26.8688 6.62672 26.3457 6.05016 25.7032C5.4674 25.0538 5.07932 24.2468 4.81482 23.3303C4.54945 22.4108 4.41605 21.4086 4.32539 20.3877C4.28976 19.9864 4.25986 19.5658 4.2301 19.1473C4.18734 18.546 4.14489 17.9489 4.08619 17.4194L8.56974 27.1766Z" fill="#DDDDDD" stroke="black" stroke-width="1.5"/>
<ellipse cx="14" cy="4" rx="11" ry="4" fill="black"/>
</svg>
