<svg width="29" height="28" viewBox="0 0 29 28" fill="none" xmlns="http://www.w3.org/2000/svg">
<path d="M19.8731 26.525C19.9263 26.5222 19.9681 26.5199 20.0078 26.5166L20.0081 26.5178C22.0051 26.3646 23.3692 24.8489 23.8835 23.2409L23.8836 23.2407C24.3207 21.8751 24.3814 20.4779 24.4471 18.966C24.4541 18.8066 24.4611 18.6459 24.4685 18.4838C24.5453 16.8224 24.677 15.0405 25.4807 13.3006L25.4808 13.3003C25.7572 12.7025 26.1107 12.1394 26.4339 11.6243C26.482 11.5477 26.5294 11.4722 26.5758 11.3977C26.9467 10.8026 27.2649 10.2604 27.47 9.68823L27.4701 9.68793C28.2351 7.55682 28.1411 5.3335 26.788 3.49168L26.7877 3.49129C25.3351 1.51133 22.3089 0.72063 19.3465 0.800732L19.3463 0.80074C18.5688 0.821491 17.8229 0.8751 17.0613 0.929836C16.5861 0.963985 16.1049 0.998573 15.606 1.02589C14.3406 1.0952 13.0364 1.11068 11.6958 0.910954L11.6957 0.910934C9.93765 0.648664 7.93678 0.695652 6.11969 1.13545C4.29622 1.57679 2.72773 2.3954 1.73868 3.61592L19.8731 26.525ZM19.8731 26.525C19.3526 26.5461 18.9018 26.4091 18.614 26.1672M19.8731 26.525L18.614 26.1672M18.614 26.1672C18.3566 25.9507 18.1914 25.5559 18.1097 24.9417C18.0705 24.6472 18.0546 24.3365 18.0442 24.0177C18.0418 23.9409 18.0396 23.8618 18.0374 23.7819C18.0308 23.5462 18.0241 23.3029 18.0087 23.089L18.614 26.1672ZM13.5342 15.5738L13.6174 15.5023C14.0154 15.1608 14.4847 15.1603 14.8389 15.2606C15.1706 15.3546 15.4667 15.5485 15.6935 15.7276C16.149 16.0872 16.548 16.5679 16.7077 16.8224C17.327 17.8089 17.611 18.9341 17.7632 20.0115C17.8727 20.7865 17.919 21.5892 17.9609 22.3162C17.9764 22.5858 17.9914 22.845 18.0087 23.0885L13.5342 15.5738ZM13.5342 15.5738C13.467 15.6208 13.3814 15.6799 13.2906 15.7427L13.2725 15.7552C13.1676 15.8277 13.0573 15.904 12.9697 15.9657C12.9261 15.9964 12.8848 16.0259 12.851 16.0507C12.8344 16.0629 12.8161 16.0766 12.7988 16.0901L12.7976 16.0911C12.7883 16.0983 12.7542 16.1249 12.7188 16.1594C12.0885 16.7733 11.737 17.5744 11.519 18.3286C11.3112 19.0477 11.2069 19.7923 11.1237 20.3862C11.1196 20.4156 11.1155 20.4447 11.1115 20.4734L13.5342 15.5738ZM2.63882 12.4C3.27454 13.7245 3.90956 15.1585 4.08618 16.7524L2.63882 12.4ZM2.63882 12.4C2.54987 12.2147 2.46112 12.0319 2.37329 11.8509M2.63882 12.4L2.37329 11.8509M2.37329 11.8509C1.81722 10.7053 1.29808 9.63586 1.00038 8.49683M2.37329 11.8509L1.00038 8.49683M1.00038 8.49683C0.553403 6.78661 0.648576 4.96327 1.7386 3.61602L1.00038 8.49683ZM8.56974 26.5096C7.4248 26.2018 6.62672 25.6787 6.05016 25.0362C5.4674 24.3868 5.07932 23.5798 4.81482 22.6633C4.54945 21.7438 4.41605 20.7416 4.32539 19.7207C4.28976 19.3195 4.25986 18.8989 4.2301 18.4803C4.18734 17.879 4.14489 17.2819 4.08619 16.7524L8.56974 26.5096Z" fill="#DDDDDD" stroke="black" stroke-width="1.5"/>
<rect x="7.25195" y="7.00659" width="2.87816" height="2.26667" transform="rotate(2.41681 7.25195 7.00659)" fill="black"/>
<rect x="7.17773" y="8.93213" width="2.87484" height="2.26667" transform="rotate(2.41681 7.17773 8.93213)" fill="black"/>
<rect x="7.0957" y="12" width="2.67365" height="2.26667" transform="rotate(2.41681 7.0957 12)" fill="black"/>
<rect x="7.2373" y="15.7405" width="2" height="3.4" transform="rotate(2.41681 7.2373 15.7405)" fill="black"/>
<rect x="7.09375" y="19.1375" width="2" height="2.26667" transform="rotate(2.41681 7.09375 19.1375)" fill="black"/>
<line x1="5.44023" y1="10.8772" x2="11.4349" y2="11.1302" stroke="black" stroke-width="0.5"/>
<line x1="5.29765" y1="14.2741" x2="11.2923" y2="14.5272" stroke="black" stroke-width="0.5"/>
</svg>
