<svg width="49" height="42" viewBox="0 0 49 42" fill="none" xmlns="http://www.w3.org/2000/svg">
<rect width="24.0969" height="4.22317" transform="matrix(0.976766 -0.214308 0.220032 0.975493 24.0615 5.16406)" fill="black"/>
<rect width="12.382" height="1.12146" transform="matrix(0.976766 -0.214308 0.220032 0.975493 16.0615 8.65356)" fill="black"/>
<path d="M14.0615 15.5C14.7827 15.4931 14.5736 12.2663 14.5676 11.6342L14.5689 10.7753C14.5637 9.8002 14.2826 9.07732 15.3952 9.06228L16.1024 9.05553" stroke="black" stroke-width="1.5" stroke-linecap="square"/>
<path d="M19.8731 41.192C19.9263 41.1892 19.9681 41.1869 20.0078 41.1836L20.0081 41.1848C22.0051 41.0316 23.3692 39.5159 23.8835 37.9079L23.8836 37.9077C24.3207 36.5421 24.3814 35.1449 24.4471 33.633C24.4541 33.4736 24.4611 33.3129 24.4685 33.1508C24.5453 31.4894 24.677 29.7075 25.4807 27.9676L25.4808 27.9673C25.7572 27.3695 26.1107 26.8064 26.4339 26.2913C26.482 26.2147 26.5294 26.1392 26.5758 26.0647C26.9467 25.4696 27.2649 24.9274 27.47 24.3552L27.4701 24.3549C28.2351 22.2238 28.1411 20.0005 26.788 18.1587L26.7877 18.1583C25.3351 16.1783 22.3089 15.3876 19.3465 15.4677L19.3463 15.4677C18.5688 15.4885 17.8229 15.5421 17.0613 15.5968C16.5861 15.631 16.1049 15.6656 15.606 15.6929C14.3406 15.7622 13.0364 15.7777 11.6958 15.5779L11.6957 15.5779C9.93765 15.3157 7.93678 15.3626 6.11969 15.8024C4.29622 16.2438 2.72773 17.0624 1.73868 18.2829L19.8731 41.192ZM19.8731 41.192C19.3526 41.213 18.9018 41.0761 18.614 40.8341M19.8731 41.192L18.614 40.8341M18.614 40.8341C18.3566 40.6177 18.1914 40.2229 18.1097 39.6087C18.0705 39.3142 18.0546 39.0035 18.0442 38.6846C18.0418 38.6079 18.0396 38.5288 18.0374 38.4489C18.0308 38.2132 18.0241 37.9699 18.0087 37.756L18.614 40.8341ZM13.5342 30.2407L13.6174 30.1693C14.0154 29.8278 14.4847 29.8273 14.8389 29.9276C15.1706 30.0216 15.4667 30.2155 15.6935 30.3946C16.149 30.7542 16.548 31.2348 16.7077 31.4894C17.327 32.4759 17.611 33.6011 17.7632 34.6785C17.8727 35.4535 17.919 36.2562 17.9609 36.9832C17.9764 37.2528 17.9914 37.512 18.0087 37.7555L13.5342 30.2407ZM13.5342 30.2407C13.467 30.2878 13.3814 30.3469 13.2906 30.4097L13.2725 30.4222C13.1676 30.4947 13.0573 30.571 12.9697 30.6327C12.9261 30.6634 12.8848 30.6929 12.851 30.7177C12.8344 30.7299 12.8161 30.7436 12.7988 30.7571L12.7976 30.7581C12.7883 30.7653 12.7542 30.7919 12.7188 30.8264C12.0885 31.4403 11.737 32.2414 11.519 32.9956C11.3112 33.7146 11.2069 34.4593 11.1237 35.0532C11.1196 35.0826 11.1155 35.1117 11.1115 35.1404L13.5342 30.2407ZM2.63882 27.067C3.27454 28.3915 3.90956 29.8255 4.08618 31.4194L2.63882 27.067ZM2.63882 27.067C2.54987 26.8817 2.46112 26.6989 2.37329 26.5179M2.63882 27.067L2.37329 26.5179M2.37329 26.5179C1.81722 25.3723 1.29808 24.3029 1.00038 23.1638M2.37329 26.5179L1.00038 23.1638M1.00038 23.1638C0.553403 21.4536 0.648576 19.6303 1.7386 18.283L1.00038 23.1638ZM8.56974 41.1766C7.4248 40.8688 6.62672 40.3457 6.05016 39.7032C5.4674 39.0538 5.07932 38.2468 4.81482 37.3303C4.54945 36.4108 4.41605 35.4086 4.32539 34.3877C4.28976 33.9864 4.25986 33.5658 4.2301 33.1473C4.18734 32.546 4.14489 31.9489 4.08619 31.4194L8.56974 41.1766Z" fill="#DDDDDD" stroke="black" stroke-width="1.5"/>
<ellipse cx="14" cy="21.5" rx="5" ry="6.5" fill="black"/>
</svg>
