<svg width="46" height="35" viewBox="0 0 46 35" fill="none" xmlns="http://www.w3.org/2000/svg">
<rect x="0.7" y="14.7" width="44.6" height="16.5032" rx="8.25161" fill="#D9D9D9" stroke="black" stroke-width="1.4"/>
<path d="M13.5185 33.3931C11.3837 33.5836 9.45165 33.2129 7.45203 32.4686C7.01482 32.3057 6.62239 32.3861 6.15098 32.3955C5.12267 32.415 4.09193 32.3086 3.097 32.0784C1.93273 31.8091 0.67076 31.2921 0.356488 30.1728C0.0161628 28.9594 -0.0416437 27.5954 0.0234903 26.3523C0.101651 24.8703 0.441162 23.1508 2.17943 22.5608C3.55213 22.0953 5.21875 22.458 6.33742 23.2623C6.62727 23.4708 6.72823 23.6786 7.02459 23.5172C7.15404 23.4469 7.61079 23.0582 7.67674 22.9423C8.09523 22.2154 9.82372 22.3458 10.5695 22.408C11.5123 22.4869 12.4299 22.783 13.2115 23.2573C13.4891 23.4259 13.7163 23.7771 14.0338 23.8806C14.4556 24.0175 14.6559 23.5259 14.9669 23.2826C17.4241 21.3604 21.1774 22.7099 22.822 24.829C22.8473 24.8616 22.8758 24.8971 22.9189 24.9094C23.0761 24.9536 23.5369 24.2839 23.6346 24.1861C24.4203 23.4013 25.473 22.8381 26.612 22.5651C28.0043 22.2321 29.587 22.2372 30.7415 23.1009C30.9915 23.2877 31.3782 23.8379 31.6827 23.9146C31.9644 23.9863 32.3764 23.5107 32.5775 23.3782C32.9496 23.1335 33.3567 22.93 33.7849 22.7722C34.6479 22.4536 35.7202 22.3581 36.6467 22.4391C37.443 22.5087 38.2482 22.7925 38.7449 23.3499C39.1552 23.8097 39.4581 23.4165 39.8863 23.1407C40.006 23.0632 40.1257 22.9865 40.2495 22.9155C40.6867 22.665 41.1809 22.4942 41.693 22.4131C43.2676 22.1626 44.6713 22.8301 45.3747 24.0956C46.2565 25.6812 46.0326 27.8264 45.7443 29.5198C45.6532 30.0548 45.5123 30.6499 45.0963 31.0699C44.7152 31.4557 44.0321 31.6867 43.4997 31.8735C42.2353 32.3173 40.8487 32.4882 39.4972 32.3528C39.349 32.3376 39.2008 32.3195 39.0526 32.3296C38.5967 32.3593 38.1522 32.6583 37.7304 32.806C37.18 32.9993 36.6117 33.1506 36.0329 33.2592C34.902 33.4713 33.7312 33.5198 32.584 33.3953C31.7902 33.3092 31.4108 33.5097 30.7073 33.7913C30.2253 33.9846 29.6912 34.0469 29.1653 34.0961C27.9383 34.2098 26.704 34.2598 25.4714 34.2446C25.0618 34.2395 24.6377 34.2359 24.2338 34.1685C23.83 34.1012 23.4823 33.9347 23.0866 33.9195C22.7846 33.9086 22.4907 33.9941 22.1968 34.0592C20.3673 34.4647 18.292 34.2569 16.4446 34.0418C15.8063 33.9673 15.1435 33.8674 14.6225 33.5307C14.5069 33.4561 14.3945 33.3678 14.2545 33.3403C14.1576 33.3215 14.0574 33.3331 13.9589 33.3454C13.8107 33.3635 13.6634 33.3794 13.5168 33.3924L13.5185 33.3931Z" fill="#010101"/>
<path fill-rule="evenodd" clip-rule="evenodd" d="M22 32.6519V25.4811C21.5897 24.719 20.9624 24.0484 20.1518 23.6195C18.6855 22.8433 16.379 22.6725 15.2049 23.9749C14.7921 24.4332 14.5617 25.0298 14.5112 25.6112C14.5076 25.6533 14.5049 25.6956 14.5022 25.738C14.4928 25.885 14.4834 26.0323 14.4347 26.1723C14.385 26.3149 14.2768 26.3185 14.1774 26.2084C14.1399 26.1665 14.1227 26.1142 14.1059 26.063L14.105 26.06C13.7011 24.8285 12.8495 23.7751 11.4711 23.3002C10.7965 23.068 10.1691 23.0683 9.48564 23.0686C9.37639 23.0686 9.26569 23.0687 9.15315 23.0678C8.34304 23.0613 7.74137 23.7136 7.5134 24.3348C7.43574 24.5467 7.38171 24.7647 7.3277 24.9827C7.29904 25.0984 7.27039 25.2141 7.23821 25.3288C7.1169 25.7632 6.84496 25.2933 6.75703 25.1261C6.26283 24.1878 5.06192 23.0649 3.81379 23.0099C2.9874 22.9729 2.19276 23.0099 1.65052 23.6549C1.35009 24.0126 1.22308 24.4607 1.14492 24.9016C0.894151 26.3149 1.00325 27.7448 1.21168 29.1551C1.27844 29.6047 1.46652 30.0036 1.90454 30.2592C2.15531 30.4054 2.44108 30.4959 2.72686 30.5777C3.78285 30.8811 4.8486 31.0606 5.96402 31.0071C6.39961 30.9861 6.86776 30.918 7.17226 30.6407C7.04688 30.7566 7.95875 31.3242 8.05564 31.3705C8.42039 31.5457 8.82341 31.6529 9.2248 31.7412C10.5031 32.0214 12.1102 32.2617 13.4137 31.9982C13.528 31.9752 13.6617 31.9143 13.7993 31.8517C14.0814 31.7233 14.38 31.5873 14.5617 31.7542C14.6266 31.8138 14.6867 31.8708 14.744 31.9252C15.0945 32.2578 15.3406 32.4913 15.936 32.589C17.5961 32.8634 19.2945 32.9343 20.9782 32.8272C21.3257 32.805 21.6819 32.7729 22 32.6519Z" fill="white"/>
<path d="M15 2.76237L15 10.5625" stroke="black" stroke-width="1.5" stroke-linecap="square"/>
<path d="M11.9882 5.7146L15.0002 2.43752L18.0127 5.7146" stroke="black" stroke-width="1.5" stroke-linecap="square"/>
<path d="M30 10.2376L30 2.4375" stroke="black" stroke-width="1.5" stroke-linecap="square"/>
<path d="M33.0118 7.2854L29.9998 10.5625L26.9873 7.2854" stroke="black" stroke-width="1.5" stroke-linecap="square"/>
</svg>
