<svg width="43" height="39" viewBox="0 0 43 39" fill="none" xmlns="http://www.w3.org/2000/svg">
<path d="M22.4682 37.578C22.5287 37.5749 22.5777 37.5722 22.6247 37.5685L22.625 37.5698C24.9461 37.3974 26.5071 35.6991 27.0908 33.9349L27.0909 33.9347C27.5871 32.4363 27.656 30.9038 27.7302 29.2533C27.738 29.0788 27.7459 28.9031 27.7544 28.7259C27.8412 26.9104 27.9901 24.9722 28.8936 23.0815L28.8938 23.0812C29.2044 22.4319 29.6015 21.8204 29.967 21.2575C30.0214 21.1737 30.0751 21.091 30.1277 21.0094C30.5471 20.3589 30.9099 19.7618 31.144 19.1306L31.1441 19.1303C32.0125 16.7922 31.9091 14.3463 30.3645 12.3141L30.3642 12.3137C28.6958 10.1158 25.2296 9.24827 21.864 9.33623L21.8637 9.33624C20.9831 9.35896 20.1344 9.41788 19.2709 9.47783C18.7343 9.51509 18.1919 9.55274 17.6328 9.58234C16.2056 9.65789 14.741 9.67436 13.2378 9.45789L13.2377 9.45787C11.2364 9.16931 8.9588 9.22081 6.88848 9.70513C4.81015 10.1913 3.01462 11.0952 1.88108 12.4474L22.4682 37.578ZM22.4682 37.578C21.8564 37.602 21.3161 37.4468 20.9668 37.1628M22.4682 37.578L20.9668 37.1628M20.9668 37.1628C20.6521 36.9071 20.4643 36.4554 20.372 35.7848C20.3274 35.4607 20.3094 35.1195 20.2977 34.7709C20.2948 34.6865 20.2923 34.5998 20.2898 34.5123C20.2825 34.2548 20.2749 33.9903 20.2576 33.7575M20.9668 37.1628L14.4534 26.2254C14.4915 26.1895 14.5283 26.1621 14.5364 26.156C14.5549 26.142 14.5748 26.1276 14.5932 26.1145C14.6305 26.088 14.6766 26.0562 14.7257 26.0228C14.8244 25.9557 14.9486 25.8726 15.0672 25.7933L15.0873 25.7799C15.1918 25.7102 15.2904 25.6443 15.3674 25.5921M20.2576 33.7575C20.2576 33.7577 20.2576 33.7579 20.2576 33.7581L19.5096 33.8132L20.2576 33.7575ZM20.2576 33.7575C20.2379 33.4903 20.2209 33.2064 20.2033 32.9114C20.156 32.1177 20.1039 31.2437 19.9804 30.3989C19.8087 29.2241 19.4889 28.0033 18.7957 26.936M18.7957 26.936C18.6192 26.6642 18.1743 26.146 17.668 25.7596C17.4151 25.5666 17.0933 25.3645 16.7393 25.2676C16.3666 25.1655 15.8809 25.1661 15.465 25.5112L15.3674 25.5921M18.7957 26.936L18.1667 27.3444L18.7957 26.9359C18.7957 26.9359 18.7957 26.9359 18.7957 26.936ZM15.3674 25.5921C15.3737 25.5879 15.3799 25.5837 15.3859 25.5796C15.4258 25.5525 15.4545 25.5327 15.4723 25.5201C15.4736 25.5192 15.4748 25.5183 15.476 25.5175C15.4862 25.5101 15.484 25.5115 15.4758 25.5179L15.4756 25.5181C15.4752 25.5184 15.4741 25.5192 15.4726 25.5204C15.4659 25.5258 15.4496 25.5392 15.4303 25.5576C15.4217 25.5658 15.3858 25.5997 15.3479 25.6506C15.3308 25.6735 15.2877 25.7334 15.253 25.8204C15.2272 25.8849 15.1386 26.1294 15.2682 26.4111L15.8649 26.1368L15.9496 26.0979L15.3102 26.4898L15.3066 26.484L15.3051 26.4815L15.3046 26.4807L15.3045 26.4805L15.3045 26.4805L15.3044 26.4805L14.9646 25.9263L15.3674 25.5921ZM2.89013 22.0984C3.60825 23.5445 4.32249 25.1044 4.52115 26.8371L2.89013 22.0984ZM2.89013 22.0984C2.7898 21.8964 2.6896 21.6969 2.59038 21.4993M2.89013 22.0984L2.59038 21.4993M2.59038 21.4993C1.96194 20.2481 1.37247 19.0744 1.03455 17.8248M2.59038 21.4993L1.03455 17.8248M1.03455 17.8248C0.527811 15.9507 0.631155 13.9408 1.88098 12.4475L1.03455 17.8248ZM12.6703 30.809C12.6657 30.8409 12.6611 30.8725 12.6566 30.9036L14.4533 26.2255C13.755 26.8829 13.3614 27.7456 13.1158 28.5669C12.8819 29.3491 12.7644 30.1597 12.6703 30.809ZM9.65483 37.5572C8.33956 37.2155 7.42035 36.6334 6.75718 35.9192C6.08853 35.199 5.64651 34.3078 5.34634 33.3025C5.04506 32.2935 4.89398 31.1952 4.79143 30.079C4.75098 29.6387 4.71715 29.1787 4.68351 28.7213C4.63528 28.0655 4.58747 27.4153 4.52116 26.8372L9.65483 37.5572Z" fill="#DDDDDD" stroke="black" stroke-width="1.5"/>
<ellipse cx="17.3018" cy="12.7976" rx="4.32527" ry="4.26586" fill="black"/>
<rect x="12.9766" y="6.39893" width="8.65054" height="6.39878" fill="black"/>
<rect width="30.2574" height="2.13434" transform="matrix(0.976766 -0.214308 0.220032 0.975493 12.9766 6.48438)" fill="black"/>
</svg>
