<svg width="49" height="45" viewBox="0 0 49 45" fill="none" xmlns="http://www.w3.org/2000/svg">
<path d="M22.4682 43.5789C22.5287 43.5758 22.5777 43.5732 22.6247 43.5695L22.625 43.5707C24.9461 43.3983 26.5071 41.7001 27.0908 39.9358L27.0909 39.9357C27.5871 38.4373 27.656 36.9048 27.7302 35.2543C27.738 35.0798 27.7459 34.9041 27.7544 34.7269C27.8412 32.9114 27.9901 30.9732 28.8936 29.0825L28.8938 29.0822C29.2044 28.4329 29.6015 27.8213 29.967 27.2584C30.0214 27.1747 30.0751 27.092 30.1277 27.0104C30.5471 26.3599 30.9099 25.7627 31.144 25.1316L31.1441 25.1313C32.0125 22.7932 31.9091 20.3472 30.3645 18.3151L30.3642 18.3147C28.6958 16.1168 25.2296 15.2492 21.864 15.3372L21.8637 15.3372C20.9831 15.3599 20.1344 15.4189 19.2709 15.4788C18.7343 15.5161 18.1919 15.5537 17.6328 15.5833C16.2056 15.6589 14.741 15.6753 13.2378 15.4589L13.2377 15.4588C11.2364 15.1703 8.9588 15.2218 6.88848 15.7061C4.81015 16.1923 3.01462 17.0961 1.88108 18.4483L22.4682 43.5789ZM22.4682 43.5789C21.8564 43.603 21.3161 43.4477 20.9668 43.1638M22.4682 43.5789L20.9668 43.1638M20.9668 43.1638C20.6521 42.9081 20.4643 42.4564 20.372 41.7858C20.3274 41.4617 20.3094 41.1205 20.2977 40.7718C20.2948 40.6875 20.2923 40.6008 20.2898 40.5133C20.2825 40.2557 20.2749 39.9913 20.2576 39.7585M20.9668 43.1638L14.4534 32.2264C14.4915 32.1905 14.5283 32.1631 14.5364 32.1569C14.5549 32.1429 14.5748 32.1286 14.5932 32.1155C14.6305 32.089 14.6766 32.0572 14.7257 32.0238C14.8244 31.9566 14.9486 31.8736 15.0672 31.7943L15.0873 31.7809C15.1918 31.7111 15.2904 31.6452 15.3674 31.5931M20.2576 39.7585C20.2576 39.7587 20.2576 39.7589 20.2576 39.759L19.5096 39.8142L20.2576 39.7585ZM20.2576 39.7585C20.2379 39.4913 20.2209 39.2074 20.2033 38.9124C20.156 38.1187 20.1039 37.2447 19.9804 36.3999C19.8087 35.2251 19.4889 34.0043 18.7957 32.9369M18.7957 32.9369C18.6192 32.6652 18.1743 32.1469 17.668 31.7606C17.4151 31.5676 17.0933 31.3654 16.7393 31.2685C16.3666 31.1665 15.8809 31.1671 15.465 31.5122L15.3674 31.5931M18.7957 32.9369L18.1667 33.3454L18.7957 32.9369C18.7957 32.9369 18.7957 32.9369 18.7957 32.9369ZM15.3674 31.5931C15.3737 31.5888 15.3799 31.5846 15.3859 31.5806C15.4258 31.5535 15.4545 31.5337 15.4723 31.521C15.4736 31.5201 15.4748 31.5193 15.476 31.5184C15.4862 31.5111 15.484 31.5125 15.4758 31.5189L15.4756 31.519C15.4752 31.5194 15.4741 31.5202 15.4726 31.5214C15.4659 31.5268 15.4496 31.5402 15.4303 31.5585C15.4217 31.5667 15.3858 31.6007 15.3479 31.6516C15.3308 31.6745 15.2877 31.7343 15.253 31.8214C15.2272 31.8858 15.1386 32.1304 15.2682 32.4121L15.8649 32.1378L15.9496 32.0988L15.3102 32.4908L15.3066 32.485L15.3051 32.4825L15.3046 32.4817L15.3045 32.4815L15.3045 32.4815L15.3044 32.4814L14.9646 31.9272L15.3674 31.5931ZM2.89013 28.0994C3.60825 29.5455 4.32249 31.1054 4.52115 32.8381L2.89013 28.0994ZM2.89013 28.0994C2.7898 27.8974 2.6896 27.6979 2.59038 27.5003M2.89013 28.0994L2.59038 27.5003M2.59038 27.5003C1.96194 26.249 1.37247 25.0754 1.03455 23.8257M2.59038 27.5003L1.03455 23.8257M1.03455 23.8257C0.527811 21.9517 0.631155 19.9418 1.88098 18.4485L1.03455 23.8257ZM12.6703 36.81C12.6657 36.8419 12.6611 36.8734 12.6566 36.9045L14.4533 32.2265C13.755 32.8839 13.3614 33.7465 13.1158 34.5679C12.8819 35.3501 12.7644 36.1607 12.6703 36.81ZM9.65483 43.5582C8.33956 43.2165 7.42035 42.6344 6.75718 41.9201C6.08853 41.2 5.64651 40.3088 5.34634 39.3035C5.04506 38.2945 4.89398 37.1961 4.79143 36.08C4.75098 35.6397 4.71715 35.1796 4.68351 34.7223C4.63528 34.0665 4.58747 33.4163 4.52116 32.8381L9.65483 43.5582Z" fill="#DDDDDD" stroke="black" stroke-width="1.5"/>
<rect width="24.0969" height="4.22317" transform="matrix(0.976766 -0.214308 0.220032 0.975493 24 5.16406)" fill="black"/>
<rect width="12.382" height="1.12146" transform="matrix(0.976766 -0.214308 0.220032 0.975493 16 8.65356)" fill="black"/>
<path d="M14 15.5C14.7212 15.4931 14.5121 12.2663 14.506 11.6342L14.5074 10.7753C14.5021 9.8002 14.221 9.07732 15.3337 9.06228L16.0409 9.05553" stroke="black" stroke-width="1.5" stroke-linecap="square"/>
</svg>
