<svg width="31" height="37" viewBox="0 0 31 37" fill="none" xmlns="http://www.w3.org/2000/svg">
<path d="M19.8731 35.525C19.9263 35.5222 19.9681 35.5199 20.0078 35.5166L20.0081 35.5178C22.0051 35.3646 23.3692 33.8489 23.8835 32.2409L23.8836 32.2407C24.3207 30.8751 24.3814 29.4779 24.4471 27.966C24.4541 27.8066 24.4611 27.6459 24.4685 27.4838C24.5453 25.8224 24.677 24.0405 25.4807 22.3006L25.4808 22.3003C25.7572 21.7025 26.1107 21.1394 26.4339 20.6243C26.482 20.5477 26.5294 20.4722 26.5758 20.3977C26.9467 19.8026 27.2649 19.2604 27.47 18.6882L27.4701 18.6879C28.2351 16.5568 28.1411 14.3335 26.788 12.4917L26.7877 12.4913C25.3351 10.5113 22.3089 9.72063 19.3465 9.80073L19.3463 9.80074C18.5688 9.82149 17.8229 9.8751 17.0613 9.92984C16.5861 9.96399 16.1049 9.99857 15.606 10.0259C14.3406 10.0952 13.0364 10.1107 11.6958 9.91095L11.6957 9.91093C9.93765 9.64866 7.93678 9.69565 6.11969 10.1354C4.29622 10.5768 2.72773 11.3954 1.73868 12.6159L19.8731 35.525ZM19.8731 35.525C19.3526 35.5461 18.9018 35.4091 18.614 35.1672M19.8731 35.525L18.614 35.1672M18.614 35.1672C18.3566 34.9507 18.1914 34.5559 18.1097 33.9417C18.0705 33.6472 18.0546 33.3365 18.0442 33.0177C18.0418 32.9409 18.0396 32.8618 18.0374 32.7819C18.0308 32.5462 18.0241 32.3029 18.0087 32.089L18.614 35.1672ZM13.5342 24.5738L13.6174 24.5023C14.0154 24.1608 14.4847 24.1603 14.8389 24.2606C15.1706 24.3546 15.4667 24.5485 15.6935 24.7276C16.149 25.0872 16.548 25.5679 16.7077 25.8224C17.327 26.8089 17.611 27.9341 17.7632 29.0115C17.8727 29.7865 17.919 30.5892 17.9609 31.3162C17.9764 31.5858 17.9914 31.845 18.0087 32.0885L13.5342 24.5738ZM13.5342 24.5738C13.467 24.6208 13.3814 24.6799 13.2906 24.7427L13.2725 24.7552C13.1676 24.8277 13.0573 24.904 12.9697 24.9657C12.9261 24.9964 12.8848 25.0259 12.851 25.0507C12.8344 25.0629 12.8161 25.0766 12.7988 25.0901L12.7976 25.0911C12.7883 25.0983 12.7542 25.1249 12.7188 25.1594C12.0885 25.7733 11.737 26.5744 11.519 27.3286C11.3112 28.0477 11.2069 28.7923 11.1237 29.3862C11.1196 29.4156 11.1155 29.4447 11.1115 29.4734L13.5342 24.5738ZM2.63882 21.4C3.27454 22.7245 3.90956 24.1585 4.08618 25.7524L2.63882 21.4ZM2.63882 21.4C2.54987 21.2147 2.46112 21.0319 2.37329 20.8509M2.63882 21.4L2.37329 20.8509M2.37329 20.8509C1.81722 19.7053 1.29808 18.6359 1.00038 17.4968M2.37329 20.8509L1.00038 17.4968M1.00038 17.4968C0.553403 15.7866 0.648576 13.9633 1.7386 12.616L1.00038 17.4968ZM8.56974 35.5096C7.4248 35.2018 6.62672 34.6787 6.05016 34.0362C5.4674 33.3868 5.07932 32.5798 4.81482 31.6633C4.54945 30.7438 4.41605 29.7416 4.32539 28.7207C4.28976 28.3195 4.25986 27.8989 4.2301 27.4803C4.18734 26.879 4.14489 26.2819 4.08619 25.7524L8.56974 35.5096Z" fill="#DDDDDD" stroke="black" stroke-width="1.5"/>
<path d="M23.5 3L24.7154 6.28459L28 7.5L24.7154 8.71541L23.5 12L22.2846 8.71541L19 7.5L22.2846 6.28459L23.5 3Z" fill="black"/>
<path d="M28.5 0L29.1752 1.82477L31 2.5L29.1752 3.17523L28.5 5L27.8248 3.17523L26 2.5L27.8248 1.82477L28.5 0Z" fill="black"/>
</svg>
