<svg width="40" height="40" viewBox="0 0 40 40" fill="none" xmlns="http://www.w3.org/2000/svg">
<path d="M25.7773 32.9201C25.8331 32.9174 25.8779 32.915 25.9208 32.9117L25.921 32.9129C28.0526 32.7597 29.4735 31.2532 30.0024 29.7063L30.0024 29.7061C30.4566 28.3788 30.5198 27.0213 30.5886 25.5419C30.5958 25.3863 30.6031 25.2293 30.6109 25.0708C30.6912 23.4447 30.8293 21.692 31.6741 19.9811L31.6742 19.9808C31.9642 19.3942 32.3349 18.8418 32.6726 18.3384C32.7228 18.2635 32.7724 18.1897 32.8208 18.117C33.2088 17.5345 33.5394 17.0071 33.7519 16.4525L33.752 16.4522C34.5454 14.3848 34.4493 12.2335 33.0433 10.4433L33.043 10.4429C32.2907 9.48364 31.1291 8.79823 29.7283 8.36327C28.3312 7.92942 26.7458 7.76106 25.2206 7.79964L25.2204 7.79964C24.4065 7.81996 23.623 7.87262 22.8251 7.92624C22.3287 7.9596 21.8268 7.99333 21.3084 8.01989C19.9879 8.08755 18.6309 8.1024 17.2376 7.90821L17.2375 7.90819C15.3904 7.65042 13.2881 7.69651 11.3781 8.12897C9.45863 8.56355 7.81064 9.3697 6.77506 10.5653C5.64415 11.8729 5.54637 13.6343 6.00954 15.292C6.31924 16.4005 6.8595 17.4417 7.44099 18.5624C7.53283 18.7395 7.62571 18.9184 7.71886 19.1C8.3828 20.394 9.05088 21.8035 9.23686 23.3734L25.7773 32.9201ZM25.7773 32.9201C25.2154 32.9415 24.7264 32.8027 24.4162 32.5587M25.7773 32.9201L24.4162 32.5587M24.4162 32.5587C24.1468 32.3467 23.9792 31.9688 23.8954 31.3798C23.855 31.0952 23.8384 30.7941 23.8276 30.4828C23.825 30.4086 23.8227 30.3319 23.8204 30.2541C23.8136 30.0232 23.8065 29.783 23.7903 29.5722C23.7723 29.3357 23.7567 29.0832 23.7405 28.8202C23.6967 28.1085 23.648 27.3191 23.5331 26.5583C23.3732 25.4991 23.0742 24.3914 22.4233 23.4214C22.2548 23.1703 21.8376 22.7008 21.3641 22.3511C21.1271 22.176 20.8239 21.9914 20.4894 21.9028C20.1395 21.8101 19.6766 21.808 19.2753 22.1302L19.1872 22.2009C19.1166 22.2472 19.0265 22.3054 18.931 22.3672L18.9122 22.3793C18.8026 22.4502 18.6874 22.5247 18.5959 22.585C18.5505 22.615 18.5075 22.6436 18.4725 22.6677C18.4553 22.6796 18.4364 22.6927 18.4187 22.7057L18.4174 22.7066C18.4079 22.7135 18.3731 22.7389 18.3368 22.7721C17.6779 23.3723 17.3075 24.1597 17.0774 24.9044C16.8589 25.6117 16.7492 26.3438 16.6624 26.924C16.658 26.9531 16.6537 26.9817 16.6495 27.01L24.4162 32.5587Z" fill="#DDDDDD" stroke="black" stroke-width="1.5"/>
<path fill-rule="evenodd" clip-rule="evenodd" d="M28 40H37C38.6569 40 40 38.6569 40 37V28H38.5V37C38.5 37.8284 37.8284 38.5 37 38.5H28V40ZM28 1.5H37C37.8284 1.5 38.5 2.17157 38.5 3V12H40V3C40 1.34315 38.6569 0 37 0H28V1.5ZM12 0V1.5H3C2.17157 1.5 1.5 2.17157 1.5 3V12H0V3C0 1.34315 1.34315 0 3 0H12ZM12 38.5V40H3C1.34315 40 0 38.6569 0 37V28H1.5V37C1.5 37.8284 2.17157 38.5 3 38.5H12Z" fill="black"/>
</svg>
